<?xml version="1.0" standalone="no"?>
<!DOCTYPE svg PUBLIC "-//W3C//DTD SVG 1.1//EN" "http://www.w3.org/Graphics/SVG/1.1/DTD/svg11.dtd" >
<svg xmlns="http://www.w3.org/2000/svg">
<metadata></metadata>
<defs>
<font id="verbexcondextrabold_italic" horiz-adv-x="1116" >
<font-face units-per-em="2048" ascent="1638" descent="-410" />
<missing-glyph horiz-adv-x="421" />
<glyph unicode="&#xfb01;" horiz-adv-x="1228" d="M-184 -221q150 55 186.5 102t60.5 189l134 759h-117l45 246h117l4 25q33 203 108.5 298t216.5 95q121 0 287 -90l-115 -227q-61 29 -100 28q-57 0 -76 -92l-6 -37h207l-45 -246h-205l-129 -733q-18 -106 -28.5 -152t-34 -115t-52 -99.5t-82 -71.5t-127 -68.5 t-182.5 -56.5zM700 0l191 1075h319l-190 -1075h-320zM907 1212l49 275h332l-47 -275h-334z" />
<glyph unicode="&#xfb02;" horiz-adv-x="1232" d="M-184 -221q150 55 186.5 102t60.5 189l134 759h-117l45 246h117l4 25q33 203 108.5 298t216.5 95q121 0 287 -90l-115 -227q-61 29 -100 28q-57 0 -76 -92l-6 -37h207l-45 -246h-205l-129 -733q-18 -106 -28.5 -152t-34 -115t-52 -99.5t-82 -71.5t-127 -68.5 t-182.5 -56.5zM702 0l263 1493h319l-262 -1493h-320z" />
<glyph unicode="&#xfb03;" horiz-adv-x="1937" d="M-184 -221q150 55 185.5 101t61.5 190l134 759h-117l45 246h115l4 25q35 203 111.5 298t222.5 95q154 0 346 -111l-148 -215q-90 37 -133 37q-57 0 -76 -92l-6 -37h207l-45 -246h-205l-129 -733q-43 -233 -80 -309q-59 -119 -227 -188q-78 -33 -199 -66zM524 -221 q150 55 187 102t61 189l133 759h-117l46 246h116l4 25q33 203 109 298t217 95q121 0 287 -90l-115 -227q-61 29 -100 28q-57 0 -76 -92l-6 -37h207l-45 -246h-205l-129 -733q-18 -106 -28.5 -152t-34 -115t-52.5 -99.5t-82 -71.5t-127 -68.5t-182 -56.5zM1409 0l190 1075 h320l-190 -1075h-320zM1616 1212l49 275h332l-47 -275h-334z" />
<glyph unicode="&#xfb04;" horiz-adv-x="1941" d="M-184 -221q150 55 185.5 101t61.5 190l134 759h-117l45 246h115l4 25q35 203 111.5 298t222.5 95q154 0 346 -111l-148 -215q-90 37 -133 37q-57 0 -76 -92l-6 -37h207l-45 -246h-205l-129 -733q-43 -233 -80 -309q-59 -119 -227 -188q-78 -33 -199 -66zM524 -221 q150 55 187 102t61 189l133 759h-117l46 246h116l4 25q33 203 109 298t217 95q121 0 287 -90l-115 -227q-61 29 -100 28q-57 0 -76 -92l-6 -37h207l-45 -246h-205l-129 -733q-18 -106 -28.5 -152t-34 -115t-52.5 -99.5t-82 -71.5t-127 -68.5t-182 -56.5zM1413 0l262 1493 h320l-262 -1493h-320z" />
<glyph horiz-adv-x="2048" />
<glyph horiz-adv-x="2048" />
<glyph unicode="&#xd;" horiz-adv-x="681" />
<glyph unicode=" "  horiz-adv-x="421" />
<glyph unicode="&#x09;" horiz-adv-x="421" />
<glyph unicode="&#xa0;" horiz-adv-x="421" />
<glyph unicode="!" horiz-adv-x="563" d="M14 0l60 336h317l-57 -336h-320zM162 475l69 959h390l-269 -959h-190z" />
<glyph unicode="&#x22;" horiz-adv-x="813" d="M162 864l49 570h299l-154 -570h-194zM539 864l49 570h299l-154 -570h-194z" />
<glyph unicode="#" horiz-adv-x="1245" d="M10 309l45 252h201l94 311h-172l45 252h203l92 310h246l-92 -310h184l92 310h244l-92 -310h170l-43 -252h-203l-94 -311h172l-43 -252h-203l-92 -309h-246l92 309h-184l-92 -309h-246l92 309h-170zM502 561h184l94 311h-184z" />
<glyph unicode="$" horiz-adv-x="1169" d="M-8 188l184 238q233 -158 383 -158q66 0 108 34t42 91q0 31 -12.5 54.5t-43 46t-57.5 37t-78 40t-82 43.5q-135 84 -206.5 179.5t-71.5 228.5q0 180 124 304t345 130l32 184h228l-37 -210q168 -43 336 -146l-187 -240q-76 47 -171 84t-164 37q-61 0 -103.5 -30.5 t-42.5 -92.5q0 -29 11.5 -50t39 -40.5t52 -34t76 -40t85.5 -43.5q131 -82 209 -177.5t78 -238.5q0 -178 -127 -305t-350 -136l-31 -182h-227l37 207q-203 49 -379 186z" />
<glyph unicode="%" horiz-adv-x="1742" d="M129 991q0 111 38 213.5t126 177t211 74.5q137 0 229 -76.5t92 -226.5q0 -111 -36.5 -213t-126 -177t-211.5 -75q-137 0 -229.5 78t-92.5 225zM342 0l850 1434h242l-848 -1434h-244zM360 991q1 -114 95 -114q68 0 103.5 96t35.5 180q0 115 -94 115q-68 0 -104 -96.5 t-36 -180.5zM954 281q0 111 38 213t127 176.5t212 74.5q137 0 228.5 -76.5t91.5 -226.5q0 -111 -37 -213t-126 -177t-212 -75q-137 0 -229.5 78t-92.5 226zM1186 281q0 -115 96 -115q68 0 103.5 96t35.5 180q0 115 -96 115q-68 0 -103.5 -96t-35.5 -180z" />
<glyph unicode="&#x26;" horiz-adv-x="1277" d="M47 328q0 141 82 244.5t227 201.5q-96 162 -96 291q0 174 116 282.5t298 108.5q164 0 256 -86t92 -215q0 -123 -82 -223.5t-227 -210.5l127 -186q57 100 92 221h317q-70 -252 -243 -465l198 -291h-344l-63 94q-170 -117 -363 -117q-180 0 -283.5 97.5t-103.5 253.5z M356 346q0 -51 30 -85t85 -34q88 0 186 82l-161 248q-139 -115 -140 -211zM541 1067q0 -66 41 -143q154 109 153 204q0 90 -78 91q-53 0 -84.5 -45.5t-31.5 -106.5z" />
<glyph unicode="'" horiz-adv-x="438" d="M162 864l49 570h299l-154 -570h-194z" />
<glyph unicode="(" horiz-adv-x="632" d="M14 -11.5q-2 97.5 23 240.5l174 979q14 78 22.5 119t25.5 95.5t38.5 83t57.5 64.5t85 58.5t117 46t160 43.5l47 -196q-119 -49 -155 -93.5t-54 -146.5l-203 -1151q-23 -102 -4 -151.5t109 -96.5l-92 -176q-188 49 -268.5 116.5t-82.5 165z" />
<glyph unicode=")" horiz-adv-x="624" d="M-102 -96q119 49 154.5 93t53.5 146l203 1151q23 102 4.5 151.5t-108.5 96.5l92 176q188 -49 268 -116.5t82.5 -165t-22.5 -240.5l-174 -979q-14 -78 -22.5 -119t-26 -95t-39 -83t-57.5 -64.5t-85 -58t-116.5 -46t-159.5 -44.5z" />
<glyph unicode="*" horiz-adv-x="933" d="M139 1038l318 19l-291 129l168 203l176 -269l-37 318l262 -45l-143 -287l254 192l90 -249l-303 -21l276 -127l-170 -203l-170 254l33 -305l-260 45l143 287l-256 -191z" />
<glyph unicode="+" horiz-adv-x="1142" d="M127 559l45 248h307l60 332h249l-59 -332h313l-43 -248h-313l-57 -332h-252l59 332h-309z" />
<glyph unicode="," horiz-adv-x="514" d="M-55 -233l184 233h-139l63 367h318l-56 -410l-309 -301z" />
<glyph unicode="-" horiz-adv-x="768" d="M70 449l45 268h571l-45 -268h-571z" />
<glyph unicode="." horiz-adv-x="512" d="M-10 0l65 367h318l-66 -367h-317z" />
<glyph unicode="/" horiz-adv-x="858" d="M-100 -184l852 1802h245l-854 -1802h-243z" />
<glyph unicode="0" horiz-adv-x="1226" d="M88 483q0 63 9 146.5t32 198t70 221t110.5 200.5t167 150.5t228.5 56.5q131 0 226 -42t146 -115.5t74 -158.5t23 -190q0 -63 -9.5 -146t-32 -199t-68.5 -222.5t-110.5 -200.5t-167 -150.5t-229.5 -56.5q-131 0 -226 42t-146.5 117t-74 160t-22.5 189zM414 446 q0 -96 27.5 -148t111.5 -52q76 0 136.5 96t93 228t50 244t17.5 171q0 96 -28.5 149.5t-112.5 53.5q-76 0 -136.5 -96.5t-93.5 -229.5t-49 -244.5t-16 -171.5z" />
<glyph unicode="1" horiz-adv-x="788" d="M100 1208l383 226h318l-252 -1434h-334l193 1092l-197 -113z" />
<glyph unicode="2" horiz-adv-x="1099" d="M-47 0l24 152q18 109 63.5 199.5t118 166.5t130 123t149.5 111q123 82 173.5 118.5t99.5 93t49 105.5q0 43 -30 70.5t-87 27.5q-125 0 -319 -129l-123 238q244 180 504 180q193 0 294 -100.5t101 -251.5q0 -82 -33 -162t-74 -134t-114.5 -116.5t-114.5 -90.5t-115 -77 q-115 -74 -168 -127t-63 -108h540l-51 -289h-954z" />
<glyph unicode="3" horiz-adv-x="1099" d="M-45 190l178 213q203 -133 328 -133q88 0 142 50.5t54 125.5q0 166 -274 166h-47l49 289h57q98 0 187.5 43t89.5 127q0 94 -109 94q-119 0 -309 -112l-106 231q248 172 501 172q182 0 275.5 -88t93.5 -223q0 -231 -256 -365q84 -41 135 -127t51 -198q0 -84 -28.5 -164 t-85 -152.5t-158.5 -117t-234 -44.5q-292 0 -534 213z" />
<glyph unicode="4" horiz-adv-x="1210" d="M-25 262l43 244l670 928h445l-156 -883h176l-51 -289h-176l-45 -262h-334l45 262h-617zM348 551h295l96 543z" />
<glyph unicode="5" horiz-adv-x="1091" d="M-29 195l189 217q152 -135 280 -136q92 0 157 61.5t65 164.5q0 72 -39 118t-115 46q-84 0 -213 -80l-174 116l192 732h803l-51 -289h-514l-45 -211q55 12 117 12q186 0 283.5 -117.5t97.5 -298.5q0 -225 -144.5 -389t-392.5 -164q-279 0 -496 218z" />
<glyph unicode="6" horiz-adv-x="1157" d="M68 506q0 184 62.5 357t172 304t270 210t347.5 79q72 0 134 -11t89 -24l24 -10l-131 -254q-49 14 -112 14q-145 0 -265 -86t-188 -239q98 82 236 82q164 0 261 -114t97 -288q0 -223 -139.5 -386t-372.5 -163q-229 0 -357 153t-128 376zM401 487q0 -100 40 -162.5 t114 -62.5q84 0 130 73t46 171q0 70 -35.5 117t-107.5 47q-57 0 -107.5 -35t-77.5 -80q-2 -23 -2 -68z" />
<glyph unicode="7" horiz-adv-x="940" d="M45 0q33 184 120 388t193.5 369t169 251t105.5 137h-496l49 289h873l-49 -271q-20 -25 -56 -67.5t-130.5 -177t-171.5 -265.5t-153.5 -312t-103.5 -341h-350z" />
<glyph unicode="8" horiz-adv-x="1173" d="M23 346q0 276 342 442q-139 117 -140 279q0 170 129 279.5t353 109.5q201 0 308 -90t107 -236q0 -219 -254 -362q203 -137 203 -346q0 -199 -152.5 -322t-416.5 -123q-236 0 -357.5 98.5t-121.5 270.5zM362 385q0 -68 41 -106.5t117 -38.5q92 0 153.5 56t61.5 140 q0 117 -139 205q-233 -109 -234 -256zM539 1044q0 -86 94 -147q168 78 168 197q0 47 -29 77.5t-82 30.5q-68 0 -109.5 -48.5t-41.5 -109.5z" />
<glyph unicode="9" horiz-adv-x="1157" d="M25 23l131 253q46 -14 112 -14q145 0 264 87t187 241q-96 -84 -234 -84q-162 0 -260 113.5t-98 287.5q0 223 139.5 386t372.5 163q229 0 357 -152.5t128 -375.5q0 -184 -62.5 -357.5t-172 -304.5t-270 -210t-347.5 -79q-72 0 -134 11.5t-89 23.5zM461 928 q0 -70 35.5 -117t107.5 -47q55 0 105.5 35t76.5 80q4 23 5 67q0 100 -40 162.5t-114 62.5q-84 0 -130 -72.5t-46 -170.5z" />
<glyph unicode=":" horiz-adv-x="540" d="M2 0l66 367h317l-66 -367h-317zM113 627l65 366h318l-66 -366h-317z" />
<glyph unicode=";" horiz-adv-x="546" d="M-43 -233l184 233h-139l64 367h317l-55 -410l-310 -301zM113 627l65 366h318l-66 -366h-317z" />
<glyph unicode="&#x3c;" horiz-adv-x="1142" d="M102 569l41 228l944 415l-55 -311l-579 -229l497 -234l-49 -284z" />
<glyph unicode="=" horiz-adv-x="1142" d="M90 362l45 252h871l-45 -252h-871zM160 758l45 252h870l-45 -252h-870z" />
<glyph unicode="&#x3e;" horiz-adv-x="1142" d="M80 154l55 311l580 229l-498 234l49 284l799 -415l-41 -228z" />
<glyph unicode="?" horiz-adv-x="962" d="M119 0l59 336h318l-60 -336h-317zM162 1309q213 147 440 147q174 0 276.5 -92t102.5 -246q0 -86 -34 -160.5t-84 -126t-116.5 -92.5t-126 -64.5t-118.5 -37.5l-43 -162h-195l43 346q334 82 334 240q0 47 -28.5 76.5t-88.5 29.5q-92 0 -245 -96z" />
<glyph unicode="@" horiz-adv-x="1640" d="M45 336q0 201 62.5 391.5t176 342t290 243.5t382.5 92q170 0 295 -60.5t192.5 -163t96.5 -225t21 -264.5q-4 -66 -14.5 -131t-31 -157.5t-55.5 -170t-83 -148.5t-120.5 -111t-160.5 -40q-66 0 -112 25t-66.5 66t-28.5 78.5t-6 78.5q-139 -135 -281 -135q-109 0 -169 75 t-60 191q0 156 93 253.5t236 97.5q66 0 254 -46l15 78q16 84 -7.5 121t-91.5 37q-111 0 -284 -76l-58 172q215 90 400 90q170 0 233.5 -88t30.5 -268l-55 -317q-29 -121 -24 -201t65 -80q94 0 176 187.5t92 418.5q6 84 -2 162t-40 160t-86 142.5t-148.5 98t-217.5 37.5 q-184 0 -338.5 -84t-253 -221t-152.5 -307t-54 -348q0 -252 121.5 -420t359.5 -168q84 0 165 21.5t120 44.5l39 22l49 -92q-16 -12 -48 -29.5t-130.5 -47.5t-198.5 -30q-283 0 -435.5 201t-152.5 502zM610 340q0 -106 95 -107q89 0 204 115l27 146q-131 33 -168 32 q-78 0 -118 -55t-40 -131z" />
<glyph unicode="A" horiz-adv-x="1239" d="M-96 0l682 1434h364l174 -1434h-350l-14 262h-379l-105 -262h-372zM492 535h253l-30 559z" />
<glyph unicode="B" horiz-adv-x="1220" d="M14 0l252 1434h490q213 0 322.5 -83t109.5 -227q0 -147 -91 -244.5t-184 -113.5q49 -16 93.5 -45t84 -101.5t39.5 -170.5q0 -215 -134 -332t-378 -117h-604zM393 268h164q119 0 184.5 55.5t65.5 159.5q0 143 -193 144h-157zM500 877h141q88 0 147.5 44t59.5 130 q0 114 -157 114h-3h-137z" />
<glyph unicode="C" horiz-adv-x="1142" d="M76 522q0 242 68.5 450t213 346t338.5 138q96 0 199.5 -36t163.5 -71.5t158 -101.5l-179 -246q-209 139 -313 140q-94 0 -168 -98.5t-107.5 -232.5t-33.5 -271q0 -248 151 -248q100 0 342 133l129 -272q-338 -174 -553 -175q-199 0 -304 142.5t-105 402.5z" />
<glyph unicode="D" horiz-adv-x="1280" d="M14 0l252 1434h359q317 0 464.5 -148.5t147.5 -402.5q0 -98 -17.5 -204t-68.5 -231.5t-130 -221t-219 -161t-321 -65.5h-467zM397 295h76q141 0 241.5 89t143.5 215t43 267q0 143 -72.5 208t-220.5 65h-59z" />
<glyph unicode="E" horiz-adv-x="1083" d="M14 0l252 1434h883l-53 -295h-547l-49 -277h444l-51 -289h-444l-52 -278h559l-51 -295h-891z" />
<glyph unicode="F" horiz-adv-x="1038" d="M14 0l252 1434h883l-53 -295h-547l-49 -279h430l-51 -289h-430l-103 -571h-332z" />
<glyph unicode="G" horiz-adv-x="1241" d="M76 510q0 254 70.5 465t217 346t343.5 135q102 0 210.5 -37t173 -74.5t164.5 -103.5l-178 -246q-186 111 -260 133q-43 12 -80 13q-100 0 -176 -96.5t-110.5 -232.5t-34.5 -280q0 -258 151 -258q111 0 244 138l27 147h-242l47 275h551l-147 -834h-308l23 133 q-156 -156 -318 -156q-168 0 -268 137.5t-100 395.5z" />
<glyph unicode="H" horiz-adv-x="1280" d="M14 0l252 1434h334l-96 -537h373l94 537h332l-252 -1434h-332l106 608h-372l-107 -608h-332z" />
<glyph unicode="I" horiz-adv-x="577" d="M14 0l252 1434h334l-254 -1434h-332z" />
<glyph unicode="J" horiz-adv-x="577" d="M-203 -115q100 37 147.5 69t63 64.5t29.5 104.5l229 1311h334l-227 -1293q-12 -72 -18.5 -101.5t-22 -83.5t-28.5 -76.5t-39.5 -60.5t-59.5 -57.5t-81 -47t-109.5 -48t-143.5 -43.5z" />
<glyph unicode="K" horiz-adv-x="1239" d="M14 0l252 1434h334l-94 -533l444 533h428l-598 -660l355 -774h-369l-215 520l-139 -153l-66 -367h-332z" />
<glyph unicode="L" horiz-adv-x="1009" d="M14 0l252 1434h334l-203 -1141h533l-49 -293h-867z" />
<glyph unicode="M" horiz-adv-x="1490" d="M14 0l252 1434h338l146 -764l426 764h337l-251 -1434h-332l141 805l-313 -565h-152l-112 598l-148 -838h-332z" />
<glyph unicode="N" horiz-adv-x="1308" d="M14 0l252 1434h334l246 -871l151 871h332l-252 -1434h-334l-245 870l-152 -870h-332z" />
<glyph unicode="O" horiz-adv-x="1347" d="M78 543q0 111 21.5 229.5t72.5 242.5t126 220t195 158.5t265 62.5q260 0 404.5 -142.5t144.5 -418.5q0 -111 -21.5 -229.5t-73 -243.5t-127 -222.5t-195.5 -160t-265 -62.5q-258 0 -402.5 143.5t-144.5 422.5zM416 545q0 -271 219 -271q88 0 156.5 74t104.5 181.5 t53.5 201.5t17.5 158q0 270 -219 270q-88 0 -157 -73.5t-104.5 -181t-53 -202t-17.5 -157.5z" />
<glyph unicode="P" horiz-adv-x="1198" d="M14 0l252 1434h449q499 -1 499 -400q0 -231 -150.5 -386.5t-440.5 -155.5h-191l-86 -492h-332zM483 778h131q123 0 190.5 63t67.5 167q0 137 -180 137h-143z" />
<glyph unicode="Q" horiz-adv-x="1347" d="M78 543q0 111 21.5 229.5t72.5 242.5t126 220t195 158.5t265 62.5q260 0 404.5 -142.5t144.5 -418.5q0 -240 -98.5 -485.5t-295.5 -358.5l168 -192l-250 -205l-225 323q-250 4 -389 147.5t-139 418.5zM416 545q0 -271 219 -271q88 0 156.5 74t104.5 181.5t53.5 201.5 t17.5 158q0 270 -219 270q-88 0 -157 -73.5t-104.5 -181t-53 -202t-17.5 -157.5z" />
<glyph unicode="R" horiz-adv-x="1245" d="M14 0l252 1434h496q493 0 493 -373q0 -162 -91 -306.5t-287 -195.5l196 -559h-346l-166 539h-119l-96 -539h-332zM489 811h173q127 0 189 60.5t62 158.5q0 131 -186 131h-176z" />
<glyph unicode="S" horiz-adv-x="1138" d="M-25 188l185 238q233 -158 383 -158q66 0 107.5 34t41.5 91q0 31 -12 54.5t-43 46t-57.5 37t-77.5 40t-82 43.5q-135 84 -207 179.5t-72 228.5q0 184 129 309t359 125q268 0 540 -172l-186 -240q-76 47 -171 84t-165 37q-61 0 -103 -30.5t-42 -92.5q0 -29 11 -50 t39 -40.5t52.5 -34t75.5 -40t86 -43.5q131 -82 209 -177.5t78 -238.5q0 -184 -134.5 -312.5t-369.5 -128.5q-299 0 -574 211z" />
<glyph unicode="T" horiz-adv-x="1038" d="M119 1139l51 295h987l-53 -295h-324l-200 -1139h-334l200 1139h-327z" />
<glyph unicode="U" horiz-adv-x="1261" d="M83 348q-2 27 -2 55q0 87 21 183l150 848h332l-160 -912q-8 -49 -8 -89q0 -55 16 -93q28 -64 135 -64q111 0 163 65t71 181l162 912h333l-161 -908q-16 -98 -41 -174t-69 -149.5t-104.5 -120.5t-153.5 -76t-212 -29q-166 0 -273.5 48.5t-148.5 130.5t-50 192z" />
<glyph unicode="V" horiz-adv-x="1234" d="M147 1434h367l57 -1008l406 1008h391l-678 -1434h-366z" />
<glyph unicode="W" horiz-adv-x="1687" d="M164 1434h366l-12 -875l326 875h262l18 -869l293 869h387l-577 -1434h-316l-26 893l-332 -893h-315z" />
<glyph unicode="X" horiz-adv-x="1171" d="M-109 0l515 727l-242 707h366l105 -465l266 465h397l-489 -707l258 -727h-369l-118 457l-275 -457h-414z" />
<glyph unicode="Y" horiz-adv-x="1161" d="M139 1434h355l118 -541l306 541h385l-568 -861l-98 -573h-334l100 571z" />
<glyph unicode="Z" horiz-adv-x="1112" d="M-53 0l45 264l702 875h-512l51 295h949l-47 -263l-703 -876h559l-51 -295h-993z" />
<glyph unicode="[" horiz-adv-x="673" d="M-43 -293l354 2011h520l-32 -194h-189l-286 -1624h188l-35 -193h-520z" />
<glyph unicode="\" horiz-adv-x="831" d="M205 1618h221l233 -1802h-221z" />
<glyph unicode="]" horiz-adv-x="675" d="M-123 -293l33 195h188l287 1624h-188l34 192h521l-355 -2011h-520z" />
<glyph unicode="^" horiz-adv-x="1144" d="M109 655l446 779h328l174 -779h-324l-57 439l-213 -439h-354z" />
<glyph unicode="_" horiz-adv-x="1228" d="M-80 -379l43 240h1036l-41 -240h-1038z" />
<glyph unicode="`" horiz-adv-x="432" d="M217 1493h326l162 -287h-246z" />
<glyph unicode="a" d="M37 342q0 188 52 358t158.5 284t246.5 114q59 0 113.5 -23.5t82 -48.5t68.5 -68l20 117h320l-189 -1075h-319l20 123q-162 -145 -307 -146q-123 0 -194.5 96.5t-71.5 268.5zM365 395q0 -68 23.5 -108.5t66.5 -40.5q92 0 202 137l56 322q-59 122 -147 122h-1 q-61 0 -108 -73.5t-69.5 -170t-22.5 -188.5z" />
<glyph unicode="b" horiz-adv-x="1107" d="M-8 0l262 1493h319l-92 -526q160 131 295 131q127 0 200 -96.5t73 -268.5q0 -135 -30 -267t-85 -242.5t-143.5 -178.5t-194.5 -68q-141 0 -266 134l-19 -111h-319zM375 362q59 -115 146 -115l1 1q88 0 142.5 138t54.5 290q0 153 -96 153q-80 0 -189 -124z" />
<glyph unicode="c" horiz-adv-x="909" d="M35 397q0 334 142 517.5t335 183.5q45 0 91 -8.5t79 -16.5t77 -28.5t62.5 -29.5t63.5 -35t51 -30l-150 -233q-2 0 -44 26.5t-58 34.5t-50 20.5t-59 12.5q-94 0 -154.5 -116.5t-60.5 -262.5q0 -168 117 -168q16 0 38 5t49.5 17.5t48 20.5t53 24.5t45.5 22.5l92 -256 q-264 -121 -410 -121q-160 0 -259 106.5t-99 313.5z" />
<glyph unicode="d" d="M37 342q0 188 52 358t158.5 284t246.5 114q59 0 113.5 -23.5t82 -48.5t68.5 -68l94 535h319l-262 -1493h-319l20 123q-162 -145 -307 -146q-123 0 -194.5 96.5t-71.5 268.5zM365 395q0 -68 23.5 -108.5t66.5 -40.5q92 0 202 137l56 322q-59 122 -147 122h-1 q-61 0 -108 -73.5t-69.5 -170t-22.5 -188.5z" />
<glyph unicode="e" horiz-adv-x="999" d="M33 412q0 303 151.5 494.5t415.5 191.5q166 0 265.5 -83t99.5 -222q0 -109 -43 -183.5t-122 -111.5t-166 -52.5t-198 -15.5h-82v-22q0 -182 121 -183q86 0 316 117l92 -227q-80 -45 -216.5 -91.5t-267.5 -46.5q-172 0 -269 105.5t-97 329.5zM377 606h65q106 0 167 44 t61 120q0 41 -23.5 65.5t-66.5 24.5q-76 0 -127.5 -71.5t-75.5 -182.5z" />
<glyph unicode="f" horiz-adv-x="708" d="M-184 -221q150 55 185.5 101t61.5 190l134 759h-117l45 246h115l4 25q35 203 111.5 298t222.5 95q154 0 346 -111l-148 -215q-90 37 -133 37q-57 0 -76 -92l-6 -37h207l-45 -246h-205l-129 -733q-43 -233 -80 -309q-59 -119 -227 -188q-78 -33 -199 -66z" />
<glyph unicode="g" d="M-61 -350l108 258q201 -82 350 -82q94 0 135 45t56 129l20 119q-158 -141 -305 -142q-123 0 -194.5 96.5t-71.5 268.5q0 188 52 358t158.5 284t246.5 114q141 0 262 -137l20 114h322l-187 -1059q-45 -262 -154.5 -358t-326.5 -96q-238 0 -491 88zM365 395q0 -149 92 -149 q88 0 198 135l58 328q-59 118 -147 118h-1q-61 0 -108 -73.5t-69.5 -170t-22.5 -188.5z" />
<glyph unicode="h" horiz-adv-x="1101" d="M-8 0l262 1493h319l-94 -535q184 139 328 140q139 0 197 -92q38 -60 39 -157q0 -51 -11 -112l-131 -737h-321l120 682q8 41 8 72q0 84 -63 84q-90 0 -209 -119l-125 -719h-319z" />
<glyph unicode="i" horiz-adv-x="518" d="M-10 0l190 1075h320l-191 -1075h-319zM197 1212l49 275h332l-48 -275h-333z" />
<glyph unicode="j" horiz-adv-x="518" d="M-246 -217q150 55 185.5 94t54.5 143l186 1055h320l-181 -1026q-12 -70 -18 -102.5t-20.5 -84.5t-29.5 -78t-41 -62.5t-58.5 -58t-80.5 -47.5t-109.5 -45.5t-141.5 -39.5zM199 1212l47 275h334l-50 -275h-331z" />
<glyph unicode="k" horiz-adv-x="1032" d="M-8 0l262 1493h319l-135 -764l260 346h383l-393 -438l250 -637h-328l-137 395l-117 -131l-45 -264h-319z" />
<glyph unicode="l" horiz-adv-x="524" d="M-6 0l262 1493h319l-262 -1493h-319z" />
<glyph unicode="m" horiz-adv-x="1609" d="M-8 0l188 1075h320l-23 -127q154 150 297 150q190 0 221 -185q61 72 150.5 128.5t179.5 56.5q137 0 191 -94q35 -61 34 -152q0 -49 -10 -107l-131 -745h-319l122 696q8 34 8 63q0 19 -4 37q-10 42 -55 42q-80 0 -176 -121l-125 -717h-321l125 696q6 34 6 60q0 82 -60 82 q-76 0 -174 -119l-125 -719h-319z" />
<glyph unicode="n" horiz-adv-x="1101" d="M-8 0l188 1075h320l-21 -117q184 139 328 140q139 0 197 -94q38 -61 39 -157q0 -51 -11 -112l-131 -735h-319l120 684q7 37 7 66q0 88 -64 88q-90 0 -209 -119l-125 -719h-319z" />
<glyph unicode="o" horiz-adv-x="1095" d="M37 416q0 117 29.5 231.5t90 218t169.5 168t252 64.5q195 0 324.5 -107.5t129.5 -331.5q0 -117 -29.5 -231.5t-90 -218t-169 -168t-249.5 -64.5q-197 0 -327 108t-130 331zM356 408q1 -175 138 -175q55 0 100 48.5t69.5 119t37 140t12.5 127.5q0 174 -138 174 q-55 0 -100 -48.5t-69.5 -119t-37 -140t-12.5 -126.5z" />
<glyph unicode="p" horiz-adv-x="1110" d="M-82 -418l262 1493h320l-21 -110q158 133 299 133q127 0 200 -96.5t73 -268.5q0 -184 -50.5 -352t-157 -286t-247.5 -118q-61 0 -115.5 23t-82 47.5t-68.5 65.5l-92 -531h-320zM375 367q63 -119 149 -119q88 0 142.5 138t54.5 290q0 153 -96 153q-82 0 -191 -124z" />
<glyph unicode="q" d="M37 342q0 188 52 358t158.5 284t246.5 114q59 0 113.5 -23.5t82 -48.5t68.5 -68l20 117h320l-262 -1493h-320l94 539q-160 -143 -307 -144q-123 0 -194.5 96.5t-71.5 268.5zM365 395q0 -68 23.5 -108.5t66.5 -40.5q92 0 202 137l56 322q-59 122 -147 122h-1 q-61 0 -108 -73.5t-69.5 -170t-22.5 -188.5z" />
<glyph unicode="r" horiz-adv-x="768" d="M-8 0l188 1075h320l-39 -223q18 35 42.5 67.5t69.5 78.5t111 71q52 20 107 20q16 0 32 -2l-55 -315q-82 0 -151.5 -39t-110.5 -94t-72 -110.5t-41 -94.5l-12 -39l-70 -395h-319z" />
<glyph unicode="s" horiz-adv-x="954" d="M-37 137l150 223q76 -49 171 -86.5t158 -37.5q43 0 68 18t25 47q0 18 -8.5 32.5t-29 28t-37 20.5t-54 22.5t-58.5 23.5q-121 51 -193.5 125t-72.5 199q0 152 108.5 249t298.5 97q223 0 441 -131l-148 -219q-174 94 -280 94q-43 0 -66.5 -17.5t-23.5 -46.5q0 -18 7 -32.5 t27.5 -26.5t36 -19.5t52.5 -22t57 -22.5q123 -53 197.5 -126.5t74.5 -200.5q0 -154 -110.5 -252.5t-307.5 -98.5q-248 0 -483 160z" />
<glyph unicode="t" horiz-adv-x="768" d="M76 829l43 246h119l47 258l329 53l-55 -311h234l-43 -246h-234l-82 -460q-4 -22 -4 -40q0 -59 47 -59q35 0 127 41l70 -258q-186 -76 -328 -76q-241 0 -241 272q0 65 14 146l76 434h-119z" />
<glyph unicode="u" horiz-adv-x="1101" d="M43 340l129 735h322l-121 -682q-7 -39 -8 -69q0 -86 64 -86h1q96 0 207 118l127 719h321l-190 -1075h-320l21 117q-184 -139 -328 -140q-140 -1 -198 93q-38 61 -38 158q0 51 11 112z" />
<glyph unicode="v" horiz-adv-x="1032" d="M94 1075h330l37 -690l278 690h355l-535 -1075h-313z" />
<glyph unicode="w" horiz-adv-x="1466" d="M104 1075h334l-6 -643l256 643h240l26 -643l220 643h346l-457 -1075h-293l-37 621l-258 -621h-293z" />
<glyph unicode="x" horiz-adv-x="1060" d="M-109 0l433 541l-224 534h336l101 -327l213 327h376l-413 -536l243 -539h-344l-106 338l-219 -338h-396z" />
<glyph unicode="y" horiz-adv-x="1030" d="M-20 -211q102 41 160.5 75t105.5 87l-154 1124h332l41 -674l280 674h347l-519 -1075q-49 -98 -79.5 -150.5t-91 -124t-147.5 -117.5t-206 -75z" />
<glyph unicode="z" horiz-adv-x="999" d="M-53 0l41 231l547 568h-431l50 276h864l-41 -231l-547 -568h447l-50 -276h-880z" />
<glyph unicode="{" horiz-adv-x="708" d="M25 612l36 199q180 0 197 225l14 205q35 477 494 477h90l-33 -188h-32q-162 0 -179 -250l-14 -180q-14 -197 -94 -284t-232 -107q133 -33 180.5 -128.5t2.5 -281.5l-29 -111q-76 -293 80 -292h29l-33 -189h-31q-205 0 -323.5 130t-53.5 370l49 182q33 102 8.5 162.5 t-126.5 60.5z" />
<glyph unicode="|" horiz-adv-x="462" d="M-37 -252l340 1927h232l-340 -1927h-232z" />
<glyph unicode="}" horiz-adv-x="708" d="M-113 -293l33 189h33q162 0 178 249l14 181q14 197 94 283.5t232 107.5q-133 33 -180 128t-2 281l28 111q76 293 -79 293h-29l33 188h30q205 0 324 -130t53 -369l-49 -183q-33 -102 -8 -162.5t127 -60.5l-37 -199q-180 0 -197 -225l-14 -205q-35 -477 -494 -477h-90z" />
<glyph unicode="~" horiz-adv-x="1142" d="M20 440q80 162 164 247t197 85q90 0 211 -78t176 -78q37 0 71.5 29t88.5 115l176 -84q-82 -164 -166 -248t-195 -84q-92 0 -211.5 78t-177.5 78q-37 0 -70.5 -29t-86.5 -115z" />
<glyph unicode="&#xa1;" horiz-adv-x="563" d="M-20 0l268 958h190l-69 -958h-389zM209 1098l57 336h320l-60 -336h-317z" />
<glyph unicode="&#xa2;" horiz-adv-x="997" d="M88 578q0 334 142.5 517t334.5 183h13l28 156h228l-37 -205q43 -16 211 -113l-148 -227q-8 4 -51 29.5t-64.5 37t-55.5 23.5t-58 12q-94 0 -154.5 -116.5t-60.5 -262.5q0 -168 116 -168q57 0 252 93l93 -254q-143 -70 -265 -101l-30 -182h-228l29 162q-133 20 -214 125.5 t-81 290.5z" />
<glyph unicode="&#xa3;" horiz-adv-x="1032" d="M-23 0l41 233q8 4 21.5 10.5t49.5 30t66.5 52t62.5 77t46 101.5h-178l35 196h143q-6 31 -24.5 96.5t-28.5 123t-10 118.5q0 193 104.5 305.5t292.5 112.5q242 0 481 -205l-168 -202q-150 119 -252 118q-61 0 -97 -44t-36 -109q0 -51 29 -151.5t35 -162.5h266l-35 -196 h-248q-43 -147 -131 -215h449l-51 -289h-863z" />
<glyph unicode="&#xa5;" horiz-adv-x="1253" d="M111 281l36 194h285l19 96l-2 7h-285l37 194h188l-203 662h355l118 -541l306 541h385l-437 -662h191l-37 -194h-283l-2 -5l-16 -98h285l-37 -194h-283l-47 -281h-334l49 281h-288z" />
<glyph unicode="&#xa6;" horiz-adv-x="464" d="M-37 -252l150 846h229l-147 -846h-232zM156 829l147 846h232l-150 -846h-229z" />
<glyph unicode="&#xa7;" horiz-adv-x="1042" d="M10 -16l150 219q162 -94 278 -94q92 0 92 65q0 18 -10 33.5t-31.5 28t-40 19.5t-53.5 19.5t-53 20.5q-266 106 -266 315q0 205 203 287q-80 80 -80 207q0 154 108.5 253t296.5 99q225 0 443 -131l-150 -219q-61 37 -142 65.5t-137 28.5q-92 0 -92 -65q0 -18 9.5 -33 t31 -27t39 -19t54 -20.5t55.5 -21.5q266 -106 266 -316q0 -203 -203 -288q80 -80 80 -205q0 -154 -108.5 -253t-296.5 -99q-221 0 -443 131zM385 670q0 -41 33 -63.5t119 -59.5l30 -12q103 22 103 104q0 39 -32 61.5t-120 59.5q-20 8 -31 12q-102 -23 -102 -102z" />
<glyph unicode="&#xa8;" horiz-adv-x="446" d="M150 1227l45 258h241l-45 -258h-241zM481 1227l45 258h242l-45 -258h-242z" />
<glyph unicode="&#xa9;" horiz-adv-x="1603" d="M90 641q0 342 210 578.5t572 236.5q311 0 493.5 -183t182.5 -480q0 -221 -88 -403.5t-270 -297.5t-426 -115q-309 0 -491.5 184.5t-182.5 479.5zM168 643q0 -260 162 -424t442 -164q319 0 507.5 212t188.5 524q0 260 -160.5 423.5t-441.5 163.5q-319 0 -508.5 -212 t-189.5 -523zM440 618q-10 250 112 396.5t302 146.5q160 0 328 -137l-64 -66q-139 117 -266 117q-137 0 -228.5 -128t-82.5 -322q4 -123 56 -195t138 -72q145 0 309 113l52 -74q-190 -127 -355 -127q-127 0 -211 91.5t-90 256.5z" />
<glyph unicode="&#xaa;" horiz-adv-x="772" d="M141 999q0 174 78 311.5t207 137.5q86 0 164 -78l12 64h215l-115 -646h-213l13 68q-98 -82 -191 -82q-78 0 -124 60.5t-46 164.5zM360 1032q1 -78 52 -78q59 0 118 74l31 176q-33 63 -84 63.5t-84 -77.5t-33 -158z" />
<glyph unicode="&#xab;" horiz-adv-x="1177" d="M23 449l34 200l582 430l-64 -354l-288 -197l223 -192l-55 -316zM549 449l35 200l581 430l-63 -354l-289 -197l223 -192l-55 -316z" />
<glyph unicode="&#xac;" horiz-adv-x="1142" d="M49 557l45 252h998l-111 -625h-262l65 373h-735z" />
<glyph unicode="&#xad;" horiz-adv-x="768" d="M70 449l45 268h571l-45 -268h-571z" />
<glyph unicode="&#xae;" horiz-adv-x="866" d="M139 1069q0 170 104.5 288t286.5 118q154 0 245 -92.5t91 -239.5q0 -170 -104.5 -288t-284.5 -118q-156 0 -247 92.5t-91 239.5zM209 1071q0 -117 72.5 -191.5t199.5 -74.5q147 0 233.5 96t86.5 240q0 117 -75 191.5t-200 74.5q-147 0 -232 -96.5t-85 -239.5zM338 926 l65 370h162q53 0 84 -27.5t31 -68.5q0 -96 -117 -115l62 -159h-68l-57 157h-70l-27 -157h-65zM442 1143h90q80 0 80 57q0 35 -49 35h-104z" />
<glyph unicode="&#xaf;" horiz-adv-x="540" d="M227 1257l35 193h533l-35 -193h-533z" />
<glyph unicode="&#xb0;" horiz-adv-x="784" d="M131 1100q0 139 99.5 237.5t238.5 98.5t237.5 -98.5t98.5 -237.5t-98.5 -238.5t-237.5 -99.5t-238.5 99.5t-99.5 238.5zM322 1099.5q0 -59.5 43 -102.5t104 -43q59 0 101 43t42 102.5t-42 102.5t-101 43q-61 0 -104 -43t-43 -102.5z" />
<glyph unicode="&#xb1;" horiz-adv-x="1144" d="M29 0l37 215h872l-37 -215h-872zM133 600l45 250h307l47 264h256l-47 -264h310l-45 -250h-308l-47 -266h-256l47 266h-309z" />
<glyph unicode="&#xb2;" horiz-adv-x="720" d="M76 788l16 97q14 84 65.5 157.5t98.5 111.5t123 89q59 37 81.5 53.5t57.5 42t47.5 44t12.5 36.5q0 49 -68 49q-70 0 -203 -75l-82 157q162 113 324 113q125 0 189.5 -63.5t64.5 -157.5q0 -80 -52.5 -152.5t-102.5 -108.5t-124 -79q-127 -76 -139 -121h336l-33 -193h-612z " />
<glyph unicode="&#xb3;" horiz-adv-x="718" d="M76 911l117 142q127 -82 210 -82q51 0 82 23.5t31 62.5q0 86 -172 86h-29l33 192h35q63 0 116.5 20.5t53.5 63.5q0 49 -61 49q-80 0 -199 -69l-72 155q164 109 324 109q115 0 175 -54.5t60 -138.5q0 -137 -155 -213q115 -61 114 -194q0 -111 -78.5 -200t-238.5 -89 q-186 0 -346 137z" />
<glyph unicode="&#xb4;" horiz-adv-x="434" d="M150 1206l260 287h358l-342 -287h-276z" />
<glyph unicode="&#xb5;" horiz-adv-x="1150" d="M-68 -418l265 1493h321l-121 -682q-29 -156 58 -155q96 0 207 118l126 719h322l-190 -1075h-320l21 117q-170 -125 -297 -137l-70 -398h-322z" />
<glyph unicode="&#xb6;" horiz-adv-x="1320" d="M98 831q0 258 159 430.5t413 172.5h278l-321 -1813h-262l141 801q-182 0 -295 104.5t-113 304.5zM739 -379l320 1813h264l-319 -1813h-265z" />
<glyph unicode="&#xb7;" horiz-adv-x="516" d="M59 399l66 367h317l-65 -367h-318z" />
<glyph unicode="&#xb8;" horiz-adv-x="317" d="M-82 -336l88 160q37 -23 76 -23q82 0 82 93q0 25 -6 52t-13 42l-6 16h135q37 -68 37 -156q0 -113 -66.5 -172t-164.5 -59q-101 0 -162 47z" />
<glyph unicode="&#xb9;" horiz-adv-x="593" d="M160 1507l246 142h210l-151 -861h-221l112 633l-120 -65z" />
<glyph unicode="&#xba;" horiz-adv-x="739" d="M137 1042q0 96 30 183.5t110.5 155t199.5 67.5q125 0 208 -65.5t83 -202.5q0 -70 -18.5 -137.5t-55.5 -130t-105.5 -100.5t-160.5 -38q-125 0 -208 65.5t-83 202.5zM350 1038q0 -92 80 -92q61 0 93 82t32 156q0 92 -80 92q-59 0 -92 -82t-33 -156z" />
<glyph unicode="&#xbb;" horiz-adv-x="1179" d="M-8 20l63 355l289 196l-223 193l55 315l432 -428l-35 -200zM518 20l64 355l288 196l-223 193l55 315l433 -428l-35 -200z" />
<glyph unicode="&#xbc;" horiz-adv-x="1601" d="M158 1292l245 142h211l-151 -861h-221l112 633l-121 -65zM233 0l793 1434h238l-793 -1434h-238zM737 150l27 161l412 549h297l-93 -518h109l-33 -192h-108l-27 -150h-221l26 150h-389zM987 342h172l53 303z" />
<glyph unicode="&#xbd;" horiz-adv-x="1630" d="M158 1292l245 142h211l-151 -861h-221l112 633l-121 -65zM233 0l793 1434h238l-793 -1434h-238zM829 0l17 96q14 84 65.5 158t98.5 111.5t123 89.5q59 37 81.5 53t57.5 41.5t47 44t12 37.5q0 49 -67 49q-70 0 -203 -76l-82 158q162 113 324 112q125 0 189 -63t64 -158 q0 -80 -52 -152.5t-102 -108.5t-124 -79q-127 -76 -139 -120h336l-33 -193h-613z" />
<glyph unicode="&#xbe;" horiz-adv-x="1755" d="M68 696l116 142q127 -82 211 -82q51 0 82 23.5t31 62.5q0 86 -172 86h-29l33 192h35q63 0 116.5 20.5t53.5 63.5q0 49 -62 49q-80 0 -198 -69l-72 155q162 109 324 109q115 0 175 -54.5t60 -138.5q0 -137 -156 -213q115 -61 115 -194q0 -111 -79 -200t-238 -89 q-186 0 -346 137zM389 0l793 1434h237l-792 -1434h-238zM895 150l27 161l411 549h297l-92 -518h109l-33 -192h-109l-26 -150h-222l27 150h-389zM1145 342h172l53 303z" />
<glyph unicode="&#xbf;" horiz-adv-x="958" d="M14 315q0 86 34 161t84 126t116.5 92t126 64.5t119.5 38.5l43 161h194l-43 -346q-334 -82 -334 -239q0 -47 29 -77t88 -30q92 0 246 96l117 -237q-213 -147 -441 -148q-174 0 -276.5 92t-102.5 246zM500 1098l59 336h318l-60 -336h-317z" />
<glyph unicode="&#xc0;" horiz-adv-x="1239" d="M-96 0l682 1434h364l174 -1434h-350l-14 262h-379l-105 -262h-372zM487 1802h326l162 -286h-246zM492 535h253l-30 559z" />
<glyph unicode="&#xc1;" horiz-adv-x="1239" d="M-96 0l682 1434h364l174 -1434h-350l-14 262h-379l-105 -262h-372zM492 535h253l-30 559zM592 1516l260 286h358l-342 -286h-276z" />
<glyph unicode="&#xc2;" horiz-adv-x="1239" d="M-96 0l682 1434h364l174 -1434h-350l-14 262h-379l-105 -262h-372zM455 1516l235 286h291l131 -286h-199l-92 143l-139 -143h-227zM492 535h253l-30 559z" />
<glyph unicode="&#xc3;" horiz-adv-x="1239" d="M-96 0l682 1434h364l174 -1434h-350l-14 262h-379l-105 -262h-372zM463 1612q47 74 70.5 106.5t69.5 65.5t97.5 33t125 -49.5t98.5 -49.5q43 0 106 99l123 -91q-45 -74 -69.5 -107.5t-70.5 -66t-100 -32.5q-49 0 -122.5 49t-96.5 49q-45 0 -108 -96zM492 535h253l-30 559 z" />
<glyph unicode="&#xc4;" horiz-adv-x="1239" d="M-96 0l682 1434h364l174 -1434h-350l-14 262h-379l-105 -262h-372zM492 535h253l-30 559zM500 1536l45 258h241l-45 -258h-241zM831 1536l46 258h241l-45 -258h-242z" />
<glyph unicode="&#xc5;" horiz-adv-x="1241" d="M-98 0l682 1434h364l174 -1434h-350l-14 262h-379l-105 -262h-372zM489 535h254l-30 559zM598 1714q0 92 63.5 156.5t155.5 64.5q90 0 155.5 -64.5t65.5 -156.5q0 -90 -65.5 -154.5t-155.5 -64.5q-92 0 -155.5 64.5t-63.5 154.5zM745 1714q0 -29 20.5 -50.5t51.5 -21.5 q29 0 51.5 22t22.5 50q0 31 -22.5 52.5t-51.5 21.5q-31 0 -51.5 -21.5t-20.5 -52.5z" />
<glyph unicode="&#xc6;" horiz-adv-x="1859" d="M-162 0l1032 1434h1055l-53 -295h-547l-49 -277h444l-51 -289h-444l-51 -278h559l-52 -295h-890l45 262h-400l-178 -262h-420zM631 545h254l88 502z" />
<glyph unicode="&#xc7;" horiz-adv-x="1142" d="M76 522q0 242 68.5 450t213 346t338.5 138q96 0 199.5 -36t163 -71.5t158.5 -101.5l-179 -246q-209 139 -313 140q-94 0 -168 -98.5t-107.5 -232.5t-33.5 -271q0 -248 151 -248q100 0 342 133l129 -272q-285 -147 -477 -170q27 -63 27 -134q0 -113 -66.5 -172t-165.5 -59 q-100 0 -161 47l88 160q37 -23 75 -23q82 0 82 93q0 43 -16 88q-170 20 -259 160.5t-89 379.5z" />
<glyph unicode="&#xc8;" horiz-adv-x="1083" d="M14 0l252 1434h883l-53 -295h-547l-49 -277h444l-51 -289h-444l-52 -278h559l-51 -295h-891zM434 1802h326l162 -286h-246z" />
<glyph unicode="&#xc9;" horiz-adv-x="1085" d="M14 0l252 1434h883l-53 -295h-547l-49 -277h444l-51 -289h-444l-52 -278h559l-51 -295h-891zM520 1516l260 286h359l-342 -286h-277z" />
<glyph unicode="&#xca;" horiz-adv-x="1083" d="M14 0l252 1434h883l-53 -295h-547l-49 -277h444l-51 -289h-444l-52 -278h559l-51 -295h-891zM397 1516l236 286h291l131 -286h-199l-92 143l-139 -143h-228z" />
<glyph unicode="&#xcb;" horiz-adv-x="1083" d="M14 0l252 1434h883l-53 -295h-547l-49 -277h444l-51 -289h-444l-52 -278h559l-51 -295h-891zM446 1536l46 258h241l-45 -258h-242zM778 1536l45 258h242l-45 -258h-242z" />
<glyph unicode="&#xcc;" horiz-adv-x="579" d="M14 0l252 1434h334l-254 -1434h-332zM156 1802h325l162 -286h-246z" />
<glyph unicode="&#xcd;" horiz-adv-x="577" d="M14 0l252 1434h334l-254 -1434h-332zM242 1516l260 286h358l-342 -286h-276z" />
<glyph unicode="&#xce;" horiz-adv-x="577" d="M14 0l252 1434h334l-254 -1434h-332zM117 1516l235 286h291l131 -286h-199l-92 143l-139 -143h-227z" />
<glyph unicode="&#xcf;" horiz-adv-x="577" d="M14 0l252 1434h334l-254 -1434h-332zM166 1536l45 258h242l-45 -258h-242zM498 1536l45 258h241l-45 -258h-241z" />
<glyph unicode="&#xd0;" horiz-adv-x="1302" d="M18 584l48 268h120l103 582h358q317 0 465 -148.5t148 -402.5q0 -98 -17.5 -204t-69 -231.5t-130 -221t-219 -161t-320.5 -65.5h-467l102 584h-121zM420 295h76q141 0 241.5 89t143.5 215t43 267q0 143 -73 208t-220 65h-60l-51 -287h215l-47 -268h-217z" />
<glyph unicode="&#xd1;" horiz-adv-x="1308" d="M14 0l252 1434h334l246 -871l151 871h332l-252 -1434h-334l-245 870l-152 -870h-332zM504 1612q47 74 70.5 106.5t69.5 65.5t97.5 33t125 -49.5t98.5 -49.5q43 0 106 99l123 -91q-45 -74 -69.5 -107.5t-70.5 -66t-100 -32.5q-49 0 -122.5 49t-96.5 49q-45 0 -108 -96z " />
<glyph unicode="&#xd2;" horiz-adv-x="1347" d="M78 543q0 111 21.5 229.5t72.5 242.5t126 220t195 158.5t265 62.5q260 0 404.5 -142.5t144.5 -418.5q0 -111 -21.5 -229.5t-73 -243.5t-127 -222.5t-195.5 -160t-265 -62.5q-258 0 -402.5 143.5t-144.5 422.5zM416 545q0 -271 219 -271q88 0 156.5 74t104.5 181.5 t53.5 201.5t17.5 158q0 270 -219 270q-88 0 -157 -73.5t-104.5 -181t-53 -202t-17.5 -157.5zM539 1802h325l162 -286h-246z" />
<glyph unicode="&#xd3;" horiz-adv-x="1347" d="M78 543q0 111 21.5 229.5t72.5 242.5t126 220t195 158.5t265 62.5q260 0 404.5 -142.5t144.5 -418.5q0 -111 -21.5 -229.5t-73 -243.5t-127 -222.5t-195.5 -160t-265 -62.5q-258 0 -402.5 143.5t-144.5 422.5zM416 545q0 -271 219 -271q88 0 156.5 74t104.5 181.5 t53.5 201.5t17.5 158q0 270 -219 270q-88 0 -157 -73.5t-104.5 -181t-53 -202t-17.5 -157.5zM627 1516l260 286h358l-342 -286h-276z" />
<glyph unicode="&#xd4;" horiz-adv-x="1347" d="M78 543q0 111 21.5 229.5t72.5 242.5t126 220t195 158.5t265 62.5q260 0 404.5 -142.5t144.5 -418.5q0 -111 -21.5 -229.5t-73 -243.5t-127 -222.5t-195.5 -160t-265 -62.5q-258 0 -402.5 143.5t-144.5 422.5zM416 545q0 -271 219 -271q88 0 156.5 74t104.5 181.5 t53.5 201.5t17.5 158q0 270 -219 270q-88 0 -157 -73.5t-104.5 -181t-53 -202t-17.5 -157.5zM504 1516l235 286h291l131 -286h-198l-93 143l-139 -143h-227z" />
<glyph unicode="&#xd5;" horiz-adv-x="1347" d="M78 543q0 111 21.5 229.5t72.5 242.5t126 220t195 158.5t265 62.5q260 0 404.5 -142.5t144.5 -418.5q0 -111 -21.5 -229.5t-73 -243.5t-127 -222.5t-195.5 -160t-265 -62.5q-258 0 -402.5 143.5t-144.5 422.5zM416 545q0 -271 219 -271q88 0 156.5 74t104.5 181.5 t53.5 201.5t17.5 158q0 270 -219 270q-88 0 -157 -73.5t-104.5 -181t-53 -202t-17.5 -157.5zM514 1612q47 74 70.5 106.5t69.5 65.5t97.5 33t125 -49.5t98.5 -49.5q43 0 106 99l123 -91q-45 -74 -69.5 -107.5t-70.5 -66t-99 -32.5q-49 0 -123 49t-97 49q-45 0 -108 -96z" />
<glyph unicode="&#xd6;" horiz-adv-x="1347" d="M78 543q0 111 21.5 229.5t72.5 242.5t126 220t195 158.5t265 62.5q260 0 404.5 -142.5t144.5 -418.5q0 -111 -21.5 -229.5t-73 -243.5t-127 -222.5t-195.5 -160t-265 -62.5q-258 0 -402.5 143.5t-144.5 422.5zM416 545q0 -271 219 -271q88 0 156.5 74t104.5 181.5 t53.5 201.5t17.5 158q0 270 -219 270q-88 0 -157 -73.5t-104.5 -181t-53 -202t-17.5 -157.5zM553 1536l45 258h242l-45 -258h-242zM885 1536l45 258h241l-45 -258h-241z" />
<glyph unicode="&#xd7;" horiz-adv-x="1159" d="M141 436l285 266l-188 265l206 149l170 -237l258 241l170 -180l-284 -266l190 -264l-207 -148l-170 238l-260 -244z" />
<glyph unicode="&#xd8;" horiz-adv-x="1349" d="M-10 0l168 203q-80 133 -80 340q0 111 21.5 229.5t72.5 242.5t126 220t195 158.5t265 62.5q215 0 350 -98l63 76h224l-168 -205q80 -135 80 -334q0 -111 -21.5 -229.5t-73 -243.5t-127 -222.5t-195.5 -160t-265 -62.5q-215 0 -351 99l-61 -76h-223zM416 516l483 588 q-51 55 -151 55q-88 0 -157 -73.5t-104.5 -181t-53 -202t-17.5 -157.5v-29zM483 328q50 -54 152 -54q88 0 156.5 74t104.5 181.5t53.5 201.5t17.5 158v24z" />
<glyph unicode="&#xd9;" horiz-adv-x="1261" d="M81 348.5q-9 110.5 19 237.5l150 848h332l-160 -912q-20 -117 7.5 -181.5t135.5 -64.5q111 0 163 65t71 181l162 912h333l-161 -908q-16 -98 -41 -174t-69 -149.5t-104.5 -120.5t-153.5 -76t-212 -29q-166 0 -273.5 48.5t-148.5 130.5t-50 192.5zM492 1802h325l162 -286 h-246z" />
<glyph unicode="&#xda;" horiz-adv-x="1261" d="M81 348.5q-9 110.5 19 237.5l150 848h332l-160 -912q-20 -117 7.5 -181.5t135.5 -64.5q111 0 163 65t71 181l162 912h333l-161 -908q-16 -98 -41 -174t-69 -149.5t-104.5 -120.5t-153.5 -76t-212 -29q-166 0 -273.5 48.5t-148.5 130.5t-50 192.5zM575 1516l261 286h358 l-342 -286h-277z" />
<glyph unicode="&#xdb;" horiz-adv-x="1259" d="M81 348.5q-9 110.5 19 237.5l150 848h332l-160 -912q-20 -117 7.5 -181.5t135.5 -64.5q111 0 163 65t71 181l162 912h333l-161 -908q-16 -98 -41 -174t-69 -149.5t-104.5 -120.5t-153.5 -76t-212 -29q-166 0 -273.5 48.5t-148.5 130.5t-50 192.5zM455 1516l235 286h291 l131 -286h-199l-92 143l-139 -143h-227z" />
<glyph unicode="&#xdc;" horiz-adv-x="1261" d="M81 348.5q-9 110.5 19 237.5l150 848h332l-160 -912q-20 -117 7.5 -181.5t135.5 -64.5q111 0 163 65t71 181l162 912h333l-161 -908q-16 -98 -41 -174t-69 -149.5t-104.5 -120.5t-153.5 -76t-212 -29q-166 0 -273.5 48.5t-148.5 130.5t-50 192.5zM504 1536l45 258h242 l-46 -258h-241zM836 1536l45 258h241l-45 -258h-241z" />
<glyph unicode="&#xdd;" horiz-adv-x="1161" d="M139 1434h355l118 -541l306 541h385l-568 -861l-98 -573h-334l100 571zM528 1516l260 286h359l-342 -286h-277z" />
<glyph unicode="&#xde;" horiz-adv-x="1196" d="M14 0l252 1434h334l-41 -222h123q494 0 494 -395q0 -233 -144.5 -390t-431.5 -157h-205l-49 -270h-332zM444 555h148q119 0 181.5 63.5t62.5 167.5q0 135 -179 136h-147z" />
<glyph unicode="&#xdf;" horiz-adv-x="1329" d="M-8 0l172 987q20 111 58 190.5t105.5 145.5t180 99.5t268.5 33.5q317 0 434 -132t84 -343l-6 -25l-160 -196q-123 80 -213 80q-35 0 -56 -17.5t-21 -46.5q0 -12 3 -22.5t11 -19.5t15 -16t22.5 -16.5t27 -14.5t34 -16.5t34.5 -17.5q117 -63 182.5 -138t65.5 -193 q0 -152 -100.5 -248.5t-280.5 -96.5q-238 0 -453 162l146 221q61 -47 147 -85.5t135 -38.5q33 0 54.5 18t21.5 47q0 10 -3 20.5t-7 17.5t-14.5 15t-17.5 14.5t-22.5 15.5t-24.5 13t-29.5 14.5t-30.5 16.5q-119 68 -180.5 139.5t-61.5 188.5q0 147 97.5 244.5t271.5 97.5 q35 0 96 -8q-20 109 -205 108q-125 0 -197.5 -56.5t-97.5 -193.5l-168 -948h-317z" />
<glyph unicode="&#xe0;" d="M37 342q0 188 52 358t158.5 284t246.5 114q59 0 113.5 -23.5t82 -48.5t68.5 -68l20 117h320l-189 -1075h-319l20 123q-162 -145 -307 -146q-123 0 -194.5 96.5t-71.5 268.5zM365 395q0 -68 23.5 -108.5t66.5 -40.5q92 0 202 137l56 322q-59 123 -148 122 q-61 0 -108 -73.5t-69.5 -170t-22.5 -188.5zM393 1493h326l162 -287h-246z" />
<glyph unicode="&#xe1;" horiz-adv-x="1097" d="M37 342q0 188 52 358t158.5 284t246.5 114q59 0 113.5 -23.5t82 -48.5t68.5 -68l20 117h320l-189 -1075h-319l20 123q-162 -145 -307 -146q-123 0 -194.5 96.5t-71.5 268.5zM365 395q0 -68 23.5 -108.5t66.5 -40.5q92 0 202 137l56 322q-59 123 -148 122 q-61 0 -108 -73.5t-69.5 -170t-22.5 -188.5zM463 1206l260 287h358l-342 -287h-276z" />
<glyph unicode="&#xe2;" d="M37 342q0 188 52 358t158.5 284t246.5 114q59 0 113.5 -23.5t82 -48.5t68.5 -68l20 117h320l-189 -1075h-319l20 123q-162 -145 -307 -146q-123 0 -194.5 96.5t-71.5 268.5zM356 1206l236 287h291l131 -287h-199l-92 144l-139 -144h-228zM365 395q0 -68 23.5 -108.5 t66.5 -40.5q92 0 202 137l56 322q-59 123 -148 122q-61 0 -108 -73.5t-69.5 -170t-22.5 -188.5z" />
<glyph unicode="&#xe3;" d="M37 342q0 188 52 358t158.5 284t246.5 114q59 0 113.5 -23.5t82 -48.5t68.5 -68l20 117h320l-189 -1075h-319l20 123q-162 -145 -307 -146q-123 0 -194.5 96.5t-71.5 268.5zM365 395q0 -68 23.5 -108.5t66.5 -40.5q92 0 202 137l56 322q-59 123 -148 122 q-61 0 -108 -73.5t-69.5 -170t-22.5 -188.5zM371 1303q47 74 70.5 106.5t69.5 65t97 32.5t125 -49t98 -49q43 0 107 98l123 -90q-45 -74 -69.5 -107.5t-71 -66.5t-99.5 -33q-49 0 -122.5 49.5t-96.5 49.5q-45 -1 -108 -97z" />
<glyph unicode="&#xe4;" d="M37 342q0 188 52 358t158.5 284t246.5 114q59 0 113.5 -23.5t82 -48.5t68.5 -68l20 117h320l-189 -1075h-319l20 123q-162 -145 -307 -146q-123 0 -194.5 96.5t-71.5 268.5zM365 395q0 -68 23.5 -108.5t66.5 -40.5q92 0 202 137l56 322q-59 123 -148 122 q-61 0 -108 -73.5t-69.5 -170t-22.5 -188.5zM418 1227l45 258h242l-46 -258h-241zM750 1227l45 258h241l-45 -258h-241z" />
<glyph unicode="&#xe5;" d="M37 342q0 188 52 358t158.5 284t246.5 114q59 0 113.5 -23.5t82 -48.5t68.5 -68l20 117h320l-189 -1075h-319l20 123q-162 -145 -307 -146q-123 0 -194.5 96.5t-71.5 268.5zM365 395q0 -68 23.5 -108.5t66.5 -40.5q92 0 202 137l56 322q-59 123 -148 122 q-61 0 -108 -73.5t-69.5 -170t-22.5 -188.5zM508 1405q0 92 63.5 156.5t155.5 64.5q90 0 155.5 -64.5t65.5 -156.5q0 -90 -65.5 -154.5t-155.5 -64.5q-92 0 -155.5 64.5t-63.5 154.5zM655 1405q0 -29 20.5 -50.5t51.5 -21.5q29 0 51.5 21.5t22.5 50.5q0 31 -22.5 52.5 t-51.5 21.5q-31 0 -51.5 -21.5t-20.5 -52.5z" />
<glyph unicode="&#xe6;" horiz-adv-x="1636" d="M37 342q0 188 52 358t158.5 284t246.5 114q59 0 113.5 -23.5t82 -48.5t68.5 -68l20 117h295q80 23 164 23q166 0 265.5 -83t99.5 -222q0 -109 -43 -183.5t-122 -111.5t-166 -52.5t-198 -15.5h-82v-22q0 -182 121 -183q86 0 315 117l93 -227q-80 -45 -216.5 -91.5 t-267.5 -46.5q-76 0 -143 23h-305l20 121q-160 -143 -305 -144q-123 0 -194.5 96.5t-71.5 268.5zM365 395q0 -68 23.5 -108.5t66.5 -40.5q90 0 200 135l17 90q6 125 39 225l2 11q-61 121 -148 120q-61 0 -108 -73.5t-69.5 -170t-22.5 -188.5zM1014 606h65q106 0 167 44 t61 120q0 41 -23.5 65.5t-66.5 24.5q-76 0 -127.5 -71.5t-75.5 -182.5z" />
<glyph unicode="&#xe7;" horiz-adv-x="909" d="M35 397q0 334 142 517.5t335 183.5q45 0 91 -8.5t79 -16.5t77 -28.5t62.5 -29.5t63.5 -35t51 -30l-150 -233q-2 0 -44 26.5t-58 34.5t-50 20.5t-59 12.5q-94 0 -154.5 -116.5t-60.5 -262.5q0 -168 117 -168q16 0 38 5t49.5 17.5t48 20.5t53 24.5t45.5 22.5l92 -256 q-236 -106 -369 -118q27 -57 27 -132q0 -113 -66.5 -172t-165.5 -59q-100 0 -161 47l88 160q37 -23 75 -23q82 0 82 93q0 35 -18 96q-121 29 -190.5 131t-69.5 276z" />
<glyph unicode="&#xe8;" horiz-adv-x="999" d="M33 412q0 303 151.5 494.5t415.5 191.5q166 0 265.5 -83t99.5 -222q0 -109 -43 -183.5t-122 -111.5t-166 -52.5t-198 -15.5h-82v-22q0 -182 121 -183q86 0 316 117l92 -227q-80 -45 -216.5 -91.5t-267.5 -46.5q-172 0 -269 105.5t-97 329.5zM340 1493h326l161 -287h-245z M377 606h65q106 0 167 44t61 120q0 41 -23.5 65.5t-66.5 24.5q-76 0 -127.5 -71.5t-75.5 -182.5z" />
<glyph unicode="&#xe9;" horiz-adv-x="1001" d="M33 412q0 303 151.5 494.5t415.5 191.5q166 0 265.5 -83t99.5 -222q0 -109 -43 -183.5t-122 -111.5t-166 -52.5t-198 -15.5h-82v-22q0 -182 121 -183q86 0 316 117l92 -227q-80 -45 -216.5 -91.5t-267.5 -46.5q-172 0 -269 105.5t-97 329.5zM377 606h65q106 0 167 44 t61 120q0 41 -23.5 65.5t-66.5 24.5q-76 0 -127.5 -71.5t-75.5 -182.5zM428 1206l260 287h359l-342 -287h-277z" />
<glyph unicode="&#xea;" horiz-adv-x="999" d="M33 412q0 303 151.5 494.5t415.5 191.5q166 0 265.5 -83t99.5 -222q0 -109 -43 -183.5t-122 -111.5t-166 -52.5t-198 -15.5h-82v-22q0 -182 121 -183q86 0 316 117l92 -227q-80 -45 -216.5 -91.5t-267.5 -46.5q-172 0 -269 105.5t-97 329.5zM303 1206l236 287h290 l132 -287h-199l-92 144l-140 -144h-227zM377 606h65q106 0 167 44t61 120q0 41 -23.5 65.5t-66.5 24.5q-76 0 -127.5 -71.5t-75.5 -182.5z" />
<glyph unicode="&#xeb;" horiz-adv-x="997" d="M33 412q0 303 151.5 494.5t415.5 191.5q166 0 265.5 -83t99.5 -222q0 -109 -43 -183.5t-122 -111.5t-166 -52.5t-198 -15.5h-82v-22q0 -182 121 -183q86 0 316 117l92 -227q-80 -45 -216.5 -91.5t-267.5 -46.5q-172 0 -269 105.5t-97 329.5zM356 1227l45 258h242 l-45 -258h-242zM377 606h65q106 0 167 44t61 120q0 41 -23.5 65.5t-66.5 24.5q-76 0 -127.5 -71.5t-75.5 -182.5zM688 1227l45 258h242l-45 -258h-242z" />
<glyph unicode="&#xec;" horiz-adv-x="518" d="M-10 0l190 1075h320l-191 -1075h-319zM70 1493h325l162 -287h-246z" />
<glyph unicode="&#xed;" horiz-adv-x="518" d="M-10 0l190 1075h320l-191 -1075h-319zM154 1206l260 287h358l-342 -287h-276z" />
<glyph unicode="&#xee;" horiz-adv-x="518" d="M-10 0l190 1075h320l-191 -1075h-319zM33 1206l235 287h291l131 -287h-198l-93 144l-139 -144h-227z" />
<glyph unicode="&#xef;" horiz-adv-x="518" d="M-10 0l190 1075h320l-191 -1075h-319zM82 1227l45 258h242l-45 -258h-242zM414 1227l45 258h241l-45 -258h-241z" />
<glyph unicode="&#xf0;" horiz-adv-x="1120" d="M23 410q0 233 139 399t340 166q55 0 102 -15.5t75 -35t50.5 -44t29.5 -38t11 -21.5q-18 217 -152 299l-59 -69h-248l99 118l-140 -16l15 258q70 23 180 23q76 0 151 -17l64 76h248l-127 -154q133 -90 199.5 -251.5t66.5 -354.5q0 -324 -157.5 -540t-436.5 -216 q-219 0 -334.5 119t-115.5 314zM356 403q0 -168 144 -167q76 0 128 54t71.5 121.5t19.5 137.5q0 168 -146 168q-104 0 -160.5 -101.5t-56.5 -212.5z" />
<glyph unicode="&#xf1;" horiz-adv-x="1101" d="M-8 0l188 1075h320l-21 -117q184 139 328 140q139 0 197.5 -93.5t27.5 -269.5l-131 -735h-319l120 684q27 154 -57 154q-90 0 -209 -119l-125 -719h-319zM340 1303q47 74 70.5 106.5t69.5 65t97.5 32.5t125 -49t98.5 -49q43 0 106 98l123 -90q-45 -74 -69.5 -107.5 t-70.5 -66.5t-99 -33q-49 0 -123 49.5t-97 49.5q-45 -1 -108 -97z" />
<glyph unicode="&#xf2;" horiz-adv-x="1095" d="M37 416q0 117 29.5 231.5t90 218t169.5 168t252 64.5q195 0 324.5 -107.5t129.5 -331.5q0 -117 -29.5 -231.5t-90 -218t-169 -168t-249.5 -64.5q-197 0 -327 108t-130 331zM356 408q1 -175 138 -175q55 0 100 48.5t69.5 119t37 140t12.5 127.5q0 174 -138 174 q-55 0 -100 -48.5t-69.5 -119t-37 -140t-12.5 -126.5zM356 1493h326l162 -287h-246z" />
<glyph unicode="&#xf3;" horiz-adv-x="1095" d="M37 416q0 117 29.5 231.5t90 218t169.5 168t252 64.5q195 0 324.5 -107.5t129.5 -331.5q0 -117 -29.5 -231.5t-90 -218t-169 -168t-249.5 -64.5q-197 0 -327 108t-130 331zM356 408q1 -175 138 -175q55 0 100 48.5t69.5 119t37 140t12.5 127.5q0 174 -138 174 q-55 0 -100 -48.5t-69.5 -119t-37 -140t-12.5 -126.5zM442 1206l260 287h359l-342 -287h-277z" />
<glyph unicode="&#xf4;" horiz-adv-x="1095" d="M37 416q0 117 29.5 231.5t90 218t169.5 168t252 64.5q195 0 324.5 -107.5t129.5 -331.5q0 -117 -29.5 -231.5t-90 -218t-169 -168t-249.5 -64.5q-197 0 -327 108t-130 331zM319 1206l236 287h291l131 -287h-199l-92 144l-139 -144h-228zM356 408q1 -175 138 -175 q55 0 100 48.5t69.5 119t37 140t12.5 127.5q0 174 -138 174q-55 0 -100 -48.5t-69.5 -119t-37 -140t-12.5 -126.5z" />
<glyph unicode="&#xf5;" horiz-adv-x="1095" d="M37 416q0 117 29.5 231.5t90 218t169.5 168t252 64.5q195 0 324.5 -107.5t129.5 -331.5q0 -117 -29.5 -231.5t-90 -218t-169 -168t-249.5 -64.5q-197 0 -327 108t-130 331zM338 1303q47 74 70.5 106.5t69.5 65t97.5 32.5t125 -49t98.5 -49q43 0 106 98l123 -90 q-45 -74 -69.5 -107.5t-70.5 -66.5t-100 -33q-49 0 -122.5 49.5t-96.5 49.5q-45 -1 -108 -97zM356 408q1 -175 138 -175q55 0 100 48.5t69.5 119t37 140t12.5 127.5q0 174 -138 174q-55 0 -100 -48.5t-69.5 -119t-37 -140t-12.5 -126.5z" />
<glyph unicode="&#xf6;" horiz-adv-x="1095" d="M37 416q0 117 29.5 231.5t90 218t169.5 168t252 64.5q195 0 324.5 -107.5t129.5 -331.5q0 -117 -29.5 -231.5t-90 -218t-169 -168t-249.5 -64.5q-197 0 -327 108t-130 331zM356 408q1 -175 138 -175q55 0 100 48.5t69.5 119t37 140t12.5 127.5q0 174 -138 174 q-55 0 -100 -48.5t-69.5 -119t-37 -140t-12.5 -126.5zM373 1227l45 258h241l-45 -258h-241zM705 1227l45 258h241l-45 -258h-241z" />
<glyph unicode="&#xf7;" horiz-adv-x="1142" d="M125 557l45 252h872l-45 -252h-872zM375 315.5q0 59.5 42 102.5t99 43q59 0 102.5 -43t43.5 -102.5t-43.5 -101.5t-102.5 -42q-57 0 -99 42t-42 101.5zM504 1050.5q0 59.5 41 101.5t100.5 42t102.5 -42t43 -101.5t-43 -101.5t-102.5 -42t-100.5 42t-41 101.5z" />
<glyph unicode="&#xf8;" horiz-adv-x="1095" d="M-31 0l135 156q-68 102 -67 260q0 117 29.5 231.5t90 218t169.5 168t252 64.5q168 0 280 -76l47 53h176l-125 -145q76 -109 76 -271q0 -117 -29.5 -231.5t-90 -218t-169 -168t-249.5 -64.5q-174 0 -293 80l-49 -57h-183zM356 446l316 361q-36 35 -97 35q-68 0 -117.5 -71 t-72.5 -156t-29 -169zM389 274q35 -41 104.5 -41t121 77t73 165t25.5 172z" />
<glyph unicode="&#xf9;" horiz-adv-x="1101" d="M43 340l129 735h322l-121 -682q-29 -156 57 -155q96 0 207 118l127 719h321l-190 -1075h-320l21 117q-184 -139 -328 -140q-139 0 -197.5 93.5t-27.5 269.5zM354 1493h326l162 -287h-246z" />
<glyph unicode="&#xfa;" horiz-adv-x="1101" d="M43 340l129 735h322l-121 -682q-29 -156 57 -155q96 0 207 118l127 719h321l-190 -1075h-320l21 117q-184 -139 -328 -140q-139 0 -197.5 93.5t-27.5 269.5zM442 1206l260 287h359l-342 -287h-277z" />
<glyph unicode="&#xfb;" horiz-adv-x="1101" d="M43 340l129 735h322l-121 -682q-29 -156 57 -155q96 0 207 118l127 719h321l-190 -1075h-320l21 117q-184 -139 -328 -140q-139 0 -197.5 93.5t-27.5 269.5zM319 1206l236 287h291l131 -287h-199l-92 144l-139 -144h-228z" />
<glyph unicode="&#xfc;" horiz-adv-x="1101" d="M43 340l129 735h322l-121 -682q-29 -156 57 -155q96 0 207 118l127 719h321l-190 -1075h-320l21 117q-184 -139 -328 -140q-139 0 -197.5 93.5t-27.5 269.5zM371 1227l45 258h241l-45 -258h-241zM702 1227l46 258h241l-45 -258h-242z" />
<glyph unicode="&#xfd;" horiz-adv-x="1030" d="M-20 -211q102 41 160.5 75t105.5 87l-154 1124h332l41 -674l280 674h347l-519 -1075q-49 -98 -79.5 -150.5t-91 -124t-147.5 -117.5t-206 -75zM408 1206l260 287h358l-342 -287h-276z" />
<glyph unicode="&#xfe;" horiz-adv-x="1110" d="M-82 -418l336 1911h319l-94 -528q158 133 299 133q127 0 200 -96.5t73 -268.5q0 -184 -50.5 -352t-157 -286t-247.5 -118q-61 0 -115.5 23t-82 47.5t-68.5 65.5l-92 -531h-320zM375 367q63 -119 149 -119q88 0 142.5 138t54.5 290q0 153 -96 153q-82 0 -191 -124z" />
<glyph unicode="&#xff;" horiz-adv-x="1030" d="M-20 -211q102 41 160.5 75t105.5 87l-154 1124h332l41 -674l280 674h347l-519 -1075q-49 -98 -79.5 -150.5t-91 -124t-147.5 -117.5t-206 -75zM334 1227l45 258h242l-46 -258h-241zM666 1227l45 258h241l-45 -258h-241z" />
<glyph unicode="&#x152;" horiz-adv-x="1908" d="M78 543q0 111 21.5 229.5t72.5 242.5t126 220t194.5 158.5t265.5 62.5q190 0 323 -80l11 58h882l-53 -295h-547l-49 -277h444l-51 -289h-444l-51 -278h559l-51 -295h-891l2 18q-106 -41 -217 -41q-258 0 -402.5 143.5t-144.5 422.5zM416 545q0 -271 219 -271 q88 0 156.5 74t104.5 181.5t53.5 201.5t17.5 158q0 270 -219 270q-88 0 -157 -73.5t-104.5 -181t-53 -202t-17.5 -157.5z" />
<glyph unicode="&#x153;" horiz-adv-x="1667" d="M37 416q0 117 29.5 231.5t90 218t169 168t252.5 64.5q217 0 340 -123q145 123 350 123q166 0 265 -83t99 -222q0 -109 -43 -183.5t-121.5 -111.5t-166 -52.5t-197.5 -15.5h-82v-22q0 -182 121 -183q86 0 315 117l92 -227q-80 -45 -216 -91.5t-267 -46.5q-174 0 -268 103 q-125 -102 -305 -103q-197 0 -327 108t-130 331zM356 408q1 -175 138 -175q55 0 100 48.5t69.5 119t37 140t12.5 127.5q0 174 -138 174q-55 0 -100 -48.5t-69.5 -119t-37 -140t-12.5 -126.5zM1044 606h66q106 0 166.5 44t60.5 120q0 41 -23.5 65.5t-66.5 24.5 q-76 0 -127 -71.5t-76 -182.5z" />
<glyph unicode="&#x178;" horiz-adv-x="1161" d="M139 1434h355l118 -541l306 541h385l-568 -861l-98 -573h-334l100 571zM455 1536l45 258h241l-45 -258h-241zM786 1536l45 258h242l-45 -258h-242z" />
<glyph unicode="&#x2c6;" horiz-adv-x="522" d="M141 1206l236 287h291l131 -287h-199l-92 144l-139 -144h-228z" />
<glyph unicode="&#x2dc;" horiz-adv-x="528" d="M156 1303q47 74 70.5 106.5t69.5 65t97 32.5t125 -49t98 -49q43 0 107 98l123 -90q-45 -74 -69.5 -107.5t-71 -66.5t-99.5 -33q-49 0 -122.5 49.5t-96.5 49.5q-45 -1 -108 -97z" />
<glyph unicode="&#x2000;" horiz-adv-x="967" />
<glyph unicode="&#x2001;" horiz-adv-x="1935" />
<glyph unicode="&#x2002;" horiz-adv-x="967" />
<glyph unicode="&#x2003;" horiz-adv-x="1935" />
<glyph unicode="&#x2004;" horiz-adv-x="645" />
<glyph unicode="&#x2005;" horiz-adv-x="483" />
<glyph unicode="&#x2006;" horiz-adv-x="322" />
<glyph unicode="&#x2007;" horiz-adv-x="322" />
<glyph unicode="&#x2008;" horiz-adv-x="241" />
<glyph unicode="&#x2009;" horiz-adv-x="387" />
<glyph unicode="&#x200a;" horiz-adv-x="107" />
<glyph unicode="&#x2010;" horiz-adv-x="768" d="M70 449l45 268h571l-45 -268h-571z" />
<glyph unicode="&#x2011;" horiz-adv-x="768" d="M70 449l45 268h571l-45 -268h-571z" />
<glyph unicode="&#x2012;" horiz-adv-x="768" d="M70 449l45 268h571l-45 -268h-571z" />
<glyph unicode="&#x2013;" horiz-adv-x="980" d="M68 451l47 264h784l-47 -264h-784z" />
<glyph unicode="&#x2014;" horiz-adv-x="1157" d="M68 451l47 264h962l-45 -264h-964z" />
<glyph unicode="&#x2018;" horiz-adv-x="501" d="M119 764l55 410l309 301l62 -111l-185 -234h140l-64 -366h-317z" />
<glyph unicode="&#x2019;" horiz-adv-x="485" d="M121 831l184 234h-139l63 367h318l-55 -410l-310 -301z" />
<glyph unicode="&#x201a;" horiz-adv-x="518" d="M-55 -233l184 233h-139l63 367h318l-56 -410l-309 -301z" />
<glyph unicode="&#x201c;" horiz-adv-x="929" d="M119 764l55 410l309 301l62 -111l-185 -234h140l-64 -366h-317zM547 764l55 410l309 301l62 -111l-185 -234h140l-64 -366h-317z" />
<glyph unicode="&#x201d;" horiz-adv-x="913" d="M121 831l184 234h-139l63 367h318l-55 -410l-310 -301zM547 831l184 234h-139l63 367h318l-55 -410l-310 -301z" />
<glyph unicode="&#x201e;" horiz-adv-x="944" d="M-55 -233l184 233h-139l63 367h318l-56 -410l-309 -301zM373 -233l184 233h-139l63 367h318l-56 -410l-309 -301z" />
<glyph unicode="&#x2022;" horiz-adv-x="917" d="M121 583.5q0 137.5 97 234.5t234.5 97t233.5 -97t96 -234.5t-96 -233.5t-233.5 -96t-234.5 96t-97 233.5z" />
<glyph unicode="&#x2026;" horiz-adv-x="1425" d="M-10 0l65 367h318l-66 -367h-317zM446 0l66 367h317l-65 -367h-318zM905 0l66 367h317l-65 -367h-318z" />
<glyph unicode="&#x202f;" horiz-adv-x="387" />
<glyph unicode="&#x2039;" horiz-adv-x="651" d="M23 449l34 200l582 430l-64 -354l-288 -197l223 -192l-55 -316z" />
<glyph unicode="&#x203a;" horiz-adv-x="651" d="M-8 20l63 355l289 196l-223 193l55 315l432 -428l-35 -200z" />
<glyph unicode="&#x205f;" horiz-adv-x="483" />
<glyph unicode="&#x20ac;" horiz-adv-x="1269" d="M47 479l31 174h92q2 35 14 115h-86l31 174h96q72 231 215.5 372.5t343.5 141.5q96 0 199.5 -36t163.5 -71.5t158 -101.5l-179 -246q-209 139 -313 140q-139 0 -227 -199h325l-32 -174h-351q-12 -57 -18 -115h350l-33 -174h-321q16 -188 149 -188q100 0 342 133l129 -272 q-338 -174 -553 -175q-190 0 -294.5 131.5t-114.5 370.5h-117z" />
<glyph unicode="&#x2122;" horiz-adv-x="1114" d="M225 1323l19 111h374l-20 -111h-125l-61 -348h-123l61 348h-125zM582 975l82 459h127l65 -244l158 244h129l-82 -459h-123l43 248l-111 -172h-69l-49 180l-45 -256h-125z" />
<glyph unicode="&#xe000;" horiz-adv-x="1075" d="M0 0v1075h1075v-1075h-1075z" />
</font>
</defs>
</svg>
