<?xml version="1.0" standalone="no"?>
<!DOCTYPE svg PUBLIC "-//W3C//DTD SVG 1.1//EN" "http://www.w3.org/Graphics/SVG/1.1/DTD/svg11.dtd" >
<svg xmlns="http://www.w3.org/2000/svg">
<metadata></metadata>
<defs>
<font id="verbexcondregular_italic" horiz-adv-x="1067" >
<font-face units-per-em="2048" ascent="1638" descent="-410" />
<missing-glyph horiz-adv-x="448" />
<glyph unicode="&#xfb01;" horiz-adv-x="1071" d="M-170 -301q150 53 186.5 104.5t65.5 219.5l162 921h-119l25 131h116l27 150q25 141 78 204.5t151.5 63.5t231.5 -63l-66 -119q-92 35 -135 35q-72 0 -96 -117l-27 -154h232l-25 -131h-231l-158 -911q-14 -82 -21.5 -118t-22 -89t-30.5 -75.5t-42 -54.5t-63.5 -50.5 t-87 -39t-118.5 -40.5zM657 0l191 1075h162l-189 -1075h-164zM877 1288l36 199h179l-37 -199h-178z" />
<glyph unicode="&#xfb02;" horiz-adv-x="1087" d="M-170 -301q150 53 186.5 104.5t65.5 219.5l162 921h-119l25 131h116l27 150q25 141 78 204.5t151.5 63.5t231.5 -63l-66 -119q-92 35 -135 35q-72 0 -96 -117l-27 -154h232l-25 -131h-231l-158 -911q-14 -82 -21.5 -118t-22 -89t-30.5 -75.5t-42 -54.5t-63.5 -50.5 t-87 -39t-118.5 -40.5zM664 0l264 1493h164l-265 -1493h-163z" />
<glyph unicode="&#xfb03;" horiz-adv-x="1693" d="M-170 -301q150 53 186.5 104.5t65.5 219.5l162 921h-119l25 131h116l27 150q25 141 80 204.5t155 63.5q123 0 279 -78l-78 -115q-109 45 -176 46q-76 0 -96 -117l-27 -154h232l-25 -131h-231l-158 -911q-12 -63 -17.5 -93t-15.5 -76t-19.5 -66.5t-24.5 -52.5t-33.5 -46 t-44 -35.5t-59.5 -36t-75 -30t-96 -31.5zM453 -301q150 53 186.5 104.5t65.5 219.5l161 921h-118l24 131h117l26 150q25 141 78.5 204.5t151.5 63.5t231 -63l-65 -119q-92 35 -135 35q-72 0 -97 -117l-26 -154h231l-24 -131h-232l-158 -911q-14 -82 -21 -118t-21.5 -89 t-31 -75.5t-42 -54.5t-63.5 -50.5t-87 -39t-119 -40.5zM1280 0l190 1075h162l-188 -1075h-164zM1499 1288l37 199h178l-37 -199h-178z" />
<glyph unicode="&#xfb04;" horiz-adv-x="1710" d="M-170 -301q150 53 186.5 104.5t65.5 219.5l162 921h-119l25 131h116l27 150q25 141 80 204.5t155 63.5q123 0 279 -78l-78 -115q-109 45 -176 46q-76 0 -96 -117l-27 -154h232l-25 -131h-231l-158 -911q-12 -63 -17.5 -93t-15.5 -76t-19.5 -66.5t-24.5 -52.5t-33.5 -46 t-44 -35.5t-59.5 -36t-75 -30t-96 -31.5zM453 -301q150 53 186.5 104.5t65.5 219.5l161 921h-118l24 131h117l26 150q25 141 78.5 204.5t151.5 63.5t231 -63l-65 -119q-92 35 -135 35q-72 0 -97 -117l-26 -154h231l-24 -131h-232l-158 -911q-14 -82 -21 -118t-21.5 -89 t-31 -75.5t-42 -54.5t-63.5 -50.5t-87 -39t-119 -40.5zM1288 0l264 1493h164l-264 -1493h-164z" />
<glyph horiz-adv-x="2048" />
<glyph horiz-adv-x="2048" />
<glyph unicode="&#xd;" horiz-adv-x="681" />
<glyph unicode=" "  horiz-adv-x="448" />
<glyph unicode="&#x09;" horiz-adv-x="448" />
<glyph unicode="&#xa0;" horiz-adv-x="448" />
<glyph unicode="!" horiz-adv-x="507" d="M55 0l41 238h183l-41 -238h-183zM170 428l127 1006h199l-226 -1006h-100z" />
<glyph unicode="&#x22;" horiz-adv-x="729" d="M197 903l65 531h168l-125 -531h-108zM520 903l66 531h168l-125 -531h-109z" />
<glyph unicode="#" horiz-adv-x="1265" d="M45 367l25 135h233l129 428h-217l25 135h233l111 369h133l-111 -369h299l111 369h133l-111 -369h219l-24 -135h-236l-129 -428h219l-24 -135h-236l-110 -367h-133l110 367h-299l-110 -367h-133l110 367h-217zM436 502h299l129 428h-299z" />
<glyph unicode="$" horiz-adv-x="1079" d="M16 152l101 127q147 -109 278 -140l94 535l-4 4q-145 86 -216.5 168t-71.5 217q0 176 121.5 284.5t310.5 108.5l33 184h122l-34 -196q158 -31 313 -127l-98 -125q-113 72 -242 100l-88 -493q150 -88 229.5 -177.5t79.5 -234.5q0 -184 -131 -297t-324 -113l-30 -182h-125 l35 195q-188 35 -353 162zM377 1071q0 -70 34.5 -115t112.5 -92l78 439q-96 -8 -160.5 -69t-64.5 -163zM516 131q106 8 178 74t72 170q0 76 -42 129t-122 106z" />
<glyph unicode="%" horiz-adv-x="1687" d="M154 987q0 115 35.5 218.5t117.5 177t193 73.5q127 0 206.5 -75.5t79.5 -223.5q0 -115 -35.5 -218t-117.5 -177t-193 -74q-127 0 -206.5 76t-79.5 223zM287 983q-1 -184 157 -184q98 0 153.5 119.5t55.5 242.5q0 184 -155 185q-70 0 -120 -63.5t-70.5 -143.5t-20.5 -156z M360 0l863 1434h137l-860 -1434h-140zM938 276q0 115 36 218.5t117.5 177t192.5 73.5q127 0 207 -75.5t80 -223.5q0 -115 -36 -218t-118 -177t-192 -74q-127 0 -207 76t-80 223zM1071 272q0 -184 158 -184q98 0 153.5 120t55.5 243q0 184 -156 184q-70 0 -120 -63.5 t-70.5 -143.5t-20.5 -156z" />
<glyph unicode="&#x26;" horiz-adv-x="1202" d="M80 301q0 80 25.5 151.5t76.5 132t100.5 104.5t120.5 95q-96 168 -96 310q0 172 98.5 267t235.5 95q119 0 195.5 -69.5t76.5 -192.5q0 -127 -80.5 -225.5t-232.5 -212.5l219 -342q98 158 150 342h168q-76 -272 -230 -480l180 -276h-184l-100 156q-182 -178 -393 -179 q-150 0 -240 86.5t-90 237.5zM244 311q0 -80 43 -138t139 -58q152 0 297 166l-244 383q-113 -90 -174 -172t-61 -181zM459 1096q0 -111 65 -226q117 84 177.5 156t60.5 160q0 61 -32 99t-95 38q-84 0 -130 -64.5t-46 -162.5z" />
<glyph unicode="'" horiz-adv-x="407" d="M197 903l65 531h168l-125 -531h-108z" />
<glyph unicode="(" horiz-adv-x="563" d="M44 -81q-3 69 17 171l222 1249q16 92 30.5 138.5t52 96.5t105.5 81t184 63l29 -119q-135 -49 -174 -93t-57 -154l-228 -1282q-25 -121 -5 -162t134 -90l-53 -111q-137 43 -195.5 93t-61.5 119z" />
<glyph unicode=")" horiz-adv-x="561" d="M-88 -174q135 49 174 93t57 155l228 1282q25 121 5 162t-134 90l53 110q137 -43 195.5 -93t61.5 -119t-17 -171l-222 -1249q-16 -92 -30.5 -138t-52 -96.5t-105.5 -81t-184 -63.5z" />
<glyph unicode="*" horiz-adv-x="919" d="M174 1016l301 65l-258 166l92 113l205 -232l12 308l144 -27l-92 -291l268 148l47 -142l-293 -65l254 -166l-94 -111l-201 226l-14 -303l-144 24l95 293l-271 -145z" />
<glyph unicode="+" d="M115 614l24 136h350l66 368h133l-65 -368h354l-23 -136h-356l-63 -366h-136l66 366h-350z" />
<glyph unicode="," horiz-adv-x="454" d="M-16 -211l127 211h-80l43 248h178l-27 -262l-200 -258z" />
<glyph unicode="-" horiz-adv-x="759" d="M117 510l26 145h486l-25 -145h-487z" />
<glyph unicode="." horiz-adv-x="450" d="M29 0l45 248h180l-43 -248h-182z" />
<glyph unicode="/" horiz-adv-x="792" d="M-86 -184l866 1802h138l-869 -1802h-135z" />
<glyph unicode="0" horiz-adv-x="1159" d="M121 440q0 90 16.5 208t58.5 263.5t104 264t166.5 199.5t231.5 81q377 0 377 -465q0 -90 -16.5 -207.5t-58.5 -262t-104 -263.5t-166.5 -200t-231.5 -81q-377 0 -377 463zM289 430q0 -141 43 -225t164 -84q109 0 193.5 110.5t128.5 266t66.5 290t22.5 216.5 q0 141 -43 225t-164 84q-109 0 -193.5 -110.5t-128.5 -266.5t-66.5 -290t-22.5 -216z" />
<glyph unicode="1" horiz-adv-x="667" d="M150 1243l323 191h158l-254 -1434h-170l221 1245l-217 -127z" />
<glyph unicode="2" horiz-adv-x="1013" d="M-12 0l20 113q14 88 48 164.5t67 127t99.5 112t103 89t123.5 90.5q20 14 30 23q168 121 253 213t85 198q2 76 -47 125.5t-139 49.5q-147 0 -320 -119l-65 125q193 145 405 145q158 0 249 -84t91 -227q0 -43 -9 -84t-20.5 -75t-38 -73t-44 -64.5t-57.5 -62t-58.5 -55 t-66.5 -55.5t-63.5 -48.5t-68.5 -49t-63 -43.5q-133 -96 -199.5 -180.5t-89.5 -202.5h608l-26 -152h-807z" />
<glyph unicode="3" horiz-adv-x="1032" d="M-10 133l96 117q53 -37 84 -55.5t98.5 -42t130.5 -23.5q137 0 226.5 88t89.5 219q0 133 -93.5 201t-226.5 68h-45l29 153h53q127 0 239.5 87t112.5 204q0 72 -47 114t-131 42q-137 0 -301 -109l-57 123q188 137 395 137q150 0 232.5 -79t82.5 -201q0 -119 -77.5 -224.5 t-225.5 -167.5q100 -31 166 -125t66 -223q0 -186 -127 -322.5t-354 -136.5q-230 0 -416 156z" />
<glyph unicode="4" horiz-adv-x="1091" d="M12 317l25 132l725 985h223l-172 -967h178l-26 -150h-179l-55 -317h-168l55 317h-606zM211 467h434l139 778z" />
<glyph unicode="5" horiz-adv-x="1019" d="M8 139l98 119q143 -127 281 -127q127 0 228.5 102.5t101.5 272.5q0 115 -55.5 185.5t-159.5 70.5q-106 0 -250 -92l-90 55l188 709h660l-27 -152h-518l-96 -410q92 39 184 39q160 0 249 -111.5t89 -285.5q0 -221 -136.5 -379t-357.5 -158q-205 0 -389 162z" />
<glyph unicode="6" horiz-adv-x="1085" d="M102 459q0 262 101.5 491.5t280 367.5t386.5 138q49 0 96.5 -8t69.5 -16l21 -9l-70 -133q-49 17 -115 17q-184 0 -335.5 -154t-219.5 -387q125 152 312 152q160 0 248 -115t88 -275q0 -217 -128 -384t-339 -167q-190 0 -293 141.5t-103 340.5zM272 457 q0 -137 58.5 -233.5t167.5 -96.5q133 0 214 119t81 276q0 102 -53.5 178t-155.5 76q-98 0 -185.5 -70.5t-122.5 -146.5q-4 -66 -4 -102z" />
<glyph unicode="7" horiz-adv-x="874" d="M113 0q31 170 104.5 361.5t147 330.5t169 286.5t134.5 201t75 102.5h-571l27 152h772l-25 -134q-23 -27 -59.5 -73.5t-136 -193t-180.5 -293t-162.5 -351.5t-114.5 -389h-180z" />
<glyph unicode="8" horiz-adv-x="1103" d="M57 319q0 291 375 459q-168 117 -168 299q0 168 119 273.5t301 105.5q160 0 250 -85t90 -218q0 -240 -301 -387q236 -137 235 -360q0 -190 -145 -309.5t-360 -119.5q-182 0 -289 90t-107 252zM231 332q0 -102 61.5 -156.5t166.5 -54.5q133 0 229 81t96 208 q0 166 -213 288q-158 -72 -249 -154.5t-91 -211.5zM426 1069q0 -135 158 -227q274 117 274 297q0 76 -49 127t-133 51q-104 0 -177 -74t-73 -174z" />
<glyph unicode="9" horiz-adv-x="1085" d="M63 10l70 133q49 -16 115 -16q184 0 335.5 153.5t219.5 389.5q-127 -154 -311 -154q-158 0 -247 114.5t-89 274.5q0 219 129 385t340 166q188 0 290.5 -141t102.5 -340q0 -262 -101.5 -491.5t-279.5 -368t-387 -138.5q-49 0 -96.5 8.5t-67.5 16.5zM328 911 q0 -102 53.5 -178t155.5 -76q98 0 184 70t121 145q6 53 6 105q0 137 -58.5 233.5t-166.5 96.5q-133 0 -214 -119t-81 -277z" />
<glyph unicode=":" horiz-adv-x="462" d="M31 0l45 248h180l-43 -248h-182zM154 698l45 248h180l-43 -248h-182z" />
<glyph unicode=";" horiz-adv-x="481" d="M-6 -211l127 211h-80l43 248h178l-26 -262l-201 -258zM162 698l45 248h180l-43 -248h-182z" />
<glyph unicode="&#x3c;" d="M90 618l23 130l913 430l-31 -177l-731 -327l615 -326l-27 -158z" />
<glyph unicode="=" d="M80 432l24 135h838l-24 -135h-838zM145 801l25 135h838l-25 -135h-838z" />
<glyph unicode="&#x3e;" d="M63 190l31 177l731 327l-614 326l27 158l761 -428l-22 -129z" />
<glyph unicode="?" horiz-adv-x="880" d="M164 0l41 238h182l-41 -238h-182zM182 1317q199 139 387 139q139 0 230.5 -76t91.5 -217q0 -90 -40 -169t-107.5 -133t-141.5 -92t-156 -62l-61 -279h-111l52 377q391 113 391 338q0 78 -48 120t-126 42q-121 0 -293 -111z" />
<glyph unicode="@" horiz-adv-x="1667" d="M76 342q0 199 63.5 388.5t176 340t284.5 242.5t375 92q328 0 471 -231.5t94 -595.5q-18 -119 -49 -221.5t-80 -196.5t-125 -149.5t-170 -55.5q-197 0 -176 242q-147 -147 -295 -148q-90 0 -150.5 66.5t-60.5 181.5q0 166 90 263t221 97q33 0 76 -7t71 -14t68.5 -18.5 t49.5 -13.5l20 115q20 104 -4.5 152.5t-110.5 48.5q-98 0 -280 -84l-39 108q195 90 344 90q274 0 219 -309l-72 -416q-6 -39 -9 -56t-7 -54t0 -56.5t11.5 -43t24.5 -34t44 -10.5q86 0 176 139.5t123 383.5q27 145 8.5 278t-69 235.5t-159 163t-261.5 60.5 q-238 0 -425.5 -143.5t-282.5 -362.5t-95 -467q0 -266 127 -443.5t358 -177.5q86 0 167 25t120 49l39 23l43 -76q-16 -12 -47 -30.5t-128 -48.5t-196 -30q-268 0 -420.5 202t-152.5 507zM569 307q0 -72 34 -108.5t91 -36.5q111 -1 267 151q31 188 34 207q-10 2 -54 14.5 t-83 19.5t-72 7q-111 0 -164 -77.5t-53 -176.5z" />
<glyph unicode="A" horiz-adv-x="1173" d="M-57 0l698 1434h186l193 -1434h-176l-37 350h-512l-160 -350h-192zM360 496h431l-80 766z" />
<glyph unicode="B" horiz-adv-x="1171" d="M63 0l254 1434h398q182 0 279.5 -82t97.5 -222q0 -158 -93.5 -256t-193.5 -114q86 -18 157.5 -92t71.5 -215q0 -211 -126 -332t-351 -121h-494zM258 143h287q154 0 238.5 91.5t84.5 230.5q0 106 -67.5 162.5t-188.5 56.5h-258zM379 821h242q111 0 205 75t94 208 q0 86 -57.5 136t-174.5 50h-227z" />
<glyph unicode="C" horiz-adv-x="1112" d="M117 520q0 403 173 669.5t429 266.5q86 0 173 -38t135 -73.5t126 -105.5l-100 -119q-188 176 -324 176q-180 0 -308 -226t-128 -546q0 -197 58.5 -292t160.5 -95q143 0 383 176l76 -135q-145 -94 -261 -147.5t-231 -53.5q-168 0 -265 135.5t-97 407.5z" />
<glyph unicode="D" horiz-adv-x="1224" d="M63 0l254 1434h281q262 0 403.5 -135.5t141.5 -393.5q0 -246 -79 -446.5t-251 -329.5t-414 -129h-336zM260 154h131q262 0 421 204.5t159 540.5q0 381 -391 381h-119z" />
<glyph unicode="E" horiz-adv-x="1038" d="M63 0l254 1434h756l-26 -154h-586l-86 -487h483l-27 -152h-483l-88 -487h600l-29 -154h-768z" />
<glyph unicode="F" horiz-adv-x="993" d="M63 0l254 1434h756l-26 -154h-586l-86 -487h467l-27 -152h-467l-115 -641h-170z" />
<glyph unicode="G" horiz-adv-x="1216" d="M119 502q0 432 174 693t428 261q88 0 180 -40t147.5 -83t129.5 -108l-105 -119q-6 4 -16 14q-59 51 -96 81t-105 62.5t-127 32.5q-182 0 -308 -225t-126 -551q0 -182 54 -285.5t163 -103.5q152 0 365 207l53 297h-309l24 147h471l-137 -782h-162l31 172 q-207 -195 -381 -195q-156 0 -252 133.5t-96 391.5z" />
<glyph unicode="H" horiz-adv-x="1234" d="M63 0l254 1434h170l-108 -607h551l108 607h168l-252 -1434h-170l119 676h-551l-119 -676h-170z" />
<glyph unicode="I" horiz-adv-x="516" d="M63 0l254 1434h170l-254 -1434h-170z" />
<glyph unicode="J" horiz-adv-x="514" d="M-160 -162q145 53 182 95t56 153l239 1348h168l-235 -1342q-12 -74 -19.5 -102.5t-24 -76.5t-38 -68.5t-61 -50.5t-94 -50t-136.5 -45z" />
<glyph unicode="K" horiz-adv-x="1136" d="M63 0l254 1434h170l-133 -752l639 752h219l-598 -678l390 -756h-191l-315 625l-193 -222l-72 -403h-170z" />
<glyph unicode="L" horiz-adv-x="950" d="M63 0l254 1434h170l-227 -1282h571l-26 -152h-742z" />
<glyph unicode="M" horiz-adv-x="1449" d="M63 0l254 1434h179l198 -971l549 971h178l-254 -1434h-168l191 1092l-481 -852h-97l-180 886l-199 -1126h-170z" />
<glyph unicode="N" horiz-adv-x="1261" d="M63 0l254 1434h175l368 -1153l205 1153h170l-254 -1434h-172l-373 1161l-203 -1161h-170z" />
<glyph unicode="O" horiz-adv-x="1294" d="M117 504q0 98 19.5 215t67.5 250t116.5 239.5t180.5 177t247 70.5q227 0 345.5 -132t118.5 -392q0 -98 -19 -216t-67.5 -251t-118 -239.5t-181 -177.5t-246.5 -71q-225 0 -344 133.5t-119 393.5zM289 504q0 -373 295 -373q121 0 215 96.5t143 234.5t72.5 261t23.5 207 q0 373 -293 373q-121 0 -216 -96.5t-144 -234.5t-72.5 -261t-23.5 -207z" />
<glyph unicode="P" horiz-adv-x="1132" d="M63 0l254 1434h388q201 0 309 -88.5t108 -266.5q0 -248 -149.5 -385t-403.5 -137h-237l-99 -557h-170zM358 707h213q166 0 271.5 93t105.5 267q0 215 -250 215h-237z" />
<glyph unicode="Q" horiz-adv-x="1294" d="M117 504q0 98 19.5 215t67.5 250t116.5 239.5t180.5 177t247 70.5q227 0 345.5 -132t118.5 -392q0 -111 -26.5 -244t-78.5 -274.5t-151.5 -255t-224.5 -156.5l172 -207l-133 -106l-205 288q-219 4 -333.5 136.5t-114.5 390.5zM289 504q0 -373 295 -373q121 0 215 96.5 t143 234.5t72.5 261t23.5 207q0 373 -293 373q-121 0 -216 -96.5t-144 -234.5t-72.5 -261t-23.5 -207z" />
<glyph unicode="R" horiz-adv-x="1189" d="M63 0l254 1434h433q415 0 415 -334q0 -190 -108.5 -317.5t-292.5 -161.5l213 -621h-176l-197 608h-262l-109 -608h-170zM367 754h256q172 0 269 87.5t97 243.5q0 203 -254 203h-274z" />
<glyph unicode="S" d="M10 152l101 127q209 -150 372 -150q117 0 197 66.5t80 179.5q0 55 -18.5 96t-69.5 83t-80 59.5t-113 64.5q-145 86 -217 168t-72 217q0 176 122 284.5t311 108.5q213 0 434 -139l-99 -125q-174 113 -335 113q-104 0 -178 -62.5t-74 -171.5q0 -59 33.5 -106t65.5 -70 t130 -78q17 -10 27 -16q74 -43 119 -76t95 -83t73.5 -113.5t23.5 -141.5q0 -184 -131 -297t-324 -113q-246 0 -473 175z" />
<glyph unicode="T" horiz-adv-x="972" d="M158 1280l28 154h891l-28 -154h-361l-225 -1280h-170l225 1280h-360z" />
<glyph unicode="U" horiz-adv-x="1218" d="M125 291q-2 25 -2 51q0 72 16 154l166 938h170l-168 -955q-14 -72 -13 -129q0 -75 22 -127q40 -92 196 -92q291 0 350 348l170 955h170l-170 -959q-41 -231 -162.5 -364.5t-363.5 -133.5q-131 0 -216 40t-121 110t-44 164z" />
<glyph unicode="V" horiz-adv-x="1169" d="M186 1434h183l131 -1237l565 1237h199l-699 -1434h-186z" />
<glyph unicode="W" horiz-adv-x="1603" d="M203 1434h184l23 -1178l454 1178h152l35 -1178l436 1178h194l-573 -1434h-176l-39 1155l-444 -1155h-177z" />
<glyph unicode="X" horiz-adv-x="1075" d="M-66 0l525 717l-252 717h186l176 -594l385 594h205l-506 -717l275 -717h-189l-194 586l-398 -586h-213z" />
<glyph unicode="Y" horiz-adv-x="1083" d="M174 1434h178l197 -713l442 713h199l-576 -863l-100 -571h-168l98 567z" />
<glyph unicode="Z" horiz-adv-x="1058" d="M-33 0l25 139l868 1141h-631l27 154h850l-25 -138l-868 -1142h678l-27 -154h-897z" />
<glyph unicode="[" horiz-adv-x="614" d="M2 -295l356 2013h387l-20 -119h-217l-313 -1775h217l-23 -119h-387z" />
<glyph unicode="\" horiz-adv-x="763" d="M217 1618h125l238 -1802h-125z" />
<glyph unicode="]" horiz-adv-x="614" d="M-96 -295l20 119h217l314 1775h-217l22 119h387l-356 -2013h-387z" />
<glyph unicode="^" d="M156 711l442 723h168l188 -723h-166l-122 571l-322 -571h-188z" />
<glyph unicode="_" horiz-adv-x="1208" d="M-27 -299l23 129h940l-23 -129h-940z" />
<glyph unicode="`" horiz-adv-x="380" d="M254 1493h199l163 -266h-129z" />
<glyph unicode="a" horiz-adv-x="1050" d="M74 330q0 315 122.5 541.5t317.5 226.5q145 0 287 -174l26 151h164l-190 -1075h-164l29 166q-180 -188 -342 -189q-109 0 -179.5 88.5t-70.5 264.5zM242 354q0 -111 34.5 -173t102.5 -62q137 0 315 200l82 463q-111 174 -233 174q-90 0 -161 -94t-105.5 -230t-34.5 -278z " />
<glyph unicode="b" horiz-adv-x="1044" d="M33 0l264 1493h162l-99 -555q172 160 316 160q119 0 195.5 -88t76.5 -267q0 -203 -51 -375.5t-151.5 -281.5t-227.5 -109q-66 0 -126 30t-94 60.5t-77 77.5l-24 -145h-164zM248 289q113 -170 241 -170q127 0 209 188.5t82 416.5q0 232 -159 232q-121 0 -287 -170z" />
<glyph unicode="c" horiz-adv-x="890" d="M72 397q0 319 142 510t323 191q33 0 65.5 -5.5t63 -17.5t54 -21.5t53.5 -28.5t42 -28.5t40 -30t32 -22.5l-88 -115l-29 23q-31 25 -46 35t-46 28.5t-59.5 26.5t-57.5 8q-127 0 -225 -157.5t-98 -380.5q0 -135 46 -211t132 -76q33 0 78 16.5t71.5 29.5t73.5 43t49 30 l62 -131q-2 -2 -26 -14.5t-31 -16.5t-31.5 -17.5t-37 -19.5t-36 -17.5t-40 -16.5t-40 -13t-43 -11t-42 -6.5t-42.5 -3.5q-139 0 -224 112t-85 308z" />
<glyph unicode="d" horiz-adv-x="1050" d="M74 330q0 315 122.5 541.5t317.5 226.5q145 0 287 -174l100 569h164l-264 -1493h-164l29 166q-180 -188 -342 -189q-109 0 -179.5 88.5t-70.5 264.5zM242 354q0 -111 34.5 -173t102.5 -62q137 0 315 200l82 463q-111 174 -233 174q-90 0 -161 -94t-105.5 -230t-34.5 -278 z" />
<glyph unicode="e" horiz-adv-x="962" d="M72 416q0 297 144 489.5t380 192.5q141 0 221 -73t80 -194q0 -180 -148.5 -275t-418.5 -95h-92v-47q0 -301 186 -301q33 0 68.5 8t76.5 28.5t63.5 32t69 40t50.5 30.5l59 -119q-244 -156 -416 -156q-152 0 -237.5 111t-85.5 328zM250 571h92q195 0 296 71t101 183 q0 68 -43.5 105t-111.5 37q-121 0 -212 -112t-122 -284z" />
<glyph unicode="f" horiz-adv-x="622" d="M-170 -301q150 53 186.5 104.5t65.5 219.5l162 921h-119l25 131h116l27 150q25 141 80 204.5t155 63.5q123 0 279 -78l-78 -115q-109 45 -176 46q-76 0 -96 -117l-27 -154h232l-25 -131h-231l-158 -911q-12 -63 -17.5 -93t-15.5 -76t-19.5 -66.5t-24.5 -52.5t-33.5 -46 t-44 -35.5t-59.5 -36t-75 -30t-96 -31.5z" />
<glyph unicode="g" horiz-adv-x="1050" d="M-27 -360l60 139q199 -78 340 -78q215 0 252 236l41 227q-178 -186 -342 -187q-109 0 -179.5 88.5t-70.5 264.5q0 315 122.5 541.5t317.5 226.5q145 0 287 -174l26 151h162l-201 -1138q-37 -209 -137 -292t-268 -83q-195 0 -410 78zM242 354q0 -235 139 -235 q80 0 153.5 53t157.5 147l84 465q-111 172 -233 172q-90 0 -161 -94t-105.5 -230t-34.5 -278z" />
<glyph unicode="h" horiz-adv-x="1042" d="M33 0l264 1493h162l-99 -563q205 168 373 168q127 0 179 -87q34 -57 33 -141q0 -44 -9 -96l-135 -774h-166l133 750q8 44 8 79q0 129 -107 129h-1q-78 0 -172.5 -55t-161.5 -119l-137 -784h-164z" />
<glyph unicode="i" horiz-adv-x="446" d="M33 0l190 1075h162l-188 -1075h-164zM252 1288l37 199h178l-37 -199h-178z" />
<glyph unicode="j" horiz-adv-x="448" d="M-217 -301q80 29 122 49.5t67.5 52t33.5 59t19 89.5l198 1126h164l-199 -1116q-12 -72 -19 -102.5t-24.5 -77.5t-39 -68.5t-60.5 -51.5t-94 -50.5t-135 -42.5zM254 1288l35 199h178l-35 -199h-178z" />
<glyph unicode="k" horiz-adv-x="911" d="M33 0l264 1493h162l-168 -950l430 532h199l-383 -440l243 -635h-168l-186 508l-176 -203l-53 -305h-164z" />
<glyph unicode="l" horiz-adv-x="462" d="M41 0l264 1493h164l-264 -1493h-164z" />
<glyph unicode="m" horiz-adv-x="1560" d="M33 0l190 1075h162l-29 -157q180 180 338 180q98 0 149.5 -55.5t57.5 -143.5q188 199 356 199q129 0 175 -88q30 -57 31 -139q0 -44 -9 -95l-135 -776h-164l133 754q9 46 9 82q0 122 -104 122h-1q-131 0 -303 -192l-133 -766h-164l135 754q9 45 9 81q0 123 -106 123h-1 q-127 0 -297 -188l-135 -770h-164z" />
<glyph unicode="n" horiz-adv-x="1042" d="M33 0l190 1075h162l-27 -145q211 168 375 168q129 0 179 -87q33 -57 33 -141q0 -45 -9 -98l-135 -772h-164l133 752q7 42 7 76q0 130 -108 130h-1q-78 0 -171.5 -55t-162.5 -119l-137 -784h-164z" />
<glyph unicode="o" horiz-adv-x="1046" d="M72 389q0 125 30.5 248t90 227.5t155.5 169t217 64.5q172 0 277.5 -102.5t105.5 -309.5q0 -172 -51 -328.5t-167 -268.5t-273 -112q-172 0 -278.5 102.5t-106.5 309.5zM236 387q0 -272 221 -272q106 0 185 104.5t110.5 230t31.5 238.5q0 272 -221 273q-106 0 -185 -104.5 t-110.5 -230.5t-31.5 -239z" />
<glyph unicode="p" horiz-adv-x="1044" d="M-41 -418l264 1493h162l-25 -139q170 162 318 162q119 0 194.5 -88t75.5 -267q0 -203 -51 -375.5t-151.5 -281.5t-227.5 -109q-152 0 -297 170l-98 -565h-164zM246 289q113 -170 243 -170q86 0 155 94t102.5 229.5t33.5 281.5q0 232 -159 232q-123 0 -287 -172z" />
<glyph unicode="q" horiz-adv-x="1050" d="M74 330q0 315 122.5 541.5t317.5 226.5q145 0 287 -174l26 151h164l-264 -1493h-164l103 584q-180 -188 -342 -189q-109 0 -179.5 88.5t-70.5 264.5zM242 354q0 -111 34.5 -173t102.5 -62q137 0 315 200l82 463q-111 174 -233 174q-90 0 -161 -94t-105.5 -230t-34.5 -278 z" />
<glyph unicode="r" horiz-adv-x="673" d="M33 0l190 1075h162l-41 -229q149 242 344 242q14 0 29 -1l-29 -161q-80 0 -149.5 -36t-111.5 -87t-73.5 -102.5t-44.5 -86.5l-12 -36l-100 -578h-164z" />
<glyph unicode="s" horiz-adv-x="892" d="M-4 119l88 117q172 -121 307 -121q80 0 139.5 46t59.5 126q0 18 -3 33.5t-11.5 30t-14.5 24.5t-21.5 22.5t-23.5 18.5t-31.5 18t-32 16.5t-37 18.5t-36.5 18q-78 37 -124 68t-87 93.5t-41 142.5q0 139 99.5 223t250.5 84q188 0 359 -119l-84 -113q-147 94 -273 95 q-78 0 -132 -42t-54 -114q0 -18 3 -33.5t11 -30t15.5 -25.5t22.5 -22.5t23.5 -18.5t29 -17.5t29.5 -14.5t32.5 -14.5t29.5 -14.5q133 -66 201 -135t68 -184q0 -145 -103.5 -231.5t-261.5 -86.5q-199 0 -397 142z" />
<glyph unicode="t" horiz-adv-x="661" d="M117 262l121 682h-121l22 131h123l47 268l170 43l-55 -311h240l-25 -131h-240l-123 -702q-4 -23 -4 -42q0 -73 62 -73q39 0 166 53l41 -133q-160 -70 -258 -70q-97 0 -145 69q-31 44 -31 121q0 42 10 95z" />
<glyph unicode="u" horiz-adv-x="1042" d="M80 303l135 772h164l-133 -749q-8 -44 -7 -79q0 -130 109 -130q76 0 172 56t162 118l137 784h164l-190 -1075h-162l24 145q-207 -168 -372 -168q-129 -1 -179 87q-33 57 -33 141q0 45 9 98z" />
<glyph unicode="v" horiz-adv-x="958" d="M129 1075h168l96 -889l408 889h184l-539 -1075h-161z" />
<glyph unicode="w" horiz-adv-x="1390" d="M139 1075h170l35 -868l358 868h140l49 -862l338 862h178l-463 -1075h-156l-55 840l-354 -840h-156z" />
<glyph unicode="x" horiz-adv-x="985" d="M-72 0l457 541l-248 534h176l174 -428l326 428h203l-441 -534l269 -541h-180l-187 440l-338 -440h-211z" />
<glyph unicode="y" horiz-adv-x="958" d="M-35 -295q131 53 197.5 106.5t124.5 163.5l-158 1100h168l100 -872l408 872h180l-534 -1075q-39 -78 -56.5 -110.5t-50.5 -87t-58.5 -78t-68.5 -57.5t-94 -56.5t-121 -44.5z" />
<glyph unicode="z" horiz-adv-x="886" d="M-33 0l25 131l665 801h-510l27 143h711l-23 -131l-667 -801h528l-27 -143h-729z" />
<glyph unicode="{" horiz-adv-x="690" d="M68 639l24 145q104 0 152.5 78t54.5 174l12 197q16 240 126 362.5t333 122.5h51l-20 -116h-33q-254 0 -281 -340l-14 -195q-10 -162 -74.5 -247t-185.5 -109q215 -59 135 -361l-47 -172q-20 -78 -26.5 -133t3 -109.5t54.5 -83t125 -28.5h30l-20 -117h-33 q-205 0 -285.5 131t-17.5 365l53 186q35 141 5.5 195.5t-121.5 54.5z" />
<glyph unicode="|" horiz-adv-x="456" d="M10 -252l342 1927h127l-342 -1927h-127z" />
<glyph unicode="}" horiz-adv-x="690" d="M-96 -293l20 117h33q254 0 281 340l14 194q10 162 74.5 247t185.5 110q-215 59 -135 360l47 172q20 78 26.5 133.5t-3 109.5t-54.5 83t-125 29h-30l20 116h33q205 0 285.5 -131t17.5 -364l-53 -187q-35 -141 -5.5 -195.5t121.5 -54.5l-24 -145q-104 0 -152.5 -78 t-54.5 -174l-12 -196q-16 -240 -126 -363t-333 -123h-51z" />
<glyph unicode="~" d="M43 469q135 240 299 240q88 0 204 -76t177 -76q86 0 176 143l105 -51q-131 -240 -299 -239q-88 0 -204 75.5t-177 75.5q-87 0 -177 -143z" />
<glyph unicode="&#xa1;" horiz-adv-x="505" d="M47 0l225 1006h101l-127 -1006h-199zM264 1196l41 238h182l-41 -238h-182z" />
<glyph unicode="&#xa2;" horiz-adv-x="970" d="M123 578q0 319 142.5 509.5t320.5 190.5h4l28 156h125l-32 -179q31 -10 59.5 -23t57 -31.5t46 -31t46 -35t34.5 -26.5l-88 -111q-2 2 -30.5 24.5t-45 35t-47 30t-57.5 27.5l-139 -795q37 12 76 33t85 49.5t50 30.5l59 -129q-186 -111 -297 -135l-28 -168h-127l28 160 q-125 16 -197.5 124.5t-72.5 293.5zM289 592q0 -244 131 -281l143 811q-115 -31 -194.5 -180t-79.5 -350z" />
<glyph unicode="&#xa3;" horiz-adv-x="966" d="M8 0l21 125q8 6 23.5 19.5t57.5 54.5t75.5 86t68.5 111.5t49 133.5h-184l22 119h170q-4 63 -41 195.5t-37 216.5q0 178 102.5 286.5t272.5 108.5q82 0 163 -30.5t119 -55t103 -72.5l-96 -110q-162 117 -268 117q-100 0 -165 -71t-65 -181q0 -72 38 -198t40 -206h271 l-21 -119h-262q-41 -213 -215 -378h520l-27 -152h-735z" />
<glyph unicode="&#xa5;" horiz-adv-x="1146" d="M121 344l22 117h318l18 106l-12 41h-297l20 117h240l-221 709h178l197 -713l442 713h199l-473 -709h241l-20 -117h-299l-25 -37l-20 -110h317l-22 -117h-316l-59 -344h-168l59 344h-319z" />
<glyph unicode="&#xa6;" horiz-adv-x="458" d="M12 -252l150 846h125l-150 -846h-125zM203 829l149 846h127l-149 -846h-127z" />
<glyph unicode="&#xa7;" horiz-adv-x="968" d="M35 -29l86 113q147 -94 270 -94q80 0 134.5 42t54.5 113q0 70 -46.5 107t-132.5 76q-14 6 -20 8q-133 61 -199.5 134t-66.5 179q0 104 63.5 176t167.5 101q-111 86 -110 221q0 141 99 225t251 84q190 0 360 -119l-86 -112q-147 94 -270 94q-80 0 -134.5 -42t-54.5 -114 q0 -18 3.5 -33.5t12.5 -30t15 -24.5t22.5 -22.5t23.5 -18.5t29.5 -17t29 -14.5t33 -15.5t30.5 -14q131 -59 198.5 -132t67.5 -179.5t-63.5 -178t-167.5 -100.5q111 -86 110 -221q0 -141 -99 -225t-249 -84q-188 0 -362 118zM276 672q0 -37 12.5 -64.5t47.5 -53.5t63.5 -42 t98.5 -49l10 -4q86 8 141.5 54t55.5 126q0 49 -29 85t-66 57.5t-125 64.5l-10 4q-86 -8 -142.5 -54t-56.5 -124z" />
<glyph unicode="&#xa8;" horiz-adv-x="405" d="M201 1247l35 193h153l-35 -193h-153zM492 1247l34 193h152l-33 -193h-153z" />
<glyph unicode="&#xa9;" horiz-adv-x="1677" d="M127 641q0 342 210 578.5t572 236.5q311 0 493.5 -183t182.5 -480q0 -221 -88 -403.5t-270.5 -297.5t-425.5 -115q-309 0 -491.5 184.5t-182.5 479.5zM205 643q0 -262 161.5 -427t442.5 -165q319 0 509.5 213t190.5 527q0 262 -161.5 425.5t-444.5 163.5 q-319 0 -508.5 -212t-189.5 -525zM477 618q-10 250 112 396.5t302 146.5q160 0 328 -137l-56 -59q-145 117 -272 116q-143 0 -236.5 -130t-85.5 -326q4 -127 58.5 -200t144.5 -73q152 0 313 113l48 -68q-190 -127 -355 -127q-127 0 -211 91.5t-90 256.5z" />
<glyph unicode="&#xaa;" horiz-adv-x="765" d="M180 993q0 188 77 321.5t200 133.5q86 0 176 -100l16 86h121l-113 -646h-122l16 93q-111 -106 -209 -107q-72 0 -117 55.5t-45 163.5zM305 1010q0 -131 82 -131q84 0 182 110l47 260q-63 94 -137 94q-76 0 -125 -104t-49 -229z" />
<glyph unicode="&#xab;" horiz-adv-x="1165" d="M53 518l19 109l587 454l-36 -194l-430 -328l317 -326l-31 -170zM532 518l19 109l588 454l-37 -194l-430 -328l317 -326l-31 -170z" />
<glyph unicode="&#xac;" d="M45 614l25 136h962l-100 -566h-144l76 430h-819z" />
<glyph unicode="&#xad;" horiz-adv-x="759" d="M117 510l26 145h486l-25 -145h-487z" />
<glyph unicode="&#xae;" horiz-adv-x="942" d="M176 1071q0 168 104.5 286t286.5 118q154 0 245 -91.5t91 -240.5q0 -170 -104.5 -288t-284.5 -118q-156 0 -247 92t-91 242zM242 1071q0 -119 74.5 -193.5t201.5 -74.5q147 0 234.5 97t87.5 241q0 117 -76 192.5t-203 75.5q-145 0 -232 -96.5t-87 -241.5zM373 926l65 370 h164q51 0 82 -27.5t31 -68.5q0 -47 -32 -76.5t-83 -38.5l62 -159h-68l-55 157h-74l-27 -157h-65zM477 1141h92q82 0 82 59q0 37 -51 37h-106z" />
<glyph unicode="&#xaf;" horiz-adv-x="501" d="M231 1278l21 113h493l-20 -113h-494z" />
<glyph unicode="&#xb0;" horiz-adv-x="815" d="M176 1122q0 129 91 220.5t220 91.5t220.5 -91.5t91.5 -220.5q0 -127 -91.5 -219t-220.5 -92t-220 92t-91 219zM287 1122q0 -82 59.5 -140t141 -58t140 58t58.5 140t-58.5 141.5t-140 59.5t-141 -59.5t-59.5 -141.5z" />
<glyph unicode="&#xb1;" d="M6 0l23 123h837l-20 -123h-840zM115 618l24 136h348l58 317h135l-55 -317h354l-25 -136h-354l-55 -319h-137l55 319h-348z" />
<glyph unicode="&#xb2;" horiz-adv-x="677" d="M100 788l13 74q12 68 37.5 121t75.5 101.5t79 70t100.5 70.5t109.5 78.5t68.5 71.5t30.5 83t-28.5 66.5t-79.5 25.5q-92 0 -203 -71l-47 92q133 92 264 92q102 0 161.5 -54.5t59.5 -142.5q0 -47 -20.5 -93t-37.5 -72.5t-72.5 -72.5t-69 -54.5t-80.5 -53.5 q-14 -10 -21 -14q-82 -55 -119.5 -99t-50.5 -108h373l-18 -111h-525z" />
<glyph unicode="&#xb3;" horiz-adv-x="684" d="M100 877l70 86q104 -76 201 -76q80 0 131 46t51 118q0 74 -57.5 110.5t-139.5 36.5h-28l18 113h35q78 0 144.5 44t66.5 109q0 41 -27.5 63.5t-75.5 22.5q-90 0 -190 -65l-43 90q131 88 260 88q98 0 151.5 -49t53.5 -125q0 -72 -47 -133.5t-135 -95.5q61 -20 101 -77 t40 -132q0 -111 -79 -194t-222 -83q-152 1 -279 103z" />
<glyph unicode="&#xb4;" horiz-adv-x="380" d="M199 1227l243 266h224l-322 -266h-145z" />
<glyph unicode="&#xb5;" horiz-adv-x="1101" d="M-18 -418l264 1493h164l-134 -749q-37 -209 103 -209q76 0 172 56t162 118l137 784h164l-191 -1075h-161l24 145q-207 -168 -373 -168q-55 0 -96 19l-74 -414h-161z" />
<glyph unicode="&#xb6;" horiz-adv-x="1132" d="M127 903q0 233 139.5 382t366.5 149h145l-321 -1813h-142l164 930q-164 0 -258 91t-94 261zM633 -379l321 1813h142l-320 -1813h-143z" />
<glyph unicode="&#xb7;" horiz-adv-x="452" d="M106 461l46 248h180l-43 -248h-183z" />
<glyph unicode="&#xb8;" horiz-adv-x="290" d="M-61 -313l53 98q39 -25 84 -25q43 0 73.5 29t30.5 92q0 27 -6 57.5t-10 49.5l-6 16h75q41 -68 41 -154q0 -92 -55 -147t-143 -55q-80 0 -137 39z" />
<glyph unicode="&#xb9;" horiz-adv-x="520" d="M195 1530l208 119h117l-153 -861h-125l129 725l-133 -73z" />
<glyph unicode="&#xba;" horiz-adv-x="751" d="M178 1030q0 162 82 290t232 128q113 0 181 -64.5t68 -191.5q0 -162 -81.5 -290t-229.5 -128q-113 0 -182.5 64.5t-69.5 191.5zM299 1028q0 -154 131 -154q90 0 140.5 108t50.5 212q0 154 -129 154q-90 0 -141.5 -107.5t-51.5 -212.5z" />
<glyph unicode="&#xbb;" horiz-adv-x="1165" d="M14 63l37 195l430 328l-317 325l31 170l426 -454l-19 -109zM492 63l36 195l430 328l-317 325l31 170l426 -454l-19 -109z" />
<glyph unicode="&#xbc;" horiz-adv-x="1402" d="M176 0l803 1434h133l-803 -1434h-133zM176 1315l209 119h117l-154 -861h-125l129 725l-133 -73zM633 182l16 97l443 581h168l-103 -567h113l-21 -111h-110l-33 -182h-125l33 182h-381zM780 293h252l78 436z" />
<glyph unicode="&#xbd;" horiz-adv-x="1449" d="M176 0l803 1434h133l-803 -1434h-133zM176 1315l209 119h117l-154 -861h-125l129 725l-133 -73zM719 0l12 74q12 68 38 121t76 101t78.5 69.5t100.5 70.5q106 74 157.5 124t51.5 110q0 41 -28.5 66.5t-80.5 25.5q-92 0 -202 -72l-48 92q133 92 265 92q102 0 161.5 -54 t59.5 -142q0 -47 -20.5 -93t-38 -73t-72.5 -73t-68.5 -54t-81.5 -53q-14 -10 -20 -15q-82 -55 -120 -99t-50 -107h373l-19 -111h-524z" />
<glyph unicode="&#xbe;" horiz-adv-x="1597" d="M88 662l70 86q104 -76 200 -76q80 0 131.5 46t51.5 118q0 74 -57.5 110.5t-139.5 36.5h-29l19 113h35q78 0 144.5 44t66.5 109q0 41 -28 63.5t-75 22.5q-90 0 -190 -65l-43 90q131 88 260 88q98 0 151.5 -49t53.5 -125q0 -72 -47.5 -133.5t-135.5 -96.5 q61 -20 101.5 -76.5t40.5 -131.5q0 -111 -79 -194t-222 -83q-150 1 -279 103zM373 0l803 1434h133l-803 -1434h-133zM829 182l17 97l442 581h168l-102 -567h112l-20 -111h-111l-32 -182h-125l32 182h-381zM977 293h252l78 436z" />
<glyph unicode="&#xbf;" horiz-adv-x="876" d="M25 270q0 90 39.5 169t107.5 133.5t141.5 92t155.5 62.5l61 279h111l-51 -377q-391 -113 -391 -338q0 -78 48 -120t126 -42q121 0 293 111l67 -123q-199 -139 -387 -140q-139 0 -230 76t-91 217zM528 1196l41 238h183l-41 -238h-183z" />
<glyph unicode="&#xc0;" horiz-adv-x="1173" d="M-57 0l698 1434h186l193 -1434h-176l-37 350h-512l-160 -350h-192zM360 496h431l-80 766zM528 1802h199l164 -266h-129z" />
<glyph unicode="&#xc1;" horiz-adv-x="1173" d="M-57 0l698 1434h186l193 -1434h-176l-37 350h-512l-160 -350h-192zM360 496h431l-80 766zM616 1536l244 266h223l-321 -266h-146z" />
<glyph unicode="&#xc2;" horiz-adv-x="1173" d="M-57 0l698 1434h186l193 -1434h-176l-37 350h-512l-160 -350h-192zM360 496h431l-80 766zM498 1536l213 266h178l121 -266h-111l-108 176l-168 -176h-125z" />
<glyph unicode="&#xc3;" horiz-adv-x="1173" d="M-57 0l698 1434h186l193 -1434h-176l-37 350h-512l-160 -350h-192zM360 496h431l-80 766zM500 1610q51 84 89 120.5t91 36.5q49 0 110.5 -50t83.5 -50q39 0 103 96l76 -55q-51 -84 -89 -120t-94 -36q-47 0 -108.5 49.5t-85.5 49.5q-42 -1 -101 -95z" />
<glyph unicode="&#xc4;" horiz-adv-x="1173" d="M-57 0l698 1434h186l193 -1434h-176l-37 350h-512l-160 -350h-192zM360 496h431l-80 766zM535 1556l34 193h154l-35 -193h-153zM825 1556l35 193h152l-33 -193h-154z" />
<glyph unicode="&#xc5;" horiz-adv-x="1177" d="M-57 0l698 1434h186l193 -1434h-176l-37 350h-512l-160 -350h-192zM360 496h431l-80 766zM584 1714q0 84 57 141.5t141 57.5q82 0 140.5 -57.5t58.5 -141.5t-57.5 -141t-141.5 -57t-141 57t-57 141zM676 1714q0 -45 30.5 -75.5t75.5 -30.5q43 0 75 30.5t32 75.5t-32 76 t-75 31q-45 0 -75.5 -31t-30.5 -76z" />
<glyph unicode="&#xc6;" horiz-adv-x="1716" d="M-119 0l1051 1434h819l-27 -154h-585l-86 -487h483l-27 -152h-483l-88 -487h600l-29 -154h-768l62 350h-455l-248 -350h-219zM455 500h374l125 702z" />
<glyph unicode="&#xc7;" horiz-adv-x="1112" d="M117 520q0 403 173 669.5t429 266.5q86 0 173 -38t135 -73.5t126 -105.5l-100 -119q-188 176 -324 176q-180 0 -308 -226t-128 -546q0 -197 58.5 -292t160.5 -95q143 0 383 176l76 -135q-276 -178 -441 -196q29 -61 29 -132q0 -92 -55 -147t-144 -55q-80 0 -137 39l53 98 q39 -25 84 -25q43 0 74 29t31 92q0 41 -14 99q-156 10 -245 145t-89 395z" />
<glyph unicode="&#xc8;" horiz-adv-x="1038" d="M63 0l254 1434h756l-26 -154h-586l-86 -487h483l-27 -152h-483l-88 -487h600l-29 -154h-768zM496 1802h198l164 -266h-129z" />
<glyph unicode="&#xc9;" horiz-adv-x="1038" d="M63 0l254 1434h756l-26 -154h-586l-86 -487h483l-27 -152h-483l-88 -487h600l-29 -154h-768zM575 1536l244 266h223l-321 -266h-146z" />
<glyph unicode="&#xca;" horiz-adv-x="1038" d="M63 0l254 1434h756l-26 -154h-586l-86 -487h483l-27 -152h-483l-88 -487h600l-29 -154h-768zM463 1536l213 266h178l121 -266h-111l-108 176l-168 -176h-125z" />
<glyph unicode="&#xcb;" horiz-adv-x="1038" d="M63 0l254 1434h756l-26 -154h-586l-86 -487h483l-27 -152h-483l-88 -487h600l-29 -154h-768zM504 1556l35 193h153l-35 -193h-153zM795 1556l34 193h152l-33 -193h-153z" />
<glyph unicode="&#xcc;" horiz-adv-x="516" d="M63 0l254 1434h170l-254 -1434h-170zM199 1802h198l164 -266h-129z" />
<glyph unicode="&#xcd;" horiz-adv-x="516" d="M63 0l254 1434h170l-254 -1434h-170zM279 1536l243 266h223l-321 -266h-145z" />
<glyph unicode="&#xce;" horiz-adv-x="516" d="M63 0l254 1434h170l-254 -1434h-170zM164 1536l213 266h178l121 -266h-111l-108 176l-168 -176h-125z" />
<glyph unicode="&#xcf;" horiz-adv-x="516" d="M63 0l254 1434h170l-254 -1434h-170zM203 1556l35 193h153l-35 -193h-153zM494 1556l34 193h152l-33 -193h-153z" />
<glyph unicode="&#xd0;" horiz-adv-x="1241" d="M70 645l24 143h125l115 646h280q262 0 403.5 -135.5t141.5 -393.5q0 -246 -79 -446.5t-251 -329.5t-413 -129h-336l115 645h-125zM276 154h132q262 0 420.5 204.5t158.5 540.5q0 381 -391 381h-119l-88 -492h273l-27 -143h-270z" />
<glyph unicode="&#xd1;" horiz-adv-x="1261" d="M63 0l254 1434h175l368 -1153l205 1153h170l-254 -1434h-172l-373 1161l-203 -1161h-170zM549 1610q51 84 89 120.5t91 36.5q49 0 110.5 -50t84.5 -50q39 0 102 96l76 -55q-51 -84 -89 -120t-93 -36q-47 0 -108.5 49.5t-86.5 49.5q-41 -1 -100 -95z" />
<glyph unicode="&#xd2;" horiz-adv-x="1294" d="M117 504q0 98 19.5 215t67.5 250t116.5 239.5t180.5 177t247 70.5q227 0 345.5 -132t118.5 -392q0 -98 -19 -216t-67.5 -251t-118 -239.5t-181 -177.5t-246.5 -71q-225 0 -344 133.5t-119 393.5zM289 504q0 -373 295 -373q121 0 215 96.5t143 234.5t72.5 261t23.5 207 q0 373 -293 373q-121 0 -216 -96.5t-144 -234.5t-72.5 -261t-23.5 -207zM586 1802h198l164 -266h-129z" />
<glyph unicode="&#xd3;" horiz-adv-x="1294" d="M117 504q0 98 19.5 215t67.5 250t116.5 239.5t180.5 177t247 70.5q227 0 345.5 -132t118.5 -392q0 -98 -19 -216t-67.5 -251t-118 -239.5t-181 -177.5t-246.5 -71q-225 0 -344 133.5t-119 393.5zM289 504q0 -373 295 -373q121 0 215 96.5t143 234.5t72.5 261t23.5 207 q0 373 -293 373q-121 0 -216 -96.5t-144 -234.5t-72.5 -261t-23.5 -207zM666 1536l243 266h224l-322 -266h-145z" />
<glyph unicode="&#xd4;" horiz-adv-x="1294" d="M117 504q0 98 19.5 215t67.5 250t116.5 239.5t180.5 177t247 70.5q227 0 345.5 -132t118.5 -392q0 -98 -19 -216t-67.5 -251t-118 -239.5t-181 -177.5t-246.5 -71q-225 0 -344 133.5t-119 393.5zM289 504q0 -373 295 -373q121 0 215 96.5t143 234.5t72.5 261t23.5 207 q0 373 -293 373q-121 0 -216 -96.5t-144 -234.5t-72.5 -261t-23.5 -207zM555 1536l213 266h178l121 -266h-111l-108 176l-168 -176h-125z" />
<glyph unicode="&#xd5;" horiz-adv-x="1294" d="M117 504q0 98 19.5 215t67.5 250t116.5 239.5t180.5 177t247 70.5q227 0 345.5 -132t118.5 -392q0 -98 -19 -216t-67.5 -251t-118 -239.5t-181 -177.5t-246.5 -71q-225 0 -344 133.5t-119 393.5zM289 504q0 -373 295 -373q121 0 215 96.5t143 234.5t72.5 261t23.5 207 q0 373 -293 373q-121 0 -216 -96.5t-144 -234.5t-72.5 -261t-23.5 -207zM553 1610q51 84 89 120.5t91 36.5q47 0 108.5 -50t86.5 -50q39 0 102 96l76 -55q-51 -84 -89 -120t-93 -36q-47 0 -108.5 49.5t-86.5 49.5q-41 -1 -100 -95z" />
<glyph unicode="&#xd6;" horiz-adv-x="1294" d="M117 504q0 98 19.5 215t67.5 250t116.5 239.5t180.5 177t247 70.5q227 0 345.5 -132t118.5 -392q0 -98 -19 -216t-67.5 -251t-118 -239.5t-181 -177.5t-246.5 -71q-225 0 -344 133.5t-119 393.5zM289 504q0 -373 295 -373q121 0 215 96.5t143 234.5t72.5 261t23.5 207 q0 373 -293 373q-121 0 -216 -96.5t-144 -234.5t-72.5 -261t-23.5 -207zM592 1556l35 193h153l-35 -193h-153zM883 1556l35 193h151l-33 -193h-153z" />
<glyph unicode="&#xd7;" horiz-adv-x="1073" d="M152 410l305 282l-207 285l110 80l197 -273l297 275l90 -98l-307 -285l207 -283l-111 -78l-196 269l-295 -271z" />
<glyph unicode="&#xd8;" horiz-adv-x="1292" d="M33 0l147 188q-63 121 -63 316q0 98 19.5 215t67.5 250t116.5 239.5t180.5 177t247 70.5q215 0 333 -119l76 97h135l-147 -187q68 -129 67 -315q0 -98 -19 -216t-67.5 -251t-118 -239.5t-181 -177.5t-246.5 -71q-217 0 -334 121l-78 -98h-135zM289 504q0 -94 16 -158 l668 854q-72 102 -228 103q-121 0 -216 -96.5t-144 -234.5t-72.5 -261t-23.5 -207zM352 236q76 -105 232 -105q121 0 215 96.5t143 234.5t72.5 261t23.5 207q0 82 -16 157z" />
<glyph unicode="&#xd9;" horiz-adv-x="1218" d="M125 291q-8 94 14 205l166 938h170l-168 -955q-31 -164 9 -256t196 -92q291 0 350 348l170 955h170l-170 -959q-41 -231 -162.5 -364.5t-363.5 -133.5q-131 0 -216 40t-121 110t-44 164zM547 1802h198l164 -266h-129z" />
<glyph unicode="&#xda;" horiz-adv-x="1218" d="M125 291q-8 94 14 205l166 938h170l-168 -955q-31 -164 9 -256t196 -92q291 0 350 348l170 955h170l-170 -959q-41 -231 -162.5 -364.5t-363.5 -133.5q-131 0 -216 40t-121 110t-44 164zM627 1536l243 266h224l-322 -266h-145z" />
<glyph unicode="&#xdb;" horiz-adv-x="1218" d="M125 291q-8 94 14 205l166 938h170l-168 -955q-31 -164 9 -256t196 -92q291 0 350 348l170 955h170l-170 -959q-41 -231 -162.5 -364.5t-363.5 -133.5q-131 0 -216 40t-121 110t-44 164zM514 1536l213 266h178l121 -266h-111l-108 176l-168 -176h-125z" />
<glyph unicode="&#xdc;" horiz-adv-x="1218" d="M125 291q-8 94 14 205l166 938h170l-168 -955q-31 -164 9 -256t196 -92q291 0 350 348l170 955h170l-170 -959q-41 -231 -162.5 -364.5t-363.5 -133.5q-131 0 -216 40t-121 110t-44 164zM555 1556l35 193h153l-34 -193h-154zM846 1556l35 193h151l-33 -193h-153z" />
<glyph unicode="&#xdd;" horiz-adv-x="1083" d="M174 1434h178l197 -713l442 713h199l-576 -863l-100 -571h-168l98 567zM557 1536l244 266h223l-322 -266h-145z" />
<glyph unicode="&#xde;" horiz-adv-x="1140" d="M63 0l254 1434h170l-45 -256h220q417 -1 417 -353q0 -248 -148.5 -386t-400.5 -138h-243l-54 -301h-170zM313 451h219q164 0 267.5 93t103.5 269q0 215 -248 215h-239z" />
<glyph unicode="&#xdf;" horiz-adv-x="1136" d="M35 0l178 1014q43 246 163 344t331 98q457 0 370 -459l-4 -22l-108 -92q-102 78 -201 78q-68 0 -116 -44.5t-48 -117.5q0 -39 11.5 -66.5t43 -52.5t47 -34t62.5 -34q119 -66 176 -136t57 -179q0 -147 -96 -233.5t-237 -86.5q-184 0 -357 144l84 115q55 -49 130 -85 t134 -36q68 0 121 48t53 126q0 37 -11 64.5t-46 56t-49 37t-70 40.5q-111 66 -164 128.5t-53 170.5q0 139 89 225.5t229 86.5q86 0 170 -37q14 141 -41.5 199.5t-180.5 58.5q-133 0 -216 -70.5t-115 -257.5l-174 -991h-162z" />
<glyph unicode="&#xe0;" horiz-adv-x="1050" d="M74 330q0 315 122.5 541.5t317.5 226.5q145 0 287 -174l26 151h164l-190 -1075h-164l29 166q-180 -188 -342 -189q-109 0 -179.5 88.5t-70.5 264.5zM242 354q0 -111 34.5 -173t102.5 -62q137 0 315 200l82 463q-111 174 -233 174q-90 0 -161 -94t-105.5 -230t-34.5 -278z M432 1493h199l164 -266h-129z" />
<glyph unicode="&#xe1;" horiz-adv-x="1044" d="M74 330q0 315 122.5 541.5t317.5 226.5q145 0 287 -174l26 151h164l-190 -1075h-164l29 166q-180 -188 -342 -189q-109 0 -179.5 88.5t-70.5 264.5zM242 354q0 -111 34.5 -173t102.5 -62q137 0 315 200l82 463q-111 174 -233 174q-90 0 -161 -94t-105.5 -230t-34.5 -278z M483 1227l244 266h223l-321 -266h-146z" />
<glyph unicode="&#xe2;" horiz-adv-x="1050" d="M74 330q0 315 122.5 541.5t317.5 226.5q145 0 287 -174l26 151h164l-190 -1075h-164l29 166q-180 -188 -342 -189q-109 0 -179.5 88.5t-70.5 264.5zM242 354q0 -111 34.5 -173t102.5 -62q137 0 315 200l82 463q-111 174 -233 174q-90 0 -161 -94t-105.5 -230t-34.5 -278z M399 1227l213 266h179l120 -266h-110l-109 176l-168 -176h-125z" />
<glyph unicode="&#xe3;" horiz-adv-x="1050" d="M74 330q0 315 122.5 541.5t317.5 226.5q145 0 287 -174l26 151h164l-190 -1075h-164l29 166q-180 -188 -342 -189q-109 0 -179.5 88.5t-70.5 264.5zM242 354q0 -111 34.5 -173t102.5 -62q137 0 315 200l82 463q-111 174 -233 174q-90 0 -161 -94t-105.5 -230t-34.5 -278z M403 1300q51 84 89 121t92 37q47 0 108.5 -50t85.5 -50q39 0 103 96l75 -55q-51 -84 -89 -120t-93 -36q-47 0 -108.5 49t-85.5 49q-42 0 -101 -94z" />
<glyph unicode="&#xe4;" horiz-adv-x="1050" d="M74 330q0 315 122.5 541.5t317.5 226.5q145 0 287 -174l26 151h164l-190 -1075h-164l29 166q-180 -188 -342 -189q-109 0 -179.5 88.5t-70.5 264.5zM242 354q0 -111 34.5 -173t102.5 -62q137 0 315 200l82 463q-111 174 -233 174q-90 0 -161 -94t-105.5 -230t-34.5 -278z M442 1247l35 193h154l-35 -193h-154zM733 1247l35 193h152l-33 -193h-154z" />
<glyph unicode="&#xe5;" horiz-adv-x="1050" d="M74 330q0 315 122.5 541.5t317.5 226.5q145 0 287 -174l26 151h164l-190 -1075h-164l29 166q-180 -188 -342 -189q-109 0 -179.5 88.5t-70.5 264.5zM242 354q0 -111 34.5 -173t102.5 -62q137 0 315 200l82 463q-111 174 -233 174q-90 0 -161 -94t-105.5 -230t-34.5 -278z M492 1405q0 84 57 141.5t141 57.5t141.5 -58.5t57.5 -140.5q0 -84 -57.5 -141.5t-141.5 -57.5t-141 57.5t-57 141.5zM584 1405q0 -45 30.5 -76t75.5 -31q43 0 75 31t32 76t-32 75.5t-75 30.5q-45 0 -75.5 -30.5t-30.5 -75.5z" />
<glyph unicode="&#xe6;" horiz-adv-x="1589" d="M74 330q0 315 122.5 541.5t317.5 226.5q145 0 287 -174l26 151h164l-8 -41q109 63 238 64q141 0 221 -73t80 -194q0 -180 -148.5 -275t-419.5 -95h-92v-47q0 -301 187 -301q33 0 68.5 8t76.5 28.5t63.5 32t68.5 40t50 30.5l60 -119q-244 -156 -416 -156q-131 0 -209 78 l-10 -55h-162l29 168q-182 -190 -344 -191q-109 0 -179.5 88.5t-70.5 264.5zM242 354q0 -111 34.5 -173t102.5 -62q139 0 315 203l4 24q-2 33 -2 70q0 211 76 372q-109 168 -229 168q-90 0 -161 -94t-105.5 -230t-34.5 -278zM874 571h93q195 0 296 71t101 183q0 68 -44 105 t-112 37q-121 0 -212 -112t-122 -284z" />
<glyph unicode="&#xe7;" horiz-adv-x="890" d="M72 397q0 319 142 510t323 191q33 0 65.5 -5.5t63 -17.5t54 -21.5t53.5 -28.5t42 -28.5t40 -30t32 -22.5l-88 -115l-29 23q-31 25 -46 35t-46 28.5t-59.5 26.5t-57.5 8q-127 0 -225 -157.5t-98 -380.5q0 -135 46 -211t132 -76q33 0 78 16.5t71.5 29.5t73.5 43t49 30 l62 -131q-2 0 -25 -13.5t-28 -16.5t-28.5 -15.5t-33.5 -17.5t-32.5 -16t-37 -16.5t-37 -12.5t-40 -11t-38 -8t-40.5 -6q29 -61 28 -130q0 -92 -55 -147t-143 -55q-81 0 -138 39l54 98q39 -25 84 -25q43 0 73.5 29t30.5 92q0 41 -16 101q-117 20 -186.5 128.5t-69.5 286.5z " />
<glyph unicode="&#xe8;" horiz-adv-x="962" d="M72 416q0 297 144 489.5t380 192.5q141 0 221 -73t80 -194q0 -180 -148.5 -275t-418.5 -95h-92v-47q0 -301 186 -301q33 0 68.5 8t76.5 28.5t63.5 32t69 40t50.5 30.5l59 -119q-244 -156 -416 -156q-152 0 -237.5 111t-85.5 328zM250 571h92q195 0 296 71t101 183 q0 68 -43.5 105t-111.5 37q-121 0 -212 -112t-122 -284zM399 1493h199l164 -266h-129z" />
<glyph unicode="&#xe9;" horiz-adv-x="964" d="M72 416q0 297 144 489.5t380 192.5q141 0 221 -73t80 -194q0 -180 -148.5 -275t-418.5 -95h-92v-47q0 -301 186 -301q33 0 68.5 8t76.5 28.5t63.5 32t69 40t50.5 30.5l59 -119q-244 -156 -416 -156q-152 0 -237.5 111t-85.5 328zM250 571h92q195 0 296 71t101 183 q0 68 -43.5 105t-111.5 37q-121 0 -212 -112t-122 -284zM479 1227l244 266h223l-321 -266h-146z" />
<glyph unicode="&#xea;" horiz-adv-x="962" d="M72 416q0 297 144 489.5t380 192.5q141 0 221 -73t80 -194q0 -180 -148.5 -275t-418.5 -95h-92v-47q0 -301 186 -301q33 0 68.5 8t76.5 28.5t63.5 32t69 40t50.5 30.5l59 -119q-244 -156 -416 -156q-152 0 -237.5 111t-85.5 328zM250 571h92q195 0 296 71t101 183 q0 68 -43.5 105t-111.5 37q-121 0 -212 -112t-122 -284zM367 1227l213 266h178l121 -266h-111l-109 176l-167 -176h-125z" />
<glyph unicode="&#xeb;" horiz-adv-x="962" d="M72 416q0 297 144 489.5t380 192.5q141 0 221 -73t80 -194q0 -180 -148.5 -275t-418.5 -95h-92v-47q0 -301 186 -301q33 0 68.5 8t76.5 28.5t63.5 32t69 40t50.5 30.5l59 -119q-244 -156 -416 -156q-152 0 -237.5 111t-85.5 328zM250 571h92q195 0 296 71t101 183 q0 68 -43.5 105t-111.5 37q-121 0 -212 -112t-122 -284zM406 1247l34 193h154l-35 -193h-153zM696 1247l35 193h152l-33 -193h-154z" />
<glyph unicode="&#xec;" horiz-adv-x="446" d="M33 0l190 1075h162l-188 -1075h-164zM109 1493h198l164 -266h-129z" />
<glyph unicode="&#xed;" horiz-adv-x="446" d="M33 0l190 1075h162l-188 -1075h-164zM188 1227l244 266h223l-321 -266h-146z" />
<glyph unicode="&#xee;" horiz-adv-x="446" d="M33 0l190 1075h162l-188 -1075h-164zM76 1227l213 266h178l121 -266h-111l-108 176l-168 -176h-125z" />
<glyph unicode="&#xef;" horiz-adv-x="448" d="M33 0l190 1075h162l-188 -1075h-164zM115 1247l35 193h153l-35 -193h-153zM406 1247l34 193h152l-33 -193h-153z" />
<glyph unicode="&#xf0;" horiz-adv-x="1060" d="M63 387q0 246 136.5 417t332.5 171q72 0 129.5 -24.5t89 -62.5t45 -59.5t19.5 -37.5q-8 332 -180 450l-111 -98h-164l164 145q-27 6 -59.5 6t-66 -4t-52.5 -8l-18 -6v139q66 18 151 19q94 0 172 -31l103 90h164l-166 -147q217 -168 217 -590q0 -352 -144.5 -565.5 t-386.5 -213.5q-176 0 -275.5 109t-99.5 301zM233 383q0 -268 213 -268q111 0 191 77.5t111.5 178t31.5 202.5q0 123 -55 194t-164 71q-150 0 -239 -138.5t-89 -316.5z" />
<glyph unicode="&#xf1;" horiz-adv-x="1042" d="M33 0l190 1075h162l-27 -145q211 168 375 168q129 0 179.5 -87t23.5 -239l-135 -772h-164l133 752q35 207 -102 206q-78 0 -171.5 -55t-162.5 -119l-137 -784h-164zM379 1300q51 84 89 121t91 37q47 0 108.5 -50t86.5 -50q39 0 102 96l76 -55q-51 -84 -89 -120t-93 -36 q-47 0 -108.5 49t-86.5 49q-41 0 -100 -94z" />
<glyph unicode="&#xf2;" horiz-adv-x="1046" d="M72 389q0 125 30.5 248t90 227.5t155.5 169t217 64.5q172 0 277.5 -102.5t105.5 -309.5q0 -172 -51 -328.5t-167 -268.5t-273 -112q-172 0 -278.5 102.5t-106.5 309.5zM236 387q0 -272 221 -272q106 0 185 104.5t110.5 230t31.5 238.5q0 272 -221 273q-106 0 -185 -104.5 t-110.5 -230.5t-31.5 -239zM408 1493h198l164 -266h-129z" />
<glyph unicode="&#xf3;" horiz-adv-x="1046" d="M72 389q0 125 30.5 248t90 227.5t155.5 169t217 64.5q172 0 277.5 -102.5t105.5 -309.5q0 -172 -51 -328.5t-167 -268.5t-273 -112q-172 0 -278.5 102.5t-106.5 309.5zM236 387q0 -272 221 -272q106 0 185 104.5t110.5 230t31.5 238.5q0 272 -221 273q-106 0 -185 -104.5 t-110.5 -230.5t-31.5 -239zM487 1227l244 266h223l-321 -266h-146z" />
<glyph unicode="&#xf4;" horiz-adv-x="1046" d="M72 389q0 125 30.5 248t90 227.5t155.5 169t217 64.5q172 0 277.5 -102.5t105.5 -309.5q0 -172 -51 -328.5t-167 -268.5t-273 -112q-172 0 -278.5 102.5t-106.5 309.5zM236 387q0 -272 221 -272q106 0 185 104.5t110.5 230t31.5 238.5q0 272 -221 273q-106 0 -185 -104.5 t-110.5 -230.5t-31.5 -239zM377 1227l213 266h178l121 -266h-111l-108 176l-168 -176h-125z" />
<glyph unicode="&#xf5;" horiz-adv-x="1046" d="M72 389q0 125 30.5 248t90 227.5t155.5 169t217 64.5q172 0 277.5 -102.5t105.5 -309.5q0 -172 -51 -328.5t-167 -268.5t-273 -112q-172 0 -278.5 102.5t-106.5 309.5zM236 387q0 -272 221 -272q106 0 185 104.5t110.5 230t31.5 238.5q0 272 -221 273q-106 0 -185 -104.5 t-110.5 -230.5t-31.5 -239zM377 1300q51 84 89 121t91 37q49 0 110.5 -50t84.5 -50q39 0 102 96l76 -55q-51 -84 -89 -120t-93 -36q-47 0 -108.5 49t-86.5 49q-41 0 -100 -94z" />
<glyph unicode="&#xf6;" horiz-adv-x="1046" d="M72 389q0 125 30.5 248t90 227.5t155.5 169t217 64.5q172 0 277.5 -102.5t105.5 -309.5q0 -172 -51 -328.5t-167 -268.5t-273 -112q-172 0 -278.5 102.5t-106.5 309.5zM236 387q0 -272 221 -272q106 0 185 104.5t110.5 230t31.5 238.5q0 272 -221 273q-106 0 -185 -104.5 t-110.5 -230.5t-31.5 -239zM416 1247l35 193h153l-35 -193h-153zM707 1247l34 193h152l-33 -193h-153z" />
<glyph unicode="&#xf7;" d="M111 614l24 136h840l-25 -136h-839zM379 344q0 41 30.5 71.5t73.5 30.5q41 0 72 -30.5t31 -71.5q0 -43 -31 -73.5t-72 -30.5q-43 0 -73.5 30.5t-30.5 73.5zM500 1022q0 43 29.5 73.5t72.5 30.5t74 -30.5t31 -73.5t-31 -72.5t-74 -29.5t-72.5 29.5t-29.5 72.5z" />
<glyph unicode="&#xf8;" horiz-adv-x="1046" d="M12 0l117 143q-57 96 -57 246q0 125 30.5 248t90 227.5t155.5 169t217 64.5q166 0 264 -90l56 67h119l-115 -141q59 -94 59 -248q0 -172 -51 -328.5t-167 -268.5t-273 -112q-168 0 -269 93l-55 -70h-121zM236 387q0 -53 10 -100l485 600q-55 74 -168 74 q-106 0 -185 -104.5t-110.5 -230.5t-31.5 -239zM287 188q55 -73 170 -73q106 0 185 104.5t110.5 230t31.5 238.5q0 51 -10 103z" />
<glyph unicode="&#xf9;" horiz-adv-x="1042" d="M80 303l135 772h164l-133 -749q-37 -209 102 -209q76 0 172 56t162 118l137 784h164l-190 -1075h-162l24 145q-207 -168 -372 -168q-129 0 -179.5 87.5t-23.5 238.5zM401 1493h199l164 -266h-129z" />
<glyph unicode="&#xfa;" horiz-adv-x="1042" d="M80 303l135 772h164l-133 -749q-37 -209 102 -209q76 0 172 56t162 118l137 784h164l-190 -1075h-162l24 145q-207 -168 -372 -168q-129 0 -179.5 87.5t-23.5 238.5zM481 1227l244 266h223l-321 -266h-146z" />
<glyph unicode="&#xfb;" horiz-adv-x="1042" d="M80 303l135 772h164l-133 -749q-37 -209 102 -209q76 0 172 56t162 118l137 784h164l-190 -1075h-162l24 145q-207 -168 -372 -168q-129 0 -179.5 87.5t-23.5 238.5zM369 1227l213 266h178l121 -266h-111l-108 176l-168 -176h-125z" />
<glyph unicode="&#xfc;" horiz-adv-x="1042" d="M80 303l135 772h164l-133 -749q-37 -209 102 -209q76 0 172 56t162 118l137 784h164l-190 -1075h-162l24 145q-207 -168 -372 -168q-129 0 -179.5 87.5t-23.5 238.5zM408 1247l34 193h154l-35 -193h-153zM698 1247l35 193h152l-33 -193h-154z" />
<glyph unicode="&#xfd;" horiz-adv-x="958" d="M-35 -295q131 53 197.5 106.5t124.5 163.5l-158 1100h168l100 -872l408 872h180l-534 -1075q-39 -78 -56.5 -110.5t-50.5 -87t-58.5 -78t-68.5 -57.5t-94 -56.5t-121 -44.5zM442 1227l244 266h223l-321 -266h-146z" />
<glyph unicode="&#xfe;" horiz-adv-x="1044" d="M-41 -418l338 1911h162l-99 -557q170 162 318 162q119 0 194.5 -88t75.5 -267q0 -203 -51 -375.5t-151.5 -281.5t-227.5 -109q-152 0 -297 170l-98 -565h-164zM248 289q113 -170 241 -170q86 0 155 94t102.5 229.5t33.5 278.5q1 235 -159 235q-72 0 -137.5 -44 t-149.5 -128z" />
<glyph unicode="&#xff;" horiz-adv-x="958" d="M-35 -295q131 53 197.5 106.5t124.5 163.5l-158 1100h168l100 -872l408 872h180l-534 -1075q-39 -78 -56.5 -110.5t-50.5 -87t-58.5 -78t-68.5 -57.5t-94 -56.5t-121 -44.5zM367 1247l34 193h154l-35 -193h-153zM657 1247l35 193h152l-33 -193h-154z" />
<glyph unicode="&#x152;" horiz-adv-x="1878" d="M117 504q0 98 19.5 215t67.5 250t116.5 239.5t180 177t247.5 70.5q268 0 380 -180l29 158h756l-27 -154h-586l-86 -487h484l-27 -152h-483l-88 -487h600l-29 -154h-768l23 127q-145 -150 -346 -150q-225 0 -344 133.5t-119 393.5zM289 504q0 -373 295 -373 q121 0 215 96.5t143 234.5t72.5 261t23.5 207q0 373 -293 373q-121 0 -216 -96.5t-144 -234.5t-72.5 -261t-23.5 -207z" />
<glyph unicode="&#x153;" horiz-adv-x="1660" d="M72 389q0 125 30.5 248t90 227.5t155.5 169t217 64.5q256 0 344 -201q145 201 385 201q141 0 221 -73t80 -194q0 -180 -148.5 -275t-418.5 -95h-92v-47q0 -301 186 -301q33 0 69 8t77 28.5t63.5 32t68.5 40t50 30.5l59 -119q-244 -156 -415 -156q-211 0 -287 201 q-139 -201 -350 -201q-172 0 -278.5 102.5t-106.5 309.5zM236 387q0 -272 221 -272q106 0 185 104.5t110.5 230t31.5 238.5q0 272 -221 273q-106 0 -185 -104.5t-110.5 -230.5t-31.5 -239zM948 571h92q195 0 296.5 71t101.5 183q0 68 -44 105t-112 37q-121 0 -212 -112 t-122 -284z" />
<glyph unicode="&#x178;" horiz-adv-x="1083" d="M174 1434h178l197 -713l442 713h199l-576 -863l-100 -571h-168l98 567zM481 1556l35 193h154l-35 -193h-154zM772 1556l35 193h151l-32 -193h-154z" />
<glyph unicode="&#x2c6;" horiz-adv-x="471" d="M197 1227l213 266h178l121 -266h-111l-109 176l-167 -176h-125z" />
<glyph unicode="&#x2dc;" horiz-adv-x="497" d="M209 1300q51 84 89 121t91 37q49 0 110.5 -50t84.5 -50q39 0 102 96l76 -55q-51 -84 -89 -120t-93 -36q-47 0 -108.5 49t-86.5 49q-41 0 -100 -94z" />
<glyph unicode="&#x2000;" horiz-adv-x="956" />
<glyph unicode="&#x2001;" horiz-adv-x="1913" />
<glyph unicode="&#x2002;" horiz-adv-x="956" />
<glyph unicode="&#x2003;" horiz-adv-x="1913" />
<glyph unicode="&#x2004;" horiz-adv-x="637" />
<glyph unicode="&#x2005;" horiz-adv-x="478" />
<glyph unicode="&#x2006;" horiz-adv-x="318" />
<glyph unicode="&#x2007;" horiz-adv-x="318" />
<glyph unicode="&#x2008;" horiz-adv-x="239" />
<glyph unicode="&#x2009;" horiz-adv-x="382" />
<glyph unicode="&#x200a;" horiz-adv-x="106" />
<glyph unicode="&#x2010;" horiz-adv-x="759" d="M117 510l26 145h486l-25 -145h-487z" />
<glyph unicode="&#x2011;" horiz-adv-x="759" d="M117 510l26 145h486l-25 -145h-487z" />
<glyph unicode="&#x2012;" horiz-adv-x="759" d="M117 510l26 145h486l-25 -145h-487z" />
<glyph unicode="&#x2013;" horiz-adv-x="974" d="M117 512l26 143h703l-25 -143h-704z" />
<glyph unicode="&#x2014;" horiz-adv-x="1146" d="M117 512l24 143h877l-25 -143h-876z" />
<glyph unicode="&#x2018;" horiz-adv-x="438" d="M188 950l27 262l201 258l41 -61l-127 -211h80l-43 -248h-179z" />
<glyph unicode="&#x2019;" horiz-adv-x="425" d="M180 975l127 211h-80l43 248h179l-27 -263l-201 -258z" />
<glyph unicode="&#x201a;" horiz-adv-x="454" d="M-16 -211l127 211h-80l43 248h178l-27 -262l-200 -258z" />
<glyph unicode="&#x201c;" horiz-adv-x="759" d="M188 950l27 262l201 258l41 -61l-127 -211h80l-43 -248h-179zM510 950l27 262l200 258l41 -61l-127 -211h80l-43 -248h-178z" />
<glyph unicode="&#x201d;" horiz-adv-x="747" d="M180 975l127 211h-80l43 248h179l-27 -263l-201 -258zM502 975l127 211h-80l43 248h178l-27 -263l-200 -258z" />
<glyph unicode="&#x201e;" horiz-adv-x="778" d="M-16 -211l127 211h-80l43 248h178l-27 -262l-200 -258zM305 -211l127 211h-80l43 248h178l-26 -262l-201 -258z" />
<glyph unicode="&#x2022;" horiz-adv-x="849" d="M160 583.5q0 106.5 75.5 183.5t182 77t183.5 -76t77 -184q0 -106 -76 -182t-184 -76q-106 0 -182 75.5t-76 182z" />
<glyph unicode="&#x2026;" horiz-adv-x="1163" d="M29 0l45 248h180l-43 -248h-182zM385 0l45 248h180l-43 -248h-182zM739 0l45 248h181l-43 -248h-183z" />
<glyph unicode="&#x202f;" horiz-adv-x="382" />
<glyph unicode="&#x2039;" horiz-adv-x="688" d="M53 518l19 109l587 454l-36 -194l-430 -328l317 -326l-31 -170z" />
<glyph unicode="&#x203a;" horiz-adv-x="688" d="M14 63l37 195l430 328l-317 325l31 170l426 -454l-19 -109z" />
<glyph unicode="&#x205f;" horiz-adv-x="478" />
<glyph unicode="&#x20ac;" horiz-adv-x="1218" d="M74 489l20 109h96q6 125 27 225h-84l19 109h94q72 240 217 382t328 142q86 0 173 -38t135 -73.5t126 -105.5l-101 -119q-188 176 -323 176q-115 0 -213.5 -98t-157.5 -266h465l-18 -109h-480q-25 -109 -30 -225h471l-21 -109h-452q4 -178 63 -265t156 -87q143 0 383 176 l75 -135q-145 -94 -260.5 -147.5t-230.5 -53.5q-162 0 -259 127t-104 385h-114z" />
<glyph unicode="&#x2122;" horiz-adv-x="1126" d="M252 1356l14 78h350l-12 -78h-133l-68 -381h-86l68 381h-133zM598 975l80 459h90l78 -283l182 283h90l-80 -459h-86l54 305l-148 -229h-53l-66 239l-55 -315h-86z" />
<glyph unicode="&#xe000;" horiz-adv-x="1075" d="M0 0v1075h1075v-1075h-1075z" />
</font>
</defs>
</svg>
