<?xml version="1.0" standalone="no"?>
<!DOCTYPE svg PUBLIC "-//W3C//DTD SVG 1.1//EN" "http://www.w3.org/Graphics/SVG/1.1/DTD/svg11.dtd" >
<svg xmlns="http://www.w3.org/2000/svg">
<metadata></metadata>
<defs>
<font id="verbexcondbold_italic" horiz-adv-x="1099" >
<font-face units-per-em="2048" ascent="1638" descent="-410" />
<missing-glyph horiz-adv-x="428" />
<glyph unicode="&#xfb01;" horiz-adv-x="1189" d="M-180 -242q106 39 151 74t61.5 77t35.5 148l141 801h-117l39 217h117l10 55q31 186 100.5 274.5t200.5 88.5q119 0 272 -82l-102 -201q-72 29 -108 29q-63 0 -80 -98l-13 -66h213l-41 -217h-211l-137 -778q-12 -72 -18 -102.5t-18.5 -84t-23.5 -76t-29.5 -60.5t-41 -55 t-55.5 -44t-75 -43t-94 -35.5t-120 -38.5zM688 0l191 1075h280l-190 -1075h-281zM899 1231l45 256h295l-45 -256h-295z" />
<glyph unicode="&#xfb02;" horiz-adv-x="1196" d="M-180 -242q106 39 151 74t61.5 77t35.5 148l141 801h-117l39 217h117l10 55q31 186 100.5 274.5t200.5 88.5q119 0 272 -82l-102 -201q-72 29 -108 29q-63 0 -80 -98l-13 -66h213l-41 -217h-211l-137 -778q-12 -72 -18 -102.5t-18.5 -84t-23.5 -76t-29.5 -60.5t-41 -55 t-55.5 -44t-75 -43t-94 -35.5t-120 -38.5zM694 0l262 1493h281l-262 -1493h-281z" />
<glyph unicode="&#xfb03;" horiz-adv-x="1878" d="M-180 -242q106 39 151 74t61.5 77t35.5 148l139 801h-115l39 217h115l10 55q31 186 102.5 274.5t206.5 88.5q150 0 330 -102l-131 -191q-82 39 -143 39q-63 0 -82 -98l-13 -66h215l-41 -217h-211l-137 -778q-12 -72 -18 -103.5t-18.5 -84t-23.5 -75t-29.5 -60.5t-41 -55 t-54.5 -44t-75 -43t-95 -35.5t-120 -38.5zM508 -242q106 39 151.5 74t61.5 77t35 148l141 801h-117l39 217h117l10 55q31 186 100.5 274.5t200.5 88.5q119 0 273 -82l-103 -201q-72 29 -108 29q-63 0 -80 -98l-12 -66h213l-41 -217h-211l-138 -778q-12 -72 -18 -102.5 t-18.5 -84t-23.5 -76t-29.5 -60.5t-41 -55t-55.5 -44t-75 -43t-94 -35.5t-120 -38.5zM1376 0l191 1075h280l-190 -1075h-281zM1587 1231l45 256h295l-45 -256h-295z" />
<glyph unicode="&#xfb04;" horiz-adv-x="1884" d="M-180 -242q106 39 151 74t61.5 77t35.5 148l139 801h-115l39 217h115l10 55q31 186 102.5 274.5t206.5 88.5q150 0 330 -102l-131 -191q-82 39 -143 39q-63 0 -82 -98l-13 -66h215l-41 -217h-211l-137 -778q-12 -72 -18 -103.5t-18.5 -84t-23.5 -75t-29.5 -60.5t-41 -55 t-54.5 -44t-75 -43t-95 -35.5t-120 -38.5zM508 -242q106 39 151.5 74t61.5 77t35 148l141 801h-117l39 217h117l10 55q31 186 100.5 274.5t200.5 88.5q119 0 273 -82l-103 -201q-72 29 -108 29q-63 0 -80 -98l-12 -66h213l-41 -217h-211l-138 -778q-12 -72 -18 -102.5 t-18.5 -84t-23.5 -76t-29.5 -60.5t-41 -55t-55.5 -44t-75 -43t-94 -35.5t-120 -38.5zM1382 0l263 1493h280l-262 -1493h-281z" />
<glyph horiz-adv-x="2048" />
<glyph horiz-adv-x="2048" />
<glyph unicode="&#xd;" horiz-adv-x="681" />
<glyph unicode=" "  horiz-adv-x="428" />
<glyph unicode="&#x09;" horiz-adv-x="428" />
<glyph unicode="&#xa0;" horiz-adv-x="428" />
<glyph unicode="!" horiz-adv-x="548" d="M25 0l55 311h285l-56 -311h-284zM164 463l84 971h342l-258 -971h-168z" />
<glyph unicode="&#x22;" horiz-adv-x="792" d="M170 874l53 560h266l-145 -560h-174zM532 874l54 560h266l-145 -560h-175z" />
<glyph unicode="#" horiz-adv-x="1251" d="M18 324l41 221h209l103 342h-183l39 223h209l99 324h217l-99 -324h213l99 324h217l-99 -324h185l-41 -223h-209l-103 -342h183l-39 -221h-211l-96 -324h-217l96 324h-213l-96 -324h-218l97 324h-183zM485 545h213l103 342h-213z" />
<glyph unicode="$" horiz-adv-x="1146" d="M-4 180l164 209q229 -156 381 -156q78 0 129 42t51 114q0 33 -12.5 59.5t-45 52t-54 40t-80 45t-83.5 45.5q-135 84 -207.5 176t-72.5 225q0 178 124 299t337 125l32 184h203l-37 -206q160 -39 330 -142l-166 -211q-76 47 -170 83t-165.5 36t-122 -39t-50.5 -110 q0 -31 10.5 -54.5t40 -47t49 -36t77 -42t85.5 -46.5q137 -84 215 -177t78 -236q0 -178 -128 -302t-341 -133l-32 -182h-201l35 205q-201 47 -373 180z" />
<glyph unicode="%" horiz-adv-x="1730" d="M135 989q0 113 37 215.5t124 177t208 74.5q133 0 222 -76.5t89 -224.5q0 -113 -37 -215t-123 -177t-206 -75q-135 0 -224.5 77t-89.5 224zM342 989q0 -131 111 -131q39 0 71.5 33t50 81t26.5 96t9 87q0 131 -110 131q-39 0 -72 -32.5t-50.5 -81t-26.5 -96.5t-9 -87z M346 0l854 1434h215l-852 -1434h-217zM950 279q0 113 38 215t124 176.5t207 74.5q133 0 223 -76.5t90 -224.5q0 -113 -38 -215t-124 -177t-206 -75q-135 0 -224.5 77t-89.5 225zM1157 279q0 -132 111 -132q39 0 71.5 33t50 81t26.5 96.5t9 86.5q0 131 -110 131 q-39 0 -72 -32.5t-50 -80.5t-26.5 -96.5t-9.5 -86.5z" />
<glyph unicode="&#x26;" horiz-adv-x="1259" d="M55 319q0 145 83 251t231 208q-96 160 -97 295q0 174 112 278.5t282 104.5q154 0 241.5 -83t87.5 -208t-80.5 -224t-230.5 -212l150 -223q72 123 106 250h281q-70 -252 -240 -467l195 -289h-304l-71 109q-174 -131 -373 -132q-172 0 -272.5 94.5t-100.5 247.5zM330 336 q0 -57 32.5 -97t98.5 -40q100 0 215 104l-184 281q-162 -133 -162 -248zM520 1075q0 -74 47 -164q86 61 130 114.5t44 117.5q0 102 -90 102q-61 0 -96 -50t-35 -120z" />
<glyph unicode="'" horiz-adv-x="430" d="M170 874l53 560h266l-145 -560h-174z" />
<glyph unicode="(" horiz-adv-x="614" d="M22.5 -28.5q-2.5 90.5 20.5 223.5l186 1046q14 84 24.5 127t32 98.5t50.5 84t78 62.5t117.5 57.5t168.5 47.5l43 -178q-123 -49 -158.5 -92t-54.5 -148l-211 -1183q-23 -106 -4 -153.5t115 -96.5l-82 -160q-174 49 -248.5 111.5t-77 153z" />
<glyph unicode=")" horiz-adv-x="608" d="M-98 -115q123 49 158.5 92t54.5 148l211 1184q23 106 4 153t-115 97l82 159q174 -49 249 -111.5t77 -152.5t-21 -223l-186 -1047q-14 -84 -24.5 -127t-32 -98t-50 -84t-78 -62.5t-118 -57t-168.5 -48.5z" />
<glyph unicode="*" horiz-adv-x="929" d="M147 1032l314 31l-283 139l150 178l184 -258l-25 316l232 -41l-129 -287l256 180l80 -223l-301 -31l270 -137l-150 -178l-178 246l21 -305l-232 38l131 289l-260 -178z" />
<glyph unicode="+" horiz-adv-x="1124" d="M123 573l41 220h317l62 340h221l-62 -340h324l-39 -220h-323l-60 -340h-221l59 340h-319z" />
<glyph unicode="," horiz-adv-x="499" d="M-45 -227l170 227h-125l57 338h285l-49 -375l-281 -289z" />
<glyph unicode="-" horiz-adv-x="765" d="M82 465l41 237h549l-41 -237h-549z" />
<glyph unicode="." horiz-adv-x="497" d="M0 0l59 338h283l-59 -338h-283z" />
<glyph unicode="/" horiz-adv-x="841" d="M-98 -184l856 1802h219l-856 -1802h-219z" />
<glyph unicode="0" horiz-adv-x="1210" d="M96 473q0 82 13.5 189.5t54.5 252t104.5 261t177.5 198.5t259 82q238 0 341 -137t103 -358q0 -66 -10.5 -152t-33 -201.5t-68.5 -223.5t-109.5 -202t-163.5 -150.5t-221 -56.5q-123 0 -213 39t-139.5 111t-72 158t-22.5 190zM383 442q0 -109 31 -168t125 -59 q84 0 151.5 99.5t102 237.5t53 255t18.5 182q0 109 -31.5 169.5t-125.5 60.5q-82 0 -150 -99.5t-102.5 -238t-53 -256t-18.5 -183.5z" />
<glyph unicode="1" horiz-adv-x="757" d="M113 1217l368 217h277l-252 -1434h-293l201 1128l-203 -114z" />
<glyph unicode="2" horiz-adv-x="1079" d="M-39 0l25 141q16 88 52 168t75 135.5t104.5 116t109.5 94t122 88.5q88 61 132 93t97 79.5t74.5 87t21.5 80.5q0 51 -34.5 85t-100.5 34q-129 0 -320 -127l-106 211q231 170 479 170q182 0 281.5 -96t99.5 -246q0 -102 -42 -192.5t-126 -169t-139 -119.5t-154 -105 q-121 -82 -177 -141t-68 -133h557l-43 -254h-920z" />
<glyph unicode="3" horiz-adv-x="1083" d="M-37 176l158 189q197 -129 325 -129q100 0 163 59t63 149q0 102 -84 147.5t-203 45.5h-45l45 254h55q104 0 199.5 54t95.5 147q0 49 -31.5 78.5t-93.5 29.5q-127 0 -307 -113l-96 207q242 162 475 162q174 0 265 -85t91 -218q0 -119 -72.5 -215t-193.5 -156 q88 -39 141.5 -127t53.5 -204q0 -84 -29 -165t-86 -152t-156.5 -114t-228.5 -43q-271 0 -504 199z" />
<glyph unicode="4" horiz-adv-x="1179" d="M-14 276l37 216l684 942h389l-160 -904h176l-45 -254h-176l-49 -276h-291l49 276h-614zM315 530h330l107 603z" />
<glyph unicode="5" horiz-adv-x="1073" d="M-18 180l163 193q158 -133 283 -133q98 0 172 72.5t74 189.5q0 84 -42 136t-126 52q-86 0 -221 -84l-154 103l191 725h768l-46 -254h-516l-57 -260q66 18 133 18q180 0 275.5 -115.5t95.5 -296.5q0 -223 -142.5 -386t-383.5 -163q-264 0 -467 203z" />
<glyph unicode="6" horiz-adv-x="1138" d="M76 494q0 252 104.5 471t297 355t429.5 136q66 0 124.5 -11t82.5 -22l25 -10l-115 -223q-50 16 -113 16q-156 0 -284.5 -103.5t-196.5 -279.5q111 102 256 103q162 0 258 -114t96 -286q0 -221 -136 -385t-365 -164q-221 0 -342 149.5t-121 367.5zM369 479 q0 -109 45 -180.5t127 -71.5q96 0 150 85t54 198q0 78 -39.5 132t-117.5 54q-68 0 -128.5 -44t-88.5 -97q-2 -25 -2 -76z" />
<glyph unicode="7" horiz-adv-x="923" d="M63 0q27 156 96.5 331t139.5 304t159 263t129 186.5t75 95.5h-515l43 254h846l-43 -236l-56 -70t-132 -181t-174 -271t-156 -322.5t-106 -353.5h-306z" />
<glyph unicode="8" horiz-adv-x="1157" d="M31 338q0 289 350 448q-145 119 -145 283q0 170 126.5 278.5t337.5 108.5q193 0 295.5 -89t102.5 -232q0 -223 -267 -367q211 -135 211 -350q0 -197 -150.5 -319t-402.5 -122q-221 0 -339.5 96.5t-118.5 264.5zM330 373q0 -76 46 -119t128 -43q102 0 173 61.5t71 157.5 q0 129 -158 227q-121 -57 -190.5 -122.5t-69.5 -161.5zM512 1051q0 -98 109 -166q195 86 194 219q0 55 -33.5 91t-95.5 36q-78 0 -126 -54t-48 -126z" />
<glyph unicode="9" horiz-adv-x="1138" d="M35 20l115 222q49 -15 112 -15q156 0 284 103.5t195 279.5q-106 -102 -254 -102q-162 0 -258 113.5t-96 285.5q0 221 137.5 385t364.5 164q221 0 342 -149.5t121 -366.5q0 -252 -104.5 -471t-297 -355.5t-430.5 -136.5q-66 0 -124 11.5t-83 21.5zM428 924 q0 -78 40 -132.5t120 -54.5q66 0 125 44t88 98q4 25 4 75q0 109 -45 180.5t-127 71.5q-96 0 -150.5 -85t-54.5 -197z" />
<glyph unicode=":" horiz-adv-x="520" d="M10 0l60 338h282l-59 -338h-283zM123 645l59 338h283l-59 -338h-283z" />
<glyph unicode=";" horiz-adv-x="530" d="M-33 -227l170 227h-125l58 338h284l-49 -375l-280 -289zM125 645l59 338h283l-59 -338h-283z" />
<glyph unicode="&#x3c;" horiz-adv-x="1124" d="M100 582l35 202l936 420l-47 -278l-621 -254l529 -256l-43 -254z" />
<glyph unicode="=" horiz-adv-x="1124" d="M88 379l39 223h862l-39 -223h-862zM156 768l39 223h864l-41 -223h-862z" />
<glyph unicode="&#x3e;" horiz-adv-x="1124" d="M78 162l47 278l620 254l-528 256l43 254l789 -420l-35 -202z" />
<glyph unicode="?" horiz-adv-x="942" d="M131 0l53 311h285l-55 -311h-283zM166 1311q215 145 428 145q166 0 265 -88t99 -240q0 -102 -46 -187t-121.5 -141.5t-150.5 -91t-153 -55.5l-47 -190h-174l45 354q348 90 348 264q0 55 -33.5 88t-97.5 33q-96 0 -258 -100z" />
<glyph unicode="@" horiz-adv-x="1646" d="M51 338q0 201 63.5 391.5t177.5 341t288 242.5t381 92q135 0 243.5 -40t177 -109.5t111.5 -165t57.5 -202t3.5 -224.5q-6 -68 -18 -134.5t-33.5 -154.5t-56.5 -161t-81 -137.5t-113.5 -101t-149.5 -36.5q-66 0 -111 24.5t-64.5 64.5t-25.5 78.5t-4 79.5 q-139 -139 -285 -139q-102 0 -162.5 73t-60.5 189q0 158 92 255.5t232 97.5q33 0 74.5 -6.5t69.5 -12.5t66 -16.5t48 -12.5q0 2 16 88q14 88 -8.5 128t-93.5 40q-113 0 -285 -77l-53 155q207 90 385 90q160 0 222.5 -85t31.5 -259l-60 -342q-27 -111 -21.5 -192.5 t69.5 -81.5q90 0 174 175t100 411q12 119 -5.5 224t-67.5 200.5t-157.5 152.5t-261.5 57q-182 0 -336.5 -84t-253 -221t-153.5 -308t-55 -351q0 -254 122.5 -424t358.5 -170q86 0 167 21.5t120 43.5l39 23l47 -88q-16 -12 -48 -29.5t-130.5 -47.5t-196.5 -30 q-279 0 -432.5 202t-153.5 503zM600 332q0 -117 102 -117q93 0 218 121l30 166q-137 33 -178 33q-86 0 -129 -60.5t-43 -142.5z" />
<glyph unicode="A" horiz-adv-x="1222" d="M-86 0l686 1434h320l180 -1434h-309l-19 285h-414l-116 -285h-328zM459 526h297l-41 617z" />
<glyph unicode="B" horiz-adv-x="1208" d="M27 0l252 1434h466q207 0 312.5 -83t105.5 -227q0 -150 -91 -247t-185 -113q82 -23 150.5 -97.5t68.5 -215.5q0 -215 -132 -333t-372 -118h-575zM360 238h193q129 0 199.5 64t70.5 177q0 162 -209 162h-182zM471 862h166q92 0 160.5 52.5t68.5 150.5q0 131 -178 131h-160 z" />
<glyph unicode="C" horiz-adv-x="1134" d="M86 520q0 248 71.5 459t214 344t330.5 133q94 0 193.5 -37t155 -71.5t151.5 -102.5l-160 -215q-199 150 -315 150q-102 0 -182 -99.5t-120 -245t-40 -300.5q0 -283 168 -283q115 0 352 145l117 -239q-328 -180 -539 -181q-190 0 -293.5 140.5t-103.5 402.5z" />
<glyph unicode="D" horiz-adv-x="1265" d="M27 0l252 1434h339q305 0 449.5 -144.5t144.5 -400.5q0 -111 -19 -222.5t-73.5 -234.5t-135.5 -216t-216 -154.5t-307 -61.5h-434zM365 260h88q150 0 257 90t157.5 226t50.5 298q0 158 -80 229t-238 71h-74z" />
<glyph unicode="E" horiz-adv-x="1073" d="M27 0l252 1434h851l-47 -260h-557l-59 -330h457l-45 -254h-457l-57 -330h567l-45 -260h-860z" />
<glyph unicode="F" horiz-adv-x="1026" d="M27 0l252 1434h851l-47 -260h-557l-59 -330h440l-45 -256h-440l-103 -588h-292z" />
<glyph unicode="G" horiz-adv-x="1234" d="M86 508q0 262 73.5 476t218 343t333.5 129q98 0 202.5 -38t166 -75.5t155.5 -105.5l-158 -213q-6 4 -53 33.5t-59.5 38t-53.5 31t-62.5 29.5t-54 15.5t-59.5 8.5q-156 0 -252 -199t-96 -453q0 -290 165 -290h1q119 0 274 155l33 187h-258l41 241h533l-146 -821h-272 l24 143q-166 -166 -331.5 -166t-265 136.5t-99.5 394.5z" />
<glyph unicode="H" horiz-adv-x="1269" d="M27 0l252 1434h292l-98 -555h416l98 555h293l-254 -1434h-291l109 625h-416l-109 -625h-292z" />
<glyph unicode="I" horiz-adv-x="561" d="M27 0l252 1434h292l-252 -1434h-292z" />
<glyph unicode="J" horiz-adv-x="563" d="M-193 -125q78 27 119 47.5t66.5 50t35 56t19.5 84.5l232 1321h292l-229 -1305q-16 -88 -24.5 -126t-29 -95.5t-48 -85t-77.5 -64.5t-120 -62.5t-172 -53.5z" />
<glyph unicode="K" horiz-adv-x="1214" d="M27 0l252 1434h292l-104 -588l494 588h376l-600 -664l365 -770h-326l-237 547l-154 -168l-66 -379h-292z" />
<glyph unicode="L" horiz-adv-x="995" d="M27 0l252 1434h292l-206 -1178h540l-43 -256h-835z" />
<glyph unicode="M" horiz-adv-x="1480" d="M27 0l252 1434h299l157 -818l457 818h299l-252 -1434h-293l154 874l-355 -634h-137l-129 673l-160 -913h-292z" />
<glyph unicode="N" horiz-adv-x="1296" d="M27 0l252 1434h294l275 -947l166 947h293l-254 -1434h-293l-277 944l-164 -944h-292z" />
<glyph unicode="O" horiz-adv-x="1335" d="M86 532q0 109 20.5 227t71.5 244.5t125 225t192 163t261 64.5q250 0 388 -139t138 -412q0 -109 -20.5 -227.5t-71.5 -245.5t-124 -226.5t-190.5 -164t-261.5 -64.5q-250 0 -389 141.5t-139 413.5zM385 535q0 -297 238 -297q96 0 170.5 79.5t113.5 194.5t58.5 216 t19.5 171q0 297 -237 297q-96 0 -172 -80t-114 -194.5t-57.5 -216t-19.5 -170.5z" />
<glyph unicode="P" horiz-adv-x="1181" d="M27 0l252 1434h434q479 0 479 -387q0 -236 -150.5 -387.5t-433.5 -151.5h-200l-89 -508h-292zM453 760h151q133 0 210 70.5t77 191.5q0 158 -197 158h-168z" />
<glyph unicode="Q" horiz-adv-x="1335" d="M86 532q0 109 20.5 227t71.5 244.5t125 225t192 163t261 64.5q250 0 388 -139t138 -412q0 -111 -22.5 -231.5t-69.5 -244.5t-130 -229.5t-192 -162.5l168 -195l-219 -180l-223 315q-242 6 -375 146.5t-133 408.5zM385 535q0 -297 238 -297q96 0 170.5 79.5t113.5 194.5 t58.5 216t19.5 171q0 297 -237 297q-96 0 -172 -80t-114 -194.5t-57.5 -216t-19.5 -170.5z" />
<glyph unicode="R" horiz-adv-x="1230" d="M27 0l252 1434h481q473 -1 473 -363q0 -168 -95.5 -309t-287.5 -189l201 -573h-306l-172 555h-157l-97 -555h-292zM459 797h192q137 0 210 67t73 180q0 147 -205 148h-201z" />
<glyph unicode="S" horiz-adv-x="1120" d="M-16 180l163 209q229 -156 381 -156q78 0 129.5 42t51.5 114q0 33 -12.5 59.5t-45.5 52t-54.5 40t-79.5 45t-83 45.5q-135 84 -207.5 176t-72.5 225q0 182 127 303t346 121q252 0 516 -164l-166 -211q-76 47 -170 83t-166 36t-122 -39t-50 -110q0 -31 10 -54.5t40 -47 t49.5 -36t76.5 -42.5t86 -46q137 -84 215 -177t78 -236q0 -184 -134 -309.5t-358 -125.5q-287 0 -548 203z" />
<glyph unicode="T" horiz-adv-x="1021" d="M129 1174l45 260h963l-47 -260h-332l-207 -1174h-293l207 1174h-336z" />
<glyph unicode="U" horiz-adv-x="1251" d="M93 334q-2 27 -2 54q0 83 20 175l153 871h293l-164 -922q-10 -55 -10 -99q0 -59 18 -101q31 -72 152 -72q123 0 182.5 71.5t81.5 200.5l164 922h291l-162 -920q-23 -121 -57.5 -210t-97 -168t-167 -119t-245.5 -40q-158 0 -259.5 46.5t-141.5 125.5t-49 185z" />
<glyph unicode="V" horiz-adv-x="1218" d="M158 1434h319l74 -1074l448 1074h344l-684 -1434h-321z" />
<glyph unicode="W" horiz-adv-x="1667" d="M174 1434h322l-7 -957l359 957h235l23 -957l330 957h338l-578 -1434h-281l-28 958l-361 -958h-280z" />
<glyph unicode="X" horiz-adv-x="1146" d="M-96 0l514 723l-244 711h322l122 -500l295 500h351l-494 -709l262 -725h-323l-138 494l-305 -494h-362z" />
<glyph unicode="Y" horiz-adv-x="1142" d="M147 1434h312l137 -590l340 590h338l-567 -861l-101 -573h-291l99 569z" />
<glyph unicode="Z" horiz-adv-x="1097" d="M-49 0l41 233l743 941h-540l45 260h923l-41 -232l-745 -942h590l-45 -260h-971z" />
<glyph unicode="[" horiz-adv-x="659" d="M-33 -293l357 2011h487l-31 -176h-196l-293 -1661h196l-32 -174h-488z" />
<glyph unicode="\" horiz-adv-x="815" d="M209 1618h197l233 -1802h-197z" />
<glyph unicode="]" horiz-adv-x="659" d="M-117 -293l31 176h197l292 1661h-196l33 174h487l-356 -2011h-488z" />
<glyph unicode="^" horiz-adv-x="1126" d="M121 670l444 764h289l176 -764h-282l-74 481l-240 -481h-313z" />
<glyph unicode="_" horiz-adv-x="1224" d="M-66 -358l37 211h1012l-37 -211h-1012z" />
<glyph unicode="`" horiz-adv-x="419" d="M225 1493h295l162 -283h-215z" />
<glyph unicode="a" d="M47 340q0 195 52.5 364.5t157.5 281.5t243 112q139 0 268 -148l23 125h280l-188 -1075h-281l23 133q-164 -156 -318 -156q-119 0 -189.5 94.5t-70.5 268.5zM334 385q0 -78 26.5 -124t75.5 -46q100 0 230 150l63 360q-74 135 -170 135q-68 0 -121 -79t-78.5 -185.5 t-25.5 -210.5z" />
<glyph unicode="b" horiz-adv-x="1091" d="M2 0l262 1493h281l-94 -535q160 139 301 140q123 0 197.5 -94.5t74.5 -268.5q0 -186 -50 -356t-155.5 -286t-243.5 -116q-141 0 -272 144l-20 -121h-281zM342 344q72 -129 172 -129q66 0 118 77t77.5 183.5t25.5 215.5q0 169 -112 169q-94 0 -213 -133z" />
<glyph unicode="c" horiz-adv-x="905" d="M43 397q0 330 143.5 515.5t331.5 185.5q37 0 74 -5.5t71.5 -16.5t60.5 -19t60.5 -26.5t49 -27t49.5 -30t41 -25.5l-136 -203q-6 4 -33.5 22.5t-43 28t-42 24t-51 20.5t-47.5 6q-102 0 -171.5 -127t-69.5 -291q0 -199 131 -199q20 0 43.5 6.5t54.5 19.5t49.5 22.5t53 28 t43.5 22.5l86 -226q-256 -125 -400 -125q-156 0 -252 108t-96 312z" />
<glyph unicode="d" d="M47 340q0 195 52.5 364.5t157.5 281.5t243 112q59 0 114.5 -25.5t85 -52.5t68.5 -70l96 543h281l-262 -1493h-281l23 133q-164 -156 -318 -156q-119 0 -189.5 94.5t-70.5 268.5zM334 385q0 -78 26.5 -124t75.5 -46q100 0 230 150l63 360q-74 135 -170 135q-68 0 -121 -79 t-78.5 -185.5t-25.5 -210.5z" />
<glyph unicode="e" horiz-adv-x="989" d="M43 414q0 301 149.5 492.5t405.5 191.5q160 0 255 -80t95 -215q0 -365 -538 -365h-84v-28q0 -213 137 -213q14 0 29.5 2t34 7t32.5 9t36.5 14.5t35 15.5t38 17t36 17.5t39 20.5t36.5 19l84 -200q-78 -47 -209 -94.5t-256 -47.5q-168 0 -262 108t-94 329zM346 598h72 q127 0 197.5 51t70.5 135q0 47 -28.5 75t-75.5 28q-86 0 -146.5 -81t-89.5 -208z" />
<glyph unicode="f" horiz-adv-x="688" d="M-180 -242q106 39 151 74t61.5 77t35.5 148l139 801h-115l39 217h115l10 55q31 186 102.5 274.5t206.5 88.5q150 0 330 -102l-131 -191q-82 39 -143 39q-63 0 -82 -98l-13 -66h215l-41 -217h-211l-137 -778q-12 -72 -18 -103.5t-18.5 -84t-23.5 -75t-29.5 -60.5t-41 -55 t-54.5 -44t-75 -43t-95 -35.5t-120 -38.5z" />
<glyph unicode="g" d="M-53 -352l96 227q203 -80 348 -80q100 0 145.5 51.5t61.5 139.5l25 145q-162 -154 -316 -154q-119 0 -189.5 94.5t-70.5 268.5q0 193 52.5 363.5t157.5 282.5t243 112q139 0 266 -146l22 123h281l-188 -1079q-45 -250 -151.5 -342t-311.5 -92q-229 0 -471 86zM334 385 q0 -78 26.5 -124t75.5 -46q98 0 228 147l63 367q-72 131 -168 131q-68 0 -121 -79t-78.5 -185.5t-25.5 -210.5z" />
<glyph unicode="h" horiz-adv-x="1087" d="M2 0l262 1493h281l-96 -541q195 145 339 146q138 0 194 -92q37 -60 37 -153q0 -50 -11 -108l-131 -745h-283l123 700q8 41 8 72q0 96 -74 96q-109 0 -239 -135l-129 -733h-281z" />
<glyph unicode="i" horiz-adv-x="499" d="M0 0l190 1075h281l-190 -1075h-281zM211 1231l45 256h295l-45 -256h-295z" />
<glyph unicode="j" horiz-adv-x="499" d="M-238 -238q147 55 184.5 95.5t55.5 146.5l188 1071h281l-184 -1048q-12 -68 -18.5 -97.5t-19.5 -80t-26.5 -73t-38 -58t-55.5 -54t-76 -44.5t-102 -44t-133 -37zM211 1231l45 256h295l-45 -256h-295z" />
<glyph unicode="k" horiz-adv-x="1001" d="M2 0l262 1493h281l-144 -813l304 395h335l-389 -438l248 -637h-287l-149 424l-131 -148l-49 -276h-281z" />
<glyph unicode="l" horiz-adv-x="507" d="M6 0l262 1493h281l-262 -1493h-281z" />
<glyph unicode="m" horiz-adv-x="1597" d="M2 0l188 1075h281l-25 -135q158 158 308 158q193 0 217 -189q168 188 336 189q135 0 187 -94q35 -62 35 -152q0 -45 -9 -98l-134 -754h-280l125 711q7 38 7 66q0 91 -70 92v-1q-92 0 -207 -141l-127 -727h-281l127 711q6 36 6 63q0 94 -71 94h-1q-86 0 -204 -137 l-127 -731h-281z" />
<glyph unicode="n" horiz-adv-x="1087" d="M2 0l188 1075h281l-22 -125q190 147 339 148q138 0 194 -92q37 -60 36 -153q0 -50 -10 -108l-131 -745h-281l123 700q7 40 7 71q0 97 -75 97q-109 0 -239 -135l-129 -733h-281z" />
<glyph unicode="o" horiz-adv-x="1083" d="M47 410q0 119 29.5 235.5t89 220t166 168t241.5 64.5q190 0 313.5 -106.5t123.5 -325.5q0 -119 -30 -236t-89.5 -220.5t-166 -168t-241.5 -64.5q-190 0 -313 106.5t-123 326.5zM328 399q0 -194 157 -194q80 0 139.5 88t82 189.5t22.5 189.5q0 198 -156 198h-2 q-80 0 -139 -88t-81.5 -190.5t-22.5 -192.5z" />
<glyph unicode="p" horiz-adv-x="1093" d="M-72 -418l262 1493h281l-20 -119q158 141 301 142q125 0 198.5 -94.5t73.5 -268.5q0 -188 -50 -357t-154.5 -285t-241.5 -116q-90 0 -153 39t-122 105l-94 -539h-281zM342 346q76 -131 174 -131t158.5 151.5t60.5 324.5q0 169 -112 169q-96 0 -213 -137z" />
<glyph unicode="q" d="M47 340q0 195 52.5 364.5t157.5 281.5t243 112q139 0 268 -148l23 125h280l-264 -1493h-279l97 551q-164 -156 -318 -156q-119 0 -189.5 94.5t-70.5 268.5zM334 385q0 -78 26.5 -124t75.5 -46q100 0 230 150l63 360q-74 135 -170 135q-68 0 -121 -79t-78.5 -185.5 t-25.5 -210.5z" />
<glyph unicode="r" horiz-adv-x="743" d="M2 0l188 1075h281l-39 -225q133 238 335 238q15 0 30 -1l-49 -276q-80 0 -150 -38t-112 -92t-71.5 -109.5t-41.5 -92.5l-13 -39l-77 -440h-281z" />
<glyph unicode="s" horiz-adv-x="940" d="M-29 133l135 195q74 -49 166.5 -86t157.5 -37q53 0 86 25.5t33 68.5q0 16 -4 28.5t-15.5 23.5t-22.5 19.5t-30.5 18.5t-34 16.5t-42 17.5t-44.5 19q-121 55 -191.5 126t-70.5 194q0 147 105.5 241.5t285.5 94.5q213 0 422 -127l-133 -193q-158 94 -278 94 q-51 0 -83 -23.5t-32 -64.5q0 -18 8 -33.5t16.5 -25.5t31 -22.5t35.5 -18.5t46 -19.5t47 -19.5q125 -55 199 -129t74 -197q0 -152 -110 -247t-296 -95q-238 0 -461 156z" />
<glyph unicode="t" horiz-adv-x="741" d="M86 858l39 217h119l47 260l289 51l-56 -311h236l-39 -217h-236l-90 -520q-4 -23 -4 -41q0 -63 49 -64q35 0 138 46l61 -228q-186 -74 -307 -74q-226 0 -226 250q0 60 13 135l88 496h-121z" />
<glyph unicode="u" horiz-adv-x="1087" d="M53 330l131 745h281l-125 -700q-7 -39 -7 -70q0 -98 77 -98q53 0 120.5 40t118.5 91l129 737h281l-189 -1075h-280l20 123q-195 -145 -338 -146q-137 -1 -193 91q-36 60 -36 153q0 50 10 109z" />
<glyph unicode="v" horiz-adv-x="1013" d="M102 1075h289l51 -747l314 747h311l-535 -1075h-276z" />
<glyph unicode="w" horiz-adv-x="1447" d="M113 1075h293l2 -706l284 706h213l33 -706l250 706h303l-459 -1075h-258l-41 674l-280 -674h-260z" />
<glyph unicode="x" horiz-adv-x="1042" d="M-100 0l438 539l-229 536h297l116 -358l244 358h334l-420 -536l248 -539h-303l-123 369l-252 -369h-350z" />
<glyph unicode="y" horiz-adv-x="1011" d="M-25 -231q106 43 169 81.5t112 102.5l-154 1122h289l58 -727l311 727h305l-522 -1075q-35 -72 -52.5 -103.5t-52.5 -89t-67.5 -87t-81.5 -68.5t-111.5 -64.5t-140.5 -46.5z" />
<glyph unicode="z" horiz-adv-x="970" d="M-49 0l37 205l579 626h-452l45 244h825l-37 -205l-581 -626h471l-43 -244h-844z" />
<glyph unicode="{" horiz-adv-x="704" d="M37 621l33 184q180 0 198 231l15 203q35 479 485 479h80l-29 -170h-35q-186 0 -202 -272l-15 -184q-12 -188 -88 -273.5t-223 -109.5q127 -31 172 -124t0 -274l-33 -125q-80 -309 99 -309h28l-28 -170h-31q-207 0 -315.5 130t-45.5 370l52 182q35 113 8 172.5t-125 59.5z " />
<glyph unicode="|" horiz-adv-x="460" d="M-25 -252l340 1927h205l-340 -1927h-205z" />
<glyph unicode="}" horiz-adv-x="702" d="M-109 -293l29 170h35q186 0 203 273l14 184q12 188 88 273t223 110q-127 31 -172 124t0 273l33 125q80 309 -98 309h-29l29 170h30q207 0 315.5 -130t45.5 -369l-51 -183q-35 -113 -8.5 -172t124.5 -59l-32 -184q-180 0 -199 -232l-14 -203q-35 -479 -486 -479h-80z" />
<glyph unicode="~" horiz-adv-x="1124" d="M27 446q76 152 157.5 231t186.5 79q90 0 209.5 -77t175.5 -77q39 0 75.5 28.5t90.5 114.5l157 -75q-78 -154 -159.5 -232t-186.5 -78q-72 0 -142.5 39t-132 77t-112.5 38q-37 0 -73 -28.5t-89 -114.5z" />
<glyph unicode="&#xa1;" horiz-adv-x="548" d="M-4 0l258 971h168l-84 -971h-342zM221 1122l55 312h285l-55 -312h-285z" />
<glyph unicode="&#xa2;" horiz-adv-x="991" d="M96 578q0 330 143.5 515t331.5 185h9l28 156h203l-35 -199q39 -16 77 -35.5t85 -49.5t57 -36l-135 -199q-2 2 -47 31t-65.5 40t-57.5 25.5t-63 14.5q-102 0 -173 -126t-71 -292q0 -199 133 -198q20 0 47 6t57.5 19.5t52 23.5t57.5 27.5t46 23.5l86 -221 q-186 -88 -272 -111l-31 -178h-203l29 162q-133 18 -211 124.5t-78 291.5z" />
<glyph unicode="&#xa3;" horiz-adv-x="1015" d="M-14 0l34 207q8 4 21.5 12t51.5 36t70 59.5t63.5 85t45.5 110.5h-178l31 178h151q-2 16 -34.5 144.5t-32.5 211.5q0 188 103.5 300t287.5 112q219 0 459 -192l-152 -181q-154 119 -254 119q-72 0 -114.5 -51t-42.5 -129q0 -57 31.5 -163.5t35.5 -170.5h264l-30 -178h-250 q-25 -86 -69 -154.5t-85 -101.5h467l-45 -254h-829z" />
<glyph unicode="&#xa5;" horiz-adv-x="1226" d="M115 297l30 174h295l19 98l-6 17h-287l31 174h202l-206 674h311l137 -590l340 590h338l-445 -674h201l-31 -174h-284l-8 -13l-19 -102h291l-33 -174h-289l-51 -297h-291l52 297h-297z" />
<glyph unicode="&#xa6;" horiz-adv-x="464" d="M-25 -252l150 846h205l-150 -846h-205zM168 829l147 846h205l-149 -846h-203z" />
<glyph unicode="&#xa7;" horiz-adv-x="1024" d="M16 -20l134 192q162 -94 278 -94q51 0 83 23.5t32 64.5q0 16 -4 29.5t-15.5 24.5t-21.5 19.5t-30.5 17.5t-35 14t-42.5 16.5t-42 17.5q-121 51 -193.5 123t-72.5 193q0 98 54.5 171.5t154.5 112.5q-88 82 -88 211q0 147 106.5 243.5t286.5 96.5q213 0 422 -127l-135 -192 q-154 94 -277 94q-51 0 -82.5 -23.5t-31.5 -64.5q0 -16 4 -29.5t15 -25t21.5 -19.5t31 -17.5t34.5 -14.5t42 -16t42 -17q121 -51 193.5 -124t72.5 -192q0 -100 -54 -175t-155 -112q86 -82 86 -208q0 -147 -105.5 -243.5t-285.5 -96.5q-213 0 -422 127zM358 672 q0 -16 4.5 -30.5t16.5 -28t21.5 -21.5t32 -19.5t34.5 -17.5t43 -19.5t45 -19.5q123 25 123 121q0 49 -37 75.5t-131 67.5q-18 8 -29 13q-59 -12 -91 -45t-32 -76z" />
<glyph unicode="&#xa8;" horiz-adv-x="436" d="M162 1231l43 242h219l-41 -242h-221zM483 1231l43 242h219l-43 -242h-219z" />
<glyph unicode="&#xa9;" horiz-adv-x="1622" d="M98 641q0 342 210 578.5t573 236.5q311 0 493 -183t182 -480q0 -221 -88 -403.5t-270 -297.5t-426 -115q-309 0 -491.5 184.5t-182.5 479.5zM178 643q0 -260 161 -425t441 -165q319 0 509 212t190 526q0 262 -162 425.5t-443 163.5q-319 0 -507.5 -212t-188.5 -525z M449 618q-10 250 111.5 396.5t301.5 146.5q160 0 328 -137l-60 -63q-43 35 -67.5 52t-82.5 40.5t-118 23.5q-139 0 -231 -129t-84 -323q4 -125 57 -197t141 -72q145 0 310 113l49 -72q-190 -127 -354 -127q-127 0 -211 91.5t-90 256.5z" />
<glyph unicode="&#xaa;" horiz-adv-x="770" d="M152 999q0 176 77.5 312.5t204.5 136.5q82 0 168 -82l12 68h193l-115 -646h-190l12 72q-109 -86 -195 -86q-76 0 -121.5 59.5t-45.5 165.5zM346 1026q1 -90 62 -90q63 0 133 80l34 198q-39 72 -96 72q-59 0 -96 -84t-37 -176z" />
<glyph unicode="&#xab;" horiz-adv-x="1173" d="M29 467l32 178l584 434l-57 -313l-328 -227l250 -228l-49 -280zM543 467l32 178l584 434l-57 -313l-328 -227l250 -228l-49 -280z" />
<glyph unicode="&#xac;" horiz-adv-x="1124" d="M49 571l39 224h989l-108 -611h-232l68 387h-756z" />
<glyph unicode="&#xad;" horiz-adv-x="765" d="M82 465l41 237h549l-41 -237h-549z" />
<glyph unicode="&#xae;" horiz-adv-x="884" d="M150 1069q0 170 104 288t287 118q154 0 245 -92.5t91 -239.5q0 -170 -104.5 -288t-287.5 -118q-154 0 -244.5 92.5t-90.5 239.5zM217 1071q0 -119 72.5 -192.5t199.5 -73.5q147 0 234.5 95t87.5 241q0 117 -74.5 192.5t-201.5 75.5q-145 0 -231.5 -97.5t-86.5 -240.5z M346 926l66 370h163q51 0 82 -27.5t31 -68.5q0 -96 -115 -115l60 -159h-68l-57 157h-68l-28 -157h-66zM451 1143h92q80 0 80 57q0 37 -52 37h-104z" />
<glyph unicode="&#xaf;" horiz-adv-x="530" d="M229 1262l31 174h522l-30 -174h-523z" />
<glyph unicode="&#xb0;" horiz-adv-x="792" d="M143 1106q0 137 96.5 233.5t233.5 96.5t233.5 -96.5t96.5 -233.5t-96.5 -234.5t-233.5 -97.5t-233.5 97.5t-96.5 234.5zM313 1105.5q0 -65.5 47.5 -112.5t112.5 -47q63 0 110.5 47t47.5 112.5t-46 113t-111.5 47.5t-113 -47.5t-47.5 -113z" />
<glyph unicode="&#xb1;" horiz-adv-x="1124" d="M23 0l32 193h865l-33 -193h-864zM129 604l39 223h319l50 277h223l-49 -277h321l-39 -223h-321l-47 -278h-226l50 278h-320z" />
<glyph unicode="&#xb2;" horiz-adv-x="708" d="M82 788l14 91q14 86 66.5 159.5t97.5 109.5t125 91q150 98 180 137q20 27 21 51q0 61 -78 62q-76 0 -201 -76l-76 141q162 109 312 109q119 0 182 -61.5t63 -153.5q0 -61 -25.5 -114.5t-77.5 -99.5t-87 -70.5t-94 -61.5q-76 -47 -107.5 -77t-40.5 -64h344l-28 -173h-590z " />
<glyph unicode="&#xb3;" horiz-adv-x="708" d="M82 901l106 129q123 -82 207 -82q59 0 94 30t35 77q0 102 -178 102h-29l31 172h35q66 0 123 26.5t57 74.5q0 27 -19.5 43t-51.5 16q-82 0 -197 -68l-66 140q158 102 308 102q113 0 171 -53.5t58 -134.5q0 -141 -162 -218q121 -57 121 -196q0 -113 -79 -200t-234 -87 q-166 0 -330 127z" />
<glyph unicode="&#xb4;" horiz-adv-x="421" d="M162 1210l256 283h325l-337 -283h-244z" />
<glyph unicode="&#xb5;" horiz-adv-x="1138" d="M-55 -418l266 1493h281l-125 -700q-31 -168 69 -168q53 0 121 40t119 91l129 737h280l-188 -1075h-281l21 123q-195 -145 -338 -146h-4l-70 -395h-280z" />
<glyph unicode="&#xb6;" horiz-adv-x="1273" d="M104 850q0 252 155 418t403 166h243l-319 -1813h-234l146 834q-178 0 -286 101t-108 294zM713 -379l321 1813h232l-320 -1813h-233z" />
<glyph unicode="&#xb7;" horiz-adv-x="499" d="M72 416l59 338h283l-60 -338h-282z" />
<glyph unicode="&#xb8;" horiz-adv-x="311" d="M-78 -330l82 146q37 -25 76 -25q88 0 88 100q0 25 -6 52.5t-12 44.5l-7 16h121q39 -68 39 -156q0 -106 -64.5 -164.5t-158.5 -58.5q-97 0 -158 45z" />
<glyph unicode="&#xb9;" horiz-adv-x="575" d="M168 1513l235 136h189l-152 -861h-198l118 656l-124 -68z" />
<glyph unicode="&#xba;" horiz-adv-x="741" d="M150 1040q0 156 82.5 282t248.5 126q123 0 203 -65.5t80 -200.5q0 -96 -31 -184.5t-109.5 -156t-193.5 -67.5q-123 0 -201.5 65.5t-78.5 200.5zM338 1036q0 -108 92 -108q47 0 82 49t48 105.5t13 103.5q0 109 -92 108q-68 0 -105.5 -89t-37.5 -169z" />
<glyph unicode="&#xbb;" horiz-adv-x="1175" d="M-4 31l57 313l328 227l-250 228l49 280l432 -436l-32 -178zM510 31l57 313l328 227l-250 228l49 280l432 -436l-32 -178z" />
<glyph unicode="&#xbc;" horiz-adv-x="1552" d="M162 1298l235 136h189l-152 -861h-198l118 656l-125 -68zM221 0l795 1434h211l-797 -1434h-209zM711 158l24 145l420 557h264l-94 -530h111l-31 -172h-111l-26 -158h-199l27 158h-385zM936 330h190l60 336z" />
<glyph unicode="&#xbd;" horiz-adv-x="1585" d="M162 1298l235 136h189l-152 -861h-198l118 656l-125 -68zM221 0l795 1434h211l-797 -1434h-209zM801 0l14 90q14 86 66.5 160t97.5 109.5t125 91.5q150 98 180 137q20 27 21 51q0 61 -78 61q-76 0 -201 -75l-76 141q164 109 312 108q119 0 182 -61t63 -154 q0 -61 -25.5 -114t-77.5 -99.5t-87 -71t-94 -61.5q-76 -47 -108 -76.5t-40 -64.5h344l-28 -172h-590z" />
<glyph unicode="&#xbe;" horiz-adv-x="1714" d="M72 686l106 129q123 -82 207 -82q59 0 94 30t35 77q0 102 -178 102h-29l31 172h35q66 0 123 26.5t57 73.5q0 27 -19.5 43.5t-52.5 16.5q-82 0 -196 -68l-66 140q158 102 307 102q113 0 171.5 -53.5t58.5 -134.5q0 -141 -162 -218q121 -57 121 -196q0 -113 -79 -200 t-235 -87q-165 0 -329 127zM387 0l795 1434h211l-797 -1434h-209zM879 158l24 145l420 557h264l-94 -530h111l-31 -172h-111l-26 -158h-199l27 158h-385zM1104 330h190l60 336z" />
<glyph unicode="&#xbf;" horiz-adv-x="937" d="M16 305q0 102 46.5 187.5t122 141.5t150.5 91t152 55l48 191h174l-45 -355q-348 -90 -349 -264q0 -55 34 -88t97 -33q96 0 259 101l104 -209q-215 -145 -428 -146q-166 0 -265.5 88t-99.5 240zM506 1122l55 312h283l-53 -312h-285z" />
<glyph unicode="&#xc0;" horiz-adv-x="1222" d="M-86 0l686 1434h320l180 -1434h-309l-19 285h-414l-116 -285h-328zM459 526h297l-41 617zM498 1802h295l161 -282h-215z" />
<glyph unicode="&#xc1;" horiz-adv-x="1222" d="M-86 0l686 1434h320l180 -1434h-309l-19 285h-414l-116 -285h-328zM459 526h297l-41 617zM598 1520l256 282h326l-338 -282h-244z" />
<glyph unicode="&#xc2;" horiz-adv-x="1222" d="M-86 0l686 1434h320l180 -1434h-309l-19 285h-414l-116 -285h-328zM459 526h297l-41 617zM465 1520l229 282h264l127 -282h-176l-96 153l-145 -153h-203z" />
<glyph unicode="&#xc3;" horiz-adv-x="1222" d="M-86 0l686 1434h320l180 -1434h-309l-19 285h-414l-116 -285h-328zM459 526h297l-41 617zM473 1612q41 68 65.5 100.5t66.5 62t91 29.5t121 -49t94 -49q41 0 105 96l112 -80q-43 -68 -67.5 -101.5t-66.5 -63t-91 -29.5t-119.5 49t-93.5 49q-43 0 -106 -96z" />
<glyph unicode="&#xc4;" horiz-adv-x="1222" d="M-86 0l686 1434h320l180 -1434h-309l-19 285h-414l-116 -285h-328zM459 526h297l-41 617zM508 1540l43 242h219l-41 -242h-221zM829 1540l43 242h220l-43 -242h-220z" />
<glyph unicode="&#xc5;" horiz-adv-x="1224" d="M-88 0l686 1434h320l180 -1434h-310l-18 285h-414l-116 -285h-328zM457 526h297l-41 617zM594 1714q0 88 63.5 151.5t151.5 63.5t151.5 -63.5t63.5 -151.5t-63.5 -151.5t-151.5 -63.5t-151.5 63.5t-63.5 151.5zM727 1714q0 -33 23.5 -56.5t58.5 -23.5t58.5 23.5 t23.5 56.5q0 35 -23.5 58.5t-58.5 23.5t-58.5 -23.5t-23.5 -58.5z" />
<glyph unicode="&#xc6;" horiz-adv-x="1824" d="M-152 0l1039 1434h995l-47 -260h-557l-59 -330h456l-45 -254h-456l-58 -330h567l-45 -260h-860l49 285h-411l-197 -285h-371zM586 532h284l99 553z" />
<glyph unicode="&#xc7;" horiz-adv-x="1134" d="M86 520q0 248 71.5 459t214 344t330.5 133q94 0 193.5 -37t155 -71.5t151.5 -102.5l-160 -215q-199 150 -315 150q-102 0 -182 -99.5t-120 -245t-40 -300.5q0 -283 168 -283q115 0 352 145l117 -239q-279 -154 -469 -176q29 -57 29 -134q0 -106 -64.5 -164.5 t-159.5 -58.5q-96 0 -157 45l82 146q37 -25 75 -25q88 0 88 100q0 45 -16 91q-166 18 -255 156t-89 382z" />
<glyph unicode="&#xc8;" horiz-adv-x="1073" d="M27 0l252 1434h851l-47 -260h-557l-59 -330h457l-45 -254h-457l-57 -330h567l-45 -260h-860zM449 1802h294l162 -282h-215z" />
<glyph unicode="&#xc9;" horiz-adv-x="1073" d="M27 0l252 1434h851l-47 -260h-557l-59 -330h457l-45 -254h-457l-57 -330h567l-45 -260h-860zM535 1520l256 282h325l-338 -282h-243z" />
<glyph unicode="&#xca;" horiz-adv-x="1073" d="M27 0l252 1434h851l-47 -260h-557l-59 -330h457l-45 -254h-457l-57 -330h567l-45 -260h-860zM414 1520l229 282h264l127 -282h-176l-96 153l-146 -153h-202z" />
<glyph unicode="&#xcb;" horiz-adv-x="1073" d="M27 0l252 1434h851l-47 -260h-557l-59 -330h457l-45 -254h-457l-57 -330h567l-45 -260h-860zM459 1540l43 242h219l-41 -242h-221zM780 1540l43 242h219l-43 -242h-219z" />
<glyph unicode="&#xcc;" horiz-adv-x="563" d="M27 0l252 1434h292l-252 -1434h-292zM166 1802h295l162 -282h-215z" />
<glyph unicode="&#xcd;" horiz-adv-x="561" d="M27 0l252 1434h292l-252 -1434h-292zM250 1520l256 282h325l-337 -282h-244z" />
<glyph unicode="&#xce;" horiz-adv-x="561" d="M27 0l252 1434h292l-252 -1434h-292zM129 1520l229 282h265l127 -282h-177l-96 153l-145 -153h-203z" />
<glyph unicode="&#xcf;" horiz-adv-x="563" d="M27 0l252 1434h292l-252 -1434h-292zM174 1540l43 242h219l-41 -242h-221zM496 1540l43 242h219l-43 -242h-219z" />
<glyph unicode="&#xd0;" horiz-adv-x="1286" d="M31 598l41 238h123l104 598h340q305 0 449.5 -144.5t144.5 -400.5q0 -111 -19.5 -222.5t-74 -234.5t-135 -216t-216 -154.5t-307.5 -61.5h-434l105 598h-121zM385 260h88q150 0 257.5 90t157.5 226t50 298q0 158 -80 229t-237 71h-74l-62 -338h232l-41 -238h-232z" />
<glyph unicode="&#xd1;" horiz-adv-x="1296" d="M27 0l252 1434h294l275 -947l166 947h293l-254 -1434h-293l-277 944l-164 -944h-292zM516 1612q41 68 65.5 100.5t66.5 62t91 29.5t121 -49t94 -49q41 0 105 96l112 -80q-43 -68 -67.5 -101.5t-66.5 -63t-91 -29.5t-119.5 49t-93.5 49q-43 0 -106 -96z" />
<glyph unicode="&#xd2;" horiz-adv-x="1335" d="M86 532q0 109 20.5 227t71.5 244.5t125 225t192 163t261 64.5q250 0 388 -139t138 -412q0 -109 -20.5 -227.5t-71.5 -245.5t-124 -226.5t-190.5 -164t-261.5 -64.5q-250 0 -389 141.5t-139 413.5zM385 535q0 -297 238 -297q96 0 170.5 79.5t113.5 194.5t58.5 216 t19.5 171q0 297 -237 297q-96 0 -172 -80t-114 -194.5t-57.5 -216t-19.5 -170.5zM549 1802h295l162 -282h-215z" />
<glyph unicode="&#xd3;" horiz-adv-x="1335" d="M86 532q0 109 20.5 227t71.5 244.5t125 225t192 163t261 64.5q250 0 388 -139t138 -412q0 -109 -20.5 -227.5t-71.5 -245.5t-124 -226.5t-190.5 -164t-261.5 -64.5q-250 0 -389 141.5t-139 413.5zM385 535q0 -297 238 -297q96 0 170.5 79.5t113.5 194.5t58.5 216 t19.5 171q0 297 -237 297q-96 0 -172 -80t-114 -194.5t-57.5 -216t-19.5 -170.5zM635 1520l256 282h326l-338 -282h-244z" />
<glyph unicode="&#xd4;" horiz-adv-x="1335" d="M86 532q0 109 20.5 227t71.5 244.5t125 225t192 163t261 64.5q250 0 388 -139t138 -412q0 -109 -20.5 -227.5t-71.5 -245.5t-124 -226.5t-190.5 -164t-261.5 -64.5q-250 0 -389 141.5t-139 413.5zM385 535q0 -297 238 -297q96 0 170.5 79.5t113.5 194.5t58.5 216 t19.5 171q0 297 -237 297q-96 0 -172 -80t-114 -194.5t-57.5 -216t-19.5 -170.5zM518 1520l230 282h264l127 -282h-176l-97 153l-145 -153h-203z" />
<glyph unicode="&#xd5;" horiz-adv-x="1335" d="M86 532q0 109 20.5 227t71.5 244.5t125 225t192 163t261 64.5q250 0 388 -139t138 -412q0 -109 -20.5 -227.5t-71.5 -245.5t-124 -226.5t-190.5 -164t-261.5 -64.5q-250 0 -389 141.5t-139 413.5zM385 535q0 -297 238 -297q96 0 170.5 79.5t113.5 194.5t58.5 216 t19.5 171q0 297 -237 297q-96 0 -172 -80t-114 -194.5t-57.5 -216t-19.5 -170.5zM524 1612q41 68 65.5 100.5t66.5 62t91.5 29.5t121 -49t94.5 -49q41 0 104 96l113 -80q-43 -68 -68 -101.5t-66.5 -63t-91 -29.5t-120 49t-93.5 49q-43 0 -106 -96z" />
<glyph unicode="&#xd6;" horiz-adv-x="1335" d="M86 532q0 109 20.5 227t71.5 244.5t125 225t192 163t261 64.5q250 0 388 -139t138 -412q0 -109 -20.5 -227.5t-71.5 -245.5t-124 -226.5t-190.5 -164t-261.5 -64.5q-250 0 -389 141.5t-139 413.5zM385 535q0 -297 238 -297q96 0 170.5 79.5t113.5 194.5t58.5 216 t19.5 171q0 297 -237 297q-96 0 -172 -80t-114 -194.5t-57.5 -216t-19.5 -170.5zM561 1540l43 242h219l-41 -242h-221zM883 1540l43 242h219l-43 -242h-219z" />
<glyph unicode="&#xd7;" horiz-adv-x="1138" d="M143 430l291 270l-192 269l182 131l176 -246l268 252l150 -160l-291 -270l195 -270l-183 -132l-178 246l-268 -250z" />
<glyph unicode="&#xd8;" horiz-adv-x="1335" d="M0 0l162 201q-76 133 -76 331q0 109 20.5 227t71.5 244.5t125 225t192 163t261 64.5q213 0 346 -102l65 80h201l-162 -199q76 -133 76 -330q0 -109 -20.5 -227.5t-71.5 -245.5t-124 -226.5t-190.5 -164t-261.5 -64.5q-213 0 -346 103l-65 -80h-203zM385 535q0 -39 2 -58 l533 651q-57 68 -172 68q-96 0 -172 -80t-114 -194.5t-57.5 -215.5t-19.5 -171zM449 303q59 -65 174 -65q96 0 170.5 79.5t113.5 194.5t58.5 216t19.5 171q0 23 -4 59z" />
<glyph unicode="&#xd9;" horiz-adv-x="1249" d="M91 333.5q-9 106.5 18 229.5l153 871h293l-164 -922q-23 -129 8 -200.5t152 -71.5q123 0 182.5 71.5t81.5 200.5l164 922h291l-162 -920q-23 -121 -57.5 -210t-97 -168t-167 -119t-245.5 -40q-158 0 -259.5 46.5t-141.5 125t-49 185zM504 1802h295l162 -282h-216z" />
<glyph unicode="&#xda;" horiz-adv-x="1249" d="M91 333.5q-9 106.5 18 229.5l153 871h293l-164 -922q-23 -129 8 -200.5t152 -71.5q123 0 182.5 71.5t81.5 200.5l164 922h291l-162 -920q-23 -121 -57.5 -210t-97 -168t-167 -119t-245.5 -40q-158 0 -259.5 46.5t-141.5 125t-49 185zM590 1520l256 282h325l-337 -282 h-244z" />
<glyph unicode="&#xdb;" horiz-adv-x="1249" d="M91 333.5q-9 106.5 18 229.5l153 871h293l-164 -922q-23 -129 8 -200.5t152 -71.5q123 0 182.5 71.5t81.5 200.5l164 922h291l-162 -920q-23 -121 -57.5 -210t-97 -168t-167 -119t-245.5 -40q-158 0 -259.5 46.5t-141.5 125t-49 185zM471 1520l229 282h265l127 -282h-177 l-96 153l-145 -153h-203z" />
<glyph unicode="&#xdc;" horiz-adv-x="1249" d="M91 333.5q-9 106.5 18 229.5l153 871h293l-164 -922q-23 -129 8 -200.5t152 -71.5q123 0 182.5 71.5t81.5 200.5l164 922h291l-162 -920q-23 -121 -57.5 -210t-97 -168t-167 -119t-245.5 -40q-158 0 -259.5 46.5t-141.5 125t-49 185zM516 1540l43 242h219l-41 -242h-221z M838 1540l43 242h219l-43 -242h-219z" />
<glyph unicode="&#xdd;" horiz-adv-x="1142" d="M147 1434h312l137 -590l340 590h338l-567 -861l-101 -573h-291l99 569zM535 1520l256 282h325l-338 -282h-243z" />
<glyph unicode="&#xde;" horiz-adv-x="1181" d="M27 0l252 1434h292l-41 -230h148q475 0 475 -385q0 -236 -146.5 -388t-424.5 -152h-213l-50 -279h-292zM412 530h163q131 0 204 70t73 193q0 156 -195 155h-172z" />
<glyph unicode="&#xdf;" horiz-adv-x="1282" d="M2 0l174 993q43 233 174 348t410 115q291 0 403.5 -126t75.5 -345l-4 -24l-148 -168q-117 78 -208 77q-43 0 -72 -24.5t-29 -63.5q0 -14 3 -27.5t12.5 -24.5t16.5 -18t24.5 -17.5t26.5 -15.5t34 -17.5t35 -18.5q117 -63 180.5 -136t63.5 -192q0 -152 -98.5 -245 t-270.5 -93q-221 0 -430 156l127 195q61 -47 144 -85t134 -38q45 0 75 25.5t30 68.5q0 12 -4 23.5t-8.5 20.5t-14.5 19.5t-18.5 16.5t-24.5 16.5t-24.5 14.5t-30 15t-31.5 17q-119 70 -178 138.5t-59 183.5q0 145 95 239.5t263 94.5q59 0 115 -13q-4 72 -52.5 108t-158.5 36 q-127 0 -202 -59.5t-101 -208.5l-170 -961h-279z" />
<glyph unicode="&#xe0;" d="M47 340q0 195 52.5 364.5t157.5 281.5t243 112q139 0 268 -148l23 125h280l-188 -1075h-281l23 133q-164 -156 -318 -156q-119 0 -189.5 94.5t-70.5 268.5zM334 385q0 -78 26.5 -124t75.5 -46q100 0 230 150l63 360q-74 135 -170 135q-68 0 -121 -79t-78.5 -185.5 t-25.5 -210.5zM401 1493h295l162 -283h-215z" />
<glyph unicode="&#xe1;" horiz-adv-x="1085" d="M47 340q0 195 52.5 364.5t157.5 281.5t243 112q139 0 268 -148l23 125h280l-188 -1075h-281l23 133q-164 -156 -318 -156q-119 0 -189.5 94.5t-70.5 268.5zM334 385q0 -78 26.5 -124t75.5 -46q100 0 230 150l63 360q-74 135 -170 135q-68 0 -121 -79t-78.5 -185.5 t-25.5 -210.5zM467 1210l256 283h326l-338 -283h-244z" />
<glyph unicode="&#xe2;" d="M47 340q0 195 52.5 364.5t157.5 281.5t243 112q139 0 268 -148l23 125h280l-188 -1075h-281l23 133q-164 -156 -318 -156q-119 0 -189.5 94.5t-70.5 268.5zM334 385q0 -78 26.5 -124t75.5 -46q100 0 230 150l63 360q-74 135 -170 135q-68 0 -121 -79t-78.5 -185.5 t-25.5 -210.5zM367 1210l229 283h264l127 -283h-176l-96 154l-146 -154h-202z" />
<glyph unicode="&#xe3;" d="M47 340q0 195 52.5 364.5t157.5 281.5t243 112q139 0 268 -148l23 125h280l-188 -1075h-281l23 133q-164 -156 -318 -156q-119 0 -189.5 94.5t-70.5 268.5zM334 385q0 -78 26.5 -124t75.5 -46q100 0 230 150l63 360q-74 135 -170 135q-68 0 -121 -79t-78.5 -185.5 t-25.5 -210.5zM381 1303q41 68 65.5 100.5t66.5 62t91 29.5t121 -49t94 -49q41 0 105 96l112 -80q-43 -68 -67.5 -101.5t-66.5 -63t-91 -29.5t-119.5 49t-93.5 49q-43 0 -106 -96z" />
<glyph unicode="&#xe4;" d="M47 340q0 195 52.5 364.5t157.5 281.5t243 112q139 0 268 -148l23 125h280l-188 -1075h-281l23 133q-164 -156 -318 -156q-119 0 -189.5 94.5t-70.5 268.5zM334 385q0 -78 26.5 -124t75.5 -46q100 0 230 150l63 360q-74 135 -170 135q-68 0 -121 -79t-78.5 -185.5 t-25.5 -210.5zM424 1231l43 242h219l-41 -242h-221zM745 1231l43 242h220l-43 -242h-220z" />
<glyph unicode="&#xe5;" d="M47 340q0 195 52.5 364.5t157.5 281.5t243 112q139 0 268 -148l23 125h280l-188 -1075h-281l23 133q-164 -156 -318 -156q-119 0 -189.5 94.5t-70.5 268.5zM334 385q0 -78 26.5 -124t75.5 -46q100 0 230 150l63 360q-74 135 -170 135q-68 0 -121 -79t-78.5 -185.5 t-25.5 -210.5zM504 1405q0 90 63.5 152.5t151.5 62.5t151.5 -62.5t63.5 -152.5t-63.5 -152.5t-151.5 -62.5t-151.5 62.5t-63.5 152.5zM637 1405q0 -33 23.5 -56.5t58.5 -23.5t58.5 23.5t23.5 56.5t-23.5 57.5t-58.5 24.5t-58.5 -24.5t-23.5 -57.5z" />
<glyph unicode="&#xe6;" horiz-adv-x="1624" d="M47 340q0 195 52.5 364.5t157.5 281.5t243 112q139 0 268 -148l23 125h280v-2q74 25 162 25q160 0 255 -80t95 -215q0 -365 -539 -365h-83v-28q0 -213 137 -213q14 0 29.5 2t34 7t32.5 9t36.5 14.5t35 15.5t38 17t36 17.5t39 20.5t36.5 19l84 -200q-78 -47 -209 -94.5 t-256 -47.5q-80 0 -153 27v-4h-281l23 131q-162 -154 -316 -154q-119 0 -189.5 94.5t-70.5 268.5zM334 385q0 -78 26.5 -124t75.5 -46q102 0 228 147l14 80q2 150 51 285q-74 133 -170 133q-68 0 -121 -79t-78.5 -185.5t-25.5 -210.5zM981 598h72q127 0 197.5 51t70.5 135 q0 47 -28.5 75t-75.5 28q-86 0 -146.5 -81t-89.5 -208z" />
<glyph unicode="&#xe7;" horiz-adv-x="905" d="M43 397q0 330 143.5 515.5t331.5 185.5q37 0 74 -5.5t71.5 -16.5t60.5 -19t60.5 -26.5t49 -27t49.5 -30t41 -25.5l-136 -203q-6 4 -33.5 22.5t-43 28t-42 24t-51 20.5t-47.5 6q-102 0 -171.5 -127t-69.5 -291q0 -199 131 -199q20 0 43.5 6.5t54.5 19.5t49.5 22.5t53 28 t43.5 22.5l86 -226q-227 -111 -361 -122q27 -70 27 -132q0 -106 -64.5 -164.5t-159.5 -58.5q-96 0 -157 45l82 146q37 -25 75 -25q88 0 89 100q0 29 -19 97q-119 27 -189.5 131t-70.5 278z" />
<glyph unicode="&#xe8;" horiz-adv-x="989" d="M43 414q0 301 149.5 492.5t405.5 191.5q160 0 255 -80t95 -215q0 -365 -538 -365h-84v-28q0 -213 137 -213q14 0 29.5 2t34 7t32.5 9t36.5 14.5t35 15.5t38 17t36 17.5t39 20.5t36.5 19l84 -200q-78 -47 -209 -94.5t-256 -47.5q-168 0 -262 108t-94 329zM346 598h72 q127 0 197.5 51t70.5 135q0 47 -28.5 75t-75.5 28q-86 0 -146.5 -81t-89.5 -208zM354 1493h295l162 -283h-215z" />
<glyph unicode="&#xe9;" horiz-adv-x="991" d="M43 414q0 301 149.5 492.5t405.5 191.5q160 0 255 -80t95 -215q0 -365 -538 -365h-84v-28q0 -213 137 -213q14 0 29.5 2t34 7t32.5 9t36.5 14.5t35 15.5t38 17t36 17.5t39 20.5t36.5 19l84 -200q-78 -47 -209 -94.5t-256 -47.5q-168 0 -262 108t-94 329zM346 598h72 q127 0 197.5 51t70.5 135q0 47 -28.5 75t-75.5 28q-86 0 -146.5 -81t-89.5 -208zM440 1210l256 283h326l-338 -283h-244z" />
<glyph unicode="&#xea;" horiz-adv-x="989" d="M43 414q0 301 149.5 492.5t405.5 191.5q160 0 255 -80t95 -215q0 -365 -538 -365h-84v-28q0 -213 137 -213q14 0 29.5 2t34 7t32.5 9t36.5 14.5t35 15.5t38 17t36 17.5t39 20.5t36.5 19l84 -200q-78 -47 -209 -94.5t-256 -47.5q-168 0 -262 108t-94 329zM319 1210 l230 283h264l127 -283h-176l-96 154l-146 -154h-203zM346 598h72q127 0 197.5 51t70.5 135q0 47 -28.5 75t-75.5 28q-86 0 -146.5 -81t-89.5 -208z" />
<glyph unicode="&#xeb;" horiz-adv-x="989" d="M43 414q0 301 149.5 492.5t405.5 191.5q160 0 255 -80t95 -215q0 -365 -538 -365h-84v-28q0 -213 137 -213q14 0 29.5 2t34 7t32.5 9t36.5 14.5t35 15.5t38 17t36 17.5t39 20.5t36.5 19l84 -200q-78 -47 -209 -94.5t-256 -47.5q-168 0 -262 108t-94 329zM346 598h72 q127 0 197.5 51t70.5 135q0 47 -28.5 75t-75.5 28q-86 0 -146.5 -81t-89.5 -208zM369 1231l43 242h219l-41 -242h-221zM690 1231l43 242h219l-43 -242h-219z" />
<glyph unicode="&#xec;" horiz-adv-x="501" d="M0 0l190 1075h281l-190 -1075h-281zM78 1493h295l162 -283h-216z" />
<glyph unicode="&#xed;" horiz-adv-x="499" d="M0 0l190 1075h281l-190 -1075h-281zM162 1210l256 283h325l-337 -283h-244z" />
<glyph unicode="&#xee;" horiz-adv-x="499" d="M0 0l190 1075h281l-190 -1075h-281zM43 1210l229 283h265l127 -283h-177l-96 154l-145 -154h-203z" />
<glyph unicode="&#xef;" horiz-adv-x="499" d="M0 0l190 1075h281l-190 -1075h-281zM88 1231l43 242h219l-41 -242h-221zM410 1231l43 242h219l-43 -242h-219z" />
<glyph unicode="&#xf0;" horiz-adv-x="1103" d="M33 403q0 236 139 404t338 168q55 0 103.5 -16.5t77 -36t51 -47t29.5 -40t11 -22.5q-14 242 -161 338l-70 -78h-227l112 127q-33 0 -70.5 -4t-58.5 -8l-20 -4l8 229q70 20 174 21q78 0 160 -21l69 80h228l-138 -154q127 -90 190.5 -247.5t63.5 -354.5q0 -330 -153.5 -545 t-423.5 -215q-209 0 -320.5 116t-111.5 310zM326 397q0 -193 161 -192q84 0 143.5 60.5t82 136t22.5 153.5q0 193 -164 193q-115 0 -180 -112t-65 -239z" />
<glyph unicode="&#xf1;" horiz-adv-x="1087" d="M2 0l188 1075h281l-22 -125q190 147 339 148q137 0 193.5 -91.5t26.5 -261.5l-131 -745h-281l123 700q31 168 -68 168q-109 0 -239 -135l-129 -733h-281zM350 1303q41 68 65.5 100.5t66.5 62t91.5 29.5t121 -49t93.5 -49q41 0 105 96l113 -80q-43 -68 -68 -101.5t-67 -63 t-91 -29.5t-119.5 49t-93.5 49q-43 0 -106 -96z" />
<glyph unicode="&#xf2;" horiz-adv-x="1083" d="M47 410q0 119 29.5 235.5t89 220t166 168t241.5 64.5q190 0 313.5 -106.5t123.5 -325.5q0 -119 -30 -236t-89.5 -220.5t-166 -168t-241.5 -64.5q-190 0 -313 106.5t-123 326.5zM328 401q-1 -196 157 -196q80 0 139.5 88t82 189.5t22.5 189.5q0 199 -158 198 q-80 0 -139 -88t-81.5 -190.5t-22.5 -190.5zM369 1493h295l161 -283h-215z" />
<glyph unicode="&#xf3;" horiz-adv-x="1083" d="M47 410q0 119 29.5 235.5t89 220t166 168t241.5 64.5q190 0 313.5 -106.5t123.5 -325.5q0 -119 -30 -236t-89.5 -220.5t-166 -168t-241.5 -64.5q-190 0 -313 106.5t-123 326.5zM328 401q-1 -196 157 -196q80 0 139.5 88t82 189.5t22.5 189.5q0 199 -158 198 q-80 0 -139 -88t-81.5 -190.5t-22.5 -190.5zM455 1210l256 283h325l-338 -283h-243z" />
<glyph unicode="&#xf4;" horiz-adv-x="1083" d="M47 410q0 119 29.5 235.5t89 220t166 168t241.5 64.5q190 0 313.5 -106.5t123.5 -325.5q0 -119 -30 -236t-89.5 -220.5t-166 -168t-241.5 -64.5q-190 0 -313 106.5t-123 326.5zM328 401q-1 -196 157 -196q80 0 139.5 88t82 189.5t22.5 189.5q0 199 -158 198 q-80 0 -139 -88t-81.5 -190.5t-22.5 -190.5zM336 1210l229 283h264l127 -283h-176l-96 154l-145 -154h-203z" />
<glyph unicode="&#xf5;" horiz-adv-x="1083" d="M47 410q0 119 29.5 235.5t89 220t166 168t241.5 64.5q190 0 313.5 -106.5t123.5 -325.5q0 -119 -30 -236t-89.5 -220.5t-166 -168t-241.5 -64.5q-190 0 -313 106.5t-123 326.5zM328 401q-1 -196 157 -196q80 0 139.5 88t82 189.5t22.5 189.5q0 199 -158 198 q-80 0 -139 -88t-81.5 -190.5t-22.5 -190.5zM348 1303q41 68 65.5 100.5t66.5 62t91.5 29.5t121 -49t93.5 -49q41 0 105 96l113 -80q-43 -68 -68 -101.5t-67 -63t-91 -29.5t-119.5 49t-93.5 49q-43 0 -106 -96z" />
<glyph unicode="&#xf6;" horiz-adv-x="1083" d="M47 410q0 119 29.5 235.5t89 220t166 168t241.5 64.5q190 0 313.5 -106.5t123.5 -325.5q0 -119 -30 -236t-89.5 -220.5t-166 -168t-241.5 -64.5q-190 0 -313 106.5t-123 326.5zM328 401q-1 -196 157 -196q80 0 139.5 88t82 189.5t22.5 189.5q0 199 -158 198 q-80 0 -139 -88t-81.5 -190.5t-22.5 -190.5zM383 1231l43 242h219l-41 -242h-221zM705 1231l43 242h219l-43 -242h-219z" />
<glyph unicode="&#xf7;" horiz-adv-x="1124" d="M121 571l41 224h864l-41 -224h-864zM375 323.5q0 55.5 39 94.5t94 39t95 -39t40 -94.5t-40 -94.5t-95 -39t-94 39t-39 94.5zM502 1042q0 57 39 96.5t94 39.5t95 -39t40 -97q0 -55 -40 -94t-95 -39t-94 39t-39 94z" />
<glyph unicode="&#xf8;" horiz-adv-x="1083" d="M-18 0l131 154q-66 102 -66 256q0 119 29.5 235.5t89 220t166 168t241.5 64.5q166 0 279 -80l47 57h162l-123 -145q72 -104 72 -264q0 -119 -30 -236t-89.5 -220.5t-166 -168t-241.5 -64.5q-174 0 -284 82l-52 -59h-165zM328 406l358 419q-39 45 -115 45q-80 0 -139 -87 t-81.5 -188t-22.5 -189zM365 254q36 -49 120 -49q80 0 139.5 88t82 189.5t22.5 189.5v12z" />
<glyph unicode="&#xf9;" horiz-adv-x="1087" d="M53 330l131 745h281l-125 -700q-31 -168 70 -168q53 0 120.5 40t118.5 91l129 737h281l-189 -1075h-280l20 123q-195 -145 -338 -146q-137 0 -193 91.5t-26 261.5zM365 1493h294l162 -283h-215z" />
<glyph unicode="&#xfa;" horiz-adv-x="1087" d="M53 330l131 745h281l-125 -700q-31 -168 70 -168q53 0 120.5 40t118.5 91l129 737h281l-189 -1075h-280l20 123q-195 -145 -338 -146q-137 0 -193 91.5t-26 261.5zM453 1210l256 283h325l-338 -283h-243z" />
<glyph unicode="&#xfb;" horiz-adv-x="1087" d="M53 330l131 745h281l-125 -700q-31 -168 70 -168q53 0 120.5 40t118.5 91l129 737h281l-189 -1075h-280l20 123q-195 -145 -338 -146q-137 0 -193 91.5t-26 261.5zM332 1210l229 283h264l127 -283h-176l-96 154l-145 -154h-203z" />
<glyph unicode="&#xfc;" horiz-adv-x="1087" d="M53 330l131 745h281l-125 -700q-31 -168 70 -168q53 0 120.5 40t118.5 91l129 737h281l-189 -1075h-280l20 123q-195 -145 -338 -146q-137 0 -193 91.5t-26 261.5zM379 1231l43 242h219l-41 -242h-221zM700 1231l43 242h220l-43 -242h-220z" />
<glyph unicode="&#xfd;" horiz-adv-x="1011" d="M-25 -231q106 43 169 81.5t112 102.5l-154 1122h289l58 -727l311 727h305l-522 -1075q-35 -72 -52.5 -103.5t-52.5 -89t-67.5 -87t-81.5 -68.5t-111.5 -64.5t-140.5 -46.5zM416 1210l256 283h325l-338 -283h-243z" />
<glyph unicode="&#xfe;" horiz-adv-x="1093" d="M-72 -418l336 1911h281l-94 -537q158 141 301 142q125 0 198.5 -94.5t73.5 -268.5q0 -188 -50 -357t-154.5 -285t-241.5 -116q-61 0 -116.5 25t-86.5 50.5t-72 68.5l-94 -539h-281zM342 346q76 -131 174 -131t158.5 151.5t60.5 321.5q1 172 -112 172q-96 0 -213 -137z " />
<glyph unicode="&#xff;" horiz-adv-x="1011" d="M-25 -231q106 43 169 81.5t112 102.5l-154 1122h289l58 -727l311 727h305l-522 -1075q-35 -72 -52.5 -103.5t-52.5 -89t-67.5 -87t-81.5 -68.5t-111.5 -64.5t-140.5 -46.5zM342 1231l43 242h219l-41 -242h-221zM664 1231l43 242h219l-43 -242h-219z" />
<glyph unicode="&#x152;" horiz-adv-x="1900" d="M86 532q0 109 20.5 227t71.5 244.5t125 225t191.5 163t261.5 64.5q207 0 338 -96l14 74h852l-47 -260h-557l-60 -330h457l-45 -254h-457l-57 -330h567l-45 -260h-860l6 33q-115 -55 -248 -56q-250 0 -389 141.5t-139 413.5zM385 535q0 -297 238 -297q96 0 170.5 79.5 t113.5 194.5t58.5 216t19.5 171q0 297 -237 297q-96 0 -172 -80t-114 -194.5t-57.5 -216t-19.5 -170.5z" />
<glyph unicode="&#x153;" horiz-adv-x="1665" d="M47 410q0 119 29.5 235.5t89 220t166 168t241.5 64.5q223 0 342 -140q145 139 359 140q160 0 255 -80t95 -215q0 -365 -539 -365h-84v-28q0 -213 138 -213q14 0 29.5 2t34 7t32.5 9t36.5 14.5t35 15.5t38 17t36 17.5t39 20.5t36.5 19l84 -200q-78 -47 -209 -94.5 t-256 -47.5q-186 0 -274 121q-131 -121 -318 -121q-190 0 -313 106.5t-123 326.5zM328 401q-1 -196 157 -196q80 0 139.5 88t82 189.5t22.5 189.5q0 199 -158 198q-80 0 -139 -88t-81.5 -190.5t-22.5 -190.5zM1022 598h72q127 0 197.5 51t70.5 135q0 47 -29 75t-76 28 q-86 0 -146 -81t-89 -208z" />
<glyph unicode="&#x178;" horiz-adv-x="1142" d="M147 1434h312l137 -590l340 590h338l-567 -861l-101 -573h-291l99 569zM461 1540l43 242h219l-41 -242h-221zM782 1540l43 242h219l-43 -242h-219z" />
<glyph unicode="&#x2c6;" horiz-adv-x="509" d="M156 1210l229 283h264l127 -283h-176l-96 154l-146 -154h-202z" />
<glyph unicode="&#x2dc;" horiz-adv-x="520" d="M170 1303q41 68 65.5 100.5t66.5 62t91 29.5t121 -49t94 -49q41 0 105 96l112 -80q-43 -68 -67.5 -101.5t-66.5 -63t-91 -29.5t-119.5 49t-93.5 49q-43 0 -106 -96z" />
<glyph unicode="&#x2000;" horiz-adv-x="964" />
<glyph unicode="&#x2001;" horiz-adv-x="1929" />
<glyph unicode="&#x2002;" horiz-adv-x="964" />
<glyph unicode="&#x2003;" horiz-adv-x="1929" />
<glyph unicode="&#x2004;" horiz-adv-x="643" />
<glyph unicode="&#x2005;" horiz-adv-x="482" />
<glyph unicode="&#x2006;" horiz-adv-x="321" />
<glyph unicode="&#x2007;" horiz-adv-x="321" />
<glyph unicode="&#x2008;" horiz-adv-x="241" />
<glyph unicode="&#x2009;" horiz-adv-x="385" />
<glyph unicode="&#x200a;" horiz-adv-x="107" />
<glyph unicode="&#x2010;" horiz-adv-x="765" d="M82 465l41 237h549l-41 -237h-549z" />
<glyph unicode="&#x2011;" horiz-adv-x="765" d="M82 465l41 237h549l-41 -237h-549z" />
<glyph unicode="&#x2012;" horiz-adv-x="765" d="M82 465l41 237h549l-41 -237h-549z" />
<glyph unicode="&#x2013;" horiz-adv-x="978" d="M80 465l41 235h766l-41 -235h-766z" />
<glyph unicode="&#x2014;" horiz-adv-x="1155" d="M80 465l41 235h942l-41 -235h-942z" />
<glyph unicode="&#x2018;" horiz-adv-x="485" d="M135 809l49 375l281 289l57 -99l-170 -227h125l-57 -338h-285z" />
<glyph unicode="&#x2019;" horiz-adv-x="471" d="M135 868l170 228h-125l58 338h284l-49 -375l-280 -289z" />
<glyph unicode="&#x201a;" horiz-adv-x="501" d="M-45 -227l170 227h-125l57 338h285l-49 -375l-281 -289z" />
<glyph unicode="&#x201c;" horiz-adv-x="886" d="M135 809l49 375l281 289l57 -99l-170 -227h125l-57 -338h-285zM537 809l49 375l280 289l58 -99l-170 -227h125l-58 -338h-284z" />
<glyph unicode="&#x201d;" horiz-adv-x="872" d="M135 868l170 228h-125l58 338h284l-49 -375l-280 -289zM537 868l170 228h-125l57 338h285l-50 -375l-280 -289z" />
<glyph unicode="&#x201e;" horiz-adv-x="903" d="M-45 -227l170 227h-125l57 338h285l-49 -375l-281 -289zM356 -227l170 227h-125l58 338h284l-49 -375l-280 -289z" />
<glyph unicode="&#x2022;" horiz-adv-x="901" d="M131 584q0 131 91 222t222 91q129 0 221.5 -91t92.5 -222q0 -129 -92.5 -220.5t-221.5 -91.5q-131 0 -222 91.5t-91 220.5z" />
<glyph unicode="&#x2026;" horiz-adv-x="1359" d="M0 0l59 338h283l-59 -338h-283zM432 0l60 338h282l-59 -338h-283zM864 0l60 338h282l-59 -338h-283z" />
<glyph unicode="&#x202f;" horiz-adv-x="385" />
<glyph unicode="&#x2039;" horiz-adv-x="661" d="M29 467l32 178l584 434l-57 -313l-328 -227l250 -228l-49 -280z" />
<glyph unicode="&#x203a;" horiz-adv-x="661" d="M-4 31l57 313l328 227l-250 228l49 280l432 -436l-32 -178z" />
<glyph unicode="&#x205f;" horiz-adv-x="482" />
<glyph unicode="&#x20ac;" horiz-adv-x="1257" d="M53 481l29 160h92q6 72 19 141h-87l29 158h94q72 233 216.5 374.5t340.5 141.5q94 0 193.5 -37t155 -71.5t151.5 -102.5l-160 -215q-199 150 -315 150q-162 0 -264 -240h360l-28 -158h-381q-20 -94 -25 -141h381l-29 -160h-354q14 -229 166 -229q115 0 352 145l117 -239 q-328 -180 -539 -181q-184 0 -286.5 130.5t-110.5 373.5h-117z" />
<glyph unicode="&#x2122;" horiz-adv-x="1116" d="M231 1331l19 103h368l-18 -103h-127l-63 -356h-115l63 356h-127zM586 975l82 459h116l70 -254l164 254h119l-82 -459h-113l45 264l-119 -188h-67l-53 192l-48 -268h-114z" />
<glyph unicode="&#xe000;" horiz-adv-x="1075" d="M0 0v1075h1075v-1075h-1075z" />
</font>
</defs>
</svg>
