<?xml version="1.0" standalone="no"?>
<!DOCTYPE svg PUBLIC "-//W3C//DTD SVG 1.1//EN" "http://www.w3.org/Graphics/SVG/1.1/DTD/svg11.dtd" >
<svg xmlns="http://www.w3.org/2000/svg">
<metadata></metadata>
<defs>
<font id="verbexcondsemibold" horiz-adv-x="1105" >
<font-face units-per-em="2048" ascent="1638" descent="-410" />
<missing-glyph horiz-adv-x="454" />
<glyph unicode="&#xfb01;" horiz-adv-x="1150" d="M51 887v188h121v86q0 332 246 332q117 0 244 -63l-56 -187q-76 31 -123 31q-70 0 -69 -100v-99h217v-188h-217v-887h-242v887h-121zM782 1249v238h256v-238h-256zM788 0v1075h242v-1075h-242z" />
<glyph unicode="&#xfb02;" horiz-adv-x="1161" d="M51 887v188h121v86q0 332 246 332q117 0 244 -63l-56 -187q-76 31 -123 31q-70 0 -69 -100v-99h217v-188h-217v-887h-242v887h-121zM793 0v1493h241v-1493h-241z" />
<glyph unicode="&#xfb03;" horiz-adv-x="1818" d="M51 887v188h121v86q0 174 61.5 253t186.5 79q129 0 305 -80l-86 -180q-94 41 -156 41q-70 0 -69 -100v-99h217v-188h-217v-887h-242v887h-121zM717 887v188h121v86q0 332 245 332q117 0 244 -63l-55 -187q-76 31 -123 31q-70 0 -70 -100v-99h217v-188h-217v-887h-241v887 h-121zM1448 1249v238h256v-238h-256zM1454 0v1075h242v-1075h-242z" />
<glyph unicode="&#xfb04;" horiz-adv-x="1826" d="M51 887v188h121v86q0 174 61.5 253t186.5 79q129 0 305 -80l-86 -180q-94 41 -156 41q-70 0 -69 -100v-99h217v-188h-217v-887h-242v887h-121zM717 887v188h121v86q0 332 245 332q117 0 244 -63l-55 -187q-76 31 -123 31q-70 0 -70 -100v-99h217v-188h-217v-887h-241v887 h-121zM1458 0v1493h242v-1493h-242z" />
<glyph horiz-adv-x="2048" />
<glyph horiz-adv-x="2048" />
<glyph unicode="&#xd;" horiz-adv-x="681" />
<glyph unicode=" "  horiz-adv-x="454" />
<glyph unicode="&#x09;" horiz-adv-x="454" />
<glyph unicode="&#xa0;" horiz-adv-x="454" />
<glyph unicode="!" horiz-adv-x="555" d="M129 1434h295l-74 -981h-147zM152 0v287h249v-287h-249z" />
<glyph unicode="&#x22;" horiz-adv-x="774" d="M96 1434h232l-39 -549h-152zM446 1434h232l-39 -549h-152z" />
<glyph unicode="#" horiz-adv-x="1267" d="M78 338v192h219l47 371h-197v195h222l43 338h188l-43 -338h248l43 338h186l-43 -338h197v-195h-221l-47 -371h198v-192h-223l-41 -338h-186l41 338h-248l-43 -338h-187l41 338h-194zM485 530h248l47 371h-248z" />
<glyph unicode="$" horiz-adv-x="1120" d="M78 160l117 186q137 -88 284 -131v412l-59 30q-70 37 -116 68t-97 80t-78 115.5t-27 148.5q0 160 101.5 265.5t275.5 119.5v186h176v-194q178 -31 349 -129l-117 -191q-106 61 -232 95v-390l50 -22q70 -35 117.5 -66.5t104 -84t86 -124t29.5 -159.5q0 -166 -105.5 -273.5 t-281.5 -121.5v-185h-176v195q-215 35 -401 170zM369 1077q0 -90 110 -157v305q-110 -33 -110 -148zM655 207q123 33 123 158q0 96 -123 172v-330z" />
<glyph unicode="%" horiz-adv-x="1718" d="M70 1073q0 180 83 281.5t240.5 101.5t241.5 -101.5t84 -281.5t-84 -282.5t-241.5 -102.5t-240.5 102.5t-83 282.5zM252 1073q0 -225 141 -225q143 0 144 225q0 223 -144 223q-141 0 -141 -223zM459 0l608 1434h188l-606 -1434h-190zM999 362.5q0 180.5 83 281.5t241 101 t242 -101t84 -281.5t-84 -283t-242 -102.5t-241 102.5t-83 283zM1182 362q0 -225 141 -225q143 0 143 225q0 223 -143 224q-141 0 -141 -224z" />
<glyph unicode="&#x26;" horiz-adv-x="1253" d="M115 352q0 125 64.5 221.5t178.5 190.5q-76 96 -117.5 179t-41.5 185q0 154 98 241t246 87q150 0 239.5 -87t89.5 -222q0 -113 -60 -205t-171 -194l223 -273q55 131 66 281h241q-29 -252 -157 -463l243 -293h-278l-100 123q-160 -145 -365 -146q-174 0 -286.5 103.5 t-112.5 271.5zM350 367q0 -74 46 -135.5t134 -61.5q115 0 218 113l-263 323q-135 -131 -135 -239zM414 1120q0 -96 104 -225q139 121 139 233q0 57 -29.5 100.5t-86.5 43.5q-59 0 -93 -44.5t-34 -107.5z" />
<glyph unicode="'" horiz-adv-x="423" d="M96 1434h232l-39 -549h-152z" />
<glyph unicode="(" horiz-adv-x="606" d="M131 156v1114q0 51 1 77.5t4 66.5t9.5 60.5t18.5 51t31.5 48t46 39t62.5 38t84 34t108 33.5l61 -149q-121 -51 -147.5 -93t-26.5 -155v-1217q0 -115 26.5 -155.5t147.5 -91.5l-61 -150q-68 18 -119 35.5t-90 41t-65.5 42t-43 50.5t-27 54.5t-14.5 65.5t-5 73t-1 87z" />
<glyph unicode=")" horiz-adv-x="604" d="M47 -143q121 51 147.5 93t26.5 154v1217q0 115 -26.5 156t-147.5 92l62 149q68 -18 119 -35.5t89.5 -41t65.5 -42t43 -50t26.5 -54t14.5 -66t5 -73t1 -86.5v-1114q0 -51 -1 -78t-4 -67t-9 -60.5t-18.5 -51t-32 -48t-46 -39t-62.5 -38t-84 -33.5t-107 -34z" />
<glyph unicode="*" horiz-adv-x="921" d="M92 954l297 95l-297 98l103 178l231 -213l-68 305h205l-63 -305l227 213l100 -180l-284 -94l284 -99l-102 -178l-223 205l61 -299h-205l68 305l-231 -209z" />
<glyph unicode="+" d="M121 588v190h336v350h190v-350h336v-190h-336v-350h-190v350h-336z" />
<glyph unicode="," horiz-adv-x="487" d="M111 -223l116 223h-110v307h248l18 -338l-205 -276z" />
<glyph unicode="-" horiz-adv-x="765" d="M119 479v207h530v-207h-530z" />
<glyph unicode="." horiz-adv-x="483" d="M117 0v307h250v-307h-250z" />
<glyph unicode="/" horiz-adv-x="808" d="M39 -184l551 1802h182l-549 -1802h-184z" />
<glyph unicode="0" horiz-adv-x="1175" d="M98 717q0 356 123 547.5t367 191.5q246 0 367.5 -190.5t121.5 -548.5q0 -356 -123 -548t-366 -192q-246 0 -368 190.5t-122 549.5zM352 716.5q0 -532.5 235.5 -532.5t235.5 532.5t-235.5 532.5t-235.5 -532.5z" />
<glyph unicode="1" horiz-adv-x="741" d="M25 1225l317 209h238v-1434h-252v1184l-199 -127z" />
<glyph unicode="2" horiz-adv-x="1060" d="M76 0v131q0 86 23.5 164t53 132t87 116.5t94.5 94.5t106 89q135 111 201 186.5t66 159.5q0 72 -47.5 117t-129.5 45q-131 0 -305 -123l-119 170q219 174 457 174q186 0 292 -104.5t106 -268.5q0 -63 -14.5 -121.5t-50.5 -113.5t-61.5 -90t-85 -88.5t-79 -69.5t-84.5 -68 q-76 -66 -112 -101.5t-66.5 -91.5t-30.5 -120h586v-219h-887z" />
<glyph unicode="3" horiz-adv-x="1062" d="M51 141l117 181q193 -121 332 -121q96 0 157.5 58t61.5 157q0 88 -59.5 146.5t-130 77.5t-146.5 19h-47v222h55q104 0 191.5 51t87.5 151q0 70 -43 111t-123 41q-127 0 -291 -111l-109 164q209 168 443 168q180 0 277.5 -96t97.5 -240q0 -106 -56.5 -193t-158.5 -136 q119 -39 192.5 -142.5t73.5 -240.5q0 -178 -109.5 -304.5t-331.5 -126.5q-258 0 -481 164z" />
<glyph unicode="4" horiz-adv-x="1159" d="M51 289v188l535 957h332v-924h178v-221h-178v-289h-250v289h-617zM291 510h377v678z" />
<glyph unicode="5" horiz-adv-x="1054" d="M70 145l114 189q172 -131 301 -131q96 0 163 71.5t67 186.5q0 106 -58.5 180t-167.5 74q-102 0 -225 -84l-139 82l63 721h736v-222h-525l-16 -311q80 29 170 29q199 0 307.5 -135.5t108.5 -333.5q0 -203 -117 -343.5t-334 -140.5q-233 0 -448 168z" />
<glyph unicode="6" horiz-adv-x="1103" d="M94 588q-2 399 192.5 633.5t491.5 234.5q47 0 91 -5t65 -11l20 -6l-59 -209q-52 14 -113 14q-141 0 -257.5 -110.5t-157.5 -340.5q109 133 280.5 133.5t277 -127.5t105.5 -323q0 -209 -123 -351.5t-332 -142.5q-236 0 -358.5 177.5t-122.5 433.5zM348 565 q0 -170 61.5 -271t163.5 -101q100 0 152.5 80.5t52.5 189.5q0 106 -52 182t-148 76q-80 0 -140.5 -47t-89.5 -107v-2z" />
<glyph unicode="7" horiz-adv-x="913" d="M53 1212v222h826v-203q-16 -25 -45 -71t-103 -185t-129 -278.5t-101 -332t-46 -364.5h-262q0 158 40.5 337t92 314t119 271.5t102.5 194t59 95.5h-553z" />
<glyph unicode="8" horiz-adv-x="1136" d="M86 371q0 252 279 405q-205 131 -205 336q0 154 110.5 249t299 95t298 -95t109.5 -249q0 -205 -205 -336q279 -154 279 -405q0 -182 -129 -288t-352.5 -106t-353.5 106t-130 288zM340 389q0 -94 64.5 -151.5t165 -57.5t164 56.5t63.5 152.5q0 94 -61.5 160.5 t-168.5 122.5q-227 -119 -227 -283zM399 1090q0 -135 170 -220q168 86 168 220q0 70 -46 120t-121.5 50t-123 -50t-47.5 -120z" />
<glyph unicode="9" horiz-adv-x="1103" d="M74 963q0 209 122.5 351t329.5 142q160 0 272.5 -89t162 -223t49.5 -298q2 -399 -192.5 -634t-493.5 -235q-45 0 -89.5 5.5t-64.5 11.5l-20 6l59 209q50 -16 113 -16q143 0 258.5 111.5t156.5 340.5q-109 -133 -282 -133q-170 0 -275.5 127t-105.5 324zM326 971 q0 -106 52 -183t148 -77q80 0 141.5 48t88.5 107v2q0 168 -62.5 269.5t-161.5 101.5q-102 0 -154 -80t-52 -188z" />
<glyph unicode=":" horiz-adv-x="503" d="M127 0v307h250v-307h-250zM127 662v307h250v-307h-250z" />
<glyph unicode=";" horiz-adv-x="522" d="M127 -223l117 223h-111v307h248l18 -338l-204 -276zM133 662v307h250v-307h-250z" />
<glyph unicode="&#x3c;" d="M98 594v178l860 422v-233l-614 -279l614 -279v-231z" />
<glyph unicode="=" d="M121 397v193h862v-193h-862zM121 778v195h862v-195h-862z" />
<glyph unicode="&#x3e;" d="M145 172v234l615 278l-615 279v231l861 -422v-178z" />
<glyph unicode="?" horiz-adv-x="921" d="M59 1303q193 154 410 153q166 0 275.5 -95t109.5 -257q0 -295 -385 -430l-14 -221h-154l-14 356q162 47 237.5 106.5t75.5 155.5q0 74 -46 119t-126 45q-113 0 -258 -102zM254 0v287h250v-287h-250z" />
<glyph unicode="@" horiz-adv-x="1652" d="M86 518q0 389 204 638t550 249q340 0 526 -242.5t188 -642.5q0 -121 -18 -221t-57 -181t-104.5 -127t-155.5 -46q-61 0 -107.5 23.5t-72 63.5t-39 77.5t-17.5 78.5q-129 -141 -270 -141q-113 0 -187.5 77t-74.5 226q0 152 76.5 230.5t197.5 78.5q39 0 86 -8t104.5 -22.5 t65.5 -16.5v101q0 92 -30.5 133t-108.5 41q-113 0 -277 -80l-63 137q209 94 370 94q145 0 216 -76.5t71 -246.5v-377q0 -63 2 -101t11.5 -82t31 -64.5t56.5 -20.5q78 0 136 111.5t58 342.5q0 223 -64.5 395.5t-206 279t-343.5 106.5q-307 0 -480.5 -223.5t-173.5 -563.5 t166.5 -562t440.5 -222q88 0 166.5 22.5t113.5 42.5l35 23l57 -82q-14 -12 -42.5 -29.5t-127 -47.5t-207.5 -30q-313 0 -507.5 251t-194.5 634zM631 362q0 -84 37 -124.5t96 -40.5q102 0 217 129v182q-160 35 -195 35q-80 0 -117.5 -50.5t-37.5 -130.5z" />
<glyph unicode="A" horiz-adv-x="1216" d="M29 0l440 1434h279l440 -1434h-270l-80 305h-459l-78 -305h-272zM434 516h348l-174 666z" />
<glyph unicode="B" horiz-adv-x="1198" d="M147 0v1434h449q227 0 344 -89.5t117 -259.5q0 -137 -67.5 -222t-143.5 -99q98 -16 186 -109.5t88 -269.5q0 -184 -110.5 -284.5t-335.5 -100.5h-527zM399 205h228q123 0 184 59.5t61 163.5q0 227 -280 227h-193v-450zM399 850h181q229 0 229 190q0 186 -225 187h-185 v-377z" />
<glyph unicode="C" horiz-adv-x="1126" d="M92 716.5q0 366.5 133 553t353 186.5q125 0 238.5 -51.5t258.5 -147.5l-119 -190q-78 49 -120.5 74.5t-108 51.5t-117.5 26q-123 0 -191.5 -133.5t-68.5 -369t68.5 -368.5t191.5 -133q51 0 120 27.5t104.5 48t121.5 76.5l119 -191q-94 -61 -157.5 -98t-157.5 -69 t-182 -32q-219 0 -352.5 186.5t-133.5 553z" />
<glyph unicode="D" horiz-adv-x="1249" d="M147 0v1434h392q305 0 460.5 -171t155.5 -546t-155.5 -546t-460.5 -171h-392zM399 223h131q190 0 282.5 115t92.5 379t-92 377.5t-283 113.5h-131v-985z" />
<glyph unicode="E" horiz-adv-x="1069" d="M147 0v1434h826v-226h-574v-381h469v-221h-469v-383h582v-223h-834z" />
<glyph unicode="F" horiz-adv-x="1019" d="M147 0v1434h826v-226h-574v-383h453v-219h-453v-606h-252z" />
<glyph unicode="G" horiz-adv-x="1226" d="M92 719q0 367 135 552t357 185q133 0 255 -55t263 -152l-119 -192q-8 6 -44 27.5t-48 28.5t-44 26.5t-48.5 27t-44 19.5t-48 18t-45 10.5t-47.5 4.5q-125 0 -194.5 -134.5t-69.5 -375.5q0 -229 67.5 -367.5t194.5 -138.5q129 0 271 180v215h-279v209h514v-807h-235v147 q-162 -170 -328 -170q-199 0 -331 188.5t-132 553.5z" />
<glyph unicode="H" horiz-adv-x="1263" d="M147 0v1434h252v-572h467v572h250v-1434h-250v641h-467v-641h-252z" />
<glyph unicode="I" horiz-adv-x="546" d="M147 0v1434h252v-1434h-252z" />
<glyph unicode="J" horiz-adv-x="544" d="M-47 -145q139 57 166.5 96t27.5 153v1330h252v-1317q0 -61 -1 -90t-5 -75t-13 -66.5t-26.5 -53.5t-43 -50.5t-64.5 -42t-90.5 -43t-120.5 -38.5z" />
<glyph unicode="K" horiz-adv-x="1198" d="M147 0v1434h252v-676l451 676h305l-481 -668l510 -766h-299l-359 559l-127 -176v-383h-252z" />
<glyph unicode="L" horiz-adv-x="991" d="M147 0v1434h252v-1211h555v-223h-807z" />
<glyph unicode="M" horiz-adv-x="1478" d="M147 0v1434h259l333 -871l334 871h258v-1434h-250v969l-276 -729h-129l-277 725v-965h-252z" />
<glyph unicode="N" horiz-adv-x="1292" d="M147 0v1434h256l490 -1000v1000h252v-1434h-256l-490 999v-999h-252z" />
<glyph unicode="O" horiz-adv-x="1306" d="M90 717q0 217 52.5 376.5t181 261t329.5 101.5q293 0 428.5 -202.5t135.5 -536.5q0 -160 -31 -290t-95.5 -232.5t-176 -160t-261.5 -57.5q-293 0 -428 203t-135 537zM348 717q0 -514 305 -514q303 0 303 514q0 512 -303 512q-305 0 -305 -512z" />
<glyph unicode="P" horiz-adv-x="1163" d="M147 0v1434h451q502 0 502 -457q0 -453 -502 -453h-199v-524h-252zM399 741h197q250 0 250 235.5t-250 235.5h-197v-471z" />
<glyph unicode="Q" horiz-adv-x="1306" d="M90 717q0 217 52.5 376.5t181.5 261t329 101.5q293 0 428.5 -202.5t135.5 -536.5q0 -537 -314 -688l197 -187l-168 -178l-279 313q-293 0 -428 203t-135 537zM348 717q0 -514 305 -514q303 0 303 514q0 512 -303 512q-305 0 -305 -512z" />
<glyph unicode="R" horiz-adv-x="1220" d="M147 0v1434h488q502 0 502 -430q0 -338 -301 -410l303 -594h-273l-278 573h-189v-573h-252zM399 782h228q256 0 256 221.5t-250 221.5h-234v-443z" />
<glyph unicode="S" horiz-adv-x="1099" d="M66 160l116 186q92 -59 203 -103t195 -44q80 0 133 43t53 123q0 29 -8 54t-29.5 47.5t-40 40t-58.5 39t-64.5 34t-78 38t-79.5 39.5q-70 37 -116 68t-97.5 80t-78 115.5t-26.5 148.5q0 174 116 280.5t312 106.5q238 0 473 -139l-117 -191q-190 109 -339 109 q-76 0 -127.5 -40t-51.5 -118q0 -39 14.5 -68.5t55.5 -58t67.5 -44t98 -49.5t100.5 -48q70 -35 118 -66.5t104.5 -84t86 -124t29.5 -159.5q0 -178 -119.5 -288t-316.5 -110q-141 0 -282.5 54.5t-245.5 128.5z" />
<glyph unicode="T" horiz-adv-x="1019" d="M39 1208v226h942v-226h-344v-1208h-252v1208h-346z" />
<glyph unicode="U" horiz-adv-x="1247" d="M135 518v916h252v-934q0 -139 50 -218t185.5 -79t186.5 77.5t51 219.5v934h252v-916q0 -254 -107.5 -397.5t-381.5 -143.5q-143 0 -241.5 41t-151 118t-74 169t-21.5 213z" />
<glyph unicode="V" horiz-adv-x="1212" d="M27 1434h282l297 -1137l297 1137h283l-443 -1434h-276z" />
<glyph unicode="W" horiz-adv-x="1662" d="M45 1434h281l188 -1055l217 1055h201l215 -1053l190 1053h281l-328 -1434h-246l-213 1020l-213 -1020h-245z" />
<glyph unicode="X" horiz-adv-x="1134" d="M23 0l395 721l-375 713h287l237 -539l238 539h287l-375 -713l395 -721h-295l-250 522l-248 -522h-296z" />
<glyph unicode="Y" horiz-adv-x="1132" d="M18 1434h281l268 -623l267 623h280l-422 -863v-571h-252v571z" />
<glyph unicode="Z" horiz-adv-x="1097" d="M66 0v203l628 1005h-592v226h908v-201l-633 -1010h641v-223h-952z" />
<glyph unicode="[" horiz-adv-x="653" d="M145 -295v2013h457v-157h-205v-1698h205v-158h-457z" />
<glyph unicode="\" horiz-adv-x="808" d="M35 1618h184l551 -1802h-184z" />
<glyph unicode="]" horiz-adv-x="653" d="M51 -135h205v1698h-205v157h457v-2013h-457v158z" />
<glyph unicode="^" d="M115 684l313 750h248l315 -750h-258l-182 520l-182 -520h-254z" />
<glyph unicode="_" horiz-adv-x="1222" d="M115 -156h993v-182h-993v182z" />
<glyph unicode="`" horiz-adv-x="393" d="M-47 1493h276l209 -276h-196z" />
<glyph unicode="a" horiz-adv-x="1034" d="M66 326q0 168 90 258t235 90q45 0 98.5 -9.5t114 -23.5t74.5 -16v100q0 94 -35 136t-121 42q-96 0 -317 -84l-80 178q260 100 444 101q180 0 265.5 -86t85.5 -283v-729h-242v131q-141 -154 -309 -154q-133 0 -218 91.5t-85 257.5zM311 346q1 -170 140 -170q117 0 227 129 v187q-137 36 -200 36h-3q-82 0 -123 -50t-41 -132z" />
<glyph unicode="b" horiz-adv-x="1079" d="M121 0v1493h241v-545q145 150 295 150q158 0 250 -141.5t92 -420t-92 -419t-250 -140.5q-156 0 -295 148v-125h-241zM362 332q94 -147 222 -148q84 0 128 92.5t44 260.5q0 170 -44 263t-128 93q-123 0 -222 -152v-409z" />
<glyph unicode="c" horiz-adv-x="905" d="M76 538.5q0 272.5 114.5 416t284.5 143.5q150 0 379 -133l-100 -187q-6 2 -49 29t-65 38t-58.5 23.5t-65.5 12.5q-88 0 -140 -93.5t-52 -249t51 -249.5t139 -94q25 0 51.5 6t56 21.5t47 23.5t49.5 28.5t36 22.5l100 -186q-229 -133 -377 -134q-170 0 -285.5 144.5 t-115.5 417z" />
<glyph unicode="d" horiz-adv-x="1079" d="M80 536.5q0 278.5 92 420t250 141.5q145 0 295 -150v545h239v-1493h-239v127q-150 -150 -295 -150q-158 0 -250 140.5t-92 419zM324 537q0 -353 172 -353q121 0 221 150v407q-100 152 -221 152q-172 0 -172 -356z" />
<glyph unicode="e" horiz-adv-x="1005" d="M76 537q0 266 116.5 413.5t323.5 147.5q199 0 305.5 -129t106.5 -342q0 -37 -3 -74t-7 -53l-3 -19h-591q16 -313 198 -313q45 0 105.5 23.5t97.5 44t111 65.5l98 -158q-242 -166 -438 -166q-184 0 -302 143.5t-118 416.5zM324 623h372q0 290 -176 290q-174 0 -196 -290z " />
<glyph unicode="f" horiz-adv-x="665" d="M51 887v188h121v86q0 174 61.5 253t186.5 79q129 0 305 -80l-86 -180q-94 41 -156 41q-70 0 -69 -100v-99h217v-188h-217v-887h-242v887h-121z" />
<glyph unicode="g" horiz-adv-x="1079" d="M80 536.5q0 278.5 92 420t250 141.5q145 0 295 -150v127h239v-1108q0 -213 -93 -309t-285 -96q-219 0 -461 82l55 196q231 -80 358 -80q98 0 142.5 48.5t44.5 150.5v168q-150 -150 -295 -150q-158 0 -250 140.5t-92 419zM324 537q0 -353 172 -353q121 0 221 150v407 q-100 152 -221 152q-172 0 -172 -356z" />
<glyph unicode="h" horiz-adv-x="1081" d="M121 0v1493h241v-557q197 162 349 162q131 0 193.5 -85t62.5 -233v-780h-242v729q0 168 -113 168q-117 0 -250 -152v-745h-241z" />
<glyph unicode="i" horiz-adv-x="485" d="M115 1249v238h256v-238h-256zM121 0v1075h241v-1075h-241z" />
<glyph unicode="j" horiz-adv-x="483" d="M-74 -268q141 57 168 96t27 160v1087h241v-1071q0 -55 -1 -80.5t-3 -67.5t-9 -61.5t-18.5 -51.5t-29.5 -47t-45 -39t-62.5 -40t-83 -33.5t-106.5 -36.5zM115 1249v238h256v-238h-256z" />
<glyph unicode="k" horiz-adv-x="985" d="M121 0v1493h241v-885l285 467h277l-303 -430l354 -645h-254l-240 449l-119 -168v-281h-241z" />
<glyph unicode="l" horiz-adv-x="495" d="M127 0v1493h242v-1493h-242z" />
<glyph unicode="m" horiz-adv-x="1601" d="M121 0v1075h241v-145q150 168 308 168q186 0 237 -189q150 188 326 189q129 0 190.5 -86t61.5 -232v-780h-240v721q0 176 -106.5 176t-214.5 -154v-743h-242v721q0 176 -107 176q-104 0 -213 -154v-743h-241z" />
<glyph unicode="n" horiz-adv-x="1081" d="M121 0v1075h241v-139q186 162 349 162q131 0 193.5 -85t62.5 -233v-780h-242v729q0 168 -113 168q-117 0 -250 -152v-745h-241z" />
<glyph unicode="o" horiz-adv-x="1060" d="M76 536.5q0 266.5 116.5 414t338 147.5t338 -147.5t116.5 -414t-116.5 -413t-338 -146.5t-338 146.5t-116.5 413zM530 174q211 1 211 363q0 364 -210 364h-1q-208 0 -208 -361q0 -365 208 -366z" />
<glyph unicode="p" horiz-adv-x="1079" d="M121 -418v1493h241v-127q141 150 295 150q158 0 250 -141.5t92 -420t-92 -419t-250 -140.5q-156 0 -295 148v-543h-241zM362 332q94 -147 222 -148q84 0 128 92.5t44 260.5q0 170 -44 263t-128 93q-123 0 -222 -152v-409z" />
<glyph unicode="q" horiz-adv-x="1079" d="M80 536.5q0 278.5 92 420t250 141.5q145 0 295 -150v127h239v-1493h-239v545q-150 -150 -295 -150q-158 0 -250 140.5t-92 419zM324 537q0 -353 172 -353q121 0 221 150v407q-100 152 -221 152q-172 0 -172 -356z" />
<glyph unicode="r" horiz-adv-x="729" d="M121 0v1075h241v-225q12 31 30 62.5t56 79.5t102 75q51 21 110 21q15 0 32 -1v-239q-61 0 -111.5 -18.5t-84 -49t-59 -66.5t-39 -72t-22.5 -66.5t-11 -49.5l-3 -18v-508h-241z" />
<glyph unicode="s" horiz-adv-x="923" d="M61 113l99 178q76 -45 172 -81t160 -36q55 0 92 27.5t37 77.5q0 20 -6.5 38.5t-24 35t-28.5 25.5t-42 22.5t-40 18.5t-47 17.5t-42 14.5q-63 23 -110.5 47t-98.5 63t-77.5 97.5t-26.5 132.5q0 137 93 222t255 85q201 0 399 -115l-98 -166q-168 84 -281 84 q-57 0 -92 -26.5t-35 -73.5q0 -20 6.5 -38t20.5 -32t26.5 -23.5t38 -20.5t39 -16t46.5 -16.5t43 -15.5q154 -55 239.5 -136t85.5 -216q0 -143 -96 -226.5t-260 -83.5q-117 0 -240 41t-207 95z" />
<glyph unicode="t" horiz-adv-x="727" d="M53 887v188h119v262l242 49v-311h239v-188h-239v-584q0 -104 71 -104q41 0 142 47l84 -187q-170 -82 -285 -82q-127 0 -190.5 77t-63.5 245v588h-119z" />
<glyph unicode="u" horiz-adv-x="1081" d="M117 295v780h239v-729q0 -170 115 -170q111 0 248 150v749h242v-1075h-242v133q-190 -156 -346 -156q-131 0 -193.5 85t-62.5 233z" />
<glyph unicode="v" horiz-adv-x="1001" d="M33 1075h256l211 -796l211 796h258l-351 -1075h-237z" />
<glyph unicode="w" horiz-adv-x="1441" d="M45 1075h254l150 -772l178 772h188l176 -774l150 774h256l-273 -1075h-225l-178 735l-178 -735h-226z" />
<glyph unicode="x" horiz-adv-x="1036" d="M20 0l353 541l-334 534h274l205 -387l207 387h272l-331 -534l352 -541h-285l-215 399l-215 -399h-283z" />
<glyph unicode="y" horiz-adv-x="1001" d="M33 1075h258l209 -776l211 776h258l-484 -1493h-260l160 404z" />
<glyph unicode="z" horiz-adv-x="952" d="M70 0v180l510 686h-494v209h791v-180l-510 -684h510v-211h-807z" />
<glyph unicode="{" horiz-adv-x="702" d="M41 627v172q98 0 137 57t25 180l-21 191q-27 242 89 366.5t345 124.5h31v-153h-31q-211 0 -182 -312l19 -170q16 -166 -43.5 -254t-190.5 -116q264 -57 234 -371l-19 -170q-29 -313 182 -313h31v-152h-31q-229 0 -344.5 125t-89.5 367l21 190q14 123 -25 180.5t-137 57.5 z" />
<glyph unicode="|" horiz-adv-x="471" d="M145 -252v1927h181v-1927h-181z" />
<glyph unicode="}" horiz-adv-x="704" d="M57 -139h31q211 0 182 311l-18 170q-16 166 43 254t190 117q-264 57 -233 370l18 170q29 313 -182 314h-31v151h31q229 0 345 -125t89 -366l-20 -191q-14 -123 25 -180t137 -57v-172q-98 0 -137.5 -57.5t-24.5 -180.5l20 -190q27 -242 -89 -367t-345 -125h-31v154z" />
<glyph unicode="~" d="M57 455q102 285 297 284q88 0 214 -75.5t188 -75.5q41 0 75.5 27.5t73.5 109.5l144 -63q-106 -285 -299 -285q-82 0 -211 75.5t-191 75.5q-41 0 -74.5 -27.5t-72.5 -109.5z" />
<glyph unicode="&#xa1;" horiz-adv-x="555" d="M131 0l74 981h147l74 -981h-295zM154 1147v287h249v-287h-249z" />
<glyph unicode="&#xa2;" horiz-adv-x="978" d="M94 719q0 256 104.5 399.5t262.5 157.5v158h176v-179q113 -35 258 -122l-104 -185q-147 86 -154 88v-637q41 16 154 88l104 -184q-152 -92 -258 -125v-178h-176v160q-158 14 -262.5 158.5t-104.5 400.5zM342 719q0 -254 119 -324v645q-119 -69 -119 -321z" />
<glyph unicode="&#xa3;" horiz-adv-x="1003" d="M100 0v180q8 4 20.5 13.5t44.5 42t56.5 68.5t48 93.5t27.5 118.5h-180v160h162q-14 49 -53.5 128t-64 152.5t-24.5 155.5q0 160 94.5 252t257.5 92q199 0 433 -164l-117 -168q-162 111 -268 111q-70 0 -109 -43t-39 -114.5t60.5 -198.5t76.5 -203h267v-160h-256 q-10 -92 -48 -173t-77 -124h491v-219h-803z" />
<glyph unicode="&#xa5;" horiz-adv-x="1208" d="M57 1434h281l268 -623l266 623h281l-332 -676h211v-158h-287l-14 -29v-104h301v-156h-301v-311h-252v311h-305v156h305v104l-14 29h-291v158h213z" />
<glyph unicode="&#xa6;" horiz-adv-x="477" d="M150 -252v846h178v-846h-178zM150 829v846h178v-846h-178z" />
<glyph unicode="&#xa7;" horiz-adv-x="995" d="M88 655q0 176 160 246q-127 92 -127 246q0 137 93 223t255 86q201 0 399 -115l-98 -165q-164 86 -283 86q-57 0 -91 -27t-34 -74q0 -16 4.5 -30.5t12.5 -25.5t16 -21.5t24.5 -19.5t27 -15.5t32 -14.5t32.5 -12t35.5 -12.5t35.5 -12.5q152 -53 238.5 -135t86.5 -209 q0 -174 -159 -245q127 -94 126 -248q0 -137 -92 -222t-254 -85q-199 0 -401 112l102 168q160 -86 281 -86q57 0 90 25.5t33 74.5q0 16 -3 31t-12.5 26t-16.5 20t-24.5 19.5t-26.5 16.5t-32.5 14.5t-32 12.5t-36 13t-35.5 11q-326 117 -326 344zM319 684q0 -45 38 -82t72 -52 t106 -40q10 -4 16 -6q125 19 125 121q0 35 -17.5 62.5t-58.5 51t-67.5 33.5t-88.5 33q-125 -23 -125 -121z" />
<glyph unicode="&#xa8;" horiz-adv-x="413" d="M-43 1237v221h195v-221h-195zM264 1237v221h193v-221h-193z" />
<glyph unicode="&#xa9;" horiz-adv-x="1644" d="M92 716.5q0 321.5 194.5 530.5t536.5 209t535.5 -209t193.5 -530.5t-193.5 -530.5t-535.5 -209t-536.5 209t-194.5 530.5zM172 717q0 -291 172 -477.5t477 -186.5q307 0 480.5 186.5t173.5 477.5t-173.5 477t-480.5 186q-303 0 -476 -187t-173 -476zM453 715 q0 213 102 329.5t254 116.5q162 0 342 -127l-57 -67q-45 33 -72 49t-88.5 38.5t-120.5 22.5q-117 0 -189.5 -99t-72.5 -263q0 -162 72.5 -261.5t189.5 -99.5q129 0 281 109l57 -66q-180 -127 -342 -127q-152 0 -254 117t-102 328z" />
<glyph unicode="&#xaa;" horiz-adv-x="745" d="M82 985q0 100 56.5 154.5t150.5 54.5q53 0 176 -31v54q0 51 -20.5 73.5t-71.5 22.5q-55 0 -201 -47l-53 120q166 61 287 62q119 0 173 -54.5t54 -176.5v-429h-168v76q-90 -90 -193 -90q-84 0 -137 57.5t-53 153.5zM252 999q0 -88 80 -88q68 0 133 72v92q-78 23 -119 23 q-94 0 -94 -99z" />
<glyph unicode="&#xab;" horiz-adv-x="1169" d="M59 483v156l510 440v-258l-321 -260l321 -260v-260zM555 483v156l510 440v-258l-322 -260l322 -260v-260z" />
<glyph unicode="&#xac;" d="M51 586v192h985v-594h-200v402h-785z" />
<glyph unicode="&#xad;" horiz-adv-x="765" d="M119 479v207h530v-207h-530z" />
<glyph unicode="&#xae;" horiz-adv-x="909" d="M90 1106q0 160 97.5 264.5t267.5 104.5q168 0 266 -104.5t98 -264.5t-98 -264.5t-266 -104.5q-170 0 -267.5 104.5t-97.5 264.5zM162 1106q0 -133 75.5 -218t217 -85t217.5 85t76 218t-76 218t-217.5 85t-217 -85t-75.5 -218zM317 926v370h172q57 0 91 -29.5t34 -78.5 q0 -39 -24.5 -65.5t-67.5 -35.5l88 -161h-71l-84 157h-72v-157h-66zM383 1141h106q60 0 60 47q0 49 -57 49h-109v-96z" />
<glyph unicode="&#xaf;" horiz-adv-x="514" d="M0 1268v153h514v-153h-514z" />
<glyph unicode="&#xb0;" horiz-adv-x="798" d="M74 1112q0 133 95 228.5t230 95.5q133 0 228.5 -95.5t95.5 -228.5q0 -135 -95.5 -230.5t-228.5 -95.5q-135 0 -230 95.5t-95 230.5zM225 1112q0 -72 51.5 -123t122.5 -51q70 0 121 51t51 123t-50 122t-121.5 50t-123 -50t-51.5 -122z" />
<glyph unicode="&#xb1;" d="M121 0v170h862v-170h-862zM121 608v195h334v291h192v-291h336v-195h-336v-291h-192v291h-334z" />
<glyph unicode="&#xb2;" horiz-adv-x="702" d="M57 788v84q0 82 39 155t78 111t111 93q121 94 147 131q20 33 21 63q0 37 -28 60.5t-75 23.5q-84 0 -192 -75l-80 116q141 113 295 113q121 0 188.5 -65.5t67.5 -165.5q0 -57 -20.5 -106.5t-63.5 -93.5t-69.5 -65.5t-80.5 -60.5q-66 -49 -96.5 -85t-30.5 -81h361v-152 h-572z" />
<glyph unicode="&#xb3;" horiz-adv-x="704" d="M41 879l82 125q121 -76 209 -76q57 0 93 30.5t36 83.5q0 70 -64.5 99.5t-142.5 29.5h-29v152h35q63 0 116.5 26.5t53.5 80.5q0 80 -96 79q-80 0 -184 -67l-74 112q133 109 289 109q115 0 177 -59.5t62 -145.5q0 -133 -131 -194q74 -25 119 -86.5t45 -141.5 q0 -109 -69.5 -185.5t-211.5 -76.5q-161 1 -315 105z" />
<glyph unicode="&#xb4;" horiz-adv-x="393" d="M-47 1217l209 276h276l-286 -276h-199z" />
<glyph unicode="&#xb5;" horiz-adv-x="1142" d="M145 -418l2 1493h240v-729q0 -170 115 -170q111 0 248 150v749h241v-1075h-241v133q-190 -156 -347 -156h-16v-395h-242z" />
<glyph unicode="&#xb6;" horiz-adv-x="1230" d="M57 961q0 238 123 355.5t338 117.5h201v-1813h-205v864q-201 0 -329 121t-128 355zM862 -379v1813h205v-1813h-205z" />
<glyph unicode="&#xb7;" horiz-adv-x="485" d="M117 430v307h250v-307h-250z" />
<glyph unicode="&#xb8;" horiz-adv-x="307" d="M-16 -326l49 133q45 -27 80 -26q82 0 82 82q0 31 -11.5 66.5t-23.5 54.5l-13 20h109q68 -88 68 -190q0 -88 -54.5 -134.5t-136 -46.5t-149.5 41z" />
<glyph unicode="&#xb9;" horiz-adv-x="565" d="M23 1520l204 129h164v-861h-172v691l-125 -76z" />
<glyph unicode="&#xba;" horiz-adv-x="745" d="M80 1110q0 162 74.5 250t218.5 88q141 0 216 -89t75 -249t-74 -248t-217.5 -88t-218 88t-74.5 248zM250 1110q0 -199 123 -199t123 199q0 201 -123 201t-123 -201z" />
<glyph unicode="&#xbb;" horiz-adv-x="1169" d="M104 43v258l322 260l-322 260v260l510 -442v-156zM600 43v258l322 260l-322 260v260l510 -442v-156z" />
<glyph unicode="&#xbc;" horiz-adv-x="1511" d="M51 1305l205 129h164v-861h-172v691l-125 -76zM315 0l551 1434h187l-551 -1434h-187zM768 166v129l332 565h229v-543h113v-151h-113v-166h-174v166h-387zM936 317h219v379z" />
<glyph unicode="&#xbd;" horiz-adv-x="1533" d="M51 1305l205 129h164v-861h-172v691l-125 -76zM315 0l551 1434h187l-551 -1434h-187zM870 0v84q0 82 39 154.5t78 110.5t111 93q121 94 147 131q20 33 21 64q0 37 -28 60.5t-75 23.5q-84 0 -192 -76l-80 117q141 113 295 112q121 0 188.5 -65.5t67.5 -165.5 q0 -57 -20.5 -106.5t-63.5 -93.5t-69.5 -65.5t-80.5 -60.5q-66 -49 -96.5 -84.5t-30.5 -80.5h361v-152h-572z" />
<glyph unicode="&#xbe;" horiz-adv-x="1673" d="M70 664l82 124q121 -76 208 -75q57 0 93 30.5t36 83.5q0 70 -64.5 99.5t-141.5 29.5h-29v152h35q63 0 116.5 26.5t53.5 79.5q0 80 -97 80q-80 0 -184 -67l-74 112q133 109 289 109q115 0 177.5 -59.5t62.5 -145.5q0 -133 -131 -194q74 -25 119 -86.5t45 -141.5 q0 -109 -70 -185.5t-211 -76.5q-161 1 -315 105zM483 0l551 1434h187l-551 -1434h-187zM936 166v129l332 565h229v-543h113v-151h-113v-166h-174v166h-387zM1104 317h219v379z" />
<glyph unicode="&#xbf;" horiz-adv-x="919" d="M68 330q0 295 385 430l14 221h154l14 -356q-162 -47 -237.5 -106.5t-75.5 -156.5q0 -74 46 -118.5t126 -44.5q113 0 258 102l110 -170q-193 -154 -409 -154q-166 0 -275.5 95.5t-109.5 257.5zM418 1147v287h250v-287h-250z" />
<glyph unicode="&#xc0;" horiz-adv-x="1216" d="M29 0l440 1434h279l440 -1434h-270l-80 305h-459l-78 -305h-272zM293 1802h276l209 -276h-196zM434 516h348l-174 666z" />
<glyph unicode="&#xc1;" horiz-adv-x="1216" d="M29 0l440 1434h279l440 -1434h-270l-80 305h-459l-78 -305h-272zM434 516h348l-174 666zM438 1526l209 276h277l-287 -276h-199z" />
<glyph unicode="&#xc2;" horiz-adv-x="1216" d="M29 0l440 1434h279l440 -1434h-270l-80 305h-459l-78 -305h-272zM313 1526l176 276h236l176 -276h-166l-129 160l-127 -160h-166zM434 516h348l-174 666z" />
<glyph unicode="&#xc3;" horiz-adv-x="1216" d="M29 0l440 1434h279l440 -1434h-270l-80 305h-459l-78 -305h-272zM299 1595q20 49 34.5 78t37 61.5t51.5 47t63 14.5q49 0 129 -49t103 -49q45 0 86 94l110 -57q-29 -66 -47 -101t-55 -66.5t-84 -31.5q-51 0 -131 49t-102 49q-43 0 -86 -94zM434 516h348l-174 666z" />
<glyph unicode="&#xc4;" horiz-adv-x="1216" d="M29 0l440 1434h279l440 -1434h-270l-80 305h-459l-78 -305h-272zM358 1550v222h195v-222h-195zM434 516h348l-174 666zM666 1550v222h192v-222h-192z" />
<glyph unicode="&#xc5;" horiz-adv-x="1216" d="M29 0l440 1434h279l440 -1434h-270l-80 305h-459l-78 -305h-272zM401 1714q0 88 60.5 149.5t148.5 61.5t149.5 -61.5t61.5 -149.5t-61.5 -148.5t-149.5 -60.5t-148.5 60.5t-60.5 148.5zM434 516h348l-174 666zM522 1714q0 -37 25.5 -62.5t62.5 -25.5t63.5 25.5t26.5 62.5 t-26.5 63.5t-63.5 26.5t-62.5 -26.5t-25.5 -63.5z" />
<glyph unicode="&#xc6;" horiz-adv-x="1804" d="M-31 0l797 1434h942v-226h-573v-381h469v-221h-469v-383h581v-223h-833v305h-453l-162 -305h-299zM545 522h338v637z" />
<glyph unicode="&#xc7;" horiz-adv-x="1126" d="M92 717q0 367 133 553t353 186q125 0 238.5 -51t258.5 -148l-119 -190q-78 49 -120.5 74.5t-108 51.5t-117.5 26q-123 0 -191.5 -133.5t-68.5 -369t68.5 -368.5t191.5 -133q51 0 120 27.5t104.5 48t121.5 76.5l119 -191q-254 -170 -424 -192q53 -94 54 -170 q0 -88 -54.5 -134.5t-136 -46.5t-149.5 41l49 133q45 -27 80 -26q82 0 81 82q0 55 -32 117q-207 14 -329 199.5t-122 537.5z" />
<glyph unicode="&#xc8;" horiz-adv-x="1069" d="M147 0v1434h826v-226h-574v-381h469v-221h-469v-383h582v-223h-834zM250 1802h276l209 -276h-196z" />
<glyph unicode="&#xc9;" horiz-adv-x="1069" d="M147 0v1434h826v-226h-574v-381h469v-221h-469v-383h582v-223h-834zM393 1526l209 276h277l-287 -276h-199z" />
<glyph unicode="&#xca;" horiz-adv-x="1069" d="M147 0v1434h826v-226h-574v-381h469v-221h-469v-383h582v-223h-834zM270 1526l176 276h236l176 -276h-166l-129 160l-127 -160h-166z" />
<glyph unicode="&#xcb;" horiz-adv-x="1069" d="M147 0v1434h826v-226h-574v-381h469v-221h-469v-383h582v-223h-834zM315 1546v221h195v-221h-195zM623 1546v221h192v-221h-192z" />
<glyph unicode="&#xcc;" horiz-adv-x="544" d="M-43 1802h276l209 -276h-196zM147 0v1434h252v-1434h-252z" />
<glyph unicode="&#xcd;" horiz-adv-x="546" d="M102 1526l209 276h277l-287 -276h-199zM147 0v1434h252v-1434h-252z" />
<glyph unicode="&#xce;" horiz-adv-x="546" d="M-20 1526l176 276h235l176 -276h-166l-129 160l-127 -160h-165zM147 0v1434h252v-1434h-252z" />
<glyph unicode="&#xcf;" horiz-adv-x="544" d="M23 1544v221h194v-221h-194zM147 0v1434h252v-1434h-252zM330 1544v221h192v-221h-192z" />
<glyph unicode="&#xd0;" horiz-adv-x="1265" d="M41 614v207h123v613h391q305 0 460.5 -171t155.5 -546t-155.5 -546t-460.5 -171h-391v614h-123zM416 223h131q190 0 282.5 115t92.5 379t-92.5 377.5t-282.5 113.5h-131v-387h243v-207h-243v-391z" />
<glyph unicode="&#xd1;" horiz-adv-x="1292" d="M147 0v1434h256l490 -1000v1000h252v-1434h-256l-490 999v-999h-252zM348 1606q20 49 34.5 77.5t37 61.5t51.5 47t64 14q49 0 128.5 -49t102.5 -49q45 0 86 94l111 -57q-29 -66 -47.5 -100.5t-55.5 -66.5t-84 -32q-51 0 -131 49.5t-102 49.5q-43 -1 -86 -95z" />
<glyph unicode="&#xd2;" horiz-adv-x="1306" d="M90 717q0 217 52.5 376.5t181 261t329.5 101.5q293 0 428.5 -202.5t135.5 -536.5q0 -160 -31 -290t-95.5 -232.5t-176 -160t-261.5 -57.5q-293 0 -428 203t-135 537zM338 1802h276l209 -276h-196zM348 717q0 -514 305 -514q303 0 303 514q0 512 -303 512 q-305 0 -305 -512z" />
<glyph unicode="&#xd3;" horiz-adv-x="1306" d="M90 717q0 217 52.5 376.5t181 261t329.5 101.5q293 0 428.5 -202.5t135.5 -536.5q0 -160 -31 -290t-95.5 -232.5t-176 -160t-261.5 -57.5q-293 0 -428 203t-135 537zM348 717q0 -514 305 -514q303 0 303 514q0 512 -303 512q-305 0 -305 -512zM483 1526l209 276h277 l-287 -276h-199z" />
<glyph unicode="&#xd4;" horiz-adv-x="1306" d="M90 717q0 217 52.5 376.5t181 261t329.5 101.5q293 0 428.5 -202.5t135.5 -536.5q0 -160 -31 -290t-95.5 -232.5t-176 -160t-261.5 -57.5q-293 0 -428 203t-135 537zM348 717q0 -514 305 -514q303 0 303 514q0 512 -303 512q-305 0 -305 -512zM358 1526l177 276h235 l176 -276h-166l-129 160l-127 -160h-166z" />
<glyph unicode="&#xd5;" horiz-adv-x="1306" d="M90 717q0 217 52.5 376.5t181 261t329.5 101.5q293 0 428.5 -202.5t135.5 -536.5q0 -160 -31 -290t-95.5 -232.5t-176 -160t-261.5 -57.5q-293 0 -428 203t-135 537zM344 1595q20 49 34.5 78t37 61.5t51.5 47t63 14.5q49 0 129 -49t103 -49q45 0 86 94l110 -57 q-29 -66 -47 -101t-55 -66.5t-84 -31.5q-51 0 -131 49t-102 49q-43 0 -86 -94zM348 717q0 -514 305 -514q303 0 303 514q0 512 -303 512q-305 0 -305 -512z" />
<glyph unicode="&#xd6;" horiz-adv-x="1306" d="M90 717q0 217 52.5 376.5t181 261t329.5 101.5q293 0 428.5 -202.5t135.5 -536.5q0 -160 -31 -290t-95.5 -232.5t-176 -160t-261.5 -57.5q-293 0 -428 203t-135 537zM348 717q0 -514 305 -514q303 0 303 514q0 512 -303 512q-305 0 -305 -512zM403 1546v221h195v-221 h-195zM711 1546v221h192v-221h-192z" />
<glyph unicode="&#xd7;" d="M178 954l148 129l225 -249l225 247l148 -129l-240 -266l240 -264l-146 -131l-227 250l-223 -248l-148 131l240 264z" />
<glyph unicode="&#xd8;" horiz-adv-x="1302" d="M88 717q0 217 52.5 376.5t181 261t329.5 101.5q193 0 322 -94l45 72h178l-117 -183q135 -195 135 -534q0 -160 -30.5 -290t-95 -232.5t-176 -160t-261.5 -57.5q-193 0 -319 93l-45 -70h-178l114 180q-135 186 -135 537zM346 717q0 -180 33 -289l461 725q-72 76 -189 76 q-305 0 -305 -512zM463 276q69 -73 188 -73q303 0 303 514q0 166 -32 282z" />
<glyph unicode="&#xd9;" horiz-adv-x="1247" d="M135 518v916h252v-934q0 -139 50 -218t185.5 -79t186.5 77.5t51 219.5v934h252v-916q0 -254 -107.5 -397.5t-381.5 -143.5q-143 0 -241.5 41t-151 118t-74 169t-21.5 213zM307 1802h277l209 -276h-197z" />
<glyph unicode="&#xda;" horiz-adv-x="1247" d="M135 518v916h252v-934q0 -139 50 -218t185.5 -79t186.5 77.5t51 219.5v934h252v-916q0 -254 -107.5 -397.5t-381.5 -143.5q-143 0 -241.5 41t-151 118t-74 169t-21.5 213zM453 1526l209 276h276l-287 -276h-198z" />
<glyph unicode="&#xdb;" horiz-adv-x="1247" d="M135 518v916h252v-934q0 -139 50 -218t185.5 -79t186.5 77.5t51 219.5v934h252v-916q0 -254 -107.5 -397.5t-381.5 -143.5q-143 0 -241.5 41t-151 118t-74 169t-21.5 213zM328 1526l176 276h235l176 -276h-165l-129 160l-127 -160h-166z" />
<glyph unicode="&#xdc;" horiz-adv-x="1247" d="M135 518v916h252v-934q0 -139 50 -218t185.5 -79t186.5 77.5t51 219.5v934h252v-916q0 -254 -107.5 -397.5t-381.5 -143.5q-143 0 -241.5 41t-151 118t-74 169t-21.5 213zM373 1546v221h194v-221h-194zM680 1546v221h192v-221h-192z" />
<glyph unicode="&#xdd;" horiz-adv-x="1132" d="M18 1434h281l268 -623l267 623h280l-422 -863v-571h-252v571zM395 1526l209 276h277l-287 -276h-199z" />
<glyph unicode="&#xde;" horiz-adv-x="1169" d="M147 0v1434h252v-240h199q502 0 502 -453q0 -457 -502 -456h-199v-285h-252zM399 504h179q131 0 199.5 54t68.5 183t-68.5 181.5t-199.5 52.5h-179v-471z" />
<glyph unicode="&#xdf;" horiz-adv-x="1228" d="M121 0v989q0 229 120 348t384 119q266 0 384.5 -118.5t118.5 -344.5v-10l-122 -152q-133 70 -213 70q-45 0 -73 -24.5t-28 -71.5q0 -23 5 -40t19.5 -33.5t23 -26t34 -21.5t32.5 -16t37.5 -16.5t33.5 -12.5q289 -117 288 -358q0 -137 -86 -220.5t-237 -83.5 q-106 0 -218 41t-188 95l103 176q63 -43 143 -78t133 -35q45 0 76 25.5t31 74.5q0 29 -12.5 52.5t-26 38t-46 33t-49 25.5t-59.5 26q-57 25 -96 47t-86 62t-71.5 98.5t-24.5 134.5q0 137 82.5 221t230.5 84q55 0 110 -13q-16 90 -74.5 131t-174.5 41q-147 0 -203.5 -67.5 t-56.5 -220.5v-969h-244z" />
<glyph unicode="&#xe0;" horiz-adv-x="1034" d="M66 326q0 168 90 258t235 90q45 0 98.5 -9.5t114 -23.5t74.5 -16v100q0 94 -35 136t-121 42q-96 0 -317 -84l-80 178q260 100 444 101q180 0 265.5 -86t85.5 -283v-729h-242v131q-141 -154 -309 -154q-133 0 -218 91.5t-85 257.5zM209 1493h276l209 -276h-196zM311 346 q1 -170 140 -170q117 0 227 129v187q-141 37 -203 36q-82 0 -123 -50t-41 -132z" />
<glyph unicode="&#xe1;" horiz-adv-x="1034" d="M66 326q0 168 90 258t235 90q45 0 98.5 -9.5t114 -23.5t74.5 -16v100q0 94 -35 136t-121 42q-96 0 -317 -84l-80 178q260 100 444 101q180 0 265.5 -86t85.5 -283v-729h-242v131q-141 -154 -309 -154q-133 0 -218 91.5t-85 257.5zM311 346q1 -170 140 -170q117 0 227 129 v187q-141 37 -203 36q-82 0 -123 -50t-41 -132zM352 1217l209 276h277l-287 -276h-199z" />
<glyph unicode="&#xe2;" horiz-adv-x="1034" d="M66 326q0 168 90 258t235 90q45 0 98.5 -9.5t114 -23.5t74.5 -16v100q0 94 -35 136t-121 42q-96 0 -317 -84l-80 178q260 100 444 101q180 0 265.5 -86t85.5 -283v-729h-242v131q-141 -154 -309 -154q-133 0 -218 91.5t-85 257.5zM229 1217l177 276h235l176 -276h-166 l-129 159l-127 -159h-166zM311 346q1 -170 140 -170q117 0 227 129v187q-141 37 -203 36q-82 0 -123 -50t-41 -132z" />
<glyph unicode="&#xe3;" horiz-adv-x="1034" d="M66 326q0 168 90 258t235 90q45 0 98.5 -9.5t114 -23.5t74.5 -16v100q0 94 -35 136t-121 42q-96 0 -317 -84l-80 178q260 100 444 101q180 0 265.5 -86t85.5 -283v-729h-242v131q-141 -154 -309 -154q-133 0 -218 91.5t-85 257.5zM217 1286q20 49 34.5 78t37 61.5 t51.5 47t63 14.5q49 0 129 -49t103 -49q45 0 86 94l110 -58q-29 -66 -47 -100.5t-55 -66t-84 -31.5q-51 0 -131 49t-102 49q-43 0 -86 -94zM311 346q1 -170 140 -170q117 0 227 129v187q-141 37 -203 36q-82 0 -123 -50t-41 -132z" />
<glyph unicode="&#xe4;" horiz-adv-x="1034" d="M66 326q0 168 90 258t235 90q45 0 98.5 -9.5t114 -23.5t74.5 -16v100q0 94 -35 136t-121 42q-96 0 -317 -84l-80 178q260 100 444 101q180 0 265.5 -86t85.5 -283v-729h-242v131q-141 -154 -309 -154q-133 0 -218 91.5t-85 257.5zM272 1237v221h195v-221h-195zM311 346 q1 -170 140 -170q117 0 227 129v187q-141 37 -203 36q-82 0 -123 -50t-41 -132zM580 1237v221h192v-221h-192z" />
<glyph unicode="&#xe5;" horiz-adv-x="1034" d="M66 326q0 168 90 258t235 90q45 0 98.5 -9.5t114 -23.5t74.5 -16v100q0 94 -35 136t-121 42q-96 0 -317 -84l-80 178q260 100 444 101q180 0 265.5 -86t85.5 -283v-729h-242v131q-141 -154 -309 -154q-133 0 -218 91.5t-85 257.5zM311 346q1 -170 140 -170q117 0 227 129 v187q-141 37 -203 36q-82 0 -123 -50t-41 -132zM313 1405q0 88 60.5 149.5t148.5 61.5t149.5 -61.5t61.5 -149.5t-61.5 -148.5t-149.5 -60.5t-148.5 60.5t-60.5 148.5zM434 1405q0 -37 25.5 -62.5t62.5 -25.5t63.5 25.5t26.5 62.5t-26.5 63.5t-63.5 26.5t-62.5 -26.5 t-25.5 -63.5z" />
<glyph unicode="&#xe6;" horiz-adv-x="1585" d="M66 326q0 168 89 258t232 90q90 0 268 -53q6 78 21 129q-4 82 -40 117.5t-114 35.5q-98 0 -319 -84l-78 178q260 100 444 101q178 0 262 -86q109 86 263 86q199 0 305 -129t106 -342q0 -37 -3 -74t-7 -53l-2 -19h-592q16 -313 199 -313q45 0 105.5 23.5t97 44t110.5 65.5 l98 -158q-242 -166 -438 -166q-233 0 -346 209q-166 -209 -356 -209q-133 0 -219 91.5t-86 257.5zM311 346q1 -170 140 -170q113 0 229 135q-20 72 -27 172q-135 45 -180 45q-82 0 -122 -49t-40 -133zM901 623h373q0 290 -176 290q-174 0 -197 -290z" />
<glyph unicode="&#xe7;" horiz-adv-x="903" d="M76 539q0 272 114.5 415.5t284.5 143.5q150 0 379 -133l-100 -187q-6 2 -49 29t-65 38t-58.5 23.5t-65.5 12.5q-88 0 -140 -93.5t-52 -249t51 -249.5t139 -94q25 0 51.5 6t56 21.5t47 23.5t49.5 28.5t36 22.5l100 -186q-190 -113 -326 -129q53 -86 54 -168 q0 -88 -54.5 -134.5t-136 -46.5t-149.5 41l49 133q45 -27 80 -26q82 0 82 82q0 53 -35 119q-150 25 -246 167t-96 390z" />
<glyph unicode="&#xe8;" horiz-adv-x="1005" d="M76 537q0 266 116.5 413.5t323.5 147.5q199 0 305.5 -129t106.5 -342q0 -37 -3 -74t-7 -53l-3 -19h-591q16 -313 198 -313q45 0 105.5 23.5t97.5 44t111 65.5l98 -158q-242 -166 -438 -166q-184 0 -302 143.5t-118 416.5zM207 1493h276l209 -276h-196zM324 623h372 q0 290 -176 290q-174 0 -196 -290z" />
<glyph unicode="&#xe9;" horiz-adv-x="1005" d="M76 537q0 266 116.5 413.5t323.5 147.5q199 0 305.5 -129t106.5 -342q0 -37 -3 -74t-7 -53l-3 -19h-591q16 -313 198 -313q45 0 105.5 23.5t97.5 44t111 65.5l98 -158q-242 -166 -438 -166q-184 0 -302 143.5t-118 416.5zM324 623h372q0 290 -176 290q-174 0 -196 -290z M350 1217l209 276h277l-287 -276h-199z" />
<glyph unicode="&#xea;" horiz-adv-x="1005" d="M76 537q0 266 116.5 413.5t323.5 147.5q199 0 305.5 -129t106.5 -342q0 -37 -3 -74t-7 -53l-3 -19h-591q16 -313 198 -313q45 0 105.5 23.5t97.5 44t111 65.5l98 -158q-242 -166 -438 -166q-184 0 -302 143.5t-118 416.5zM227 1217l176 276h236l176 -276h-166l-129 159 l-127 -159h-166zM324 623h372q0 290 -176 290q-174 0 -196 -290z" />
<glyph unicode="&#xeb;" horiz-adv-x="1005" d="M76 537q0 266 116.5 413.5t323.5 147.5q199 0 305.5 -129t106.5 -342q0 -37 -3 -74t-7 -53l-3 -19h-591q16 -313 198 -313q45 0 105.5 23.5t97.5 44t111 65.5l98 -158q-242 -166 -438 -166q-184 0 -302 143.5t-118 416.5zM270 1237v221h195v-221h-195zM324 623h372 q0 290 -176 290q-174 0 -196 -290zM578 1237v221h192v-221h-192z" />
<glyph unicode="&#xec;" horiz-adv-x="485" d="M-72 1493h277l209 -276h-197zM121 0v1075h241v-1075h-241z" />
<glyph unicode="&#xed;" horiz-adv-x="483" d="M72 1217l209 276h276l-287 -276h-198zM121 0v1075h241v-1075h-241z" />
<glyph unicode="&#xee;" horiz-adv-x="485" d="M-51 1217l176 276h235l177 -276h-166l-129 159l-127 -159h-166zM121 0v1075h241v-1075h-241z" />
<glyph unicode="&#xef;" horiz-adv-x="485" d="M-8 1237v221h194v-221h-194zM121 0v1075h241v-1075h-241zM299 1237v221h193v-221h-193z" />
<glyph unicode="&#xf0;" horiz-adv-x="1083" d="M74 475q0 223 111.5 361.5t285.5 138.5q57 0 106.5 -14.5t80 -35t52 -41t31.5 -34.5l9 -14q-27 111 -88.5 205t-149.5 143l-78 -92h-203l117 141h-20q-35 0 -70 -4t-51 -8l-17 -7l-28 197q66 23 172 23q80 0 166 -21l67 80h203l-119 -141q170 -100 261.5 -302t91.5 -462 q0 -307 -126 -459t-348 -152q-213 0 -334.5 135.5t-121.5 362.5zM326 475q0 -135 53 -218t163.5 -83t165 82t54.5 219q0 139 -53.5 221t-165.5 82q-111 0 -164 -85t-53 -218z" />
<glyph unicode="&#xf1;" horiz-adv-x="1081" d="M121 0v1075h241v-139q186 162 349 162q131 0 193.5 -85t62.5 -233v-780h-242v729q0 168 -113 168q-117 0 -250 -152v-745h-241zM236 1286q20 49 34.5 78t37 61.5t51 47t63.5 14.5q49 0 129 -49t102 -49q45 0 86 94l111 -58q-29 -66 -47.5 -100.5t-55 -66t-83.5 -31.5 q-51 0 -131 49t-103 49q-43 0 -86 -94z" />
<glyph unicode="&#xf2;" horiz-adv-x="1060" d="M76 536.5q0 266.5 116.5 414t338 147.5t338 -147.5t116.5 -414t-116.5 -413t-338 -146.5t-338 146.5t-116.5 413zM217 1493h277l208 -276h-196zM322 537q0 -362 208 -363q211 1 211 363q0 365 -211 364q-209 0 -208 -364z" />
<glyph unicode="&#xf3;" horiz-adv-x="1060" d="M76 536.5q0 266.5 116.5 414t338 147.5t338 -147.5t116.5 -414t-116.5 -413t-338 -146.5t-338 146.5t-116.5 413zM322 537q0 -362 208 -363q211 1 211 363q0 365 -211 364q-209 0 -208 -364zM360 1217l209 276h277l-287 -276h-199z" />
<glyph unicode="&#xf4;" horiz-adv-x="1060" d="M76 536.5q0 266.5 116.5 414t338 147.5t338 -147.5t116.5 -414t-116.5 -413t-338 -146.5t-338 146.5t-116.5 413zM238 1217l176 276h235l176 -276h-166l-129 159l-127 -159h-165zM322 537q0 -362 208 -363q211 1 211 363q0 365 -211 364q-209 0 -208 -364z" />
<glyph unicode="&#xf5;" horiz-adv-x="1060" d="M76 536.5q0 266.5 116.5 414t338 147.5t338 -147.5t116.5 -414t-116.5 -413t-338 -146.5t-338 146.5t-116.5 413zM223 1286q20 49 34.5 78t37 61.5t51.5 47t64 14.5q49 0 128.5 -49t102.5 -49q45 0 86 94l111 -58q-29 -66 -47.5 -100.5t-55.5 -66t-84 -31.5 q-51 0 -131 49t-102 49q-43 0 -86 -94zM322 537q0 -362 208 -363q211 1 211 363q0 365 -211 364q-209 0 -208 -364z" />
<glyph unicode="&#xf6;" horiz-adv-x="1060" d="M76 536.5q0 266.5 116.5 414t338 147.5t338 -147.5t116.5 -414t-116.5 -413t-338 -146.5t-338 146.5t-116.5 413zM281 1237v221h194v-221h-194zM322 537q0 -362 208 -363q211 1 211 363q0 365 -211 364q-209 0 -208 -364zM588 1237v221h192v-221h-192z" />
<glyph unicode="&#xf7;" d="M121 586v192h862v-192h-862zM428 330q0 51 36 88t89 37q51 0 87 -37t36 -88t-36 -87t-87 -36t-88 36t-37 87zM428 1036q0 51 37 87t88 36t87 -36t36 -87t-36 -87t-87 -36t-88 36t-37 87z" />
<glyph unicode="&#xf8;" horiz-adv-x="1058" d="M74 537q0 266 116.5 413.5t337.5 147.5q152 0 254 -72l33 49h146l-89 -133q111 -143 111 -405q0 -266 -116.5 -413t-338.5 -147q-147 0 -256 70l-30 -47h-150l90 133q-109 145 -108 404zM319 537q0 -109 17 -177l323 484q-51 57 -131 57q-209 1 -209 -364zM395 231 q51 -57 133 -57q211 1 211 363q0 102 -18 180z" />
<glyph unicode="&#xf9;" horiz-adv-x="1081" d="M117 295v780h239v-729q0 -170 115 -170q111 0 248 150v749h242v-1075h-242v133q-190 -156 -346 -156q-131 0 -193.5 85t-62.5 233zM223 1493h277l209 -276h-197z" />
<glyph unicode="&#xfa;" horiz-adv-x="1081" d="M117 295v780h239v-729q0 -170 115 -170q111 0 248 150v749h242v-1075h-242v133q-190 -156 -346 -156q-131 0 -193.5 85t-62.5 233zM367 1217l208 276h277l-287 -276h-198z" />
<glyph unicode="&#xfb;" horiz-adv-x="1081" d="M117 295v780h239v-729q0 -170 115 -170q111 0 248 150v749h242v-1075h-242v133q-190 -156 -346 -156q-131 0 -193.5 85t-62.5 233zM244 1217l176 276h235l176 -276h-165l-129 159l-127 -159h-166z" />
<glyph unicode="&#xfc;" horiz-adv-x="1081" d="M117 295v780h239v-729q0 -170 115 -170q111 0 248 150v749h242v-1075h-242v133q-190 -156 -346 -156q-131 0 -193.5 85t-62.5 233zM287 1237v221h194v-221h-194zM594 1237v221h192v-221h-192z" />
<glyph unicode="&#xfd;" horiz-adv-x="1001" d="M33 1075h258l209 -776l211 776h258l-484 -1493h-260l160 404zM330 1217l209 276h276l-287 -276h-198z" />
<glyph unicode="&#xfe;" horiz-adv-x="1079" d="M121 -418v1911h241v-545q141 150 295 150q158 0 250 -141.5t92 -420t-92 -419t-250 -140.5q-156 0 -295 148v-543h-241zM362 332q94 -147 222 -148q84 0 128 92.5t44 260.5q0 170 -44 263t-128 93q-123 0 -222 -152v-409z" />
<glyph unicode="&#xff;" horiz-adv-x="1001" d="M33 1075h258l209 -776l211 776h258l-484 -1493h-260l160 404zM252 1237v221h194v-221h-194zM559 1237v221h193v-221h-193z" />
<glyph unicode="&#x152;" horiz-adv-x="1882" d="M90 717q0 217 52.5 376.5t181.5 261t329 101.5q182 0 310 -86v64h825v-226h-574v-381h469v-221h-469v-383h582v-223h-833v63q-127 -86 -310 -86q-293 0 -428 203t-135 537zM348 717q0 -514 305 -514q303 0 303 514q0 512 -303 512q-305 0 -305 -512z" />
<glyph unicode="&#x153;" horiz-adv-x="1673" d="M76 536.5q0 266.5 116.5 414t337.5 147.5q213 0 332 -142q117 141 320 142q199 0 305 -129t106 -342q0 -37 -3 -74t-5 -53l-4 -19h-592q16 -313 199 -313q45 0 105.5 23.5t97 44t110.5 65.5l98 -158q-242 -166 -438 -166q-186 0 -299 140q-117 -139 -332 -140 q-221 0 -337.5 146.5t-116.5 413zM322 537q0 -362 208 -363q211 1 211 363q0 365 -211 364q-209 0 -208 -364zM989 623h373q0 290 -176 290q-174 0 -197 -290z" />
<glyph unicode="&#x178;" horiz-adv-x="1132" d="M18 1434h281l268 -623l267 623h280l-422 -863v-571h-252v571zM317 1546v221h195v-221h-195zM625 1546v221h192v-221h-192z" />
<glyph unicode="&#x2c6;" horiz-adv-x="485" d="M-51 1217l176 276h235l177 -276h-166l-129 159l-127 -159h-166z" />
<glyph unicode="&#x2dc;" horiz-adv-x="503" d="M-55 1286q20 49 34.5 78t37 61.5t51 47t63.5 14.5q49 0 129 -49t102 -49q45 0 87 94l110 -58q-29 -66 -47 -100.5t-55 -66t-84 -31.5q-51 0 -131 49t-103 49q-43 0 -86 -94z" />
<glyph unicode="&#x2000;" horiz-adv-x="962" />
<glyph unicode="&#x2001;" horiz-adv-x="1925" />
<glyph unicode="&#x2002;" horiz-adv-x="962" />
<glyph unicode="&#x2003;" horiz-adv-x="1925" />
<glyph unicode="&#x2004;" horiz-adv-x="641" />
<glyph unicode="&#x2005;" horiz-adv-x="481" />
<glyph unicode="&#x2006;" horiz-adv-x="320" />
<glyph unicode="&#x2007;" horiz-adv-x="320" />
<glyph unicode="&#x2008;" horiz-adv-x="240" />
<glyph unicode="&#x2009;" horiz-adv-x="385" />
<glyph unicode="&#x200a;" horiz-adv-x="106" />
<glyph unicode="&#x2010;" horiz-adv-x="765" d="M119 479v207h530v-207h-530z" />
<glyph unicode="&#x2011;" horiz-adv-x="765" d="M119 479v207h530v-207h-530z" />
<glyph unicode="&#x2012;" horiz-adv-x="765" d="M119 479v207h530v-207h-530z" />
<glyph unicode="&#x2013;" horiz-adv-x="980" d="M117 481v205h747v-205h-747z" />
<glyph unicode="&#x2014;" horiz-adv-x="1159" d="M117 481v205h925v-205h-925z" />
<glyph unicode="&#x2018;" horiz-adv-x="473" d="M94 1194l205 276l68 -84l-117 -223h110v-307h-247z" />
<glyph unicode="&#x2019;" horiz-adv-x="456" d="M102 903l117 223h-110v308h247l19 -338l-205 -277z" />
<glyph unicode="&#x201a;" horiz-adv-x="487" d="M111 -223l116 223h-110v307h248l18 -338l-205 -276z" />
<glyph unicode="&#x201c;" horiz-adv-x="849" d="M94 1194l205 276l68 -84l-117 -223h110v-307h-247zM471 1194l205 276l67 -84l-116 -223h110v-307h-248z" />
<glyph unicode="&#x201d;" horiz-adv-x="833" d="M102 903l117 223h-110v308h247l19 -338l-205 -277zM479 903l117 223h-111v308h248l19 -338l-205 -277z" />
<glyph unicode="&#x201e;" horiz-adv-x="864" d="M111 -223l116 223h-110v307h248l18 -338l-205 -276zM487 -223l117 223h-110v307h247l19 -338l-205 -276z" />
<glyph unicode="&#x2022;" horiz-adv-x="882" d="M145 584q0 123 86 209t209 86t209 -86t86 -209t-86 -209t-209 -86t-209 86t-86 209z" />
<glyph unicode="&#x2026;" horiz-adv-x="1300" d="M117 0v307h250v-307h-250zM526 0v307h250v-307h-250zM934 0v307h250v-307h-250z" />
<glyph unicode="&#x202f;" horiz-adv-x="385" />
<glyph unicode="&#x2039;" horiz-adv-x="673" d="M59 483v156l510 440v-258l-321 -260l321 -260v-260z" />
<glyph unicode="&#x203a;" horiz-adv-x="673" d="M104 43v258l322 260l-322 260v260l510 -442v-156z" />
<glyph unicode="&#x205f;" horiz-adv-x="481" />
<glyph unicode="&#x20ac;" horiz-adv-x="1247" d="M82 483v144h100q-2 29 -2 90v78h-98v143h113q39 258 163.5 388t307.5 130q125 0 238.5 -51.5t258.5 -147.5l-119 -190q-78 49 -120.5 74.5t-108 51.5t-117.5 26q-90 0 -151.5 -73t-89.5 -208h393v-143h-410q-2 -25 -2 -78q0 -61 2 -90h410v-144h-389q57 -268 237 -268 q51 0 120 27.5t104.5 48t121.5 76.5l119 -191q-94 -61 -157.5 -98t-157.5 -69t-182 -32q-180 0 -304 127t-165 379h-115z" />
<glyph unicode="&#x2122;" horiz-adv-x="1128" d="M117 1339v95h364v-95h-131v-364h-104v364h-129zM535 975v459h108l123 -267l123 267h108v-459h-104v282l-96 -206h-62l-96 204v-280h-104z" />
<glyph unicode="&#xe000;" horiz-adv-x="1075" d="M0 0v1075h1075v-1075h-1075z" />
</font>
</defs>
</svg>
