<?xml version="1.0" standalone="no"?>
<!DOCTYPE svg PUBLIC "-//W3C//DTD SVG 1.1//EN" "http://www.w3.org/Graphics/SVG/1.1/DTD/svg11.dtd" >
<svg xmlns="http://www.w3.org/2000/svg">
<metadata></metadata>
<defs>
<font id="verbexcondmedium_italic" horiz-adv-x="1067" >
<font-face units-per-em="2048" ascent="1638" descent="-410" />
<missing-glyph horiz-adv-x="442" />
<glyph unicode="&#xfb01;" horiz-adv-x="1110" d="M-174 -281q150 53 187.5 103.5t64.5 212.5l155 880h-120l30 160h119l21 119q27 156 85 227.5t167 71.5q111 0 243 -70l-76 -145q-88 33 -127 33q-72 0 -90 -113l-22 -123h225l-31 -160h-223l-151 -868q-18 -98 -26.5 -138t-29 -101.5t-43 -86t-66.5 -59.5t-102.5 -56.5 t-146.5 -47.5zM668 0l190 1075h201l-191 -1075h-200zM885 1270l37 217h217l-39 -217h-215z" />
<glyph unicode="&#xfb02;" horiz-adv-x="1122" d="M-174 -281q150 53 187.5 103.5t64.5 212.5l155 880h-120l30 160h119l21 119q27 156 85 227.5t167 71.5q111 0 243 -70l-76 -145q-88 33 -127 33q-72 0 -90 -113l-22 -123h225l-31 -160h-223l-151 -868q-18 -98 -26.5 -138t-29 -101.5t-43 -86t-66.5 -59.5t-102.5 -56.5 t-146.5 -47.5zM674 0l264 1493h203l-264 -1493h-203z" />
<glyph unicode="&#xfb03;" horiz-adv-x="1755" d="M-174 -281q150 53 186.5 103.5t65.5 212.5l153 880h-118l30 160h117l21 119q27 156 87 227.5t173 71.5q129 0 295 -86l-95 -139q-104 43 -166 43q-72 0 -90 -113l-22 -123h225l-31 -160h-223l-151 -868q-18 -98 -26.5 -138t-29 -101.5t-43 -86t-66.5 -59.5t-102.5 -56.5 t-146.5 -47.5zM471 -281q150 53 187.5 103.5t64.5 212.5l156 880h-121l30 160h119l21 119q27 156 85 227.5t167 71.5q111 0 243 -70l-75 -145q-88 33 -127 33q-72 0 -91 -113l-22 -123h225l-30 -160h-224l-151 -868q-18 -98 -26.5 -138t-29 -101.5t-43 -86t-66.5 -59.5 t-102.5 -56.5t-146.5 -47.5zM1313 0l190 1075h201l-191 -1075h-200zM1530 1270l37 217h217l-39 -217h-215z" />
<glyph unicode="&#xfb04;" horiz-adv-x="1767" d="M-174 -281q150 53 186.5 103.5t65.5 212.5l153 880h-118l30 160h117l21 119q27 156 87 227.5t173 71.5q129 0 295 -86l-95 -139q-104 43 -166 43q-72 0 -90 -113l-22 -123h225l-31 -160h-223l-151 -868q-18 -98 -26.5 -138t-29 -101.5t-43 -86t-66.5 -59.5t-102.5 -56.5 t-146.5 -47.5zM471 -281q150 53 187.5 103.5t64.5 212.5l156 880h-121l30 160h119l21 119q27 156 85 227.5t167 71.5q111 0 243 -70l-75 -145q-88 33 -127 33q-72 0 -91 -113l-22 -123h225l-30 -160h-224l-151 -868q-18 -98 -26.5 -138t-29 -101.5t-43 -86t-66.5 -59.5 t-102.5 -56.5t-146.5 -47.5zM1319 0l264 1493h203l-264 -1493h-203z" />
<glyph horiz-adv-x="2048" />
<glyph horiz-adv-x="2048" />
<glyph unicode="&#xd;" horiz-adv-x="681" />
<glyph unicode=" "  horiz-adv-x="442" />
<glyph unicode="&#x09;" horiz-adv-x="442" />
<glyph unicode="&#xa0;" horiz-adv-x="442" />
<glyph unicode="!" horiz-adv-x="522" d="M45 0l45 262h217l-45 -262h-217zM168 440l113 994h245l-235 -994h-123z" />
<glyph unicode="&#x22;" horiz-adv-x="749" d="M188 893l62 541h199l-130 -541h-131zM524 893l62 541h198l-129 -541h-131z" />
<glyph unicode="#" horiz-adv-x="1261" d="M37 352l29 164h225l121 399h-205l29 164h225l106 355h162l-106 -355h270l106 355h160l-106 -355h207l-29 -164h-227l-121 -399h209l-29 -164h-229l-105 -352h-162l107 352h-271l-106 -352h-162l107 352h-205zM453 516h270l121 399h-271z" />
<glyph unicode="$" horiz-adv-x="1101" d="M8 162l123 153q145 -104 270 -137l84 475l-12 9q-141 86 -214 171t-73 220q0 176 122 288.5t319 114.5l32 184h152l-35 -200q156 -33 318 -131l-121 -154q-106 70 -230 100l-79 -442l6 -4q72 -43 115.5 -76t93 -84t73 -113.5t23.5 -140.5q0 -182 -129 -297.5t-330 -120.5 l-33 -182h-149l35 197q-184 39 -361 170zM412 1063q0 -57 27.5 -96t86.5 -76l68 375q-78 -12 -130 -64.5t-52 -138.5zM549 166q90 12 146.5 68.5t56.5 144.5q0 106 -129 194z" />
<glyph unicode="%" horiz-adv-x="1701" d="M147 989q0 180 93.5 323.5t261.5 143.5q129 0 212 -76.5t83 -224.5q0 -180 -93.5 -323.5t-261.5 -143.5q-131 0 -213 77t-82 224zM305 985q0 -166 141 -166q63 0 109.5 61.5t65 135.5t18.5 143q0 166 -141 166q-63 0 -109.5 -61.5t-65 -135t-18.5 -143.5zM356 0l858 1434 h164l-856 -1434h-166zM942 279q0 180 93 323t261 143q129 0 212 -76.5t83 -224.5q0 -180 -93 -323.5t-261 -143.5q-131 0 -213 77t-82 225zM1100 274q0 -165 141 -165q63 0 109.5 61t65 135t18.5 144q0 166 -142 165q-63 0 -109 -61t-64.5 -135t-18.5 -144z" />
<glyph unicode="&#x26;" horiz-adv-x="1220" d="M72 307q0 150 85 259.5t234 215.5q-96 166 -96 305q0 172 103.5 270.5t250.5 98.5q131 0 212 -73.5t81 -196.5q0 -127 -81 -225.5t-232 -212.5l196 -304q94 162 136 312h202q-70 -262 -231 -475l184 -281h-223l-90 139q-182 -162 -387 -162q-158 0 -251 88.5t-93 241.5z M272 319q0 -74 40 -126t124 -52q137 0 273 146l-226 350q-211 -170 -211 -318zM479 1090q0 -96 60 -205q106 76 161.5 141.5t55.5 144.5q0 55 -29 91t-86 36q-76 0 -119 -59t-43 -149z" />
<glyph unicode="'" horiz-adv-x="415" d="M188 893l62 541h199l-130 -541h-131z" />
<glyph unicode="(" horiz-adv-x="581" d="M38 -63.5q-3 75.5 17 188.5l209 1182q18 102 33.5 152t57.5 104.5t115 88.5t200 66l35 -139q-131 -49 -169 -93t-57 -151l-221 -1249q-25 -117 -5.5 -160t128.5 -92l-64 -127q-150 45 -213 99.5t-66 130z" />
<glyph unicode=")" horiz-adv-x="577" d="M-92 -154q131 49 169 93.5t56 150.5l221 1249q25 117 5.5 160t-128.5 92l64 127q150 -45 213 -99t66 -130t-17 -189l-209 -1181q-18 -102 -33.5 -152.5t-57.5 -105t-114.5 -88t-199.5 -66.5z" />
<glyph unicode="*" horiz-adv-x="921" d="M166 1020l303 55l-264 158l110 133l199 -240l-2 310l174 -31l-104 -289l264 158l57 -168l-295 -53l260 -158l-114 -133l-193 231l-2 -303l-172 29l107 293l-269 -158z" />
<glyph unicode="+" horiz-adv-x="1085" d="M117 602l30 162h340l64 358h162l-64 -358h344l-28 -162h-344l-64 -358h-162l64 358h-342z" />
<glyph unicode="," horiz-adv-x="468" d="M-27 -217l144 217h-97l48 276h215l-35 -299l-228 -268z" />
<glyph unicode="-" horiz-adv-x="761" d="M104 496l31 176h508l-31 -176h-508z" />
<glyph unicode="." horiz-adv-x="466" d="M20 0l48 276h217l-49 -276h-216z" />
<glyph unicode="/" horiz-adv-x="808" d="M-90 -184l862 1802h164l-862 -1802h-164z" />
<glyph unicode="0" horiz-adv-x="1175" d="M113 451q0 88 15 202.5t57 259t104.5 263t170 199.5t240.5 81q399 0 400 -475q0 -86 -15.5 -200.5t-57.5 -259t-104.5 -263.5t-170 -200t-240.5 -81q-399 0 -399 474zM319 434q0 -84 12.5 -140t56.5 -99t122 -43q98 0 178 106.5t121 256t62.5 278.5t21.5 204 q0 131 -39 207t-152 76q-98 0 -178 -106.5t-121 -256t-62.5 -278.5t-21.5 -205z" />
<glyph unicode="1" horiz-adv-x="696" d="M137 1235l340 199h197l-254 -1434h-211l213 1206l-211 -123z" />
<glyph unicode="2" horiz-adv-x="1036" d="M-20 0l20 123q14 76 36.5 141.5t64.5 122.5t73 96t94.5 91.5t94 75t106.5 77.5q170 121 252 206t82 181q2 70 -42 113t-128 43q-141 0 -320 -121l-80 154q215 154 433 153q166 0 259 -87t93 -234q0 -78 -31 -154t-66.5 -126t-111.5 -116.5t-111.5 -93.5t-124.5 -88 q-23 -16 -34 -25q-129 -94 -192.5 -168.5t-82.5 -177.5h592l-33 -186h-843z" />
<glyph unicode="3" horiz-adv-x="1048" d="M-18 147l116 142q178 -123 316 -123q127 0 206.5 76.5t79.5 195.5q0 123 -90 183.5t-217 60.5h-47l35 186h53q119 0 226.5 76t107.5 184q0 66 -42 104t-118 38q-139 0 -303 -111l-72 152q213 145 422 145q158 0 244 -82t86 -207q0 -119 -75.5 -221t-215.5 -162 q96 -33 157.5 -126t61.5 -218q0 -184 -127 -323.5t-360 -139.5q-243 0 -444 170z" />
<glyph unicode="4" horiz-adv-x="1120" d="M4 303l29 160l710 971h279l-168 -945h178l-33 -186h-178l-53 -303h-209l53 303h-608zM246 489h399l127 721z" />
<glyph unicode="5" horiz-adv-x="1036" d="M0 154l119 143q152 -129 282 -129q119 0 210 92t91 244q0 104 -51 168.5t-147 64.5q-102 0 -240 -88l-112 70l188 715h696l-32 -187h-517l-81 -358q86 31 165 31q166 0 257.5 -113t91.5 -289q0 -223 -138.5 -382t-366 -159t-415.5 177z" />
<glyph unicode="6" horiz-adv-x="1103" d="M94 471q0 258 101.5 483.5t285 363.5t402.5 138q55 0 105 -9t73 -17l22 -11l-84 -162q-48 17 -114 17q-174 0 -317.5 -136.5t-213.5 -353.5q125 135 295 136q158 0 249 -115t91 -277q0 -221 -131 -386t-348 -165q-201 0 -308.5 144.5t-107.5 349.5zM305 465 q0 -127 53.5 -216t153.5 -89q121 0 192.5 107.5t71.5 250.5q0 94 -48 163t-142 69q-88 0 -166 -60.5t-111 -128.5q-4 -33 -4 -96z" />
<glyph unicode="7" horiz-adv-x="890" d="M96 0q35 203 128 426t207 404.5t176.5 270.5t107.5 146h-551l33 187h794l-28 -168q-23 -27 -59 -73t-134 -188.5t-179 -286t-161 -342t-111 -376.5h-223z" />
<glyph unicode="8" horiz-adv-x="1120" d="M47 326q0 289 367 456q-160 119 -160 293q0 168 122 274.5t314 106.5q170 0 264.5 -87t94.5 -222q0 -229 -287 -381q225 -137 225 -356q0 -193 -147.5 -313t-374.5 -120q-197 0 -307.5 91.5t-110.5 257.5zM264 346q0 -94 56.5 -145t154.5 -51q123 0 210 74.5t87 191.5 q0 88 -52 150.5t-142 117.5q-145 -68 -229.5 -144.5t-84.5 -193.5zM455 1063q0 -125 141 -207q248 102 248 270q0 70 -44 116t-122 46q-94 0 -158.5 -67.5t-64.5 -157.5z" />
<glyph unicode="9" horiz-adv-x="1103" d="M55 14l82 162q49 -16 117 -16q174 0 317.5 136t212.5 353q-125 -135 -295 -135q-158 0 -248.5 114.5t-90.5 276.5q0 221 130 386t347 165q201 0 309 -144.5t108 -348.5q0 -258 -101 -483.5t-284.5 -364t-402.5 -138.5q-57 0 -107.5 9.5t-70.5 17.5zM360 915 q0 -94 49.5 -162.5t145.5 -68.5q86 0 165 62.5t109 130.5q4 61 5 92q0 127 -53.5 216t-153.5 89q-121 0 -194 -107.5t-73 -251.5z" />
<glyph unicode=":" horiz-adv-x="481" d="M25 0l47 276h217l-49 -276h-215zM145 680l48 276h217l-50 -276h-215z" />
<glyph unicode=";" horiz-adv-x="497" d="M-16 -217l143 217h-96l47 276h215l-35 -299l-227 -268zM150 680l47 276h217l-49 -276h-215z" />
<glyph unicode="&#x3c;" horiz-adv-x="1085" d="M92 606l29 154l919 426l-36 -209l-695 -303l588 -303l-33 -191z" />
<glyph unicode="=" horiz-adv-x="1085" d="M82 414l29 166h847l-30 -166h-846zM147 791l31 163h846l-29 -163h-848z" />
<glyph unicode="&#x3e;" horiz-adv-x="1085" d="M70 182l36 209l695 303l-588 303l33 191l772 -426l-29 -154z" />
<glyph unicode="?" horiz-adv-x="901" d="M154 0l45 262h215l-45 -262h-215zM178 1315q197 141 400 141q147 0 241 -80t94 -225q0 -94 -42 -174t-111.5 -135.5t-143 -92t-155.5 -61.5l-58 -248h-133l49 369q379 109 379 313q0 72 -43 110t-118 38q-109 0 -279 -107z" />
<glyph unicode="@" horiz-adv-x="1660" d="M68 340q0 199 63.5 389.5t176 341t285.5 242.5t376 92q223 0 364.5 -110.5t189.5 -287t21 -401.5q-16 -115 -43.5 -218t-77 -208.5t-130.5 -168t-183 -62.5q-61 0 -102 23.5t-58.5 63.5t-22.5 78t-1 79q-145 -145 -291 -146q-94 0 -155.5 69.5t-61.5 184.5q0 164 92 261 t225 97q33 0 76 -7t68.5 -13t69.5 -18.5t48 -14.5q0 6 7.5 45t11.5 62q18 100 -5.5 145t-105.5 45q-104 0 -282 -82l-43 125q205 90 356 90q291 0 231 -321l-67 -391q-25 -90 -17.5 -176.5t76.5 -86.5q86 0 175 153t116 392q10 109 8 210.5t-35.5 191.5t-89 157.5 t-151 106.5t-217.5 39q-240 0 -426.5 -143.5t-280.5 -362.5t-94 -465q0 -264 125 -438t358 -174q86 0 167 23.5t120 45.5l39 23l45 -78q-16 -12 -47 -30.5t-129.5 -48.5t-196.5 -30q-272 0 -424.5 202t-152.5 505zM580 315q0 -135 116 -135q111 1 250 144l33 190 q-8 2 -51 13.5t-79 18.5t-67 7q-102 0 -152 -71.5t-50 -166.5z" />
<glyph unicode="A" horiz-adv-x="1189" d="M-68 0l695 1434h231l189 -1434h-222l-30 328h-480l-145 -328h-238zM393 506h385l-65 721z" />
<glyph unicode="B" horiz-adv-x="1183" d="M51 0l254 1434h420q190 0 290.5 -82t100.5 -224q0 -156 -93 -253t-192 -113q86 -20 157 -95t71 -216q0 -211 -128 -331t-358 -120h-522zM293 174h254q145 0 226 83t81 212q0 98 -62.5 149.5t-177.5 51.5h-233zM410 836h217q104 0 189 66.5t85 189.5q0 168 -213 168h-205z " />
<glyph unicode="C" horiz-adv-x="1120" d="M106 520q0 395 172.5 665.5t434.5 270.5q90 0 181 -37t141 -73.5t134 -104.5l-118 -151q-194 167 -320 167h-2q-172 0 -288.5 -218t-116.5 -511q0 -352 202 -352q127 0 373 164l88 -168q-309 -195 -508 -195q-174 0 -273.5 137.5t-99.5 405.5z" />
<glyph unicode="D" horiz-adv-x="1239" d="M51 0l254 1434h299q276 0 419.5 -138.5t143.5 -396.5q0 -133 -25.5 -259t-84 -242.5t-143.5 -205t-213 -140.5t-281 -52h-369zM295 188h117q248 0 394 198t146 505q0 186 -93 270t-271 84h-107z" />
<glyph unicode="E" horiz-adv-x="1050" d="M51 0l254 1434h787l-33 -189h-578l-75 -436h475l-35 -184h-473l-78 -437h588l-33 -188h-799z" />
<glyph unicode="F" horiz-adv-x="1003" d="M51 0l254 1434h787l-33 -189h-578l-75 -436h458l-33 -186h-458l-111 -623h-211z" />
<glyph unicode="G" horiz-adv-x="1222" d="M109 504q0 422 173 687t435 265q92 0 188 -39t154.5 -81t136.5 -107l-121 -150q-4 4 -46 36t-56.5 42t-53 36t-63.5 35t-59.5 19t-65.5 10q-172 0 -288.5 -217t-116.5 -518q0 -166 49 -261t149 -95q150 0 336 192l47 258h-293l31 179h492l-142 -795h-198l28 164 q-195 -186 -364 -187q-160 0 -256 134.5t-96 392.5z" />
<glyph unicode="H" horiz-adv-x="1247" d="M51 0l254 1434h209l-104 -590h505l105 590h211l-252 -1434h-211l115 659h-506l-115 -659h-211z" />
<glyph unicode="I" horiz-adv-x="530" d="M51 0l254 1434h209l-252 -1434h-211z" />
<glyph unicode="J" horiz-adv-x="530" d="M-170 -150q145 51 182 93.5t56 150.5l237 1340h209l-233 -1330q-14 -76 -21.5 -109.5t-26 -83.5t-42 -73.5t-66.5 -55.5t-102.5 -54.5t-147.5 -49.5z" />
<glyph unicode="K" horiz-adv-x="1163" d="M51 0l254 1434h209l-123 -699l592 699h270l-598 -676l381 -758h-235l-287 598l-184 -205l-68 -393h-211z" />
<glyph unicode="L" horiz-adv-x="964" d="M51 0l254 1434h209l-219 -1248h561l-33 -186h-772z" />
<glyph unicode="M" horiz-adv-x="1460" d="M51 0l254 1434h217l185 -922l520 922h217l-252 -1434h-211l180 1024l-440 -784h-111l-164 817l-184 -1057h-211z" />
<glyph unicode="N" horiz-adv-x="1273" d="M51 0l254 1434h213l338 -1092l193 1092h208l-251 -1434h-213l-340 1087l-191 -1087h-211z" />
<glyph unicode="O" horiz-adv-x="1306" d="M106 514q0 100 19.5 218t69 248t120 234.5t184.5 173t251 68.5q236 0 360.5 -135t124.5 -397q0 -102 -19.5 -220t-68.5 -249t-120 -235.5t-184.5 -173.5t-250.5 -69q-236 0 -361 135.5t-125 401.5zM322 514q0 -348 274 -348q113 0 201 90t133 221t67.5 247t22.5 196 q0 348 -275 348q-113 0 -200.5 -90.5t-132.5 -221.5t-67.5 -246.5t-22.5 -195.5z" />
<glyph unicode="P" horiz-adv-x="1148" d="M51 0l254 1434h402q438 0 438 -367q0 -242 -149.5 -384t-413.5 -142h-224l-96 -541h-211zM391 725h191q154 0 250 86t96 242q0 194 -230 194h-2h-215z" />
<glyph unicode="Q" horiz-adv-x="1306" d="M106 514q0 100 19.5 218t69 248t120 234.5t184.5 173t251 68.5q236 0 360.5 -135t124.5 -397q0 -111 -24.5 -239t-76 -264t-144.5 -248t-212 -161l170 -200l-162 -131l-211 296q-227 4 -348 139.5t-121 397.5zM322 514q0 -348 274 -348q113 0 201 90t133 221t67.5 247 t22.5 196q0 348 -275 348q-113 0 -200.5 -90.5t-132.5 -221.5t-67.5 -246.5t-22.5 -195.5z" />
<glyph unicode="R" horiz-adv-x="1204" d="M51 0l254 1434h447q436 0 436 -344q0 -182 -103.5 -315.5t-291.5 -172.5l208 -602h-219l-188 590h-227l-105 -590h-211zM397 768h236q160 0 249 81t89 222q0 184 -238 184h-250z" />
<glyph unicode="S" horiz-adv-x="1085" d="M0 162l123 153q208 -151 373 -151h2q104 0 174.5 58.5t70.5 156.5q0 25 -7 49.5t-14 41.5t-28.5 37.5t-33 32t-43 32t-44 28.5t-54.5 31.5t-54 30.5q-141 86 -214 171t-73 220q0 178 124 290.5t323 112.5q223 0 460 -147l-120 -154q-178 115 -336 115q-92 0 -159 -54.5 t-67 -152.5q0 -18 3.5 -34.5t7.5 -30t15 -28t18.5 -23.5t26 -23.5t27.5 -21.5t34.5 -22.5t37 -21.5t43.5 -23.5t46 -25.5q72 -43 115.5 -76t93 -84t73 -113.5t23.5 -140.5q0 -184 -132.5 -301t-334.5 -117q-254 0 -500 185z" />
<glyph unicode="T" horiz-adv-x="989" d="M147 1245l35 189h914l-33 -189h-352l-219 -1245h-211l221 1245h-355z" />
<glyph unicode="U" horiz-adv-x="1228" d="M114 306q-3 27 -3 56q0 75 18 156l164 916h209l-166 -945q-11 -83 -11 -150v-11q1 -70 51 -115t150 -45q145 0 220 86t102 235l166 945h211l-168 -945q-41 -240 -164 -376t-375 -136q-139 0 -230 42t-127.5 114.5t-46.5 172.5z" />
<glyph unicode="V" horiz-adv-x="1185" d="M176 1434h227l113 -1188l526 1188h248l-694 -1434h-231z" />
<glyph unicode="W" horiz-adv-x="1626" d="M193 1434h231l10 -1110l424 1110h180l31 -1108l399 1108h244l-575 -1434h-209l-35 1098l-420 -1098h-209z" />
<glyph unicode="X" horiz-adv-x="1099" d="M-76 0l522 719l-249 715h229l160 -566l354 566h254l-502 -715l271 -719h-234l-174 559l-369 -559h-262z" />
<glyph unicode="Y" horiz-adv-x="1103" d="M166 1434h221l176 -672l410 672h246l-574 -863l-100 -571h-209l98 569z" />
<glyph unicode="Z" horiz-adv-x="1071" d="M-39 0l31 172l827 1073h-602l33 189h874l-28 -170l-830 -1076h649l-32 -188h-922z" />
<glyph unicode="[" horiz-adv-x="630" d="M-8 -295l354 2013h422l-25 -137h-211l-307 -1737h211l-24 -139h-420z" />
<glyph unicode="\" horiz-adv-x="780" d="M215 1618h147l238 -1802h-149z" />
<glyph unicode="]" horiz-adv-x="630" d="M-104 -295l24 137h211l307 1737h-211l25 139h420l-355 -2013h-421z" />
<glyph unicode="^" horiz-adv-x="1087" d="M143 696l445 738h209l184 -738h-207l-104 547l-297 -547h-230z" />
<glyph unicode="_" horiz-adv-x="1214" d="M-41 -317l29 155h964l-28 -155h-965z" />
<glyph unicode="`" horiz-adv-x="393" d="M244 1493h231l162 -272h-156z" />
<glyph unicode="a" d="M63 334q0 311 124 537.5t323 226.5q139 0 281 -164l24 141h203l-191 -1075h-200l26 156q-178 -178 -336 -179q-111 0 -182.5 90.5t-71.5 266.5zM272 365q0 -100 33 -156.5t94 -56.5q74 0 141.5 48t145.5 136l74 428q-96 160 -211 160q-82 0 -147.5 -89.5t-97.5 -215 t-32 -254.5z" />
<glyph unicode="b" horiz-adv-x="1058" d="M23 0l264 1493h200l-96 -549q162 154 311 154q119 0 195 -90t76 -267q0 -199 -51.5 -370.5t-152.5 -282.5t-232 -111q-92 0 -158 43t-131 115l-23 -135h-202zM279 307q99 -155 217 -155h2q117 0 191.5 176t74.5 381q0 215 -143 215q-117 0 -261 -158z" />
<glyph unicode="c" horiz-adv-x="894" d="M61 397q0 324 142.5 512.5t326.5 188.5q41 0 82 -9.5t70 -18.5t69 -31.5t54 -31t53 -35t41 -28.5l-102 -143q-6 4 -32 23.5t-44.5 31.5t-46 27.5t-55 23.5t-54.5 8q-119 0 -208 -146t-89 -351q0 -123 42 -190.5t122 -67.5q31 0 71 14t68.5 28.5t70.5 38t52 29.5l68 -161 q-2 0 -46 -24t-59.5 -31t-59.5 -26.5t-71.5 -26.5t-66.5 -15.5t-74 -8.5q-145 0 -234.5 110t-89.5 310z" />
<glyph unicode="d" d="M63 334q0 311 124 537.5t323 226.5q141 0 281 -166l98 561h203l-265 -1493h-200l26 156q-178 -178 -336 -179q-111 0 -182.5 90.5t-71.5 266.5zM272 365q0 -100 33 -156.5t94 -56.5q74 0 141.5 48t145.5 136l74 428q-96 160 -211 160q-82 0 -147.5 -89.5t-97.5 -215 t-32 -254.5z" />
<glyph unicode="e" horiz-adv-x="972" d="M61 416q0 297 146.5 489.5t388.5 192.5q147 0 232 -76t85 -201q0 -186 -147.5 -277t-409.5 -91h-90v-41q0 -270 172 -271q31 0 64 7.5t72.5 27t61 29.5t71 37.5t55.5 31.5l65 -145q-233 -152 -432 -152q-156 0 -245 110t-89 329zM283 582h84q172 0 263 63.5t91 165.5 q0 59 -38 94t-99 35q-111 0 -191 -101.5t-110 -256.5z" />
<glyph unicode="f" horiz-adv-x="645" d="M-174 -281q150 53 186.5 103.5t65.5 212.5l153 880h-118l30 160h117l21 119q27 156 87 227.5t173 71.5q129 0 295 -86l-95 -139q-104 43 -166 43q-72 0 -90 -113l-22 -123h225l-31 -160h-223l-151 -868q-18 -98 -26.5 -138t-29 -101.5t-43 -86t-66.5 -59.5t-102.5 -56.5 t-146.5 -47.5z" />
<glyph unicode="g" d="M-35 -358l72 170q197 -80 342 -80q199 0 237 221l35 201q-176 -176 -334 -177q-111 0 -182.5 90.5t-71.5 266.5q0 311 125 537.5t322 226.5q137 0 278 -164l27 141h201l-197 -1118q-39 -223 -141.5 -309t-282.5 -86q-207 0 -430 80zM272 365q0 -100 33 -156.5t94 -56.5 q125 0 285 182l76 432q-98 158 -211 158q-82 0 -147.5 -89.5t-97.5 -215t-32 -254.5z" />
<glyph unicode="h" horiz-adv-x="1056" d="M23 0l264 1493h200l-98 -555q205 160 363 160q131 0 184 -89q35 -58 35 -145q0 -46 -10 -100l-136 -764h-202l129 733q7 41 7 74q0 121 -97 121q-72 0 -155 -49.5t-147 -110.5l-135 -768h-202z" />
<glyph unicode="i" horiz-adv-x="464" d="M23 0l190 1075h201l-191 -1075h-200zM240 1270l36 217h218l-39 -217h-215z" />
<glyph unicode="j" horiz-adv-x="464" d="M-223 -279q147 53 184 94.5t55 151.5l197 1108h203l-195 -1093q-12 -68 -18 -96.5t-19.5 -76t-30 -69t-45 -53t-67.5 -50t-94.5 -39t-128.5 -40.5zM240 1270l39 217h217l-39 -217h-217z" />
<glyph unicode="k" horiz-adv-x="942" d="M23 0l264 1493h200l-159 -907l389 489h244l-388 -440l246 -635h-207l-174 479l-162 -184l-51 -295h-202z" />
<glyph unicode="l" horiz-adv-x="479" d="M29 0l264 1493h203l-265 -1493h-202z" />
<glyph unicode="m" horiz-adv-x="1572" d="M23 0l190 1075h201l-27 -147q174 170 328 170q98 0 149 -54.5t60 -142.5q180 197 350 197q131 0 180 -92q32 -60 32 -143q0 -44 -9 -95l-136 -768h-202l131 739q8 42 8 75q0 113 -94 114q-113 0 -271 -176l-131 -752h-202l131 739q8 42 8 75q0 113 -94 114 q-117 0 -267 -172l-133 -756h-202z" />
<glyph unicode="n" horiz-adv-x="1056" d="M23 0l190 1075h201l-25 -139q203 162 363 162q131 0 184 -89q35 -58 34 -146q0 -46 -9 -101l-136 -762h-202l131 735q6 39 6 70q0 123 -98 123q-70 0 -155 -50.5t-149 -111.5l-133 -766h-202z" />
<glyph unicode="o" horiz-adv-x="1058" d="M63 395q0 123 31 244t89.5 225.5t158.5 169t225 64.5q178 0 290 -103.5t112 -314.5q0 -123 -31 -244t-89 -225.5t-158.5 -169t-225.5 -64.5q-178 0 -290 103.5t-112 314.5zM266 391q0 -248 201 -248q74 0 134.5 57.5t94 144.5t52 175t18.5 164q0 248 -201 248 q-74 0 -134 -57.5t-94 -144.5t-52.5 -175t-18.5 -164z" />
<glyph unicode="p" horiz-adv-x="1060" d="M-51 -418l264 1493h201l-25 -133q168 156 313 156q121 0 197 -90t76 -267q0 -199 -51.5 -370.5t-152.5 -282.5t-232 -111q-150 0 -291 160l-96 -555h-203zM279 311q99 -159 219 -159h2q80 0 142.5 88t93 214t30.5 255q0 215 -145 215q-109 0 -263 -158z" />
<glyph unicode="q" d="M63 334q0 311 124 537.5t323 226.5q139 0 281 -164l24 141h203l-264 -1493h-201l100 574q-178 -178 -336 -179q-111 0 -182.5 90.5t-71.5 266.5zM272 365q0 -100 33 -156.5t94 -56.5q123 0 285 184l76 428q-96 160 -211 160q-82 0 -147.5 -89.5t-97.5 -215t-32 -254.5z " />
<glyph unicode="r" horiz-adv-x="698" d="M23 0l190 1075h201l-41 -227q139 241 338 241q16 0 32 -2l-36 -200q-80 0 -150 -37t-112 -89t-72.5 -103.5t-42.5 -88.5l-13 -37l-92 -532h-202z" />
<glyph unicode="s" horiz-adv-x="907" d="M-12 125l106 141q174 -119 312 -119q72 0 120.5 38t48.5 106q0 18 -5 33.5t-10 26.5t-19.5 24.5t-23.5 20.5t-31.5 20.5t-34 18.5t-40 18.5t-40.5 19.5q-78 37 -125 68.5t-88 94t-41 144.5q0 143 100 230.5t262 87.5q195 0 381 -121l-102 -141q-152 94 -275 94 q-70 0 -114.5 -36t-44.5 -97q0 -20 4 -38t18 -33t22.5 -24.5t33 -22.5t32.5 -18.5t41 -19.5t39 -16q133 -61 201.5 -132t68.5 -190q0 -150 -105.5 -238t-270.5 -88q-213 0 -420 148z" />
<glyph unicode="t" horiz-adv-x="688" d="M106 915l29 160h121l47 264l209 47l-55 -311h237l-26 -160h-240l-113 -641q-4 -23 -4 -41q0 -71 57 -71h1q41 0 155 51l49 -164q-170 -72 -274 -72q-109 0 -159 78q-32 49 -32 132q0 48 11 108l108 620h-121z" />
<glyph unicode="u" horiz-adv-x="1056" d="M70 311l135 764h203l-132 -733q-7 -40 -7 -73q0 -122 100 -122q70 0 154.5 50.5t146.5 107.5l137 770h201l-189 -1075h-203l25 137q-207 -160 -362 -160q-131 1 -183 89q-35 58 -35 146q0 46 9 99z" />
<glyph unicode="v" horiz-adv-x="976" d="M121 1075h209l78 -848l378 848h226l-537 -1075h-199z" />
<glyph unicode="w" horiz-adv-x="1409" d="M131 1075h211l23 -813l333 813h164l45 -815l307 815h222l-461 -1075h-191l-49 786l-332 -786h-190z" />
<glyph unicode="x" horiz-adv-x="1005" d="M-82 0l451 539l-242 536h217l154 -409l299 409h245l-432 -534l262 -541h-223l-166 420l-307 -420h-258z" />
<glyph unicode="y" horiz-adv-x="976" d="M-31 -274q121 49 186.5 98t120.5 141l-157 1110h211l84 -823l377 823h221l-531 -1075q-45 -90 -66.5 -129t-62.5 -98.5t-82 -90t-105.5 -64.5t-150.5 -60z" />
<glyph unicode="z" horiz-adv-x="913" d="M-39 0l29 156l641 743h-494l33 176h750l-29 -155l-641 -744h512l-33 -176h-768z" />
<glyph unicode="{" horiz-adv-x="694" d="M57 633l29 160q102 -2 149.5 71.5t53.5 171.5l12 199q35 483 467 483h61l-22 -135h-33q-233 0 -256 -315l-12 -193q-14 -170 -82 -256t-195 -110q227 -61 146 -371l-43 -158q-18 -72 -24.5 -124t1.5 -105t48 -81t112 -28h31l-25 -135h-31q-207 0 -297 131t-24 365l51 186 q35 131 6 187.5t-123 56.5z" />
<glyph unicode="|" horiz-adv-x="458" d="M0 -252l340 1927h152l-340 -1927h-152z" />
<glyph unicode="}" horiz-adv-x="694" d="M-100 -293l22 135h33q233 0 256 316l12 192q14 170 82 256t195 111q-227 61 -146 370l43 158q18 72 24.5 124t-1.5 105.5t-48 81t-112 27.5h-31l25 135h31q207 0 297 -131t24 -364l-51 -187q-35 -131 -6 -187t123 -56l-29 -160q-102 2 -149.5 -72t-53.5 -172l-12 -199 q-35 -483 -467 -483h-61z" />
<glyph unicode="~" horiz-adv-x="1085" d="M37 461q141 264 315 264q72 0 140.5 -39t129 -77t111.5 -38q84 0 174 144l121 -60q-141 -262 -315 -262q-88 0 -205 76t-176 76q-41 0 -80 -29t-92 -115z" />
<glyph unicode="&#xa1;" horiz-adv-x="520" d="M31 0l235 993h123l-113 -993h-245zM250 1171l45 263h217l-45 -263h-217z" />
<glyph unicode="&#xa2;" horiz-adv-x="976" d="M115 578q0 324 142 512t325 188h4l28 156h152l-33 -185q76 -29 234 -139l-103 -141q-115 86 -162 106l-127 -715q47 16 189 99l70 -160q-190 -104 -291 -127l-29 -172h-152l29 160q-127 16 -201.5 124.5t-74.5 293.5zM322 598q0 -203 102 -248l129 733 q-98 -39 -164.5 -175t-66.5 -310z" />
<glyph unicode="&#xa3;" horiz-adv-x="983" d="M0 0l27 154q8 6 23.5 17t55 48t72.5 77t67 102.5t48 125.5h-182l24 140h166q-6 49 -41 177t-35 214q0 182 102.5 291.5t278.5 109.5q86 0 172 -31.5t131 -61.5t105 -77l-113 -133q-160 117 -264 117q-90 0 -147.5 -63.5t-57.5 -164.5q0 -66 36 -185.5t38 -192.5h268 l-24 -140h-256q-25 -113 -84.5 -202t-112.5 -136h504l-33 -186h-768z" />
<glyph unicode="&#xa5;" horiz-adv-x="1173" d="M119 328l24 137h310l18 104l-10 31h-293l25 137h225l-215 697h221l176 -672l410 672h245l-462 -697h227l-25 -137h-295l-18 -29l-18 -106h309l-27 -137h-307l-57 -328h-209l55 328h-309z" />
<glyph unicode="&#xa6;" horiz-adv-x="460" d="M0 -252l150 846h151l-149 -846h-152zM190 829l150 846h154l-150 -846h-154z" />
<glyph unicode="&#xa7;" horiz-adv-x="987" d="M29 -27l104 142q147 -94 273 -95q70 0 115.5 36t45.5 98q0 20 -4 37.5t-18.5 33t-22.5 24.5t-33.5 22.5t-34 18.5t-42 19.5t-39.5 16.5q-129 57 -199 129.5t-70 183.5q0 102 59.5 175t164.5 106q-100 84 -101 217q0 143 101.5 231t261.5 88q195 0 381 -121l-103 -141 q-152 94 -274 94q-70 0 -115 -35.5t-45 -97.5q0 -16 3 -30.5t11.5 -27t14.5 -21.5t20.5 -19t23.5 -16.5t28.5 -15.5t28.5 -13t33 -14.5t32 -14.5q129 -57 197.5 -130t68.5 -183q0 -102 -60.5 -176t-162.5 -105q102 -84 102 -217q0 -143 -101.5 -231t-262.5 -88 q-190 0 -381 120zM303 672q0 -63 44 -98t173 -97q80 10 128 51t48 109q0 35 -11 59.5t-50 51t-60.5 38t-95.5 45.5q-80 -10 -128 -52t-48 -107z" />
<glyph unicode="&#xa8;" horiz-adv-x="415" d="M188 1241l37 209h176l-36 -209h-177zM489 1241l37 209h174l-36 -209h-175z" />
<glyph unicode="&#xa9;" horiz-adv-x="1658" d="M119 641q0 342 210 578.5t572 236.5q311 0 493.5 -183t182.5 -480q0 -221 -88 -403.5t-270.5 -297.5t-425.5 -115q-309 0 -491.5 184.5t-182.5 479.5zM195 643q0 -262 161.5 -426t444.5 -164q319 0 508.5 212t189.5 526q0 262 -161.5 425.5t-442.5 163.5 q-319 0 -509.5 -212t-190.5 -525zM469 618q-10 250 111.5 396.5t302.5 146.5q159 0 327 -137l-59 -61q-133 117 -270 116q-141 0 -233.5 -129t-84.5 -325q4 -127 57.5 -199t141.5 -72q152 0 313 113l49 -70q-190 -127 -354 -127q-127 0 -211 91.5t-90 256.5z" />
<glyph unicode="&#xaa;" horiz-adv-x="768" d="M172 995q0 184 77 318.5t202 134.5q84 0 174 -94l14 80h143l-112 -646h-146l15 84q-113 -98 -203 -98q-74 0 -119 56.5t-45 164.5zM319 1016q0 -119 74 -119t168 102l43 238q-55 88 -124.5 88t-115 -98.5t-45.5 -210.5z" />
<glyph unicode="&#xab;" horiz-adv-x="1167" d="M45 500l23 133l585 448l-41 -235l-397 -295l295 -291l-37 -207zM535 500l22 133l586 448l-41 -235l-397 -295l294 -291l-36 -207z" />
<glyph unicode="&#xac;" horiz-adv-x="1085" d="M45 600l31 164h971l-103 -580h-174l74 416h-799z" />
<glyph unicode="&#xad;" horiz-adv-x="761" d="M104 496l31 176h508l-31 -176h-508z" />
<glyph unicode="&#xae;" horiz-adv-x="921" d="M166 1069q0 170 104.5 288t286.5 118q156 0 247 -92.5t91 -239.5q0 -170 -104.5 -288t-286.5 -118q-156 0 -247 92.5t-91 239.5zM233 1071q0 -119 74 -193.5t201 -74.5q147 0 234 96t87 242q0 117 -74.5 192.5t-201.5 75.5q-147 0 -233.5 -97.5t-86.5 -240.5zM365 926 l65 370h162q53 0 84 -27.5t31 -68.5q0 -47 -32 -76.5t-85 -38.5l61 -159h-65l-58 157h-71l-27 -157h-65zM467 1141h94q80 0 80 59q0 37 -51 37h-105z" />
<glyph unicode="&#xaf;" horiz-adv-x="509" d="M231 1272l23 135h504l-25 -135h-502z" />
<glyph unicode="&#xb0;" horiz-adv-x="806" d="M164 1116q0 133 94 226.5t225 93.5t224.5 -94.5t93.5 -225.5t-93.5 -224t-224.5 -93t-225 93t-94 224zM295 1116q0 -76 55.5 -130t131 -54t131 54t55.5 130q0 78 -54.5 133.5t-132.5 55.5t-132 -55.5t-54 -133.5z" />
<glyph unicode="&#xb1;" horiz-adv-x="1087" d="M10 0l27 145h848l-25 -145h-850zM119 614l28 164h340l56 305h164l-54 -305h344l-30 -164h-342l-54 -305h-165l53 305h-340z" />
<glyph unicode="&#xb2;" horiz-adv-x="688" d="M94 788l15 80q10 68 36.5 122t74.5 99.5t81 71t98 68.5q76 53 109 77.5t65.5 64.5t32.5 77q-4 82 -100 82q-90 0 -201 -74l-57 109q135 98 280 98q109 0 169.5 -56.5t60.5 -146.5q0 -49 -22.5 -97t-44 -78t-76 -73t-73 -55t-81.5 -53q-80 -51 -116 -91t-46 -93h365 l-23 -132h-547z" />
<glyph unicode="&#xb3;" horiz-adv-x="692" d="M94 885l82 100q117 -78 203 -78q74 0 119 41t45 105q0 68 -55.5 99.5t-135.5 31.5h-28l22 133h35q74 0 137.5 39t63.5 98q0 76 -93 76q-86 0 -192 -66l-49 107q133 92 274 92q102 0 158.5 -51t56.5 -127q0 -152 -176 -228q59 -20 96 -74.5t37 -127.5q0 -111 -78.5 -196 t-226.5 -85q-150 0 -295 111z" />
<glyph unicode="&#xb4;" horiz-adv-x="395" d="M186 1221l248 272h258l-327 -272h-179z" />
<glyph unicode="&#xb5;" horiz-adv-x="1114" d="M-31 -418l264 1493h203l-131 -733q-33 -195 92 -195q70 0 155 50.5t146 107.5l138 770h200l-188 -1075h-203l25 137q-207 -160 -363 -160q-25 0 -65 9l-70 -404h-203z" />
<glyph unicode="&#xb6;" horiz-adv-x="1179" d="M119 885q0 240 144.5 394.5t377.5 154.5h178l-319 -1813h-172l157 897q-168 0 -267 94.5t-99 272.5zM659 -379l322 1813h172l-319 -1813h-175z" />
<glyph unicode="&#xb7;" horiz-adv-x="468" d="M96 444l47 277h217l-49 -277h-215z" />
<glyph unicode="&#xb8;" horiz-adv-x="296" d="M-68 -319l64 114q39 -25 82 -24q41 0 69.5 26.5t28.5 85.5q0 27 -6 56.5t-10 48.5l-6 16h90q39 -68 39 -154q0 -98 -57.5 -153t-147.5 -55q-87 0 -146 39z" />
<glyph unicode="&#xb9;" horiz-adv-x="538" d="M184 1524l219 125h142l-154 -861h-149l125 703l-129 -72z" />
<glyph unicode="&#xba;" horiz-adv-x="749" d="M170 1032q0 162 81.5 289t237.5 127q115 0 188 -64.5t73 -193.5q0 -162 -82 -289t-238 -127q-115 0 -187.5 64.5t-72.5 193.5zM313 1030q0 -137 117 -137q84 0 129 100.5t45 198.5q0 137 -117 137q-82 0 -128 -100.5t-46 -198.5z" />
<glyph unicode="&#xbb;" horiz-adv-x="1169" d="M10 51l41 236l398 295l-295 290l36 207l428 -446l-22 -133zM500 51l41 236l397 295l-295 290l37 207l428 -446l-23 -133z" />
<glyph unicode="&#xbc;" horiz-adv-x="1452" d="M170 1309l219 125h141l-153 -861h-150l125 703l-129 -72zM193 0l798 1434h160l-801 -1434h-157zM657 174l21 113l436 573h199l-101 -555h113l-22 -131h-113l-31 -174h-147l30 174h-385zM834 305h231l72 406z" />
<glyph unicode="&#xbd;" horiz-adv-x="1495" d="M170 1309l219 125h141l-153 -861h-150l125 703l-129 -72zM193 0l798 1434h160l-801 -1434h-157zM745 0l15 80q10 68 36.5 122t75 99t81 70.5t98.5 68.5q76 53 108.5 78t65 65t32.5 76q-4 82 -100 82q-90 0 -201 -73l-57 108q135 98 281 98q109 0 169 -56t60 -146 q0 -49 -22.5 -97.5t-44 -78t-76 -72.5t-72.5 -55.5t-82 -53.5q-80 -51 -115.5 -91t-46.5 -93h365l-23 -131h-547z" />
<glyph unicode="&#xbe;" horiz-adv-x="1636" d="M82 670l82 100q117 -78 203 -78q74 0 118.5 41t44.5 105q0 68 -55 99.5t-135 31.5h-29l23 133h35q74 0 137 39t63 98q0 76 -92 76q-86 0 -192 -66l-49 107q133 92 274 92q102 0 158.5 -51t56.5 -127q0 -152 -176 -228q59 -20 96 -74.5t37 -127.5q0 -111 -79 -196 t-226 -85q-150 0 -295 111zM379 0l799 1434h159l-800 -1434h-158zM844 174l20 113l436 573h199l-100 -555h112l-22 -131h-113l-30 -174h-148l31 174h-385zM1020 305h231l72 406z" />
<glyph unicode="&#xbf;" horiz-adv-x="897" d="M23 283q0 94 41.5 174t111.5 135t143.5 92t155.5 61l57 248h134l-50 -368q-379 -109 -378 -314q0 -72 43 -109.5t118 -37.5q109 0 279 106l80 -151q-197 -141 -400 -142q-147 0 -241 80.5t-94 225.5zM522 1171l45 263h215l-45 -263h-215z" />
<glyph unicode="&#xc0;" horiz-adv-x="1189" d="M-68 0l695 1434h231l189 -1434h-222l-30 328h-480l-145 -328h-238zM393 506h385l-65 721zM518 1802h232l161 -272h-155z" />
<glyph unicode="&#xc1;" horiz-adv-x="1189" d="M-68 0l695 1434h231l189 -1434h-222l-30 328h-480l-145 -328h-238zM393 506h385l-65 721zM610 1530l248 272h258l-328 -272h-178z" />
<glyph unicode="&#xc2;" horiz-adv-x="1189" d="M-68 0l695 1434h231l189 -1434h-222l-30 328h-480l-145 -328h-238zM393 506h385l-65 721zM487 1530l220 272h206l123 -272h-133l-104 168l-160 -168h-152z" />
<glyph unicode="&#xc3;" horiz-adv-x="1189" d="M-68 0l695 1434h231l189 -1434h-222l-30 328h-480l-145 -328h-238zM393 506h385l-65 721zM489 1610q55 90 96.5 130t100.5 40q47 0 112.5 -49.5t88.5 -49.5q41 0 102 95l88 -64q-55 -88 -96 -128t-100 -40q-47 0 -111.5 49t-89.5 49q-43 0 -102 -94z" />
<glyph unicode="&#xc4;" horiz-adv-x="1189" d="M-68 0l695 1434h231l189 -1434h-222l-30 328h-480l-145 -328h-238zM393 506h385l-65 721zM526 1550l37 209h176l-37 -209h-176zM827 1550l37 209h174l-37 -209h-174z" />
<glyph unicode="&#xc5;" horiz-adv-x="1193" d="M-68 0l695 1434h231l189 -1434h-222l-30 328h-480l-145 -328h-238zM393 506h385l-65 721zM586 1714q0 84 59.5 144.5t145.5 60.5q84 0 144 -60.5t60 -144.5q0 -86 -60.5 -145.5t-143.5 -59.5q-86 0 -145.5 59.5t-59.5 145.5zM692 1714q0 -41 29 -69.5t69.5 -28.5 t69.5 29.5t29 68.5t-29 68.5t-69.5 29.5t-69.5 -28.5t-29 -69.5z" />
<glyph unicode="&#xc6;" horiz-adv-x="1753" d="M-129 0l1044 1434h879l-33 -189h-577l-76 -436h475l-35 -184h-473l-78 -437h588l-33 -188h-798l57 328h-442l-230 -328h-268zM498 510h346l117 655z" />
<glyph unicode="&#xc7;" horiz-adv-x="1120" d="M106 520q0 395 172.5 665.5t434.5 270.5q90 0 181 -37t141 -73.5t134 -104.5l-118 -151q-195 168 -322 167q-172 0 -288.5 -218t-116.5 -511q0 -352 202 -352q127 0 373 164l88 -168q-272 -172 -450 -190q29 -61 28 -132q0 -98 -57 -153t-148 -55q-86 0 -145 39l64 114 q39 -25 81 -24q41 0 70 26.5t29 85.5q0 39 -15 97q-160 12 -249 148t-89 392z" />
<glyph unicode="&#xc8;" horiz-adv-x="1050" d="M51 0l254 1434h787l-33 -189h-578l-75 -436h475l-35 -184h-473l-78 -437h588l-33 -188h-799zM479 1802h232l161 -272h-155z" />
<glyph unicode="&#xc9;" horiz-adv-x="1050" d="M51 0l254 1434h787l-33 -189h-578l-75 -436h475l-35 -184h-473l-78 -437h588l-33 -188h-799zM561 1530l248 272h258l-328 -272h-178z" />
<glyph unicode="&#xca;" horiz-adv-x="1050" d="M51 0l254 1434h787l-33 -189h-578l-75 -436h475l-35 -184h-473l-78 -437h588l-33 -188h-799zM446 1530l220 272h206l123 -272h-133l-104 168l-160 -168h-152z" />
<glyph unicode="&#xcb;" horiz-adv-x="1050" d="M51 0l254 1434h787l-33 -189h-578l-75 -436h475l-35 -184h-473l-78 -437h588l-33 -188h-799zM489 1550l37 209h176l-36 -209h-177zM791 1550l36 209h174l-36 -209h-174z" />
<glyph unicode="&#xcc;" horiz-adv-x="532" d="M51 0l254 1434h209l-252 -1434h-211zM186 1802h232l162 -272h-156z" />
<glyph unicode="&#xcd;" horiz-adv-x="530" d="M51 0l254 1434h209l-252 -1434h-211zM268 1530l248 272h258l-328 -272h-178z" />
<glyph unicode="&#xce;" horiz-adv-x="530" d="M51 0l254 1434h209l-252 -1434h-211zM152 1530l219 272h207l122 -272h-133l-104 168l-160 -168h-151z" />
<glyph unicode="&#xcf;" horiz-adv-x="532" d="M51 0l254 1434h209l-252 -1434h-211zM195 1550l36 209h177l-37 -209h-176zM496 1550l36 209h175l-37 -209h-174z" />
<glyph unicode="&#xd0;" horiz-adv-x="1255" d="M57 629l29 176h125l113 629h299q276 0 419.5 -138.5t143.5 -396.5q0 -133 -25.5 -259t-84 -242.5t-143.5 -205t-213 -140.5t-282 -52h-368l110 629h-123zM313 188h117q248 0 394.5 198t146.5 505q0 186 -93.5 270t-271.5 84h-106l-78 -440h258l-31 -176h-258z" />
<glyph unicode="&#xd1;" horiz-adv-x="1273" d="M51 0l254 1434h213l338 -1092l193 1092h208l-251 -1434h-213l-340 1087l-191 -1087h-211zM537 1610q55 90 96 130t100 40q49 0 113.5 -49.5t87.5 -49.5q41 0 102 95l88 -64q-55 -88 -96 -128t-100 -40q-47 0 -111.5 49t-89.5 49q-43 0 -102 -94z" />
<glyph unicode="&#xd2;" horiz-adv-x="1306" d="M106 514q0 100 19.5 218t69 248t120 234.5t184.5 173t251 68.5q236 0 360.5 -135t124.5 -397q0 -102 -19.5 -220t-68.5 -249t-120 -235.5t-184.5 -173.5t-250.5 -69q-236 0 -361 135.5t-125 401.5zM322 514q0 -348 274 -348q113 0 201 90t133 221t67.5 247t22.5 196 q0 348 -275 348q-113 0 -200.5 -90.5t-132.5 -221.5t-67.5 -246.5t-22.5 -195.5zM573 1802h232l162 -272h-156z" />
<glyph unicode="&#xd3;" horiz-adv-x="1306" d="M106 514q0 100 19.5 218t69 248t120 234.5t184.5 173t251 68.5q236 0 360.5 -135t124.5 -397q0 -102 -19.5 -220t-68.5 -249t-120 -235.5t-184.5 -173.5t-250.5 -69q-236 0 -361 135.5t-125 401.5zM322 514q0 -348 274 -348q113 0 201 90t133 221t67.5 247t22.5 196 q0 348 -275 348q-113 0 -200.5 -90.5t-132.5 -221.5t-67.5 -246.5t-22.5 -195.5zM655 1530l248 272h258l-327 -272h-179z" />
<glyph unicode="&#xd4;" horiz-adv-x="1306" d="M106 514q0 100 19.5 218t69 248t120 234.5t184.5 173t251 68.5q236 0 360.5 -135t124.5 -397q0 -102 -19.5 -220t-68.5 -249t-120 -235.5t-184.5 -173.5t-250.5 -69q-236 0 -361 135.5t-125 401.5zM322 514q0 -348 274 -348q113 0 201 90t133 221t67.5 247t22.5 196 q0 348 -275 348q-113 0 -200.5 -90.5t-132.5 -221.5t-67.5 -246.5t-22.5 -195.5zM543 1530l219 272h207l123 -272h-134l-104 168l-160 -168h-151z" />
<glyph unicode="&#xd5;" horiz-adv-x="1306" d="M106 514q0 100 19.5 218t69 248t120 234.5t184.5 173t251 68.5q236 0 360.5 -135t124.5 -397q0 -102 -19.5 -220t-68.5 -249t-120 -235.5t-184.5 -173.5t-250.5 -69q-236 0 -361 135.5t-125 401.5zM322 514q0 -348 274 -348q113 0 201 90t133 221t67.5 247t22.5 196 q0 348 -275 348q-113 0 -200.5 -90.5t-132.5 -221.5t-67.5 -246.5t-22.5 -195.5zM543 1610q55 90 96 130t100 40q47 0 113 -49.5t88 -49.5q41 0 102 95l88 -64q-55 -88 -96 -128t-100 -40q-47 0 -111.5 49t-89.5 49q-43 0 -102 -94z" />
<glyph unicode="&#xd6;" horiz-adv-x="1306" d="M106 514q0 100 19.5 218t69 248t120 234.5t184.5 173t251 68.5q236 0 360.5 -135t124.5 -397q0 -102 -19.5 -220t-68.5 -249t-120 -235.5t-184.5 -173.5t-250.5 -69q-236 0 -361 135.5t-125 401.5zM322 514q0 -348 274 -348q113 0 201 90t133 221t67.5 247t22.5 196 q0 348 -275 348q-113 0 -200.5 -90.5t-132.5 -221.5t-67.5 -246.5t-22.5 -195.5zM584 1550l37 209h176l-37 -209h-176zM885 1550l37 209h174l-37 -209h-174z" />
<glyph unicode="&#xd7;" horiz-adv-x="1093" d="M147 416l302 278l-201 281l133 96l190 -264l287 266l111 -117l-303 -280l204 -279l-135 -96l-190 262l-287 -264z" />
<glyph unicode="&#xd8;" horiz-adv-x="1306" d="M23 0l151 193q-68 123 -68 321q0 100 19.5 218t69 248t120 234.5t184.5 173t251 68.5q213 0 337 -115l74 93h158l-154 -193q70 -127 70 -317q0 -102 -19.5 -220t-68.5 -249t-120 -235.5t-184.5 -173.5t-250.5 -69q-219 0 -340 113l-72 -90h-157zM322 514q0 -76 10 -125 l624 787q-70 92 -211 92q-113 0 -200.5 -90.5t-132.5 -221.5t-67.5 -246.5t-22.5 -195.5zM385 258q70 -92 211 -92q113 0 201 90t133 221t67.5 247t22.5 196q0 59 -10 124z" />
<glyph unicode="&#xd9;" horiz-adv-x="1228" d="M113.5 306.5q-9.5 99.5 15.5 211.5l164 916h209l-166 -945q-12 -90 -11 -160.5t51 -115.5t150 -45q145 0 220 86t102 235l166 945h211l-168 -945q-41 -240 -164 -376t-375 -136q-139 0 -230 42t-128 115t-46.5 172.5zM532 1802h232l162 -272h-156z" />
<glyph unicode="&#xda;" horiz-adv-x="1228" d="M113.5 306.5q-9.5 99.5 15.5 211.5l164 916h209l-166 -945q-12 -90 -11 -160.5t51 -115.5t150 -45q145 0 220 86t102 235l166 945h211l-168 -945q-41 -240 -164 -376t-375 -136q-139 0 -230 42t-128 115t-46.5 172.5zM614 1530l248 272h258l-327 -272h-179z" />
<glyph unicode="&#xdb;" horiz-adv-x="1228" d="M113.5 306.5q-9.5 99.5 15.5 211.5l164 916h209l-166 -945q-12 -90 -11 -160.5t51 -115.5t150 -45q145 0 220 86t102 235l166 945h211l-168 -945q-41 -240 -164 -376t-375 -136q-139 0 -230 42t-128 115t-46.5 172.5zM500 1530l219 272h207l123 -272h-134l-104 168 l-160 -168h-151z" />
<glyph unicode="&#xdc;" horiz-adv-x="1228" d="M113.5 306.5q-9.5 99.5 15.5 211.5l164 916h209l-166 -945q-12 -90 -11 -160.5t51 -115.5t150 -45q145 0 220 86t102 235l166 945h211l-168 -945q-41 -240 -164 -376t-375 -136q-139 0 -230 42t-128 115t-46.5 172.5zM543 1550l37 209h176l-37 -209h-176zM844 1550 l37 209h174l-37 -209h-174z" />
<glyph unicode="&#xdd;" horiz-adv-x="1103" d="M166 1434h221l176 -672l410 672h246l-574 -863l-100 -571h-209l98 569zM549 1530l248 272h258l-328 -272h-178z" />
<glyph unicode="&#xde;" horiz-adv-x="1155" d="M51 0l254 1434h209l-43 -248h197q436 -1 436 -363q0 -244 -147.5 -387t-409.5 -143h-232l-53 -293h-211zM346 477h201q152 0 246 86t94 244q0 195 -232 194h-215z" />
<glyph unicode="&#xdf;" horiz-adv-x="1185" d="M23 0l178 1008q43 240 167 344t357 104q492 0 405 -463l-4 -24l-122 -117q-117 78 -205 78q-57 0 -98.5 -38t-41.5 -99q0 -33 10.5 -58.5t41 -48t45 -31t63.5 -32.5q119 -66 177.5 -137.5t58.5 -182.5q0 -150 -96.5 -238t-247.5 -88q-193 0 -381 148l102 143 q57 -49 134 -85t134.5 -36t102.5 39t45 107q0 16 -4 31.5t-9.5 26.5t-18.5 24.5t-19 20.5t-26.5 20.5t-27 17.5t-33 19.5t-32.5 19.5q-111 66 -167 131.5t-56 175.5q0 141 91 229.5t238 88.5q78 0 154 -27q8 115 -44 166t-175 51q-131 0 -211 -66.5t-111 -240.5l-172 -981 h-202z" />
<glyph unicode="&#xe0;" d="M63 334q0 311 124 537.5t323 226.5q139 0 281 -164l24 141h203l-191 -1075h-200l26 156q-178 -178 -336 -179q-111 0 -182.5 90.5t-71.5 266.5zM272 365q0 -100 33 -156.5t94 -56.5q74 0 141.5 48t145.5 136l74 428q-96 160 -211 160q-82 0 -147.5 -89.5t-97.5 -215 t-32 -254.5zM422 1493h231l162 -272h-156z" />
<glyph unicode="&#xe1;" horiz-adv-x="1058" d="M63 334q0 311 124 537.5t323 226.5q139 0 281 -164l24 141h203l-191 -1075h-200l26 156q-178 -178 -336 -179q-111 0 -182.5 90.5t-71.5 266.5zM272 365q0 -100 33 -156.5t94 -56.5q74 0 141.5 48t145.5 136l74 428q-96 160 -211 160q-82 0 -147.5 -89.5t-97.5 -215 t-32 -254.5zM477 1221l248 272h258l-328 -272h-178z" />
<glyph unicode="&#xe2;" d="M63 334q0 311 124 537.5t323 226.5q139 0 281 -164l24 141h203l-191 -1075h-200l26 156q-178 -178 -336 -179q-111 0 -182.5 90.5t-71.5 266.5zM272 365q0 -100 33 -156.5t94 -56.5q74 0 141.5 48t145.5 136l74 428q-96 160 -211 160q-82 0 -147.5 -89.5t-97.5 -215 t-32 -254.5zM387 1221l219 272h207l123 -272h-133l-105 168l-159 -168h-152z" />
<glyph unicode="&#xe3;" d="M63 334q0 311 124 537.5t323 226.5q139 0 281 -164l24 141h203l-191 -1075h-200l26 156q-178 -178 -336 -179q-111 0 -182.5 90.5t-71.5 266.5zM272 365q0 -100 33 -156.5t94 -56.5q74 0 141.5 48t145.5 136l74 428q-96 160 -211 160q-82 0 -147.5 -89.5t-97.5 -215 t-32 -254.5zM393 1300q55 90 96 130t101 40q49 0 112.5 -49t88.5 -49q41 0 102 94l88 -63q-55 -88 -96 -128t-101 -40q-47 0 -111.5 49t-88.5 49q-44 0 -103 -94z" />
<glyph unicode="&#xe4;" d="M63 334q0 311 124 537.5t323 226.5q139 0 281 -164l24 141h203l-191 -1075h-200l26 156q-178 -178 -336 -179q-111 0 -182.5 90.5t-71.5 266.5zM272 365q0 -100 33 -156.5t94 -56.5q74 0 141.5 48t145.5 136l74 428q-96 160 -211 160q-82 0 -147.5 -89.5t-97.5 -215 t-32 -254.5zM436 1241l37 209h176l-37 -209h-176zM737 1241l37 209h174l-37 -209h-174z" />
<glyph unicode="&#xe5;" d="M63 334q0 311 124 537.5t323 226.5q139 0 281 -164l24 141h203l-191 -1075h-200l26 156q-178 -178 -336 -179q-111 0 -182.5 90.5t-71.5 266.5zM272 365q0 -100 33 -156.5t94 -56.5q74 0 141.5 48t145.5 136l74 428q-96 160 -211 160q-82 0 -147.5 -89.5t-97.5 -215 t-32 -254.5zM496 1405q0 84 59 144.5t145 60.5q84 0 144.5 -60.5t60.5 -144.5q0 -86 -60.5 -145.5t-144.5 -59.5q-86 0 -145 59.5t-59 145.5zM602 1405q0 -41 28.5 -69.5t69.5 -28.5t70 28.5t29 69.5t-29 69.5t-70 28.5t-69.5 -28.5t-28.5 -69.5z" />
<glyph unicode="&#xe6;" horiz-adv-x="1601" d="M63 334q0 311 124 537.5t323 226.5q139 0 281 -164l24 141h203l-4 -24q98 47 211 47q147 0 232 -76t85 -201q0 -186 -147.5 -277t-409.5 -91h-90v-41q0 -270 172 -271q31 0 63.5 7.5t72.5 27t61.5 29.5t70.5 37.5t56 31.5l65 -145q-233 -152 -432 -152q-115 0 -190 58 l-7 -35h-200l26 156q-178 -178 -336 -179q-111 0 -182.5 90.5t-71.5 266.5zM272 365q0 -100 33 -156.5t94 -56.5q74 0 141.5 48t145.5 136l4 31v49q0 190 68 352q-96 156 -209 156q-82 0 -147.5 -89.5t-97.5 -215t-32 -254.5zM911 582h84q172 0 263.5 63.5t91.5 165.5 q0 59 -38.5 94t-99.5 35q-111 0 -190.5 -101.5t-110.5 -256.5z" />
<glyph unicode="&#xe7;" horiz-adv-x="894" d="M61 397q0 324 142.5 512.5t326.5 188.5q41 0 82 -9.5t70 -18.5t69 -31.5t54 -31t53 -35t41 -28.5l-102 -143q-6 4 -32 23.5t-44.5 31.5t-46 27.5t-55 23.5t-54.5 8q-119 0 -208 -146t-89 -351q0 -123 42 -190.5t122 -67.5q31 0 71 14t68.5 28.5t70.5 38t52 29.5l68 -161 q-227 -121 -346 -129q27 -70 26 -130q0 -98 -57 -153t-147 -55q-87 0 -146 39l64 114q39 -25 82 -24q41 0 69.5 26.5t28.5 85.5q0 41 -17 101q-119 25 -188.5 131t-69.5 282z" />
<glyph unicode="&#xe8;" horiz-adv-x="972" d="M61 416q0 297 146.5 489.5t388.5 192.5q147 0 232 -76t85 -201q0 -186 -147.5 -277t-409.5 -91h-90v-41q0 -270 172 -271q31 0 64 7.5t72.5 27t61 29.5t71 37.5t55.5 31.5l65 -145q-233 -152 -432 -152q-156 0 -245 110t-89 329zM283 582h84q172 0 263 63.5t91 165.5 q0 59 -38 94t-99 35q-111 0 -191 -101.5t-110 -256.5zM383 1493h231l162 -272h-155z" />
<glyph unicode="&#xe9;" horiz-adv-x="972" d="M61 416q0 297 146.5 489.5t388.5 192.5q147 0 232 -76t85 -201q0 -186 -147.5 -277t-409.5 -91h-90v-41q0 -270 172 -271q31 0 64 7.5t72.5 27t61 29.5t71 37.5t55.5 31.5l65 -145q-233 -152 -432 -152q-156 0 -245 110t-89 329zM283 582h84q172 0 263 63.5t91 165.5 q0 59 -38 94t-99 35q-111 0 -191 -101.5t-110 -256.5zM467 1221l248 272h258l-328 -272h-178z" />
<glyph unicode="&#xea;" horiz-adv-x="972" d="M61 416q0 297 146.5 489.5t388.5 192.5q147 0 232 -76t85 -201q0 -186 -147.5 -277t-409.5 -91h-90v-41q0 -270 172 -271q31 0 64 7.5t72.5 27t61 29.5t71 37.5t55.5 31.5l65 -145q-233 -152 -432 -152q-156 0 -245 110t-89 329zM283 582h84q172 0 263 63.5t91 165.5 q0 59 -38 94t-99 35q-111 0 -191 -101.5t-110 -256.5zM350 1221l219 272h207l123 -272h-133l-104 168l-160 -168h-152z" />
<glyph unicode="&#xeb;" horiz-adv-x="970" d="M61 416q0 297 146.5 489.5t388.5 192.5q147 0 232 -76t85 -201q0 -186 -147.5 -277t-409.5 -91h-90v-41q0 -270 172 -271q31 0 64 7.5t72.5 27t61 29.5t71 37.5t55.5 31.5l65 -145q-233 -152 -432 -152q-156 0 -245 110t-89 329zM283 582h84q172 0 263 63.5t91 165.5 q0 59 -38 94t-99 35q-111 0 -191 -101.5t-110 -256.5zM395 1241l37 209h176l-37 -209h-176zM696 1241l37 209h174l-37 -209h-174z" />
<glyph unicode="&#xec;" horiz-adv-x="464" d="M23 0l190 1075h201l-191 -1075h-200zM96 1493h232l161 -272h-155z" />
<glyph unicode="&#xed;" horiz-adv-x="464" d="M23 0l190 1075h201l-191 -1075h-200zM180 1221l248 272h258l-328 -272h-178z" />
<glyph unicode="&#xee;" horiz-adv-x="464" d="M23 0l190 1075h201l-191 -1075h-200zM63 1221l220 272h206l123 -272h-133l-104 168l-160 -168h-152z" />
<glyph unicode="&#xef;" horiz-adv-x="464" d="M23 0l190 1075h201l-191 -1075h-200zM106 1241l37 209h176l-36 -209h-177zM408 1241l36 209h174l-36 -209h-174z" />
<glyph unicode="&#xf0;" horiz-adv-x="1075" d="M53 393q0 242 136.5 412t334.5 170q70 0 127.5 -23.5t89 -59.5t45 -57.5t19.5 -35.5q-12 301 -176 413l-97 -92h-184l146 142l-39 2q-33 0 -68 -5.5t-55 -9.5l-19 -4l2 168q68 20 160 21q86 0 170 -27l90 86h185l-156 -150q229 -172 229 -593q0 -344 -147.5 -558.5 t-399.5 -214.5q-186 0 -289.5 111t-103.5 305zM262 387q0 -242 197 -242q102 0 175 73t101.5 164t28.5 185q0 111 -50 175.5t-151 64.5q-139 0 -220 -129t-81 -291z" />
<glyph unicode="&#xf1;" horiz-adv-x="1056" d="M23 0l190 1075h201l-25 -139q203 162 363 162q131 0 184 -89t25 -247l-136 -762h-202l131 735q31 193 -92 193q-70 0 -155 -50.5t-149 -111.5l-133 -766h-202zM369 1300q55 90 96 130t100 40q49 0 112.5 -49t88.5 -49q41 0 102 94l88 -63q-55 -88 -96 -128t-100 -40 q-47 0 -111.5 49t-89.5 49q-43 0 -102 -94z" />
<glyph unicode="&#xf2;" horiz-adv-x="1058" d="M63 395q0 123 31 244t89.5 225.5t158.5 169t225 64.5q178 0 290 -103.5t112 -314.5q0 -123 -31 -244t-89 -225.5t-158.5 -169t-225.5 -64.5q-178 0 -290 103.5t-112 314.5zM266 391q0 -248 201 -248q74 0 134.5 57.5t94 144.5t52 175t18.5 164q0 248 -201 248 q-74 0 -134 -57.5t-94 -144.5t-52.5 -175t-18.5 -164zM395 1493h232l161 -272h-155z" />
<glyph unicode="&#xf3;" horiz-adv-x="1058" d="M63 395q0 123 31 244t89.5 225.5t158.5 169t225 64.5q178 0 290 -103.5t112 -314.5q0 -123 -31 -244t-89 -225.5t-158.5 -169t-225.5 -64.5q-178 0 -290 103.5t-112 314.5zM266 391q0 -248 201 -248q74 0 134.5 57.5t94 144.5t52 175t18.5 164q0 248 -201 248 q-74 0 -134 -57.5t-94 -144.5t-52.5 -175t-18.5 -164zM477 1221l248 272h258l-328 -272h-178z" />
<glyph unicode="&#xf4;" horiz-adv-x="1058" d="M63 395q0 123 31 244t89.5 225.5t158.5 169t225 64.5q178 0 290 -103.5t112 -314.5q0 -123 -31 -244t-89 -225.5t-158.5 -169t-225.5 -64.5q-178 0 -290 103.5t-112 314.5zM266 391q0 -248 201 -248q74 0 134.5 57.5t94 144.5t52 175t18.5 164q0 248 -201 248 q-74 0 -134 -57.5t-94 -144.5t-52.5 -175t-18.5 -164zM362 1221l220 272h206l123 -272h-133l-104 168l-160 -168h-152z" />
<glyph unicode="&#xf5;" horiz-adv-x="1058" d="M63 395q0 123 31 244t89.5 225.5t158.5 169t225 64.5q178 0 290 -103.5t112 -314.5q0 -123 -31 -244t-89 -225.5t-158.5 -169t-225.5 -64.5q-178 0 -290 103.5t-112 314.5zM266 391q0 -248 201 -248q74 0 134.5 57.5t94 144.5t52 175t18.5 164q0 248 -201 248 q-74 0 -134 -57.5t-94 -144.5t-52.5 -175t-18.5 -164zM367 1300q55 90 96 130t100 40q47 0 112.5 -49t88.5 -49q41 0 102 94l88 -63q-55 -88 -96 -128t-100 -40q-47 0 -111.5 49t-89.5 49q-43 0 -102 -94z" />
<glyph unicode="&#xf6;" horiz-adv-x="1058" d="M63 395q0 123 31 244t89.5 225.5t158.5 169t225 64.5q178 0 290 -103.5t112 -314.5q0 -123 -31 -244t-89 -225.5t-158.5 -169t-225.5 -64.5q-178 0 -290 103.5t-112 314.5zM266 391q0 -248 201 -248q74 0 134.5 57.5t94 144.5t52 175t18.5 164q0 248 -201 248 q-74 0 -134 -57.5t-94 -144.5t-52.5 -175t-18.5 -164zM406 1241l36 209h176l-36 -209h-176zM707 1241l36 209h175l-37 -209h-174z" />
<glyph unicode="&#xf7;" horiz-adv-x="1085" d="M115 600l28 164h848l-28 -164h-848zM379 336q0 47 32.5 81t80 34t80 -34t32.5 -81q0 -45 -33.5 -79t-78.5 -34q-47 0 -80 33t-33 80zM500 1030q0 47 32.5 80t79.5 33t81 -33t34 -80t-34 -81t-81 -34t-79.5 34t-32.5 81z" />
<glyph unicode="&#xf8;" horiz-adv-x="1058" d="M2 0l121 147q-59 102 -60 248q0 123 31 244t89.5 225.5t158.5 169t225 64.5q166 0 271 -86l53 63h133l-119 -143q63 -98 64 -252q0 -123 -31 -244t-89 -225.5t-158.5 -169t-225.5 -64.5q-172 0 -275 89l-53 -66h-135zM266 391q0 -47 4 -67l449 542q-49 66 -154 66 q-74 0 -134 -57.5t-94 -144.5t-52.5 -175t-18.5 -164zM311 211q50 -68 156 -68q74 0 134.5 57.5t94 144.5t52 175t18.5 164q0 37 -6 72z" />
<glyph unicode="&#xf9;" horiz-adv-x="1056" d="M70 311l135 764h203l-132 -733q-33 -195 93 -195q70 0 154.5 50.5t146.5 107.5l137 770h201l-189 -1075h-203l25 137q-207 -160 -362 -160q-131 0 -183.5 88.5t-25.5 245.5zM389 1493h232l161 -272h-155z" />
<glyph unicode="&#xfa;" horiz-adv-x="1056" d="M70 311l135 764h203l-132 -733q-33 -195 93 -195q70 0 154.5 50.5t146.5 107.5l137 770h201l-189 -1075h-203l25 137q-207 -160 -362 -160q-131 0 -183.5 88.5t-25.5 245.5zM473 1221l248 272h258l-328 -272h-178z" />
<glyph unicode="&#xfb;" horiz-adv-x="1056" d="M70 311l135 764h203l-132 -733q-33 -195 93 -195q70 0 154.5 50.5t146.5 107.5l137 770h201l-189 -1075h-203l25 137q-207 -160 -362 -160q-131 0 -183.5 88.5t-25.5 245.5zM356 1221l219 272h207l123 -272h-133l-104 168l-160 -168h-152z" />
<glyph unicode="&#xfc;" horiz-adv-x="1056" d="M70 311l135 764h203l-132 -733q-33 -195 93 -195q70 0 154.5 50.5t146.5 107.5l137 770h201l-189 -1075h-203l25 137q-207 -160 -362 -160q-131 0 -183.5 88.5t-25.5 245.5zM399 1241l37 209h176l-37 -209h-176zM700 1241l37 209h174l-37 -209h-174z" />
<glyph unicode="&#xfd;" horiz-adv-x="976" d="M-31 -274q121 49 186.5 98t120.5 141l-157 1110h211l84 -823l377 823h221l-531 -1075q-45 -90 -66.5 -129t-62.5 -98.5t-82 -90t-105.5 -64.5t-150.5 -60zM434 1221l248 272h258l-328 -272h-178z" />
<glyph unicode="&#xfe;" horiz-adv-x="1060" d="M-51 -418l338 1911h200l-98 -551q168 156 313 156q121 0 197 -90t76 -267q0 -199 -51.5 -370.5t-152.5 -282.5t-232 -111q-150 0 -291 160l-96 -555h-203zM279 311q100 -160 221 -159q80 0 142.5 88t93 214t30.5 255q0 215 -145 215q-109 0 -263 -158z" />
<glyph unicode="&#xff;" horiz-adv-x="976" d="M-31 -274q121 49 186.5 98t120.5 141l-157 1110h211l84 -823l377 823h221l-531 -1075q-45 -90 -66.5 -129t-62.5 -98.5t-82 -90t-105.5 -64.5t-150.5 -60zM358 1241l37 209h176l-36 -209h-177zM659 1241l37 209h174l-36 -209h-175z" />
<glyph unicode="&#x152;" horiz-adv-x="1886" d="M106 514q0 100 19.5 218t69 248t120 234.5t184 173t251.5 68.5q246 0 368 -145l23 123h786l-33 -189h-577l-76 -436h475l-35 -184h-473l-78 -437h588l-32 -188h-799l14 86q-135 -109 -309 -109q-236 0 -361 135.5t-125 401.5zM322 514q0 -348 274 -348q113 0 201 90 t133 221t67.5 247t22.5 196q0 348 -275 348q-113 0 -200.5 -90.5t-132.5 -221.5t-67.5 -246.5t-22.5 -195.5z" />
<glyph unicode="&#x153;" horiz-adv-x="1662" d="M63 395q0 123 31 244t89.5 225.5t158.5 169t225 64.5q244 0 344 -176q147 176 375 176q147 0 232.5 -76t85.5 -201q0 -186 -147.5 -277t-409.5 -91h-91v-41q0 -270 172 -271q31 0 64 7.5t73 27t61.5 29.5t70.5 37.5t55 31.5l66 -145q-233 -152 -432 -152t-283 168 q-133 -168 -338 -168q-178 0 -290 103.5t-112 314.5zM266 391q0 -248 201 -248q74 0 134.5 57.5t94 144.5t52 175t18.5 164q0 248 -201 248q-74 0 -134 -57.5t-94 -144.5t-52.5 -175t-18.5 -164zM973 582h84q172 0 263 63.5t91 165.5q0 59 -38 94t-99 35 q-111 0 -190.5 -101.5t-110.5 -256.5z" />
<glyph unicode="&#x178;" horiz-adv-x="1103" d="M166 1434h221l176 -672l410 672h246l-574 -863l-100 -571h-209l98 569zM475 1550l37 209h176l-37 -209h-176zM776 1550l37 209h174l-37 -209h-174z" />
<glyph unicode="&#x2c6;" horiz-adv-x="485" d="M182 1221l219 272h207l123 -272h-133l-104 168l-160 -168h-152z" />
<glyph unicode="&#x2dc;" horiz-adv-x="505" d="M195 1300q55 90 96 130t100 40q47 0 112.5 -49t88.5 -49q41 0 102 94l88 -63q-55 -88 -96 -128t-100 -40q-47 0 -111.5 49t-89.5 49q-43 0 -102 -94z" />
<glyph unicode="&#x2000;" horiz-adv-x="959" />
<glyph unicode="&#x2001;" horiz-adv-x="1919" />
<glyph unicode="&#x2002;" horiz-adv-x="959" />
<glyph unicode="&#x2003;" horiz-adv-x="1919" />
<glyph unicode="&#x2004;" horiz-adv-x="639" />
<glyph unicode="&#x2005;" horiz-adv-x="479" />
<glyph unicode="&#x2006;" horiz-adv-x="319" />
<glyph unicode="&#x2007;" horiz-adv-x="319" />
<glyph unicode="&#x2008;" horiz-adv-x="239" />
<glyph unicode="&#x2009;" horiz-adv-x="383" />
<glyph unicode="&#x200a;" horiz-adv-x="106" />
<glyph unicode="&#x2010;" horiz-adv-x="761" d="M104 496l31 176h508l-31 -176h-508z" />
<glyph unicode="&#x2011;" horiz-adv-x="761" d="M104 496l31 176h508l-31 -176h-508z" />
<glyph unicode="&#x2012;" horiz-adv-x="761" d="M104 496l31 176h508l-31 -176h-508z" />
<glyph unicode="&#x2013;" horiz-adv-x="976" d="M104 496l31 174h725l-31 -174h-725z" />
<glyph unicode="&#x2014;" horiz-adv-x="1150" d="M104 496l31 174h899l-30 -174h-900z" />
<glyph unicode="&#x2018;" horiz-adv-x="454" d="M170 905l35 299l227 269l47 -74l-143 -217h96l-47 -277h-215z" />
<glyph unicode="&#x2019;" horiz-adv-x="440" d="M166 940l143 217h-96l47 277h215l-35 -299l-227 -269z" />
<glyph unicode="&#x201a;" horiz-adv-x="471" d="M-27 -217l144 217h-97l48 276h215l-35 -299l-228 -268z" />
<glyph unicode="&#x201c;" horiz-adv-x="802" d="M170 905l35 299l227 269l47 -74l-143 -217h96l-47 -277h-215zM518 905l35 299l227 269l47 -74l-143 -217h96l-47 -277h-215z" />
<glyph unicode="&#x201d;" horiz-adv-x="788" d="M166 940l143 217h-96l47 277h215l-35 -299l-227 -269zM514 940l143 217h-96l47 277h215l-35 -299l-227 -269z" />
<glyph unicode="&#x201e;" horiz-adv-x="819" d="M-27 -217l144 217h-97l48 276h215l-35 -299l-228 -268zM322 -217l143 217h-96l47 276h215l-35 -299l-227 -268z" />
<glyph unicode="&#x2022;" horiz-adv-x="866" d="M150 583.5q0 114.5 80.5 196.5t195.5 82t197 -82t82 -196.5t-82 -195.5t-197 -81t-195.5 81t-80.5 195.5z" />
<glyph unicode="&#x2026;" horiz-adv-x="1228" d="M20 0l48 276h217l-49 -276h-216zM401 0l48 276h217l-50 -276h-215zM782 0l47 276h218l-50 -276h-215z" />
<glyph unicode="&#x202f;" horiz-adv-x="383" />
<glyph unicode="&#x2039;" horiz-adv-x="677" d="M45 500l23 133l585 448l-41 -235l-397 -295l295 -291l-37 -207z" />
<glyph unicode="&#x203a;" horiz-adv-x="677" d="M10 51l41 236l398 295l-295 290l36 207l428 -446l-22 -133z" />
<glyph unicode="&#x205f;" horiz-adv-x="479" />
<glyph unicode="&#x20ac;" horiz-adv-x="1230" d="M68 487l22 125h94q6 100 25 197h-84l22 127h93q72 238 217 379t331 141q90 0 181.5 -37t141.5 -73.5t134 -104.5l-119 -151q-195 168 -321 167q-104 0 -192.5 -87t-143.5 -234h430l-22 -127h-447q-23 -102 -29 -197h441l-23 -125h-420q12 -311 203 -311q127 0 373 164 l88 -168q-309 -195 -508 -195q-170 0 -268.5 128t-104.5 382h-114z" />
<glyph unicode="&#x2122;" horiz-adv-x="1122" d="M246 1348l14 86h356l-14 -86h-131l-65 -373h-97l66 373h-129zM594 975l80 459h100l74 -275l178 275h98l-80 -459h-96l51 291l-139 -215h-57l-62 225l-51 -301h-96z" />
<glyph unicode="&#xe000;" horiz-adv-x="1075" d="M0 0v1075h1075v-1075h-1075z" />
</font>
</defs>
</svg>
