<?xml version="1.0" standalone="no"?>
<!DOCTYPE svg PUBLIC "-//W3C//DTD SVG 1.1//EN" "http://www.w3.org/Graphics/SVG/1.1/DTD/svg11.dtd" >
<svg xmlns="http://www.w3.org/2000/svg">
<metadata></metadata>
<defs>
<font id="verbexcondextralight" horiz-adv-x="1015" >
<font-face units-per-em="2048" ascent="1638" descent="-410" />
<missing-glyph horiz-adv-x="481" />
<glyph unicode="&#xfb01;" horiz-adv-x="991" d="M76 1001v74h123v209q0 209 159 209q76 0 201 -47l-33 -68q-111 37 -157 37q-86 0 -86 -121v-219h245v-74h-245v-1001h-84v1001h-123zM735 1327v160h101v-160h-101zM743 0v1075h84v-1075h-84z" />
<glyph unicode="&#xfb02;" horiz-adv-x="1013" d="M76 1001v74h123v209q0 209 159 209q76 0 201 -47l-33 -68q-111 37 -157 37q-86 0 -86 -121v-219h245v-74h-245v-1001h-84v1001h-123zM756 0v1493h84v-1493h-84z" />
<glyph unicode="&#xfb03;" horiz-adv-x="1570" d="M76 1001v74h123v209q0 209 163 209q76 0 244 -61l-37 -68q-139 51 -200 51q-86 0 -86 -121v-219h245v-74h-245v-1001h-84v1001h-123zM655 1001v74h123v209q0 209 160 209q76 0 201 -47l-33 -68q-111 37 -158 37q-86 0 -86 -121v-219h246v-74h-246v-1001h-84v1001h-123z M1315 1327v160h100v-160h-100zM1323 0v1075h84v-1075h-84z" />
<glyph unicode="&#xfb04;" horiz-adv-x="1593" d="M76 1001v74h123v209q0 209 163 209q76 0 244 -61l-37 -68q-139 51 -200 51q-86 0 -86 -121v-219h245v-74h-245v-1001h-84v1001h-123zM655 1001v74h123v209q0 209 160 209q76 0 201 -47l-33 -68q-111 37 -158 37q-86 0 -86 -121v-219h246v-74h-246v-1001h-84v1001h-123z M1335 0v1493h84v-1493h-84z" />
<glyph horiz-adv-x="2048" />
<glyph horiz-adv-x="2048" />
<glyph unicode="&#xd;" horiz-adv-x="681" />
<glyph unicode=" "  horiz-adv-x="481" />
<glyph unicode="&#x09;" horiz-adv-x="481" />
<glyph unicode="&#xa0;" horiz-adv-x="481" />
<glyph unicode="!" horiz-adv-x="499" d="M193 0v186h114v-186h-114zM199 1434h100l-23 -1028h-55z" />
<glyph unicode="&#x22;" horiz-adv-x="690" d="M145 1434h103l-19 -512h-65zM442 1434h103l-19 -512h-65z" />
<glyph unicode="#" horiz-adv-x="1292" d="M102 395v78h254l62 485h-242v78h252l51 398h76l-51 -398h364l52 398h75l-51 -398h244v-78h-254l-62 -485h244v-78h-254l-51 -395h-76l51 395h-364l-51 -395h-76l51 395h-244zM432 473h365l61 485h-364z" />
<glyph unicode="$" horiz-adv-x="1040" d="M111 131l47 72q180 -119 327 -140v648q-70 33 -104.5 51t-89.5 56t-83 75t-49.5 94t-21.5 125q0 160 100.5 250t247.5 94v184h72v-188q166 -20 324 -113l-47 -69q-139 80 -277 98v-590q80 -37 132 -68.5t113.5 -85t93.5 -125t32 -161.5q0 -174 -109.5 -265t-261.5 -96 v-182h-72v187q-186 20 -374 149zM225 1116q0 -113 63.5 -177.5t196.5 -127.5v563q-111 -4 -185.5 -69.5t-74.5 -188.5zM557 59q119 4 201 75t82 202q0 119 -72 196.5t-211 145.5v-619z" />
<glyph unicode="%" horiz-adv-x="1675" d="M96 1073q0 182 78 282.5t215 100.5q135 0 213 -100.5t78 -282.5q0 -180 -78 -282.5t-213 -102.5q-137 0 -215 102.5t-78 282.5zM182 1073q0 -141 53.5 -226t153.5 -85t153.5 85t53.5 226q0 143 -53.5 226t-153.5 83q-102 0 -154.5 -82.5t-52.5 -226.5zM485 0l621 1434h82 l-619 -1434h-84zM995 362q0 182 77 282.5t214 100.5t215 -100t78 -283q0 -180 -78 -282.5t-215 -102.5t-214 102.5t-77 282.5zM1079 362q0 -141 53.5 -226t153.5 -85t153.5 85t53.5 226q0 143 -53.5 226.5t-153.5 83.5t-153.5 -83t-53.5 -227z" />
<glyph unicode="&#x26;" horiz-adv-x="1177" d="M152 340q0 135 65.5 233.5t188.5 208.5q-51 63 -82 109.5t-58.5 121t-27.5 150.5q0 147 84 220t190 73q104 0 177 -73.5t73 -202.5q0 -117 -61.5 -209t-174.5 -199l336 -424q82 174 109 408h88q-25 -260 -139 -480l221 -276h-113l-156 195q-150 -217 -364 -218 q-152 0 -254 98.5t-102 264.5zM240 356q0 -47 13 -95t43 -95t84 -77t126 -30q184 0 311 205l-356 449q-106 -96 -163.5 -177t-57.5 -180zM328 1163q0 -63 26.5 -129.5t51 -103.5t67.5 -90q98 90 149.5 166.5t51.5 173.5q0 82 -41 138t-125 56t-132 -59.5t-48 -151.5z" />
<glyph unicode="'" horiz-adv-x="393" d="M145 1434h103l-19 -512h-65z" />
<glyph unicode="(" horiz-adv-x="544" d="M184 20v1385q0 76 5.5 111.5t30 76.5t75.5 68t143 57l31 -76q-143 -57 -170 -94t-27 -162v-1347q0 -125 27 -162t170 -94l-31 -76q-92 31 -143 57.5t-75.5 67.5t-30 76.5t-5.5 111.5z" />
<glyph unicode=")" horiz-adv-x="544" d="M76 -217q143 57 169.5 94t26.5 162v1347q0 125 -26.5 162t-169.5 94l30 76q92 -31 143.5 -57.5t76 -67.5t29.5 -76.5t5 -111.5v-1385q0 -76 -5 -111.5t-29.5 -76.5t-75.5 -67.5t-144 -57.5z" />
<glyph unicode="*" horiz-adv-x="925" d="M141 930l269 139l-267 141l41 76l254 -172l-18 303h86l-14 -301l249 168l41 -78l-270 -137l270 -141l-43 -74l-247 170l14 -303h-86l18 303l-254 -168z" />
<glyph unicode="+" horiz-adv-x="1028" d="M98 643v78h377v385h76v-385h379v-78h-379v-383h-76v383h-377z" />
<glyph unicode="," horiz-adv-x="425" d="M141 -201l68 201h-55v186h110l19 -186l-101 -238z" />
<glyph unicode="-" horiz-adv-x="757" d="M156 541v86h446v-86h-446z" />
<glyph unicode="." horiz-adv-x="423" d="M154 0v186h114v-186h-114z" />
<glyph unicode="/" horiz-adv-x="737" d="M51 -184l561 1802h78l-561 -1802h-78z" />
<glyph unicode="0" horiz-adv-x="1112" d="M139 716.5q0 360.5 104.5 550t311.5 189.5q418 0 418 -739.5t-418 -739.5q-207 0 -311.5 189.5t-104.5 550zM229 716.5q0 -659.5 326 -659.5q328 0 328 659.5t-328 659.5q-326 0 -326 -659.5z" />
<glyph unicode="1" horiz-adv-x="622" d="M68 1262l266 172h76v-1434h-91v1329l-206 -135z" />
<glyph unicode="2" horiz-adv-x="980" d="M113 0v94q0 66 9 123t35.5 109.5t43 85t64.5 81t66.5 65.5t80 69.5t75.5 64.5q129 115 200 218.5t71 216t-70 180t-188 67.5q-160 0 -307 -119l-48 68q168 133 357 133q152 0 249 -88t97 -244q0 -43 -6 -81.5t-25.5 -79.5t-30 -68t-47.5 -70t-49 -60t-61 -63.5 t-59.5 -55.5t-69 -59t-62.5 -55q-131 -117 -184 -205.5t-53 -244.5h649v-82h-737z" />
<glyph unicode="3" horiz-adv-x="995" d="M92 96l49 74q37 -31 129 -71t189 -40q135 0 226 90.5t91 239.5q0 121 -65.5 207t-152.5 121t-181 35h-43v86h53q137 0 237.5 83t100.5 220q0 111 -68.5 172t-181.5 61q-145 0 -285 -106l-43 61q147 127 336 127q154 0 242 -92t88 -223q0 -104 -61.5 -200.5t-194.5 -149.5 q137 -35 224 -142.5t87 -259.5q0 -168 -106.5 -290t-296.5 -122q-109 0 -210.5 38t-162.5 81z" />
<glyph unicode="4" horiz-adv-x="1040" d="M80 344v78l577 1012h113v-1008h182v-82h-182v-344h-88v344h-602zM170 426h512v899z" />
<glyph unicode="5" horiz-adv-x="976" d="M113 104l43 74q154 -119 295 -119q129 0 222 107.5t93 275.5q0 156 -82 262.5t-221 106.5q-119 0 -258 -96l-47 20l63 699h592v-82h-520l-39 -529q100 70 221 70q172 0 277.5 -131t105.5 -322q0 -188 -106.5 -325.5t-294.5 -137.5q-170 0 -344 127z" />
<glyph unicode="6" horiz-adv-x="1046" d="M135 567q-2 424 169 656.5t405 232.5q37 0 72.5 -5t54.5 -11l18 -6l-20 -78q-55 18 -121 18q-174 0 -312.5 -166t-169.5 -483q45 70 127 128t201 58q176 0 274.5 -133t98.5 -323q0 -199 -105.5 -338.5t-281.5 -139.5q-100 0 -181 51.5t-129.5 137.5t-74 188.5 t-25.5 212.5zM225 567q0 -209 82 -358.5t238 -149.5q141 0 220 119t79 279q0 150 -72 261t-215 111q-121 0 -212 -78.5t-120 -168.5v-15z" />
<glyph unicode="7" horiz-adv-x="847" d="M70 1352v82h725v-66q-18 -27 -47 -76t-105 -202.5t-133 -307t-104.5 -369.5t-47.5 -413h-96q0 174 42 373.5t95.5 350t123 304.5t103 217.5t60.5 106.5h-616z" />
<glyph unicode="8" horiz-adv-x="1069" d="M125 350q0 268 309 420q-242 123 -241 354q0 150 98 241t243.5 91t244 -91t98.5 -241q0 -229 -244 -354q311 -152 311 -420q0 -174 -117.5 -273.5t-292 -99.5t-292 99.5t-117.5 273.5zM217 350q0 -135 91 -213t226.5 -78t226.5 78t91 213t-89 222t-228 155 q-88 -41 -150.5 -84t-115 -121t-52.5 -172zM283 1118q0 -193 249 -303q254 111 254 303q0 109 -71.5 182.5t-180 73.5t-180 -73.5t-71.5 -182.5z" />
<glyph unicode="9" horiz-adv-x="1046" d="M113 979q0 199 105.5 338t281.5 139q133 0 229 -89t138 -219t44 -282q0 -217 -49 -391t-132 -280.5t-183.5 -162t-208.5 -55.5q-37 0 -74 5.5t-55 11.5l-19 6l23 78q53 -19 121 -19q172 0 310 166t169 484q-41 -68 -125 -127.5t-203 -59.5q-176 0 -274 133t-98 324z M201 977q0 -150 72.5 -261.5t213.5 -111.5q121 0 212.5 78t121.5 168v16q0 209 -82 358.5t-237 149.5q-141 0 -221 -118.5t-80 -278.5z" />
<glyph unicode=":" horiz-adv-x="425" d="M154 0v186h114v-186h-114zM154 733v187h114v-187h-114z" />
<glyph unicode=";" horiz-adv-x="454" d="M156 -201l67 201h-55v186h111l18 -186l-100 -238zM168 733v187h115v-187h-115z" />
<glyph unicode="&#x3c;" horiz-adv-x="1028" d="M76 645v78l827 436v-100l-735 -375l735 -375v-100z" />
<glyph unicode="=" horiz-adv-x="1028" d="M98 467v78h832v-78h-832zM98 823v78h832v-78h-832z" />
<glyph unicode="&#x3e;" horiz-adv-x="1028" d="M125 209v100l735 375l-735 375v100l827 -436v-78z" />
<glyph unicode="?" horiz-adv-x="851" d="M80 1319q164 137 350 137q135 0 233.5 -80.5t98.5 -232.5q0 -274 -354 -400l-11 -337h-71l-13 389q170 53 265.5 134t95.5 210q0 113 -71 174t-177 61q-133 0 -295 -112zM305 0v186h113v-186h-113z" />
<glyph unicode="@" horiz-adv-x="1685" d="M123 518q0 381 200.5 634t534.5 253q330 0 511 -242.5t183 -642.5q-2 -250 -85 -402.5t-226 -152.5q-182 0 -197 238q-135 -154 -280 -154q-98 0 -172 69.5t-74 227.5q0 156 74 232.5t180 76.5q31 0 72 -7t70.5 -14t74.5 -20.5t55 -15.5v139q0 113 -36.5 164t-130.5 51 q-113 0 -269 -84l-41 72q170 90 316 90q242 0 241 -276v-471q0 -51 2 -81t12.5 -74t37 -65.5t67.5 -21.5q84 0 158 112.5t74 366.5q0 360 -159 583.5t-462 223.5t-478 -234.5t-175 -576.5t171 -573.5t447 -231.5q90 0 169 23.5t114 46.5l35 22l45 -59q-14 -12 -41 -30.5 t-121 -49.5t-199 -31q-311 0 -504.5 254t-193.5 631zM598 344q0 -111 50 -164t128 -53q131 0 268 168v237q-10 2 -46.5 11.5t-63.5 15.5t-65 12.5t-66 6.5q-109 0 -157 -67t-48 -167z" />
<glyph unicode="A" horiz-adv-x="1148" d="M68 0l460 1434h95l460 -1434h-96l-125 395h-577l-123 -395h-94zM311 477h527l-265 842z" />
<glyph unicode="B" horiz-adv-x="1148" d="M197 0v1434h354q193 0 300 -92.5t107 -258.5q0 -141 -71.5 -226t-153.5 -99q45 -8 90 -29.5t93.5 -61.5t78 -115t29.5 -171q0 -180 -101.5 -280.5t-287.5 -100.5h-438zM285 82h352q147 0 223 86t76 223q0 158 -97.5 240t-277.5 82h-276v-631zM285 795h264q143 0 233 71.5 t90 210.5q0 125 -77.5 200t-233.5 75h-276v-557z" />
<glyph unicode="C" horiz-adv-x="1101" d="M135 716.5q0 370.5 128 555t321 184.5q182 0 426 -213l-58 -59q-61 53 -104 84.5t-120 68.5t-142 37q-158 0 -258.5 -175t-100.5 -482t100.5 -482.5t258.5 -175.5q66 0 143.5 37t118.5 68t106 86l56 -60q-244 -213 -426 -213q-193 0 -321 184.5t-128 555z" />
<glyph unicode="D" horiz-adv-x="1196" d="M197 0v1434h303q561 0 561 -717t-561 -717h-303zM285 82h215q244 0 355.5 155.5t111.5 479t-112 479.5t-355 156h-215v-1270z" />
<glyph unicode="E" horiz-adv-x="1019" d="M197 0v1434h698v-82h-610v-594h508v-82h-508v-594h620v-82h-708z" />
<glyph unicode="F" horiz-adv-x="968" d="M197 0v1434h698v-82h-610v-594h489v-82h-489v-676h-88z" />
<glyph unicode="G" horiz-adv-x="1200" d="M135 716.5q0 368.5 129 554t320 185.5q205 0 442 -229l-57 -62q-72 63 -109 93t-121 73t-153 43q-158 0 -258.5 -175t-100.5 -482q0 -303 100.5 -480.5t258.5 -177.5q172 0 377 238v377h-349v82h435v-756h-86v182q-201 -205 -379 -205q-190 0 -319.5 185.5t-129.5 554z " />
<glyph unicode="H" horiz-adv-x="1214" d="M197 0v1434h88v-641h645v641h90v-1434h-90v711h-645v-711h-88z" />
<glyph unicode="I" horiz-adv-x="479" d="M197 0v1434h88v-1434h-88z" />
<glyph unicode="J" horiz-adv-x="479" d="M-2 -188q145 57 172 94t27 162v1366h88v-1366q0 -88 -4.5 -124t-28 -80t-74.5 -69.5t-147 -58.5z" />
<glyph unicode="K" horiz-adv-x="1097" d="M197 0v1434h88v-869l598 869h106l-483 -693l545 -741h-111l-485 670l-170 -246v-424h-88z" />
<glyph unicode="L" horiz-adv-x="931" d="M197 0v1434h88v-1352h592v-82h-680z" />
<glyph unicode="M" horiz-adv-x="1433" d="M197 0v1434h96l424 -1074l424 1074h98v-1434h-88v1247l-399 -1007h-70l-397 1005v-1245h-88z" />
<glyph unicode="N" horiz-adv-x="1241" d="M197 0v1434h92l669 -1274v1274h89v-1434h-95l-667 1270v-1270h-88z" />
<glyph unicode="O" horiz-adv-x="1251" d="M135 717q0 160 25.5 288t81 232t153 161.5t230.5 57.5t230 -57.5t152.5 -161.5t81 -232t25.5 -288q0 -158 -25.5 -287t-81 -233.5t-152.5 -162t-230 -57.5t-230.5 57.5t-153 162t-81 233.5t-25.5 287zM227 716.5q0 -657.5 397.5 -657.5t397.5 657.5t-397.5 657.5 t-397.5 -657.5z" />
<glyph unicode="P" horiz-adv-x="1099" d="M197 0v1434h366q438 0 438 -422t-438 -422h-278v-590h-88zM285 672h286q156 0 247 81t91 259t-91 259t-247 81h-286v-680z" />
<glyph unicode="Q" horiz-adv-x="1251" d="M135 717q0 160 25.5 288t81 232t153 161.5t230.5 57.5t230 -57.5t152.5 -161.5t81 -232t25.5 -288q0 -193 -37 -342.5t-127 -257t-231 -131.5l215 -213l-66 -66l-243 270q-133 0 -230.5 57.5t-153 162t-81 233.5t-25.5 287zM227 716.5q0 -657.5 397.5 -657.5t397.5 657.5 t-397.5 657.5t-397.5 -657.5z" />
<glyph unicode="R" horiz-adv-x="1165" d="M197 0v1434h403q197 0 318.5 -92.5t121.5 -303.5q0 -346 -338 -391l338 -647h-100l-328 643h-327v-643h-88zM285 725h315q162 0 255 76t93 237.5t-92 237.5t-246 76h-325v-627z" />
<glyph unicode="S" horiz-adv-x="1030" d="M106 131l48 72q219 -143 389 -144q121 0 207 72t86 205t-87 214t-262 159q-70 33 -105.5 51t-92 57t-84 75t-50 94t-22.5 126q0 164 104.5 254t256.5 90q190 0 383 -117l-48 -69q-180 104 -335 104q-115 0 -194 -65.5t-79 -192.5q0 -66 20.5 -115t72 -88t91 -61 t123.5 -61q88 -41 140.5 -71t120 -85t101.5 -129t34 -168q0 -178 -114 -269.5t-269 -91.5q-209 0 -435 154z" />
<glyph unicode="T" horiz-adv-x="958" d="M55 1352v82h848v-82h-381v-1352h-88v1352h-379z" />
<glyph unicode="U" horiz-adv-x="1200" d="M186 451v983h88v-977q0 -186 71 -292t255 -106q96 0 161.5 30t100.5 87t49.5 125t14.5 156v977h90v-983q0 -215 -98.5 -344.5t-317.5 -129.5q-414 0 -414 474z" />
<glyph unicode="V" horiz-adv-x="1144" d="M66 1434h94l411 -1319l414 1319h96l-463 -1434h-92z" />
<glyph unicode="W" horiz-adv-x="1585" d="M86 1434h96l281 -1311l280 1311h97l280 -1311l281 1311h96l-323 -1434h-105l-278 1278l-277 -1278h-102z" />
<glyph unicode="X" horiz-adv-x="1040" d="M66 0l411 711l-391 723h102l332 -641l332 641h102l-391 -725l412 -709h-107l-348 629l-348 -629h-106z" />
<glyph unicode="Y" horiz-adv-x="1056" d="M53 1434h99l376 -785l377 785h101l-435 -869v-565h-88v569z" />
<glyph unicode="Z" horiz-adv-x="1046" d="M88 0v78l743 1274h-704v82h809v-76l-746 -1276h754v-82h-856z" />
<glyph unicode="[" horiz-adv-x="595" d="M197 -295v2013h321v-82h-233v-1849h233v-82h-321z" />
<glyph unicode="\" horiz-adv-x="737" d="M47 1618h76l563 -1802h-78z" />
<glyph unicode="]" horiz-adv-x="595" d="M78 -213h233v1849h-233v82h321v-2013h-321v82z" />
<glyph unicode="^" horiz-adv-x="1028" d="M150 739l321 695h86l322 -695h-99l-266 611l-268 -611h-96z" />
<glyph unicode="_" horiz-adv-x="1204" d="M154 -184h899v-74h-899v74z" />
<glyph unicode="`" horiz-adv-x="339" d="M-4 1493h143l205 -256h-74z" />
<glyph unicode="a" horiz-adv-x="972" d="M104 315q0 178 87.5 266.5t214.5 88.5q84 0 325 -64v168q0 125 -44 185.5t-152 60.5q-102 0 -332 -98l-39 73q229 102 373 103q279 0 278 -305v-793h-84v156q-160 -178 -338 -179q-117 0 -203 79t-86 259zM193 313q0 -131 57 -191.5t153 -60.5q172 0 328 187v289 q-227 53 -293 53q-131 0 -188 -78t-57 -199z" />
<glyph unicode="b" d="M164 0v1493h84v-573q150 178 319 178q145 0 238.5 -136.5t93.5 -424.5q0 -287 -93 -423.5t-239 -136.5q-172 0 -319 177v-154h-84zM248 252q57 -84 141 -140.5t174 -56.5q121 0 184.5 128t63.5 354q0 227 -63.5 355t-184.5 128q-90 0 -174 -56.5t-141 -140.5v-571z" />
<glyph unicode="c" horiz-adv-x="890" d="M115 538.5q0 262.5 106.5 411t261.5 148.5q25 0 51.5 -5.5t48 -11.5t47 -18t42 -20.5t41 -26t34 -23.5t33 -23.5t25.5 -19.5l-49 -61l-25 18q-25 18 -39 28.5t-44 29t-53.5 29t-54 18.5t-57.5 8q-119 0 -199.5 -131t-80.5 -350.5t81 -351.5t199 -132q27 0 57.5 8.5 t54 18.5t53.5 28.5t44.5 29t38.5 28.5l25 18l49 -61q-2 -2 -25.5 -19.5t-33 -23.5t-34 -23.5t-41 -25.5t-42 -20.5t-47 -18.5t-48 -11.5t-51.5 -5.5q-154 0 -261 149.5t-107 412z" />
<glyph unicode="d" d="M117 537q0 289 93 425t239 136q168 0 319 -178v573h84v-1493h-84v154q-154 -176 -319 -177q-145 0 -238.5 136.5t-93.5 423.5zM205 536.5q0 -227.5 62.5 -354.5t185.5 -127q88 0 172 56.5t143 140.5v571q-59 84 -143 140.5t-172 56.5q-123 0 -185.5 -128t-62.5 -355.5z " />
<glyph unicode="e" horiz-adv-x="976" d="M115 539q0 266 109.5 412.5t283.5 146.5q168 0 260 -127t92 -332l-10 -131h-645q6 -205 83 -329t197 -124q125 0 326 152l53 -62q-68 -49 -102.5 -73.5t-118.5 -59.5t-158 -35q-158 0 -264 148.5t-106 413.5zM205 584h567v24q0 206 -66 306q-70 106 -200 106 q-133 0 -212 -118t-89 -318z" />
<glyph unicode="f" horiz-adv-x="579" d="M76 1001v74h123v209q0 209 163 209q76 0 244 -61l-37 -68q-139 51 -200 51q-86 0 -86 -121v-219h245v-74h-245v-1001h-84v1001h-123z" />
<glyph unicode="g" d="M117 537q0 289 93 425t239 136q168 0 319 -178v155h84v-1175q0 -338 -311 -338q-170 0 -385 71l26 82q220 -75 352 -75h3q231 0 231 260v254q-154 -176 -319 -177q-145 0 -238.5 136.5t-93.5 423.5zM205 536.5q0 -227.5 62.5 -354.5t185.5 -127q88 0 172 56.5t143 140.5 v571q-59 84 -143 140.5t-172 56.5q-123 0 -185.5 -128t-62.5 -355.5z" />
<glyph unicode="h" horiz-adv-x="1021" d="M164 0v1493h84v-586q197 190 379 191q238 0 237 -299v-799h-84v791q0 229 -168 229q-94 0 -196.5 -67.5t-167.5 -137.5v-815h-84z" />
<glyph unicode="i" horiz-adv-x="413" d="M156 1327v160h100v-160h-100zM164 0v1075h84v-1075h-84z" />
<glyph unicode="j" horiz-adv-x="411" d="M-33 -346q143 57 170 94t27 166v1161h84v-1161q0 -59 -1 -86t-8.5 -65.5t-21.5 -56t-44 -42t-72 -43t-105 -39.5zM156 1327v160h100v-160h-100z" />
<glyph unicode="k" horiz-adv-x="862" d="M164 0v1493h84v-1051l416 633h98l-303 -440l356 -635h-92l-313 561l-162 -237v-324h-84z" />
<glyph unicode="l" horiz-adv-x="434" d="M176 0v1493h84v-1493h-84z" />
<glyph unicode="m" horiz-adv-x="1550" d="M164 0v1075h84v-172q174 195 340 195q109 0 161 -63.5t64 -145.5q61 78 154.5 143.5t195.5 65.5q123 0 176.5 -84t53.5 -215v-799h-84v791q0 229 -162 229q-88 0 -175 -66.5t-153 -152.5v-801h-84v791q0 229 -162 229q-154 0 -325 -213v-807h-84z" />
<glyph unicode="n" horiz-adv-x="1021" d="M164 0v1075h84v-168q197 190 379 191q238 0 237 -299v-799h-84v791q0 229 -168 229q-94 0 -196.5 -67.5t-167.5 -137.5v-815h-84z" />
<glyph unicode="o" d="M115 536.5q0 262.5 102 412t290.5 149.5t290 -149.5t101.5 -412t-101.5 -411t-289.5 -148.5q-190 0 -291.5 148.5t-101.5 411zM203 537q0 -481 305 -482q303 1 303 482q0 227 -73.5 355t-229.5 128q-305 0 -305 -483z" />
<glyph unicode="p" d="M164 -418v1493h84v-155q145 178 319 178q145 0 238.5 -136.5t93.5 -424.5q0 -287 -93 -423.5t-239 -136.5q-172 0 -319 177v-572h-84zM248 252q57 -84 141 -140.5t174 -56.5q121 0 184.5 128t63.5 354q0 227 -63.5 355t-184.5 128q-90 0 -174 -56.5t-141 -140.5v-571z " />
<glyph unicode="q" d="M117 537q0 289 93 425t239 136q168 0 319 -178v155h84v-1493h-84v572q-154 -176 -319 -177q-145 0 -238.5 136.5t-93.5 423.5zM205 536.5q0 -227.5 62.5 -354.5t185.5 -127q88 0 172 56.5t143 140.5v571q-59 84 -143 140.5t-172 56.5q-123 0 -185.5 -128t-62.5 -355.5z " />
<glyph unicode="r" horiz-adv-x="634" d="M164 0v1075h84v-233q8 20 16 38.5t38 63.5t64 75q36 31 94 53q45 17 93 17q15 0 31 -2v-83q-84 0 -149.5 -35t-99.5 -84t-55.5 -98.5t-25.5 -84.5l-6 -34v-668h-84z" />
<glyph unicode="s" horiz-adv-x="860" d="M98 104l45 68q172 -117 312 -117q90 0 156.5 51.5t66.5 145.5q0 55 -23.5 99t-73 76t-82 47t-89.5 38q-66 27 -104 45t-89 55t-75.5 90.5t-24.5 122.5q0 127 83 200t210 73q147 0 317 -105l-49 -65q-152 92 -270 92q-90 0 -149.5 -50t-59.5 -139q0 -68 45 -121t79.5 -69 t102.5 -41q10 -4 14 -6q168 -63 245 -143t77 -197q0 -135 -89 -206t-212 -71q-170 0 -363 127z" />
<glyph unicode="t" horiz-adv-x="620" d="M70 1001v74h123v271l83 40v-311h246v-74h-246v-825q0 -121 86 -121q72 0 181 58l37 -68q-127 -68 -224 -68q-164 0 -163 209v815h-123z" />
<glyph unicode="u" horiz-adv-x="1021" d="M158 274v801h84v-792q0 -227 168 -228q94 0 196.5 66.5t167.5 136.5v817h84v-1075h-84v168q-70 -70 -172 -130.5t-207 -60.5q-127 0 -182 84t-55 213z" />
<glyph unicode="v" horiz-adv-x="925" d="M66 1075h94l303 -958l301 958h96l-358 -1075h-80z" />
<glyph unicode="w" horiz-adv-x="1361" d="M78 1075h90l231 -954l238 954h90l234 -958l231 958h92l-278 -1075h-91l-235 942l-234 -942h-90z" />
<glyph unicode="x" horiz-adv-x="960" d="M57 0l377 541l-360 534h108l299 -461l297 461h109l-361 -534l377 -541h-108l-314 471l-315 -471h-109z" />
<glyph unicode="y" horiz-adv-x="925" d="M66 1075h94l303 -960l301 960h96l-498 -1493h-96l154 418z" />
<glyph unicode="z" horiz-adv-x="841" d="M88 0v80l561 917h-543v78h642v-80l-562 -917h562v-78h-660z" />
<glyph unicode="{" horiz-adv-x="686" d="M78 653v119q90 0 135 58.5t29 205.5l-23 191q-25 231 62.5 361t298.5 130h30v-82h-30q-305 0 -271 -383l23 -202q29 -283 -150 -338q178 -57 150 -338l-23 -203q-35 -383 271 -383h30v-82h-30q-211 0 -298 130t-63 362l23 190q16 147 -29 205.5t-135 58.5z" />
<glyph unicode="|" horiz-adv-x="468" d="M197 -252v1927h73v-1927h-73z" />
<glyph unicode="}" horiz-adv-x="688" d="M76 -211h30q305 0 271 383l-23 203q-29 283 150 338q-178 57 -150 338l23 202q35 383 -271 383h-30v82h30q211 0 298.5 -130t62.5 -361l-23 -191q-16 -147 29 -205.5t135 -58.5v-119q-90 0 -135 -58t-29 -206l23 -190q25 -231 -62.5 -361.5t-298.5 -130.5h-30v82z" />
<glyph unicode="~" horiz-adv-x="1028" d="M76 483q80 195 237 195q86 0 214 -76t198 -76q100 0 160 140l69 -31q-80 -195 -237 -195q-86 0 -214 76t-198 76q-99 0 -158 -139z" />
<glyph unicode="&#xa1;" horiz-adv-x="499" d="M195 1247v187h114v-187h-114zM203 0l22 1028h56l22 -1028h-100z" />
<glyph unicode="&#xa2;" horiz-adv-x="960" d="M131 719q0 254 101.5 401.5t248.5 157.5v156h72v-162q115 -18 285 -158l-52 -59l-24 20q-27 20 -44.5 32.5t-47 32t-59 33t-58.5 19.5v-950q90 23 233 139l52 -59q-170 -139 -285 -160v-162h-72v158q-147 10 -248.5 157.5t-101.5 403.5zM219 719q0 -209 75 -341t187 -142 v962q-113 -10 -187.5 -140t-74.5 -339z" />
<glyph unicode="&#xa3;" horiz-adv-x="940" d="M129 0v72q8 8 21.5 24.5t47 67.5t60.5 103t50.5 128t25.5 148h-187v82h181q-12 86 -87 240.5t-75 267.5q0 147 87 235t228 88q147 0 346 -125l-51 -69q-180 113 -293 112q-106 0 -167.5 -69.5t-61.5 -178.5q0 -94 76 -248.5t88 -252.5h274v-82h-270q-4 -96 -43 -203 t-71 -161t-62 -97h561v-82h-678z" />
<glyph unicode="&#xa5;" horiz-adv-x="1105" d="M78 1434h98l377 -785l377 785h100l-366 -732h268v-77h-307l-29 -60v-112h336v-78h-336v-375h-88v375h-336v78h336v116l-29 56h-307v77h268z" />
<glyph unicode="&#xa6;" horiz-adv-x="473" d="M199 -252v846h73v-846h-73zM199 829v846h73v-846h-73z" />
<glyph unicode="&#xa7;" horiz-adv-x="927" d="M123 692q0 98 53 156.5t141 81.5q-160 90 -159 254q0 127 84 199.5t211 72.5q150 0 315 -104l-47 -66q-152 92 -268 92q-94 0 -152.5 -50t-58.5 -138q0 -23 5 -44.5t11 -37.5t20.5 -32.5t24.5 -28t30.5 -24.5t30 -19.5t33 -16.5t30.5 -13t32 -11l24 -11q168 -63 246 -144 t78 -194q0 -96 -54.5 -155.5t-142.5 -81.5q160 -92 160 -252q0 -127 -83 -199.5t-210 -72.5q-152 0 -317 104l47 66q152 -92 270 -93q92 0 150.5 50.5t58.5 138.5q0 68 -45 121t-80 69.5t-102 40.5q-11 4 -15 6q-166 63 -243.5 142.5t-77.5 193.5zM209 698q0 -55 23.5 -99 t72.5 -75.5t82 -47t90 -38.5l35 -14q86 4 147.5 51t61.5 135q0 55 -24.5 99.5t-73 76t-82 46.5t-90.5 38l-35 15q-88 -4 -147.5 -51.5t-59.5 -135.5z" />
<glyph unicode="&#xa8;" horiz-adv-x="370" d="M-4 1257v160h110v-160h-110zM266 1257v160h109v-160h-109z" />
<glyph unicode="&#xa9;" horiz-adv-x="1720" d="M131 716.5q0 321.5 194.5 530.5t536.5 209t535.5 -209t193.5 -530.5t-193.5 -530.5t-535.5 -209t-536.5 209t-194.5 530.5zM209 717q0 -291 173 -478.5t478 -187.5q307 0 481.5 187.5t174.5 478.5t-174.5 478t-481.5 187q-305 0 -478 -187t-173 -478zM492 715 q0 213 102 329.5t254 116.5q162 0 342 -127l-51 -61q-51 37 -75 51t-87.5 37.5t-124.5 23.5q-119 0 -194.5 -102t-75.5 -268q0 -164 75.5 -265.5t194.5 -101.5q23 0 43 2t40.5 7t36 9.5t36 14.5t31 14t31 16.5t24.5 15.5t24 15l21 15l51 -60q-180 -127 -342 -127 q-152 0 -254 117t-102 328z" />
<glyph unicode="&#xaa;" horiz-adv-x="741" d="M121 978.5q0 106.5 55 160t137 53.5q57 0 199 -37v90q0 72 -26.5 104.5t-92.5 32.5q-63 0 -205 -55l-30 59q154 61 243 62q184 0 185 -195v-465h-74v91q-96 -104 -209 -105q-74 0 -128 49t-54 155.5zM199 981q-1 -137 120 -137q98 0 193 102v156q-104 31 -172 31 q-141 0 -141 -152z" />
<glyph unicode="&#xab;" horiz-adv-x="1169" d="M80 551v65l512 467v-106l-430 -393l430 -394v-106zM537 551v65l512 467v-106l-431 -393l431 -394v-106z" />
<glyph unicode="&#xac;" horiz-adv-x="1028" d="M33 643v78h956v-537h-86v459h-870z" />
<glyph unicode="&#xad;" horiz-adv-x="757" d="M156 541v86h446v-86h-446z" />
<glyph unicode="&#xae;" horiz-adv-x="987" d="M129 1106q0 160 97.5 264.5t267.5 104.5q168 0 266 -104.5t98 -264.5t-98 -264.5t-266 -104.5q-170 0 -267.5 104.5t-97.5 264.5zM199 1106q0 -135 75.5 -220t219 -85t219 85t75.5 220t-75.5 220t-219 85t-219 -85t-75.5 -220zM356 926v370h172q57 0 91 -29.5t34 -78.5 q0 -82 -92 -101l88 -161h-69l-84 157h-76v-157h-64zM420 1141h108q60 0 60 47q0 51 -58 51h-110v-98z" />
<glyph unicode="&#xaf;" horiz-adv-x="475" d="M0 1288v74h475v-74h-475z" />
<glyph unicode="&#xb0;" horiz-adv-x="829" d="M115 1134.5q0 122.5 88 211t211 88.5t212 -88.5t89 -211t-89 -210.5t-212 -88t-211 88t-88 210.5zM186 1134.5q0 -94.5 66.5 -160t161.5 -65.5q92 0 159.5 66.5t67.5 159.5q0 94 -67.5 160.5t-159.5 66.5q-94 0 -161 -66.5t-67 -161z" />
<glyph unicode="&#xb1;" horiz-adv-x="1028" d="M98 0v78h830v-78h-830zM98 629v78h375v344h76v-344h379v-78h-379v-346h-76v346h-375z" />
<glyph unicode="&#xb2;" horiz-adv-x="661" d="M82 788v64q0 31 3 58.5t13.5 53t18.5 44t26.5 42t27.5 35t34.5 34t35 30.5t40 31.5t36.5 29.5q168 139 168 246q0 61 -39.5 98t-109.5 37q-100 0 -195 -71l-39 57q119 86 238 86q100 0 162.5 -55.5t62.5 -151.5q0 -33 -6 -62.5t-25.5 -60t-30.5 -49t-45 -50.5t-44.5 -42 t-53.5 -46t-49 -40q-78 -63 -110.5 -113.5t-32.5 -134.5h397v-70h-483z" />
<glyph unicode="&#xb3;" horiz-adv-x="671" d="M72 852l41 59q92 -66 200 -65q80 0 133.5 49t53.5 131q0 100 -75 149.5t-167 49.5h-29v73h33q82 0 143.5 44t61.5 122q0 59 -39 93t-104 34q-88 0 -181 -63l-37 53q102 82 226 82q100 0 156.5 -56.5t56.5 -136.5q0 -63 -38 -119.5t-116 -86.5q82 -23 135.5 -86.5 t53.5 -151.5q0 -104 -67 -178t-191 -74q-127 0 -250 78z" />
<glyph unicode="&#xb4;" horiz-adv-x="339" d="M-4 1237l203 256h145l-274 -256h-74z" />
<glyph unicode="&#xb5;" horiz-adv-x="1099" d="M197 -418v1493h84v-792q0 -227 168 -228q94 0 196.5 66.5t167.5 136.5v817h84v-1075h-84v168q-70 -70 -172 -130.5t-207 -60.5q-96 0 -153 52v-447h-84z" />
<glyph unicode="&#xb6;" horiz-adv-x="1056" d="M80 1024q0 410 395 410h80v-1813h-84v993q-182 0 -286.5 107.5t-104.5 302.5zM764 -379v1813h84v-1813h-84z" />
<glyph unicode="&#xb7;" horiz-adv-x="425" d="M154 489v187h114v-187h-114z" />
<glyph unicode="&#xb8;" horiz-adv-x="280" d="M0 -301l27 72q51 -31 86 -31q102 0 102 106q0 37 -13.5 76t-25.5 62l-14 20h51q70 -84 70 -182q0 -72 -44 -115t-116 -43q-64 0 -123 35z" />
<glyph unicode="&#xb9;" horiz-adv-x="489" d="M51 1540l174 109h70v-861h-78v775l-129 -80z" />
<glyph unicode="&#xba;" horiz-adv-x="755" d="M121 1110q0 160 65.5 249t190.5 89q123 0 188.5 -89t65.5 -249q0 -158 -65.5 -247t-188.5 -89q-125 0 -190.5 89t-65.5 247zM199 1110q0 -270 178 -270t178 270q0 272 -178 272t-178 -272z" />
<glyph unicode="&#xbb;" horiz-adv-x="1169" d="M123 84v106l430 394l-430 393v106l512 -467v-65zM578 84v106l430 394l-430 393v106l512 -467v-65z" />
<glyph unicode="&#xbc;" horiz-adv-x="1323" d="M70 1325l174 109h69v-861h-77v775l-130 -80zM264 0l563 1434h80l-561 -1434h-82zM666 199v63l356 598h102v-592h115v-69h-115v-199h-77v199h-381zM745 268h302v508z" />
<glyph unicode="&#xbd;" horiz-adv-x="1378" d="M70 1325l174 109h69v-861h-77v775l-130 -80zM264 0l563 1434h80l-561 -1434h-82zM780 0v63q0 31 3 59t13.5 53.5t18.5 44t26.5 42t28 34.5t35 33.5t34.5 31t40 32t37 29.5q168 139 168 246q0 61 -40 98t-110 37q-100 0 -194 -72l-39 57q119 86 237 86q100 0 163 -55 t63 -151q0 -33 -6.5 -63t-26 -60.5t-30.5 -49t-45 -50t-44 -42t-53 -46t-49 -40.5q-78 -63 -111 -113t-33 -134h398v-70h-484z" />
<glyph unicode="&#xbe;" horiz-adv-x="1531" d="M100 637l41 59q92 -66 201 -65q80 0 133 49t53 131q0 100 -74.5 149.5t-166.5 49.5h-29v73h33q82 0 143.5 44t61.5 122q0 61 -39 94t-105 33q-88 0 -180 -63l-37 53q102 82 225 82q100 0 156.5 -56.5t56.5 -136.5q0 -63 -37.5 -119.5t-115.5 -86.5q82 -23 135 -86.5 t53 -151.5q0 -104 -66.5 -178t-191.5 -74q-127 0 -250 78zM473 0l563 1434h80l-561 -1434h-82zM872 199v63l357 598h102v-592h115v-69h-115v-199h-78v199h-381zM952 268h301v508z" />
<glyph unicode="&#xbf;" horiz-adv-x="847" d="M90 291q0 274 354 399l11 338h71l13 -389q-170 -53 -265.5 -134t-95.5 -210q0 -113 70.5 -174.5t177.5 -61.5q133 0 295 113l51 -57q-164 -137 -350 -138q-135 0 -233.5 81t-98.5 233zM434 1247v187h113v-187h-113z" />
<glyph unicode="&#xc0;" horiz-adv-x="1148" d="M68 0l460 1434h95l460 -1434h-96l-125 395h-577l-123 -395h-94zM311 477h527l-265 842zM338 1802h143l205 -256h-74z" />
<glyph unicode="&#xc1;" horiz-adv-x="1148" d="M68 0l460 1434h95l460 -1434h-96l-125 395h-577l-123 -395h-94zM311 477h527l-265 842zM463 1546l203 256h145l-274 -256h-74z" />
<glyph unicode="&#xc2;" horiz-adv-x="1148" d="M68 0l460 1434h95l460 -1434h-96l-125 395h-577l-123 -395h-94zM311 477h527l-265 842zM354 1546l160 256h121l162 -256h-72l-152 191l-147 -191h-72z" />
<glyph unicode="&#xc3;" horiz-adv-x="1148" d="M68 0l460 1434h95l460 -1434h-96l-125 395h-577l-123 -395h-94zM311 477h527l-265 842zM334 1597q31 74 61.5 110t77.5 36q45 0 110.5 -50.5t90.5 -50.5q23 0 39 18.5t43 76.5l59 -25q-33 -76 -63.5 -110.5t-77.5 -34.5q-45 0 -110.5 50t-90.5 50q-23 0 -39 -18.5 t-43 -75.5z" />
<glyph unicode="&#xc4;" horiz-adv-x="1148" d="M68 0l460 1434h95l460 -1434h-96l-125 395h-577l-123 -395h-94zM311 477h527l-265 842zM385 1567v159h111v-159h-111zM655 1567v159h109v-159h-109z" />
<glyph unicode="&#xc5;" horiz-adv-x="1148" d="M68 0l460 1434h95l460 -1434h-96l-125 395h-577l-123 -395h-94zM311 477h527l-265 842zM389 1712q0 80 53.5 135.5t133 55.5t135 -55.5t55.5 -135.5q0 -78 -55.5 -132t-135 -54t-133 54t-53.5 132zM453 1712q0 -51 35.5 -86t86.5 -35q53 0 89 35t36 86q0 53 -36.5 89 t-88 36t-87 -37t-35.5 -88z" />
<glyph unicode="&#xc6;" horiz-adv-x="1660" d="M12 0l813 1434h709v-82h-610v-594h508v-82h-508v-594h620v-82h-708v395h-504l-219 -395h-101zM379 477h457v819z" />
<glyph unicode="&#xc7;" horiz-adv-x="1101" d="M135 717q0 371 128 555t321 184q182 0 426 -213l-58 -59q-61 53 -104 84.5t-120 68.5t-142 37q-158 0 -258.5 -175t-100.5 -482t100.5 -482.5t258.5 -175.5q66 0 143.5 37t118.5 68t106 86l56 -60q-223 -193 -389 -210q53 -80 53 -158q0 -72 -44 -115t-116 -43 q-64 0 -123 35l27 72q51 -31 86 -31q102 0 102 106q0 57 -37 131q-188 8 -311 192.5t-123 547.5z" />
<glyph unicode="&#xc8;" horiz-adv-x="1019" d="M197 0v1434h698v-82h-610v-594h508v-82h-508v-594h620v-82h-708zM313 1802h144l205 -256h-74z" />
<glyph unicode="&#xc9;" horiz-adv-x="1019" d="M197 0v1434h698v-82h-610v-594h508v-82h-508v-594h620v-82h-708zM440 1546l203 256h145l-274 -256h-74z" />
<glyph unicode="&#xca;" horiz-adv-x="1019" d="M197 0v1434h698v-82h-610v-594h508v-82h-508v-594h620v-82h-708zM330 1546l159 256h121l162 -256h-72l-151 191l-148 -191h-71z" />
<glyph unicode="&#xcb;" horiz-adv-x="1019" d="M197 0v1434h698v-82h-610v-594h508v-82h-508v-594h620v-82h-708zM360 1567v159h111v-159h-111zM631 1567v159h108v-159h-108z" />
<glyph unicode="&#xcc;" horiz-adv-x="479" d="M4 1802h143l205 -256h-73zM197 0v1434h88v-1434h-88z" />
<glyph unicode="&#xcd;" horiz-adv-x="479" d="M129 1546l203 256h145l-274 -256h-74zM197 0v1434h88v-1434h-88z" />
<glyph unicode="&#xce;" horiz-adv-x="481" d="M20 1546l160 256h121l162 -256h-72l-151 191l-148 -191h-72zM197 0v1434h88v-1434h-88z" />
<glyph unicode="&#xcf;" horiz-adv-x="479" d="M49 1567v159h111v-159h-111zM197 0v1434h88v-1434h-88zM319 1567v159h109v-159h-109z" />
<glyph unicode="&#xd0;" horiz-adv-x="1200" d="M72 676v82h129v676h303q561 0 561 -717t-561 -717h-303v676h-129zM289 82h215q244 0 355.5 155.5t111.5 479t-111.5 479.5t-355.5 156h-215v-594h299v-82h-299v-594z" />
<glyph unicode="&#xd1;" horiz-adv-x="1241" d="M197 0v1434h92l669 -1274v1274h89v-1434h-95l-667 1270v-1270h-88zM391 1597q31 74 61.5 110t77.5 36q45 0 111 -50.5t90 -50.5q23 0 39 18.5t43 76.5l59 -25q-33 -76 -63.5 -110.5t-77.5 -34.5q-45 0 -110.5 50t-90.5 50q-23 0 -38.5 -18.5t-42.5 -75.5z" />
<glyph unicode="&#xd2;" horiz-adv-x="1251" d="M135 717q0 160 25.5 288t81 232t153 161.5t230.5 57.5t230 -57.5t152.5 -161.5t81 -232t25.5 -288q0 -158 -25.5 -287t-81 -233.5t-152.5 -162t-230 -57.5t-230.5 57.5t-153 162t-81 233.5t-25.5 287zM227 716.5q0 -657.5 397.5 -657.5t397.5 657.5t-397.5 657.5 t-397.5 -657.5zM389 1802h143l205 -256h-73z" />
<glyph unicode="&#xd3;" horiz-adv-x="1251" d="M135 717q0 160 25.5 288t81 232t153 161.5t230.5 57.5t230 -57.5t152.5 -161.5t81 -232t25.5 -288q0 -158 -25.5 -287t-81 -233.5t-152.5 -162t-230 -57.5t-230.5 57.5t-153 162t-81 233.5t-25.5 287zM227 716.5q0 -657.5 397.5 -657.5t397.5 657.5t-397.5 657.5 t-397.5 -657.5zM514 1546l203 256h145l-274 -256h-74z" />
<glyph unicode="&#xd4;" horiz-adv-x="1251" d="M135 717q0 160 25.5 288t81 232t153 161.5t230.5 57.5t230 -57.5t152.5 -161.5t81 -232t25.5 -288q0 -158 -25.5 -287t-81 -233.5t-152.5 -162t-230 -57.5t-230.5 57.5t-153 162t-81 233.5t-25.5 287zM227 716.5q0 -657.5 397.5 -657.5t397.5 657.5t-397.5 657.5 t-397.5 -657.5zM403 1546l160 256h121l162 -256h-72l-151 191l-148 -191h-72z" />
<glyph unicode="&#xd5;" horiz-adv-x="1251" d="M135 717q0 160 25.5 288t81 232t153 161.5t230.5 57.5t230 -57.5t152.5 -161.5t81 -232t25.5 -288q0 -158 -25.5 -287t-81 -233.5t-152.5 -162t-230 -57.5t-230.5 57.5t-153 162t-81 233.5t-25.5 287zM227 716.5q0 -657.5 397.5 -657.5t397.5 657.5t-397.5 657.5 t-397.5 -657.5zM385 1597q31 74 61.5 110t77.5 36q45 0 110.5 -50.5t90.5 -50.5q23 0 39 18.5t43 76.5l59 -25q-33 -76 -63.5 -110.5t-77.5 -34.5q-45 0 -110.5 50t-90.5 50q-23 0 -39 -18.5t-43 -75.5z" />
<glyph unicode="&#xd6;" horiz-adv-x="1251" d="M135 717q0 160 25.5 288t81 232t153 161.5t230.5 57.5t230 -57.5t152.5 -161.5t81 -232t25.5 -288q0 -158 -25.5 -287t-81 -233.5t-152.5 -162t-230 -57.5t-230.5 57.5t-153 162t-81 233.5t-25.5 287zM227 716.5q0 -657.5 397.5 -657.5t397.5 657.5t-397.5 657.5 t-397.5 -657.5zM434 1567v159h111v-159h-111zM705 1567v159h108v-159h-108z" />
<glyph unicode="&#xd7;" horiz-adv-x="1028" d="M193 979l55 51l264 -289l262 285l57 -51l-268 -291l271 -293l-58 -49l-262 287l-262 -285l-57 51l266 291z" />
<glyph unicode="&#xd8;" horiz-adv-x="1243" d="M131 717q0 160 25.5 288t81 232t153 161.5t230.5 57.5q201 0 321 -133l66 111h86l-105 -174q121 -190 121 -543q0 -158 -25.5 -287t-81 -233.5t-152.5 -162t-230 -57.5q-201 0 -320 129l-63 -106h-86l102 170q-123 190 -123 547zM223 717q0 -297 82 -461l590 987 q-98 131 -274 131q-398 0 -398 -657zM348 186q99 -127 273 -127q397 0 397 658q0 291 -80 457z" />
<glyph unicode="&#xd9;" horiz-adv-x="1200" d="M186 451v983h88v-977q0 -186 71 -292t255 -106q96 0 161.5 30t100.5 87t49.5 125t14.5 156v977h90v-983q0 -215 -98.5 -344.5t-317.5 -129.5q-414 0 -414 474zM365 1802h143l205 -256h-74z" />
<glyph unicode="&#xda;" horiz-adv-x="1200" d="M186 451v983h88v-977q0 -186 71 -292t255 -106q96 0 161.5 30t100.5 87t49.5 125t14.5 156v977h90v-983q0 -215 -98.5 -344.5t-317.5 -129.5q-414 0 -414 474zM489 1546l203 256h146l-275 -256h-74z" />
<glyph unicode="&#xdb;" horiz-adv-x="1200" d="M186 451v983h88v-977q0 -186 71 -292t255 -106q96 0 161.5 30t100.5 87t49.5 125t14.5 156v977h90v-983q0 -215 -98.5 -344.5t-317.5 -129.5q-414 0 -414 474zM379 1546l160 256h120l162 -256h-71l-152 191l-147 -191h-72z" />
<glyph unicode="&#xdc;" horiz-adv-x="1200" d="M186 451v983h88v-977q0 -186 71 -292t255 -106q96 0 161.5 30t100.5 87t49.5 125t14.5 156v977h90v-983q0 -215 -98.5 -344.5t-317.5 -129.5q-414 0 -414 474zM408 1567v159h110v-159h-110zM678 1567v159h108v-159h-108z" />
<glyph unicode="&#xdd;" horiz-adv-x="1056" d="M53 1434h99l376 -785l377 785h101l-435 -869v-565h-88v569zM418 1546l203 256h145l-274 -256h-74z" />
<glyph unicode="&#xde;" horiz-adv-x="1110" d="M197 0v1434h88v-273h278q438 0 438 -418q0 -426 -438 -426h-278v-317h-88zM285 399h286q154 0 246 83t92 261q0 336 -338 336h-286v-680z" />
<glyph unicode="&#xdf;" horiz-adv-x="1042" d="M164 0v1004q0 139 29.5 232t85 139t116 63.5t140 17.5t140 -17.5t116 -63.5t85 -139t29.5 -232v-11l-82 -41q-102 68 -198 68q-76 0 -125 -49t-49 -135q0 -45 16 -83t34.5 -60.5t56.5 -46t52.5 -30t51.5 -22.5q141 -66 209.5 -147.5t68.5 -196.5q0 -133 -78 -203 t-188 -70q-152 0 -322 127l47 64q156 -113 269 -113q76 0 132 49.5t56 143.5q0 55 -20.5 99t-60.5 76t-72.5 50.5t-79.5 38.5q-55 27 -90 46.5t-78 57t-64.5 91t-21.5 120.5q0 129 72.5 200t183.5 71q96 0 196 -54q-6 193 -80.5 263.5t-205.5 70.5q-137 0 -212 -76.5 t-75 -287.5v-1014h-84z" />
<glyph unicode="&#xe0;" horiz-adv-x="972" d="M104 315q0 178 87.5 266.5t214.5 88.5q84 0 325 -64v168q0 125 -44 185.5t-152 60.5q-102 0 -332 -98l-39 73q229 102 373 103q279 0 278 -305v-793h-84v156q-160 -178 -338 -179q-117 0 -203 79t-86 259zM193 313q0 -131 57 -191.5t153 -60.5q172 0 328 187v289 q-227 53 -293 53q-131 0 -188 -78t-57 -199zM254 1493h143l205 -256h-74z" />
<glyph unicode="&#xe1;" horiz-adv-x="972" d="M104 315q0 178 87.5 266.5t214.5 88.5q84 0 325 -64v168q0 125 -44 185.5t-152 60.5q-102 0 -332 -98l-39 73q229 102 373 103q279 0 278 -305v-793h-84v156q-160 -178 -338 -179q-117 0 -203 79t-86 259zM193 313q0 -131 57 -191.5t153 -60.5q172 0 328 187v289 q-227 53 -293 53q-131 0 -188 -78t-57 -199zM379 1237l203 256h145l-274 -256h-74z" />
<glyph unicode="&#xe2;" horiz-adv-x="972" d="M104 315q0 178 87.5 266.5t214.5 88.5q84 0 325 -64v168q0 125 -44 185.5t-152 60.5q-102 0 -332 -98l-39 73q229 102 373 103q279 0 278 -305v-793h-84v156q-160 -178 -338 -179q-117 0 -203 79t-86 259zM193 313q0 -131 57 -191.5t153 -60.5q172 0 328 187v289 q-227 53 -293 53q-131 0 -188 -78t-57 -199zM270 1237l160 256h121l162 -256h-72l-152 190l-147 -190h-72z" />
<glyph unicode="&#xe3;" horiz-adv-x="972" d="M104 315q0 178 87.5 266.5t214.5 88.5q84 0 325 -64v168q0 125 -44 185.5t-152 60.5q-102 0 -332 -98l-39 73q229 102 373 103q279 0 278 -305v-793h-84v156q-160 -178 -338 -179q-117 0 -203 79t-86 259zM193 313q0 -131 57 -191.5t153 -60.5q172 0 328 187v289 q-227 53 -293 53q-131 0 -188 -78t-57 -199zM250 1288q31 74 61.5 110t77.5 36q45 0 110.5 -50.5t90.5 -50.5q23 0 39 18.5t43 75.5l59 -24q-33 -76 -63.5 -111t-77.5 -35q-45 0 -110.5 50.5t-90.5 50.5q-23 0 -39 -18.5t-43 -75.5z" />
<glyph unicode="&#xe4;" horiz-adv-x="972" d="M104 315q0 178 87.5 266.5t214.5 88.5q84 0 325 -64v168q0 125 -44 185.5t-152 60.5q-102 0 -332 -98l-39 73q229 102 373 103q279 0 278 -305v-793h-84v156q-160 -178 -338 -179q-117 0 -203 79t-86 259zM193 313q0 -131 57 -191.5t153 -60.5q172 0 328 187v289 q-227 53 -293 53q-131 0 -188 -78t-57 -199zM301 1257v160h111v-160h-111zM571 1257v160h109v-160h-109z" />
<glyph unicode="&#xe5;" horiz-adv-x="972" d="M104 315q0 178 87.5 266.5t214.5 88.5q84 0 325 -64v168q0 125 -44 185.5t-152 60.5q-102 0 -332 -98l-39 73q229 102 373 103q279 0 278 -305v-793h-84v156q-160 -178 -338 -179q-117 0 -203 79t-86 259zM193 313q0 -131 57 -191.5t153 -60.5q172 0 328 187v289 q-227 53 -293 53q-131 0 -188 -78t-57 -199zM303 1403q0 80 53.5 135t133 55t135 -55t55.5 -135q0 -78 -55.5 -132t-135 -54t-133 54t-53.5 132zM367 1403q0 -51 35.5 -86t86.5 -35q53 0 89 35t36 86t-36.5 88t-88 37t-87 -37t-35.5 -88z" />
<glyph unicode="&#xe6;" horiz-adv-x="1558" d="M104 315.5q0 180.5 85 267.5t212 87q86 0 295 -72q6 98 33 190q-4 119 -49 175.5t-150 56.5q-100 0 -329 -98l-37 73q229 102 371 103q201 0 256 -168q109 168 299 168q168 0 260 -127t92 -332l-10 -131h-646q6 -205 83 -329t198 -124q125 0 326 152l53 -62 q-68 -49 -102.5 -73.5t-118.5 -59.5t-158 -35q-201 0 -303 216q-174 -215 -371 -216q-117 0 -203 79t-86 259.5zM193 313q0 -131 57 -191.5t153 -60.5q168 0 332 201q-37 115 -39 256q-10 4 -56 20.5t-70.5 24.5t-63.5 17.5t-70 9.5q-131 0 -187 -78t-56 -199zM786 584h568 q4 223 -67 329.5t-200 106.5q-133 0 -211.5 -118t-89.5 -318z" />
<glyph unicode="&#xe7;" horiz-adv-x="888" d="M115 539q0 262 106.5 410.5t261.5 148.5q25 0 51.5 -5.5t48 -11.5t47 -18t42 -20.5t41 -26t34 -23.5t33 -23.5t25.5 -19.5l-49 -61l-25 18q-25 18 -39 28.5t-44 29t-53.5 29t-54 18.5t-57.5 8q-119 0 -199.5 -131t-80.5 -350.5t81 -351.5t199 -132q27 0 57.5 8.5t54 18.5 t53.5 28.5t44.5 29t38.5 28.5l25 18l49 -61q-141 -106 -232 -133q-33 -10 -65 -12q51 -82 51 -158q0 -72 -44 -115t-116 -43q-64 0 -123 35l27 72q53 -31 86 -31q102 0 103 106q0 66 -39 134q-145 14 -241.5 161.5t-96.5 397.5z" />
<glyph unicode="&#xe8;" horiz-adv-x="976" d="M115 539q0 266 109.5 412.5t283.5 146.5q168 0 260 -127t92 -332l-10 -131h-645q6 -205 83 -329t197 -124q125 0 326 152l53 -62q-68 -49 -102.5 -73.5t-118.5 -59.5t-158 -35q-158 0 -264 148.5t-106 413.5zM205 584h567q4 223 -66.5 329.5t-199.5 106.5 q-133 0 -212 -118t-89 -318zM268 1493h144l204 -256h-73z" />
<glyph unicode="&#xe9;" horiz-adv-x="976" d="M115 539q0 266 109.5 412.5t283.5 146.5q168 0 260 -127t92 -332l-10 -131h-645q6 -205 83 -329t197 -124q125 0 326 152l53 -62q-68 -49 -102.5 -73.5t-118.5 -59.5t-158 -35q-158 0 -264 148.5t-106 413.5zM205 584h567q4 223 -66.5 329.5t-199.5 106.5 q-133 0 -212 -118t-89 -318zM393 1237l203 256h145l-274 -256h-74z" />
<glyph unicode="&#xea;" horiz-adv-x="976" d="M115 539q0 266 109.5 412.5t283.5 146.5q168 0 260 -127t92 -332l-10 -131h-645q6 -205 83 -329t197 -124q125 0 326 152l53 -62q-68 -49 -102.5 -73.5t-118.5 -59.5t-158 -35q-158 0 -264 148.5t-106 413.5zM205 584h567q4 223 -66.5 329.5t-199.5 106.5 q-133 0 -212 -118t-89 -318zM285 1237l159 256h121l162 -256h-72l-151 190l-148 -190h-71z" />
<glyph unicode="&#xeb;" horiz-adv-x="976" d="M115 539q0 266 109.5 412.5t283.5 146.5q168 0 260 -127t92 -332l-10 -131h-645q6 -205 83 -329t197 -124q125 0 326 152l53 -62q-68 -49 -102.5 -73.5t-118.5 -59.5t-158 -35q-158 0 -264 148.5t-106 413.5zM205 584h567q4 223 -66.5 329.5t-199.5 106.5 q-133 0 -212 -118t-89 -318zM313 1257v160h111v-160h-111zM584 1257v160h108v-160h-108z" />
<glyph unicode="&#xec;" horiz-adv-x="411" d="M-31 1493h144l204 -256h-73zM164 0v1075h84v-1075h-84z" />
<glyph unicode="&#xed;" horiz-adv-x="411" d="M96 1237l203 256h145l-274 -256h-74zM164 0v1075h84v-1075h-84z" />
<glyph unicode="&#xee;" horiz-adv-x="413" d="M-14 1237l159 256h121l162 -256h-72l-151 190l-148 -190h-71zM164 0v1075h84v-1075h-84z" />
<glyph unicode="&#xef;" horiz-adv-x="411" d="M16 1257v160h111v-160h-111zM164 0v1075h84v-1075h-84zM287 1257v160h108v-160h-108z" />
<glyph unicode="&#xf0;" horiz-adv-x="1028" d="M117 475q0 225 104.5 362.5t276.5 137.5q63 0 117.5 -18.5t87 -43t57 -50t35.5 -44.5l10 -18q-27 152 -96.5 292t-178.5 210l-135 -113h-112l176 147q-63 18 -109 19q-31 0 -61.5 -4t-46.5 -9l-15 -6l-20 72q61 25 145 25q90 0 174 -39l119 98h115l-164 -137 q143 -98 227 -307t84 -484q0 -588 -389 -588q-186 0 -293.5 135.5t-107.5 362.5zM205 475q0 -195 81 -307.5t226 -112.5q143 0 225 109.5t82 312.5t-80 311.5t-227 108.5q-145 0 -226 -114.5t-81 -307.5z" />
<glyph unicode="&#xf1;" horiz-adv-x="1021" d="M164 0v1075h84v-168q197 190 379 191q238 0 237 -299v-799h-84v791q0 229 -168 229q-94 0 -196.5 -67.5t-167.5 -137.5v-815h-84zM274 1288q31 74 62 110t78 36q45 0 110.5 -50.5t89.5 -50.5q23 0 39.5 18.5t42.5 75.5l60 -24q-33 -76 -63.5 -111t-78.5 -35 q-45 0 -110.5 50.5t-89.5 50.5q-23 0 -39 -18.5t-43 -75.5z" />
<glyph unicode="&#xf2;" d="M115 536.5q0 262.5 102 412t290.5 149.5t290 -149.5t101.5 -412t-101.5 -411t-289.5 -148.5q-190 0 -291.5 148.5t-101.5 411zM203 537q0 -481 305 -482q303 1 303 482q0 227 -73.5 355t-229.5 128q-305 0 -305 -483zM272 1493h144l205 -256h-74z" />
<glyph unicode="&#xf3;" d="M115 536.5q0 262.5 102 412t290.5 149.5t290 -149.5t101.5 -412t-101.5 -411t-289.5 -148.5q-190 0 -291.5 148.5t-101.5 411zM203 537q0 -481 305 -482q303 1 303 482q0 227 -73.5 355t-229.5 128q-305 0 -305 -483zM397 1237l203 256h145l-274 -256h-74z" />
<glyph unicode="&#xf4;" d="M115 536.5q0 262.5 102 412t290.5 149.5t290 -149.5t101.5 -412t-101.5 -411t-289.5 -148.5q-190 0 -291.5 148.5t-101.5 411zM203 537q0 -481 305 -482q303 1 303 482q0 227 -73.5 355t-229.5 128q-305 0 -305 -483zM287 1237l159 256h121l162 -256h-72l-151 190 l-148 -190h-71z" />
<glyph unicode="&#xf5;" d="M115 536.5q0 262.5 102 412t290.5 149.5t290 -149.5t101.5 -412t-101.5 -411t-289.5 -148.5q-190 0 -291.5 148.5t-101.5 411zM203 537q0 -481 305 -482q303 1 303 482q0 227 -73.5 355t-229.5 128q-305 0 -305 -483zM268 1288q31 74 61.5 110t78.5 36q45 0 110.5 -50.5 t89.5 -50.5q23 0 39.5 18.5t42.5 75.5l60 -24q-33 -76 -64 -111t-78 -35q-45 0 -110.5 50.5t-89.5 50.5q-23 0 -39 -18.5t-43 -75.5z" />
<glyph unicode="&#xf6;" d="M115 536.5q0 262.5 102 412t290.5 149.5t290 -149.5t101.5 -412t-101.5 -411t-289.5 -148.5q-190 0 -291.5 148.5t-101.5 411zM203 537q0 -481 305 -482q303 1 303 482q0 227 -73.5 355t-229.5 128q-305 0 -305 -483zM317 1257v160h111v-160h-111zM588 1257v160h108v-160 h-108z" />
<glyph unicode="&#xf7;" horiz-adv-x="1028" d="M98 643v78h832v-78h-832zM430 358q0 33 25.5 57.5t60.5 24.5t59.5 -24.5t24.5 -57.5q0 -35 -24.5 -59.5t-59.5 -24.5t-60.5 24.5t-25.5 59.5zM430 1008q0 35 25.5 59.5t60.5 24.5t59.5 -25t24.5 -59q0 -33 -24.5 -57.5t-59.5 -24.5t-60.5 24.5t-25.5 57.5z" />
<glyph unicode="&#xf8;" horiz-adv-x="1009" d="M113 536.5q0 262.5 102 412t291 149.5q145 0 246 -97l45 74h82l-82 -131q100 -149 100 -407q0 -262 -101.5 -411t-289.5 -149q-152 0 -246 95l-45 -72h-84l80 129q-98 145 -98 407.5zM201 537q0 -209 59 -328l447 721q-74 90 -201 90q-305 0 -305 -483zM303 143 q72 -88 203 -88q303 1 303 482q0 209 -59 327z" />
<glyph unicode="&#xf9;" horiz-adv-x="1021" d="M158 274v801h84v-792q0 -227 168 -228q94 0 196.5 66.5t167.5 136.5v817h84v-1075h-84v168q-70 -70 -172 -130.5t-207 -60.5q-127 0 -182 84t-55 213zM272 1493h144l205 -256h-74z" />
<glyph unicode="&#xfa;" horiz-adv-x="1021" d="M158 274v801h84v-792q0 -227 168 -228q94 0 196.5 66.5t167.5 136.5v817h84v-1075h-84v168q-70 -70 -172 -130.5t-207 -60.5q-127 0 -182 84t-55 213zM397 1237l203 256h145l-274 -256h-74z" />
<glyph unicode="&#xfb;" horiz-adv-x="1021" d="M158 274v801h84v-792q0 -227 168 -228q94 0 196.5 66.5t167.5 136.5v817h84v-1075h-84v168q-70 -70 -172 -130.5t-207 -60.5q-127 0 -182 84t-55 213zM287 1237l159 256h121l162 -256h-72l-151 190l-148 -190h-71z" />
<glyph unicode="&#xfc;" horiz-adv-x="1021" d="M158 274v801h84v-792q0 -227 168 -228q94 0 196.5 66.5t167.5 136.5v817h84v-1075h-84v168q-70 -70 -172 -130.5t-207 -60.5q-127 0 -182 84t-55 213zM317 1257v160h111v-160h-111zM588 1257v160h108v-160h-108z" />
<glyph unicode="&#xfd;" horiz-adv-x="925" d="M66 1075h94l303 -960l301 960h96l-498 -1493h-96l154 418zM352 1237l203 256h145l-274 -256h-74z" />
<glyph unicode="&#xfe;" d="M164 -418v1911h84v-573q145 178 319 178q145 0 238.5 -136.5t93.5 -424.5q0 -287 -93 -423.5t-239 -136.5q-172 0 -319 177v-572h-84zM248 252q57 -84 141 -140.5t174 -56.5q121 0 184.5 128t63.5 354q0 227 -63.5 355t-184.5 128q-90 0 -174 -56.5t-141 -140.5v-571z " />
<glyph unicode="&#xff;" horiz-adv-x="925" d="M66 1075h94l303 -960l301 960h96l-498 -1493h-96l154 418zM274 1257v160h111v-160h-111zM545 1257v160h108v-160h-108z" />
<glyph unicode="&#x152;" horiz-adv-x="1853" d="M135 717q0 160 25.5 288t81 232t153 161.5t230.5 57.5q285 0 405 -264v242h699v-82h-611v-594h508v-82h-508v-594h621v-82h-709v242q-121 -264 -405 -265q-133 0 -230.5 57.5t-153 162t-81 233.5t-25.5 287zM227 716.5q0 -657.5 397.5 -657.5t397.5 657.5t-397.5 657.5 t-397.5 -657.5z" />
<glyph unicode="&#x153;" horiz-adv-x="1675" d="M115 536.5q0 262.5 102 412t291 149.5q256 0 350 -277q47 135 138 206t212 71q168 0 260.5 -127t92.5 -332l-11 -131h-645q6 -205 83 -329t198 -124q125 0 325 152l54 -62q-68 -49 -103 -73.5t-118.5 -59.5t-157.5 -35q-106 0 -193.5 71t-134.5 204q-94 -274 -350 -275 q-190 0 -291.5 148.5t-101.5 411zM203 537q0 -481 305 -482q303 1 303 482q0 227 -73.5 355t-229.5 128q-305 0 -305 -483zM905 584h568q4 223 -67 329.5t-200 106.5q-133 0 -212 -118t-89 -318z" />
<glyph unicode="&#x178;" horiz-adv-x="1056" d="M53 1434h99l376 -785l377 785h101l-435 -869v-565h-88v569zM340 1567v159h111v-159h-111zM610 1567v159h109v-159h-109z" />
<glyph unicode="&#x2c6;" horiz-adv-x="434" d="M-4 1237l160 256h120l162 -256h-71l-152 190l-147 -190h-72z" />
<glyph unicode="&#x2dc;" horiz-adv-x="471" d="M-4 1288q31 74 61.5 110t77.5 36q45 0 110.5 -50.5t90.5 -50.5q23 0 39 18.5t43 75.5l59 -24q-33 -76 -63.5 -111t-77.5 -35q-45 0 -110.5 50.5t-90.5 50.5q-23 0 -39 -18.5t-43 -75.5z" />
<glyph unicode="&#x2000;" horiz-adv-x="951" />
<glyph unicode="&#x2001;" horiz-adv-x="1903" />
<glyph unicode="&#x2002;" horiz-adv-x="951" />
<glyph unicode="&#x2003;" horiz-adv-x="1903" />
<glyph unicode="&#x2004;" horiz-adv-x="634" />
<glyph unicode="&#x2005;" horiz-adv-x="475" />
<glyph unicode="&#x2006;" horiz-adv-x="317" />
<glyph unicode="&#x2007;" horiz-adv-x="317" />
<glyph unicode="&#x2008;" horiz-adv-x="237" />
<glyph unicode="&#x2009;" horiz-adv-x="380" />
<glyph unicode="&#x200a;" horiz-adv-x="105" />
<glyph unicode="&#x2010;" horiz-adv-x="757" d="M156 541v86h446v-86h-446z" />
<glyph unicode="&#x2011;" horiz-adv-x="757" d="M156 541v86h446v-86h-446z" />
<glyph unicode="&#x2012;" horiz-adv-x="757" d="M156 541v86h446v-86h-446z" />
<glyph unicode="&#x2013;" horiz-adv-x="976" d="M156 541v86h665v-86h-665z" />
<glyph unicode="&#x2014;" horiz-adv-x="1150" d="M156 541v86h839v-86h-839z" />
<glyph unicode="&#x2018;" horiz-adv-x="407" d="M131 1233l100 237l41 -36l-67 -201h55v-186h-110z" />
<glyph unicode="&#x2019;" horiz-adv-x="397" d="M135 1047l68 200h-56v187h111l18 -187l-100 -237z" />
<glyph unicode="&#x201a;" horiz-adv-x="425" d="M141 -201l68 201h-55v186h110l19 -186l-101 -238z" />
<glyph unicode="&#x201c;" horiz-adv-x="679" d="M131 1233l100 237l41 -36l-67 -201h55v-186h-110zM401 1233l101 237l41 -36l-68 -201h55v-186h-110z" />
<glyph unicode="&#x201d;" horiz-adv-x="667" d="M135 1047l68 200h-56v187h111l18 -187l-100 -237zM408 1047l67 200h-55v187h110l19 -187l-100 -237z" />
<glyph unicode="&#x201e;" horiz-adv-x="698" d="M141 -201l68 201h-55v186h110l19 -186l-101 -238zM414 -201l67 201h-55v186h111l18 -186l-100 -238z" />
<glyph unicode="&#x2022;" horiz-adv-x="819" d="M186 584q0 92 65.5 157.5t158 65.5t158 -65.5t65.5 -157.5t-65.5 -158t-158 -66t-158 66t-65.5 158z" />
<glyph unicode="&#x2026;" horiz-adv-x="1038" d="M154 0v186h114v-186h-114zM461 0v186h114v-186h-114zM768 0v186h115v-186h-115z" />
<glyph unicode="&#x202f;" horiz-adv-x="380" />
<glyph unicode="&#x2039;" horiz-adv-x="714" d="M80 551v65l512 467v-106l-430 -393l430 -394v-106z" />
<glyph unicode="&#x203a;" horiz-adv-x="714" d="M123 84v106l430 394l-430 393v106l512 -467v-65z" />
<glyph unicode="&#x205f;" horiz-adv-x="475" />
<glyph unicode="&#x20ac;" horiz-adv-x="1206" d="M111 494v77h106q-6 68 -6 146q0 47 4 133h-104v78h112q35 264 155 396t281 132q182 0 426 -213l-57 -59q-221 190 -366 190q-127 0 -219.5 -116.5t-125.5 -329.5h525v-78h-535q-4 -43 -4 -133q0 -78 6 -146h533v-77h-523q33 -207 124.5 -321t218.5 -114q66 0 143.5 37 t118.5 68t106 86l55 -60q-244 -213 -426 -213q-160 0 -278.5 129.5t-155.5 387.5h-114z" />
<glyph unicode="&#x2122;" horiz-adv-x="1150" d="M143 1372v62h344v-62h-139v-397h-67v397h-138zM557 975v459h70l141 -304l143 304h70v-459h-66v340l-124 -264h-43l-125 268v-344h-66z" />
<glyph unicode="&#xe000;" horiz-adv-x="1075" d="M0 0v1075h1075v-1075h-1075z" />
</font>
</defs>
</svg>
