<?xml version="1.0" standalone="no"?>
<!DOCTYPE svg PUBLIC "-//W3C//DTD SVG 1.1//EN" "http://www.w3.org/Graphics/SVG/1.1/DTD/svg11.dtd" >
<svg xmlns="http://www.w3.org/2000/svg">
<metadata></metadata>
<defs>
<font id="verbexcondmedium" horiz-adv-x="1085" >
<font-face units-per-em="2048" ascent="1638" descent="-410" />
<missing-glyph horiz-adv-x="462" />
<glyph unicode="&#xfb01;" horiz-adv-x="1112" d="M57 915v160h121v117q0 301 225 301q109 0 234 -59l-51 -156q-98 33 -131 33q-74 0 -74 -107v-129h225v-160h-225v-915h-203v915h-121zM770 1270v217h217v-217h-217zM778 0v1075h201v-1075h-201z" />
<glyph unicode="&#xfb02;" horiz-adv-x="1124" d="M57 915v160h121v117q0 301 225 301q109 0 234 -59l-51 -156q-98 33 -131 33q-74 0 -74 -107v-129h225v-160h-225v-915h-203v915h-121zM784 0v1493h203v-1493h-203z" />
<glyph unicode="&#xfb03;" horiz-adv-x="1755" d="M57 915v160h121v117q0 301 228 301q125 0 288 -76l-71 -151q-109 45 -168 45q-74 0 -74 -107v-129h225v-160h-225v-915h-203v915h-121zM702 915v160h121v117q0 301 226 301q109 0 233 -59l-51 -156q-98 33 -131 33q-74 0 -74 -107v-129h225v-160h-225v-915h-203v915h-121 zM1413 1270v217h217v-217h-217zM1421 0v1075h201v-1075h-201z" />
<glyph unicode="&#xfb04;" horiz-adv-x="1769" d="M57 915v160h121v117q0 301 228 301q125 0 288 -76l-71 -151q-109 45 -168 45q-74 0 -74 -107v-129h225v-160h-225v-915h-203v915h-121zM702 915v160h121v117q0 301 226 301q109 0 233 -59l-51 -156q-98 33 -131 33q-74 0 -74 -107v-129h225v-160h-225v-915h-203v915h-121 zM1427 0v1493h203v-1493h-203z" />
<glyph horiz-adv-x="2048" />
<glyph horiz-adv-x="2048" />
<glyph unicode="&#xd;" horiz-adv-x="681" />
<glyph unicode=" "  horiz-adv-x="462" />
<glyph unicode="&#x09;" horiz-adv-x="462" />
<glyph unicode="&#xa0;" horiz-adv-x="462" />
<glyph unicode="!" horiz-adv-x="540" d="M147 1434h246l-61 -994h-123zM162 0v262h217v-262h-217z" />
<glyph unicode="&#x22;" horiz-adv-x="753" d="M109 1434h200l-37 -541h-129zM446 1434h201l-37 -541h-129z" />
<glyph unicode="#" horiz-adv-x="1273" d="M84 352v164h227l51 399h-206v164h227l45 355h160l-45 -355h276l45 355h160l-45 -355h209v-164h-230l-51 -399h211v-164h-231l-43 -352h-160l43 352h-276l-43 -352h-160l43 352h-207zM471 516h277l51 399h-277z" />
<glyph unicode="$" horiz-adv-x="1101" d="M86 152l98 159q152 -100 297 -135v473l-43 23q-72 37 -120 66.5t-101 77.5t-79.5 114.5t-26.5 148.5q0 162 101 263.5t269 111.5v186h150v-194q176 -29 342 -123l-99 -160q-123 68 -243 94v-440l31 -14q74 -35 123 -66.5t108 -84t90 -125t31 -162.5q0 -168 -106.5 -271.5 t-276.5 -113.5v-185h-150v193q-211 33 -395 164zM332 1087q0 -66 38 -109.5t111 -84.5v371q-68 -12 -108.5 -57.5t-40.5 -119.5zM631 168q72 12 118 60t46 128q0 70 -41 120t-123 97v-405z" />
<glyph unicode="%" horiz-adv-x="1708" d="M76 1073q0 180 83 281.5t234.5 101.5t233.5 -101.5t82 -281.5t-82 -282.5t-233.5 -102.5t-234.5 102.5t-83 282.5zM233 1073q0 -246 160 -246q78 0 118 65.5t40 180.5q0 246 -158 246q-160 0 -160 -246zM467 0l610 1434h162l-610 -1434h-162zM997 362.5q0 180.5 82 281.5 t236 101q152 0 233.5 -101t81.5 -281.5t-82 -283t-233 -102.5q-154 0 -236 102.5t-82 283zM1155 362.5q0 -245.5 160 -245.5q78 0 118 65.5t40 179.5q0 246 -158 246q-160 0 -160 -245.5z" />
<glyph unicode="&#x26;" horiz-adv-x="1232" d="M125 348q0 127 64.5 223.5t179.5 194.5q-49 66 -79 112t-55.5 116.5t-25.5 142.5q0 152 94 235.5t231.5 83.5t224.5 -84t87 -217q0 -115 -61.5 -209t-172.5 -194l252 -308q63 143 76 312h205q-29 -256 -154 -467l238 -289h-238l-112 139q-158 -162 -367 -162 q-166 0 -276.5 102.5t-110.5 268.5zM324 365q0 -82 51 -152t149 -70q131 0 242 136l-287 352q-156 -145 -155 -266zM393 1130q0 -106 113 -247q156 133 156 258q0 66 -32 110.5t-97.5 44.5t-102.5 -47t-37 -119z" />
<glyph unicode="'" horiz-adv-x="415" d="M109 1434h200l-37 -541h-129z" />
<glyph unicode="(" horiz-adv-x="589" d="M145 121v1182q0 84 3.5 123.5t19.5 92t52 81t99.5 59.5t161.5 59l54 -131q-127 -53 -154 -93t-27 -157v-1249q0 -117 27 -157t154 -93l-54 -131q-98 29 -161.5 59.5t-99.5 59.5t-52 80t-19.5 91t-3.5 124z" />
<glyph unicode=")" horiz-adv-x="589" d="M55 -162q127 53 154 93t27 157v1249q0 117 -27 157t-154 93l54 131q98 -29 161.5 -59.5t99.5 -59t52 -80t19 -91t3 -123.5v-1182q0 -84 -3 -124t-19 -92t-52 -81t-99.5 -59.5t-161.5 -59.5z" />
<glyph unicode="*" horiz-adv-x="923" d="M104 948l289 107l-287 108l87 152l235 -203l-53 305h174l-51 -303l231 201l88 -154l-282 -106l282 -109l-88 -151l-229 194l49 -299h-174l53 305l-235 -200z" />
<glyph unicode="+" d="M115 602v162h346v358h162v-358h346v-162h-346v-358h-162v358h-346z" />
<glyph unicode="," horiz-adv-x="473" d="M119 -217l104 217h-96v276h213l18 -299l-178 -268z" />
<glyph unicode="-" horiz-adv-x="763" d="M127 496v176h510v-176h-510z" />
<glyph unicode="." horiz-adv-x="468" d="M127 0v276h215v-276h-215z" />
<glyph unicode="/" horiz-adv-x="790" d="M41 -184l553 1802h158l-553 -1802h-158z" />
<glyph unicode="0" horiz-adv-x="1159" d="M109 716.5q0 358.5 117.5 549t353 190.5t353.5 -190.5t118 -548.5q0 -356 -118 -548t-353.5 -192t-353 190.5t-117.5 549zM322 717q0 -565 258 -565t258 565q0 563 -258 563t-258 -563z" />
<glyph unicode="1" horiz-adv-x="712" d="M35 1235l305 199h197v-1434h-211v1221l-201 -129z" />
<glyph unicode="2" horiz-adv-x="1040" d="M86 0v123q0 86 24.5 166t51 130t90 116.5t92.5 92t109 91.5q133 113 199.5 194.5t66.5 173.5q0 82 -53.5 132.5t-143.5 50.5q-143 0 -305 -123l-100 145q207 164 430 164q178 0 281.5 -100.5t103.5 -261.5q0 -76 -27.5 -150t-55.5 -120t-97.5 -114.5t-95 -89 t-107.5 -88.5q-80 -70 -118 -108.5t-68.5 -101t-30.5 -136.5h602v-186h-848z" />
<glyph unicode="3" horiz-adv-x="1046" d="M61 129l101 154q184 -117 327 -117q106 0 175 66.5t69 177.5q0 139 -109.5 205.5t-242.5 66.5h-45v186h53q113 0 204 60.5t91 169.5q0 80 -50 126t-138 46q-131 0 -289 -111l-92 139q193 158 415 158q174 0 269.5 -95t95.5 -237q0 -104 -58.5 -194t-166.5 -139 q121 -39 198.5 -142.5t77.5 -245.5q0 -174 -108.5 -300t-321.5 -126q-238 0 -455 152z" />
<glyph unicode="4" horiz-adv-x="1128" d="M59 303v160l545 971h277v-945h178v-186h-178v-303h-209v303h-613zM262 489h410v736z" />
<glyph unicode="5" horiz-adv-x="1036" d="M80 135l98 160q164 -127 299 -127q104 0 177 80t73 207q0 121 -63.5 201.5t-180.5 80.5q-106 0 -235 -86l-115 68l64 715h698v-187h-522l-21 -362q86 35 180 35q193 0 301.5 -133.5t108.5 -329.5q0 -199 -113.5 -339.5t-324.5 -140.5q-213 0 -424 158z" />
<glyph unicode="6" horiz-adv-x="1089" d="M104 584q-2 406 186.5 639t471.5 233q43 0 85 -5t62 -11l21 -6l-49 -177q-54 17 -115 17q-152 0 -273.5 -125t-160.5 -377q117 147 295 148q172 0 275.5 -129t103.5 -324q0 -207 -119 -348.5t-318 -141.5q-154 0 -262 89.5t-155.5 223.5t-47.5 294zM317 565 q0 -178 68 -291.5t182 -113.5q109 0 168.5 90t59.5 211q0 119 -57.5 204t-166.5 85q-90 0 -157.5 -55.5t-96.5 -123.5v-6z" />
<glyph unicode="7" horiz-adv-x="897" d="M57 1247v187h801v-168q-16 -27 -46 -73t-103.5 -188.5t-130 -286t-102.5 -342t-46 -376.5h-219q0 162 41 346t93 322.5t119.5 280t101.5 199.5t61 99h-570z" />
<glyph unicode="8" horiz-adv-x="1120" d="M96 367q0 256 287 407q-215 133 -215 340q0 154 107.5 248t285.5 94t284.5 -94t106.5 -248q0 -207 -215 -340q287 -154 287 -407q0 -180 -126 -285t-337 -105t-338 105t-127 285zM309 379q0 -104 71 -166.5t181 -62.5q109 0 179.5 62.5t70.5 166.5q0 182 -252 307 q-250 -123 -250 -307zM371 1098q0 -152 188 -242q190 90 191 242q0 78 -52.5 134t-136.5 56t-137 -56t-53 -134z" />
<glyph unicode="9" horiz-adv-x="1089" d="M84 967q0 207 119 348t317 141q154 0 261.5 -89t154.5 -222t49 -295q2 -406 -186.5 -639.5t-470.5 -233.5q-43 0 -85 5.5t-63 11.5l-20 6l49 176q52 -16 115 -16q150 0 272.5 124t159.5 375q-109 -145 -293 -145q-172 0 -275.5 129t-103.5 324zM295 973q0 -119 56 -204 t165 -85q90 0 158.5 55.5t97.5 122.5v6q0 178 -66.5 292t-181.5 114q-111 0 -170 -90t-59 -211z" />
<glyph unicode=":" horiz-adv-x="485" d="M135 0v276h215v-276h-215zM135 680v276h215v-276h-215z" />
<glyph unicode=";" horiz-adv-x="505" d="M135 -217l105 217h-97v276h213l19 -299l-178 -268zM143 680v276h215v-276h-215z" />
<glyph unicode="&#x3c;" d="M92 608v152l852 426v-201l-645 -301l645 -305v-199z" />
<glyph unicode="=" d="M115 414v166h854v-166h-854zM115 791v163h854v-163h-854z" />
<glyph unicode="&#x3e;" d="M141 182v201l645 301l-645 305v199l852 -428v-152z" />
<glyph unicode="?" horiz-adv-x="905" d="M63 1307q193 150 396 149q158 0 265 -91t107 -251q0 -287 -376 -424l-15 -250h-133l-14 365q164 49 244.5 113.5t80.5 168.5q0 82 -52 132.5t-138 50.5q-113 0 -268 -105zM266 0v262h215v-262h-215z" />
<glyph unicode="@" horiz-adv-x="1660" d="M96 518q0 387 203 637t547 250q336 0 521 -242.5t187 -642.5q0 -252 -82.5 -411.5t-246.5 -159.5q-59 0 -104.5 23.5t-70 62.5t-35.5 77t-16 78q-129 -143 -274 -143q-109 0 -183.5 76t-74.5 227.5t77 230t193 78.5q74 0 260 -53v113q0 98 -32.5 141t-114.5 43 q-111 0 -275 -80l-57 119q199 94 356 94q139 0 208 -74.5t69 -236.5v-401q0 -61 2 -96t11.5 -79.5t32 -65t58.5 -20.5q80 0 142.5 113t62.5 348q0 346 -157.5 566.5t-458.5 220.5q-307 0 -480.5 -226.5t-173.5 -568.5q0 -340 167.5 -564t443.5 -224q88 0 165.5 21.5 t112.5 43.5l35 23l55 -74q-14 -12 -42.5 -30.5t-125 -48.5t-204.5 -30q-311 0 -506 252t-195 633zM623 358q0 -90 39.5 -134t105.5 -44q111 0 229 137v197q-6 2 -53 13.5t-85 18.5t-68 7q-86 0 -127 -55.5t-41 -139.5z" />
<glyph unicode="A" horiz-adv-x="1200" d="M39 0l444 1434h232l446 -1434h-227l-90 328h-490l-88 -328h-227zM403 506h392l-195 717z" />
<glyph unicode="B" horiz-adv-x="1185" d="M160 0v1434h426q219 0 332.5 -90.5t113.5 -258.5q0 -139 -68.5 -224t-146.5 -99q43 -6 86 -28.5t89 -64.5t75 -116t29 -170q0 -180 -108.5 -281.5t-323.5 -101.5h-504zM371 174h260q127 0 192.5 65.5t65.5 178.5q0 252 -305 252h-213v-496zM371 836h200q117 0 185.5 53 t68.5 162q0 98 -61.5 153.5t-183.5 55.5h-209v-424z" />
<glyph unicode="C" horiz-adv-x="1120" d="M102 716.5q0 366.5 132.5 553t345.5 186.5q121 0 230.5 -53.5t248.5 -149.5l-103 -157q-80 53 -118.5 77.5t-108.5 54t-125 29.5q-131 0 -208 -143t-77 -397t77 -397.5t208 -143.5q55 0 125 30t109 54.5t118 77.5l103 -158q-90 -63 -151.5 -100t-152.5 -70t-175 -33 q-213 0 -345.5 186.5t-132.5 553z" />
<glyph unicode="D" horiz-adv-x="1234" d="M160 0v1434h368q297 0 451 -172t154 -545t-154 -545t-451 -172h-368zM371 188h151q203 0 300.5 125t97.5 403.5t-97.5 403.5t-300.5 125h-151v-1057z" />
<glyph unicode="E" horiz-adv-x="1056" d="M160 0v1434h792v-189h-581v-436h479v-184h-479v-437h592v-188h-803z" />
<glyph unicode="F" horiz-adv-x="1007" d="M160 0v1434h792v-189h-581v-436h463v-186h-463v-623h-211z" />
<glyph unicode="G" horiz-adv-x="1220" d="M102 717q0 369 134.5 554t347.5 185q129 0 247.5 -57.5t251.5 -155.5l-104 -160q-6 4 -41 28t-45 31t-44 28.5t-49.5 28.5t-45 21.5t-50 20.5t-47 11t-49.5 5q-133 0 -211 -144t-78 -402q0 -248 77 -396.5t210 -148.5q141 0 297 196v254h-297v179h494v-795h-197v158 q-170 -180 -342 -181q-197 0 -328 187.5t-131 552.5z" />
<glyph unicode="H" horiz-adv-x="1251" d="M160 0v1434h211v-590h512v590h209v-1434h-209v659h-512v-659h-211z" />
<glyph unicode="I" horiz-adv-x="530" d="M160 0v1434h211v-1434h-211z" />
<glyph unicode="J" horiz-adv-x="528" d="M-37 -156q141 55 169 94t28 156v1340h211v-1330q0 -66 -1 -95t-7.5 -75.5t-18.5 -68t-35.5 -52t-60.5 -50t-89.5 -41t-123.5 -44.5z" />
<glyph unicode="K" horiz-adv-x="1173" d="M160 0v1434h211v-727l487 727h256l-481 -674l518 -760h-254l-387 588l-139 -195v-393h-211z" />
<glyph unicode="L" horiz-adv-x="976" d="M160 0v1434h211v-1246h563v-188h-774z" />
<glyph unicode="M" horiz-adv-x="1468" d="M160 0v1434h217l356 -920l359 920h217v-1434h-211v1038l-307 -798h-115l-305 796v-1036h-211z" />
<glyph unicode="N" horiz-adv-x="1280" d="M160 0v1434h215l534 -1074v1074h211v-1434h-215l-534 1069v-1069h-211z" />
<glyph unicode="O" horiz-adv-x="1292" d="M100 717q0 160 30 290t92.5 232t170 159.5t252.5 57.5q147 0 255 -57.5t170.5 -159.5t91 -232t28.5 -290t-28.5 -290t-91 -232.5t-170 -160t-255.5 -57.5q-145 0 -252.5 57.5t-170 160t-92.5 232.5t-30 290zM319 717q0 -549 326 -549q328 0 328 549t-328 549 q-326 0 -326 -549z" />
<glyph unicode="P" horiz-adv-x="1146" d="M160 0v1434h430q485 0 485 -446.5t-485 -446.5h-219v-541h-211zM371 725h219q272 0 272 262q0 260 -272 260h-219v-522z" />
<glyph unicode="Q" horiz-adv-x="1292" d="M100 717q0 160 30 290t92.5 232t170 159.5t252.5 57.5q147 0 255 -57.5t170.5 -159.5t91 -232t28.5 -290q0 -565 -332 -701l201 -190l-141 -152l-273 303q-145 0 -252.5 57.5t-170 160t-92.5 232.5t-30 290zM319 717q0 -549 326 -549q328 0 328 549t-328 549 q-326 0 -326 -549z" />
<glyph unicode="R" horiz-adv-x="1206" d="M160 0v1434h467q485 0 485 -422q0 -340 -309 -406l311 -606h-229l-291 590h-223v-590h-211zM371 768h250q278 0 278 243.5t-272 243.5h-256v-487z" />
<glyph unicode="S" horiz-adv-x="1081" d="M76 152l98 159q225 -147 397 -147q90 0 151.5 50t61.5 142q0 23 -5 44.5t-12 38t-23.5 35t-27.5 31.5t-37 30.5t-40 26.5t-48 27.5t-50.5 27t-56.5 28t-56 27.5q-72 37 -120 66.5t-101 77.5t-80 114.5t-27 148.5q0 172 113 274.5t299 102.5q225 0 451 -133l-99 -160 q-190 106 -340 107q-86 0 -144 -46t-58 -137q0 -35 14 -65.5t29.5 -51t56.5 -47t62.5 -38t82.5 -41t84 -41.5q74 -35 123 -66.5t108.5 -84t90.5 -125t31 -162.5q0 -178 -119 -283t-303 -105q-133 0 -269.5 52.5t-236.5 122.5z" />
<glyph unicode="T" horiz-adv-x="1003" d="M43 1245v189h920v-189h-355v-1245h-211v1245h-354z" />
<glyph unicode="U" horiz-adv-x="1234" d="M147 502v932h211v-945q0 -152 55.5 -236.5t203 -84.5t204 85t56.5 236v945h210v-932q0 -117 -21.5 -206t-72.5 -164t-146 -115t-231 -40q-260 0 -364.5 140.5t-104.5 384.5z" />
<glyph unicode="V" horiz-adv-x="1196" d="M37 1434h235l326 -1188l326 1188h235l-446 -1434h-232z" />
<glyph unicode="W" horiz-adv-x="1644" d="M55 1434h236l211 -1119l231 1119h176l232 -1125l213 1125h233l-325 -1434h-211l-230 1087l-227 -1087h-211z" />
<glyph unicode="X" horiz-adv-x="1112" d="M33 0l399 719l-379 715h242l260 -568l262 568h242l-379 -715l397 -719h-248l-274 551l-272 -551h-250z" />
<glyph unicode="Y" horiz-adv-x="1114" d="M27 1434h235l295 -670l295 670h235l-425 -869v-565h-211v569z" />
<glyph unicode="Z" horiz-adv-x="1083" d="M72 0v172l657 1073h-620v189h882v-170l-659 -1076h667v-188h-927z" />
<glyph unicode="[" horiz-adv-x="638" d="M158 -295v2013h424v-137h-213v-1737h213v-139h-424z" />
<glyph unicode="\" horiz-adv-x="790" d="M39 1618h156l555 -1802h-158z" />
<glyph unicode="]" horiz-adv-x="638" d="M57 -158h213v1737h-213v139h424v-2013h-424v137z" />
<glyph unicode="^" d="M123 696l317 738h205l318 -738h-218l-202 549l-205 -549h-215z" />
<glyph unicode="_" horiz-adv-x="1218" d="M125 -162h971v-155h-971v155z" />
<glyph unicode="`" horiz-adv-x="378" d="M-35 1493h242l209 -272h-168z" />
<glyph unicode="a" horiz-adv-x="1019" d="M76 324q0 170 89 260t230 90q76 0 297 -56v119q0 102 -37 148.5t-129 46.5q-96 0 -321 -86l-72 149q248 102 428 103q168 0 250 -83t82 -270v-745h-201v139q-143 -162 -317 -162q-129 0 -214 88.5t-85 258.5zM281 338q0 -96 42.5 -143.5t114.5 -47.5q131 0 254 146v209 q-172 43 -225 43q-96 0 -141 -57.5t-45 -149.5z" />
<glyph unicode="b" horiz-adv-x="1062" d="M133 0v1493h201v-553q145 158 301 158q154 0 247 -140.5t93 -421t-93.5 -420t-246.5 -139.5q-160 0 -301 154v-131h-201zM334 313q108 -161 242 -161h2q94 0 142 100t48 285q0 387 -190 387q-133 0 -244 -162v-449z" />
<glyph unicode="c" horiz-adv-x="901" d="M86 538.5q0 270.5 112.5 415t278.5 144.5q68 0 150 -30t115.5 -48t99.5 -59l-88 -154q-4 2 -47 28.5t-66 39t-62.5 26.5t-70.5 14q-96 0 -155.5 -103t-59.5 -273t59.5 -274.5t153.5 -104.5q33 0 74 14t63.5 26.5t65.5 41.5l45 26l88 -153q-215 -137 -365 -138 q-164 0 -277.5 145.5t-113.5 416z" />
<glyph unicode="d" horiz-adv-x="1062" d="M88 536.5q0 280.5 93 421t247 140.5q156 0 301 -158v553h203v-1493h-203v131q-145 -154 -301 -154q-154 0 -247 139.5t-93 420zM295 537q0 -184 48 -284.5t142 -100.5q135 0 244 161v449q-111 162 -244 162q-190 0 -190 -387z" />
<glyph unicode="e" horiz-adv-x="999" d="M86 537q0 266 114.5 413.5t313.5 147.5q193 0 295 -129t102 -338q0 -37 -3 -73t-7 -54l-2 -17h-606q10 -162 66.5 -254t152.5 -92q102 0 317 135l86 -131q-233 -168 -421 -168q-178 0 -293 144.5t-115 415.5zM295 612h422v6q0 322 -201 322q-100 0 -155.5 -86t-65.5 -242 z" />
<glyph unicode="f" horiz-adv-x="645" d="M57 915v160h121v117q0 301 228 301q125 0 288 -76l-71 -151q-109 45 -168 45q-74 0 -74 -107v-129h225v-160h-225v-915h-203v915h-121z" />
<glyph unicode="g" horiz-adv-x="1062" d="M88 536.5q0 280.5 93 421t247 140.5q156 0 301 -158v135h203v-1124q0 -207 -92 -298t-271 -91q-207 0 -442 80l47 168q223 -78 356 -78q102 0 150.5 50t48.5 163v186q-145 -154 -301 -154q-154 0 -247 139.5t-93 420zM295 537q0 -184 48 -284.5t142 -100.5q135 0 244 161 v449q-111 162 -244 162q-190 0 -190 -387z" />
<glyph unicode="h" horiz-adv-x="1067" d="M133 0v1493h201v-563q199 168 356 168q129 0 189.5 -85t60.5 -229v-784h-201v745q0 182 -127 183q-74 0 -150.5 -53.5t-127.5 -112.5v-762h-201z" />
<glyph unicode="i" horiz-adv-x="466" d="M125 1270v217h217v-217h-217zM133 0v1075h201v-1075h-201z" />
<glyph unicode="j" horiz-adv-x="464" d="M-63 -287q141 55 168.5 94t27.5 162v1106h201v-1093q0 -66 -1 -95.5t-6 -76t-18.5 -68t-36 -52t-59.5 -50t-88 -41t-123 -43.5zM125 1270v217h217v-217h-217z" />
<glyph unicode="k" horiz-adv-x="954" d="M133 0v1493h201v-930l317 512h232l-303 -432l356 -643h-215l-258 479l-129 -186v-293h-201z" />
<glyph unicode="l" horiz-adv-x="481" d="M139 0v1493h203v-1493h-203z" />
<glyph unicode="m" horiz-adv-x="1589" d="M133 0v1075h201v-151q156 174 315 174q182 0 234 -191q164 190 334 191q127 0 186 -85t59 -229v-784h-200v737q0 190 -121 191q-119 0 -244 -170v-758h-201v737q0 190 -121 191q-117 0 -241 -168v-760h-201z" />
<glyph unicode="n" horiz-adv-x="1067" d="M133 0v1075h201v-145q195 168 356 168q129 0 189.5 -85t60.5 -229v-784h-201v745q0 182 -127 183q-74 0 -150.5 -53.5t-127.5 -112.5v-762h-201z" />
<glyph unicode="o" horiz-adv-x="1050" d="M86 537q0 266 112.5 413.5t325.5 147.5q215 0 328 -147.5t113 -414t-113 -413t-328 -146.5q-213 0 -325.5 147.5t-112.5 412.5zM291 537q0 -391 233.5 -391t233.5 391q0 393 -233.5 393t-233.5 -393z" />
<glyph unicode="p" horiz-adv-x="1062" d="M133 -418v1493h201v-135q141 158 301 158q154 0 247 -140.5t93 -421t-93.5 -420t-246.5 -139.5q-160 0 -301 154v-549h-201zM334 313q108 -161 242 -161h2q94 0 142 100t48 285q0 387 -190 387q-133 0 -244 -162v-449z" />
<glyph unicode="q" horiz-adv-x="1062" d="M88 536.5q0 280.5 93 421t247 140.5q156 0 301 -158v135h203v-1493h-203v549q-145 -154 -301 -154q-154 0 -247 139.5t-93 420zM295 537q0 -184 48 -284.5t142 -100.5q135 0 244 161v449q-111 162 -244 162q-190 0 -190 -387z" />
<glyph unicode="r" horiz-adv-x="704" d="M133 0v1075h201v-227q8 23 18 44t40 63t64 71q34 28 90 48q42 14 87 15q16 0 33 -2v-200q-84 0 -148.5 -35t-97.5 -85t-54.5 -100.5t-25.5 -84.5l-6 -35v-547h-201z" />
<glyph unicode="s" horiz-adv-x="909" d="M70 111l86 151q193 -117 327 -117q63 0 107.5 33t44.5 92q0 53 -42 94.5t-80 57.5t-118 45q-66 25 -108.5 46.5t-94 60t-78 95t-26.5 130.5q0 135 91 217t243 82q188 0 379 -111l-86 -143q-160 86 -279 86q-66 0 -105.5 -32t-39.5 -89q0 -18 4 -34.5t13 -30t17.5 -23.5 t27 -21.5t27.5 -17.5t32.5 -16.5t33 -13.5t36 -12t32.5 -11q326 -117 326 -353q0 -137 -95.5 -218t-248.5 -81q-215 0 -426 134z" />
<glyph unicode="t" horiz-adv-x="700" d="M57 915v160h121v264l201 47v-311h242v-160h-242v-643q0 -110 75 -110h1q55 0 151 51l72 -156q-147 -80 -270 -80q-113 0 -171.5 69t-58.5 226v643h-121z" />
<glyph unicode="u" horiz-adv-x="1067" d="M127 291v784h201v-745q0 -182 127 -183q129 0 278 162v766h203v-1075h-203v143q-193 -166 -354 -166q-252 0 -252 314z" />
<glyph unicode="v" horiz-adv-x="980" d="M41 1075h217l231 -844l236 844h217l-352 -1075h-199z" />
<glyph unicode="w" horiz-adv-x="1421" d="M53 1075h213l170 -825l193 825h164l192 -827l168 827h215l-274 -1075h-191l-192 788l-193 -788h-190z" />
<glyph unicode="x" horiz-adv-x="1017" d="M29 0l360 541l-342 534h234l229 -411l229 411h232l-342 -534l360 -541h-239l-242 422l-240 -422h-239z" />
<glyph unicode="y" horiz-adv-x="983" d="M41 1075h217l234 -827l233 827h217l-487 -1493h-219l157 404z" />
<glyph unicode="z" horiz-adv-x="925" d="M74 0v156l528 743h-512v176h756v-155l-529 -744h529v-176h-772z" />
<glyph unicode="{" horiz-adv-x="698" d="M51 633v160q96 0 136 57t26 186l-23 191q-27 238 83 364.5t333 126.5h31v-135h-31q-236 0 -203 -330l19 -178q33 -305 -213 -362q244 -59 213 -363l-19 -178q-33 -330 203 -330h31v-135h-31q-223 0 -332.5 127t-83.5 365l23 190q14 129 -26 186.5t-136 57.5z" />
<glyph unicode="|" horiz-adv-x="471" d="M160 -252v1927h151v-1927h-151z" />
<glyph unicode="}" horiz-adv-x="700" d="M63 -158h31q236 0 203 330l-18 178q-33 305 213 363q-244 59 -213 362l18 178q33 330 -203 330h-31v135h31q223 0 333 -127t83 -364l-23 -191q-14 -129 26 -186t136 -57v-160q-96 0 -136 -57.5t-26 -186.5l23 -190q27 -238 -83 -365t-333 -127h-31v135z" />
<glyph unicode="~" d="M61 461q98 264 283 264q88 0 215 -76t189 -76q45 0 79.5 28t73.5 110l123 -56q-98 -262 -283 -262q-84 0 -213 76t-190 76q-43 0 -78 -27.5t-74 -109.5z" />
<glyph unicode="&#xa1;" horiz-adv-x="542" d="M150 0l61 993h123l61 -993h-245zM164 1171v263h217v-263h-217z" />
<glyph unicode="&#xa2;" horiz-adv-x="974" d="M104 719q0 256 103.5 400.5t257.5 156.5v158h151v-174q88 -25 265 -132l-90 -153q-135 86 -175 100v-717q35 14 175 103l90 -154q-162 -104 -265 -133v-174h-151v158q-156 14 -258.5 159.5t-102.5 401.5zM311 718.5q0 -143.5 41 -240.5t113 -126v731q-72 -29 -113 -125 t-41 -239.5z" />
<glyph unicode="&#xa3;" horiz-adv-x="987" d="M106 0v154q20 16 52 45.5t87.5 126t61.5 198.5h-182v140h166q-10 41 -79 191.5t-69 260.5q0 158 93.5 249t250.5 91q182 0 410 -153l-98 -144q-168 111 -275 111q-80 0 -125 -50.5t-45 -129.5q0 -78 65.5 -212.5t80.5 -213.5h266v-140h-258q-10 -106 -53 -198.5 t-84 -139.5h508v-186h-773z" />
<glyph unicode="&#xa5;" horiz-adv-x="1183" d="M61 1434h236l295 -670l295 670h235l-338 -691h224v-137h-291l-21 -41v-100h312v-137h-312v-328h-211v328h-311v137h311v104l-18 37h-293v137h225z" />
<glyph unicode="&#xa6;" horiz-adv-x="475" d="M162 -252v846h151v-846h-151zM162 829v846h151v-846h-151z" />
<glyph unicode="&#xa7;" horiz-adv-x="978" d="M98 668q0 174 164 241q-133 90 -133 246q0 135 91 218t245 83q184 0 379 -110l-88 -144q-160 86 -279 86q-66 0 -105.5 -31.5t-39.5 -89.5q0 -18 4 -34.5t13 -29.5t18.5 -24.5t27 -21.5t27.5 -16.5t33.5 -15.5t33 -13t36 -13.5t32.5 -11.5q326 -117 326 -346 q0 -174 -168 -242q133 -90 133 -247q0 -135 -90 -217t-244 -82q-188 0 -379 110l88 143q160 -86 279 -86q66 0 105.5 32t39.5 89q0 16 -4 31.5t-9 27t-16.5 24t-19.5 20.5t-25.5 17t-26.5 14.5t-30.5 13.5t-31 11t-33 11.5t-29.5 10.5q-324 115 -324 346zM293 688 q0 -20 4 -37.5t15.5 -33t20.5 -27.5t28.5 -24.5t30.5 -19.5t37 -18.5t37 -15.5t38.5 -15.5t36.5 -13.5q68 8 107.5 44.5t39.5 93.5q0 51 -38 92t-81 61.5t-106 42.5q-16 6 -25 8q-145 -20 -145 -137z" />
<glyph unicode="&#xa8;" horiz-adv-x="403" d="M-33 1241v207h172v-207h-172zM264 1241v207h172v-207h-172z" />
<glyph unicode="&#xa9;" horiz-adv-x="1665" d="M102 716.5q0 321.5 195 530.5t537 209t535.5 -209t193.5 -530.5t-193.5 -530.5t-535.5 -209t-537 209t-195 530.5zM182 717q0 -291 172 -477.5t477.5 -186.5t479.5 186.5t174 477.5t-174 477t-479.5 186t-477.5 -186t-172 -477zM463 715q0 213 102.5 329.5t253.5 116.5 q162 0 342 -127l-55 -65q-51 35 -74.5 50t-86 37.5t-122.5 22.5q-117 0 -190.5 -100t-73.5 -264t74 -262.5t190 -98.5q59 0 123 22.5t85.5 36t74.5 48.5l55 -64q-180 -127 -342 -127q-152 0 -254 117t-102 328z" />
<glyph unicode="&#xaa;" horiz-adv-x="743" d="M92 983q0 102 56.5 156.5t146.5 54.5q51 0 182 -33v64q0 55 -22.5 80.5t-77.5 25.5q-61 0 -201 -51l-47 106q168 61 277 62q111 0 163 -52.5t52 -170.5v-437h-144v80q-90 -94 -196 -94q-82 0 -135.5 55.5t-53.5 153.5zM238 995q0 -100 92 -100q76 0 147 78v110 q-84 23 -131 23q-109 0 -108 -111z" />
<glyph unicode="&#xab;" horiz-adv-x="1169" d="M66 500v133l509 448v-221l-350 -293l350 -295v-219zM551 500v133l510 448v-221l-350 -293l350 -295v-219z" />
<glyph unicode="&#xac;" d="M47 600v164h977v-580h-172v416h-805z" />
<glyph unicode="&#xad;" horiz-adv-x="763" d="M127 496v176h510v-176h-510z" />
<glyph unicode="&#xae;" horiz-adv-x="927" d="M100 1106q0 160 97.5 264.5t265.5 104.5q170 0 268 -104.5t98 -264.5t-98 -264.5t-268 -104.5q-168 0 -265.5 104.5t-97.5 264.5zM170 1106q0 -133 76 -218t217 -85q143 0 219 85t76 218t-76 218t-219 85q-141 0 -217 -85t-76 -218zM328 926v370h172q57 0 91 -29.5 t34 -78.5q0 -82 -93 -101l86 -161h-69l-84 157h-74v-157h-63zM391 1141h109q59 0 59 47q0 49 -57 49h-111v-96z" />
<glyph unicode="&#xaf;" horiz-adv-x="503" d="M0 1272v135h504v-135h-504z" />
<glyph unicode="&#xb0;" horiz-adv-x="804" d="M84 1116q0 133 93 226.5t226 93.5q131 0 224.5 -94.5t93.5 -225.5t-93 -224t-224.5 -93t-225.5 93t-94 224zM215 1116q0 -76 55.5 -130t131 -54t131 54t55.5 130q0 78 -54.5 133.5t-132 55.5t-132 -55.5t-54.5 -133.5z" />
<glyph unicode="&#xb1;" d="M115 0v145h854v-145h-854zM115 614v164h344v305h164v-305h346v-164h-346v-305h-164v305h-344z" />
<glyph unicode="&#xb2;" horiz-adv-x="692" d="M63 788v80q0 63 18.5 116.5t58.5 99.5t69 72t84 69q57 45 87 70.5t55.5 63.5t25.5 73q0 43 -31 70.5t-84 27.5q-84 0 -192 -74l-70 100q135 106 281 107q115 0 181 -63.5t66 -161.5q0 -57 -19.5 -105.5t-65.5 -95.5t-69.5 -66.5t-82.5 -64.5q-70 -53 -101.5 -92 t-31.5 -94h370v-132h-549z" />
<glyph unicode="&#xb3;" horiz-adv-x="696" d="M49 872l70 107q125 -72 209 -72q63 0 103 36t40 95q0 78 -67.5 112t-147.5 34h-31v133h35q68 0 123 30.5t55 92.5q0 41 -27.5 65.5t-78.5 24.5q-80 0 -185 -66l-63 97q119 102 272 102q111 0 171.5 -58.5t60.5 -144.5q0 -137 -135 -196q74 -25 122 -86.5t48 -143.5 q0 -106 -69 -183t-208 -77q-150 0 -297 98z" />
<glyph unicode="&#xb4;" horiz-adv-x="378" d="M-35 1221l207 272h244l-285 -272h-166z" />
<glyph unicode="&#xb5;" horiz-adv-x="1132" d="M158 -418v1493h202v-745q0 -182 127 -183q129 0 279 162v766h203v-1075h-203v143q-193 -166 -354 -166q-23 0 -52 5v-400h-202z" />
<glyph unicode="&#xb6;" horiz-adv-x="1187" d="M63 977q0 227 117 342t328 115h170v-1813h-174v897q-195 0 -318 118t-123 341zM838 -379v1813h174v-1813h-174z" />
<glyph unicode="&#xb7;" horiz-adv-x="471" d="M127 444v277h215v-277h-215z" />
<glyph unicode="&#xb8;" horiz-adv-x="301" d="M-12 -319l43 116q47 -27 82 -26q86 0 86 88q0 33 -11.5 68.5t-23.5 56.5l-12 20h94q68 -86 67 -188q0 -82 -51 -128t-131 -46q-77 0 -143 39z" />
<glyph unicode="&#xb9;" horiz-adv-x="546" d="M29 1524l198 125h142v-861h-150v711l-127 -76z" />
<glyph unicode="&#xba;" horiz-adv-x="747" d="M92 1110q0 160 73 249t210 89t209.5 -89t72.5 -249t-72.5 -248t-209.5 -88t-210 88t-73 248zM238 1110q0 -217 137 -217q135 0 135 217q0 219 -135 219q-137 0 -137 -219z" />
<glyph unicode="&#xbb;" horiz-adv-x="1169" d="M109 51v221l350 293l-350 295v219l509 -446v-133zM594 51v221l350 293l-350 295v219l510 -446v-133z" />
<glyph unicode="&#xbc;" horiz-adv-x="1464" d="M55 1309l199 125h141v-861h-149v711l-127 -76zM303 0l555 1434h158l-553 -1434h-160zM743 174v113l336 573h199v-555h113v-131h-113v-174h-150v174h-385zM889 305h239v414z" />
<glyph unicode="&#xbd;" horiz-adv-x="1495" d="M55 1309l199 125h141v-861h-149v711l-127 -76zM303 0l555 1434h158l-553 -1434h-160zM848 0v80q0 63 18.5 116.5t58.5 99.5t68.5 71.5t83.5 68.5q57 45 87 70.5t55.5 63.5t25.5 73q0 43 -30.5 70.5t-84.5 27.5q-84 0 -192 -73l-70 100q135 106 281 106q115 0 181.5 -63 t66.5 -162q0 -57 -19.5 -105t-65.5 -95.5t-69.5 -67t-83.5 -64.5q-70 -53 -101.5 -92t-31.5 -94h371v-131h-549z" />
<glyph unicode="&#xbe;" horiz-adv-x="1638" d="M78 657l69 107q125 -72 209 -72q63 0 103.5 36t40.5 95q0 78 -67.5 112t-147.5 34h-31v133h35q68 0 123 30.5t55 92.5q0 41 -27.5 65.5t-79.5 24.5q-80 0 -184 -66l-63 97q119 102 272 102q111 0 171 -58.5t60 -144.5q0 -137 -135 -196q74 -25 122 -86.5t48 -143.5 q0 -106 -68.5 -183t-207.5 -77q-150 0 -297 98zM481 0l555 1434h158l-553 -1434h-160zM922 174v113l335 573h199v-555h113v-131h-113v-174h-149v174h-385zM1067 305h240v414z" />
<glyph unicode="&#xbf;" horiz-adv-x="901" d="M74 319q0 287 377 424l14 250h133l14 -364q-164 -49 -244.5 -113.5t-80.5 -169.5q0 -82 52 -132t138 -50q113 0 268 104l97 -141q-193 -150 -396 -150q-158 0 -265 91t-107 251zM424 1171v263h215v-263h-215z" />
<glyph unicode="&#xc0;" horiz-adv-x="1200" d="M39 0l444 1434h232l446 -1434h-227l-90 328h-490l-88 -328h-227zM307 1802h242l209 -272h-168zM403 506h392l-195 717z" />
<glyph unicode="&#xc1;" horiz-adv-x="1200" d="M39 0l444 1434h232l446 -1434h-227l-90 328h-490l-88 -328h-227zM403 506h392l-195 717zM446 1530l207 272h244l-285 -272h-166z" />
<glyph unicode="&#xc2;" horiz-adv-x="1200" d="M39 0l444 1434h232l446 -1434h-227l-90 328h-490l-88 -328h-227zM322 1530l174 272h206l172 -272h-143l-133 168l-131 -168h-145zM403 506h392l-195 717z" />
<glyph unicode="&#xc3;" horiz-adv-x="1200" d="M39 0l444 1434h232l446 -1434h-227l-90 328h-490l-88 -328h-227zM307 1597q39 92 76 138.5t98 46.5q49 0 126 -49.5t100 -49.5q20 0 39.5 18.5t44.5 76.5l98 -47q-39 -92 -77 -139.5t-97 -47.5q-49 0 -126 49t-102 49q-41 0 -84 -94zM403 506h392l-195 717z" />
<glyph unicode="&#xc4;" horiz-adv-x="1200" d="M39 0l444 1434h232l446 -1434h-227l-90 328h-490l-88 -328h-227zM365 1554v207h172v-207h-172zM403 506h392l-195 717zM662 1554v207h172v-207h-172z" />
<glyph unicode="&#xc5;" horiz-adv-x="1200" d="M39 0l444 1434h232l446 -1434h-227l-90 328h-490l-88 -328h-227zM397 1714q0 84 59.5 144.5t145.5 60.5q84 0 144.5 -60.5t60.5 -144.5q0 -86 -60.5 -145.5t-144.5 -59.5q-86 0 -145.5 59.5t-59.5 145.5zM403 506h392l-195 717zM504 1714q0 -41 28.5 -69.5t69.5 -28.5 t69.5 29.5t28.5 68.5t-28.5 68.5t-69.5 29.5t-69.5 -28.5t-28.5 -69.5z" />
<glyph unicode="&#xc6;" horiz-adv-x="1769" d="M-20 0l800 1434h883v-189h-582v-436h480v-184h-480v-437h592v-188h-803v328h-464l-177 -328h-249zM504 510h366v682z" />
<glyph unicode="&#xc7;" horiz-adv-x="1120" d="M102 717q0 367 132.5 553t345.5 186q121 0 230.5 -53t248.5 -150l-103 -157q-80 53 -118.5 77.5t-108.5 54t-125 29.5q-131 0 -208 -143t-77 -397t77 -397.5t208 -143.5q55 0 125 30t109 54.5t118 77.5l103 -158q-82 -57 -133.5 -89t-130 -65.5t-150.5 -43.5 q53 -80 53 -166q0 -82 -51 -128t-131 -46q-77 0 -143 39l43 116q47 -27 82 -26q86 0 86 88q0 55 -33 121q-201 12 -325 196t-124 541z" />
<glyph unicode="&#xc8;" horiz-adv-x="1056" d="M160 0v1434h792v-189h-581v-436h479v-184h-479v-437h592v-188h-803zM268 1802h242l209 -272h-168z" />
<glyph unicode="&#xc9;" horiz-adv-x="1056" d="M160 0v1434h792v-189h-581v-436h479v-184h-479v-437h592v-188h-803zM408 1530l206 272h244l-285 -272h-165z" />
<glyph unicode="&#xca;" horiz-adv-x="1056" d="M160 0v1434h792v-189h-581v-436h479v-184h-479v-437h592v-188h-803zM285 1530l174 272h207l172 -272h-144l-133 168l-131 -168h-145z" />
<glyph unicode="&#xcb;" horiz-adv-x="1056" d="M160 0v1434h792v-189h-581v-436h479v-184h-479v-437h592v-188h-803zM328 1550v207h172v-207h-172zM625 1550v207h172v-207h-172z" />
<glyph unicode="&#xcc;" horiz-adv-x="528" d="M-29 1802h242l209 -272h-168zM160 0v1434h211v-1434h-211z" />
<glyph unicode="&#xcd;" horiz-adv-x="530" d="M111 1530l206 272h244l-285 -272h-165zM160 0v1434h211v-1434h-211z" />
<glyph unicode="&#xce;" horiz-adv-x="530" d="M-12 1530l174 272h207l172 -272h-144l-133 168l-131 -168h-145zM160 0v1434h211v-1434h-211z" />
<glyph unicode="&#xcf;" horiz-adv-x="528" d="M31 1548v207h172v-207h-172zM160 0v1434h211v-1434h-211zM328 1548v207h172v-207h-172z" />
<glyph unicode="&#xd0;" horiz-adv-x="1249" d="M49 629v176h123v629h369q297 0 450.5 -172t153.5 -545t-153.5 -545t-450.5 -172h-369v629h-123zM383 188h152q203 0 300 125t97 403.5t-97.5 403.5t-299.5 125h-152v-440h260v-176h-260v-441z" />
<glyph unicode="&#xd1;" horiz-adv-x="1280" d="M160 0v1434h215l534 -1074v1074h211v-1434h-215l-534 1069v-1069h-211zM358 1606q39 92 76 138t98 46q49 0 126 -49t100 -49q20 0 39.5 18.5t44.5 75.5l98 -47q-39 -92 -77 -139.5t-97 -47.5q-49 0 -126 49.5t-101 49.5q-41 -1 -84 -95z" />
<glyph unicode="&#xd2;" horiz-adv-x="1292" d="M100 717q0 160 30 290t92.5 232t170 159.5t252.5 57.5q147 0 255 -57.5t170.5 -159.5t91 -232t28.5 -290t-28.5 -290t-91 -232.5t-170 -160t-255.5 -57.5q-145 0 -252.5 57.5t-170 160t-92.5 232.5t-30 290zM319 717q0 -549 326 -549q328 0 328 549t-328 549 q-326 0 -326 -549zM352 1802h242l209 -272h-168z" />
<glyph unicode="&#xd3;" horiz-adv-x="1292" d="M100 717q0 160 30 290t92.5 232t170 159.5t252.5 57.5q147 0 255 -57.5t170.5 -159.5t91 -232t28.5 -290t-28.5 -290t-91 -232.5t-170 -160t-255.5 -57.5q-145 0 -252.5 57.5t-170 160t-92.5 232.5t-30 290zM319 717q0 -549 326 -549q328 0 328 549t-328 549 q-326 0 -326 -549zM492 1530l206 272h244l-285 -272h-165z" />
<glyph unicode="&#xd4;" horiz-adv-x="1292" d="M100 717q0 160 30 290t92.5 232t170 159.5t252.5 57.5q147 0 255 -57.5t170.5 -159.5t91 -232t28.5 -290t-28.5 -290t-91 -232.5t-170 -160t-255.5 -57.5q-145 0 -252.5 57.5t-170 160t-92.5 232.5t-30 290zM319 717q0 -549 326 -549q328 0 328 549t-328 549 q-326 0 -326 -549zM369 1530l174 272h207l172 -272h-144l-133 168l-131 -168h-145z" />
<glyph unicode="&#xd5;" horiz-adv-x="1292" d="M100 717q0 160 30 290t92.5 232t170 159.5t252.5 57.5q147 0 255 -57.5t170.5 -159.5t91 -232t28.5 -290t-28.5 -290t-91 -232.5t-170 -160t-255.5 -57.5q-145 0 -252.5 57.5t-170 160t-92.5 232.5t-30 290zM319 717q0 -549 326 -549q328 0 328 549t-328 549 q-326 0 -326 -549zM354 1597q39 92 76 138.5t98 46.5q49 0 126 -49.5t100 -49.5q20 0 39.5 18.5t44.5 76.5l98 -47q-39 -92 -77 -139.5t-97 -47.5q-49 0 -126 49t-101 49q-41 0 -84 -94z" />
<glyph unicode="&#xd6;" horiz-adv-x="1292" d="M100 717q0 160 30 290t92.5 232t170 159.5t252.5 57.5q147 0 255 -57.5t170.5 -159.5t91 -232t28.5 -290t-28.5 -290t-91 -232.5t-170 -160t-255.5 -57.5q-145 0 -252.5 57.5t-170 160t-92.5 232.5t-30 290zM319 717q0 -549 326 -549q328 0 328 549t-328 549 q-326 0 -326 -549zM412 1550v207h172v-207h-172zM709 1550v207h172v-207h-172z" />
<glyph unicode="&#xd7;" d="M182 961l123 110l236 -262l235 258l125 -111l-248 -270l248 -272l-123 -111l-237 260l-234 -256l-123 109l246 270z" />
<glyph unicode="&#xd8;" horiz-adv-x="1288" d="M98 717q0 160 30 290t92.5 232t170 159.5t252.5 57.5q193 0 322 -102l51 80h155l-112 -183q129 -186 129 -534q0 -160 -29 -290t-91 -232.5t-169.5 -160t-255.5 -57.5q-193 0 -319 101l-50 -78h-155l110 178q-131 188 -131 539zM317 717q0 -203 43 -330l494 789 q-78 90 -211 90q-326 0 -326 -549zM434 256q78 -88 209 -88q328 0 328 549q0 199 -43 325z" />
<glyph unicode="&#xd9;" horiz-adv-x="1234" d="M147 502v932h211v-945q0 -152 55.5 -236.5t203 -84.5t204 85t56.5 236v945h210v-932q0 -117 -21.5 -206t-72.5 -164t-146 -115t-231 -40q-260 0 -364.5 140.5t-104.5 384.5zM324 1802h241l209 -272h-168z" />
<glyph unicode="&#xda;" horiz-adv-x="1234" d="M147 502v932h211v-945q0 -152 55.5 -236.5t203 -84.5t204 85t56.5 236v945h210v-932q0 -117 -21.5 -206t-72.5 -164t-146 -115t-231 -40q-260 0 -364.5 140.5t-104.5 384.5zM463 1530l207 272h243l-284 -272h-166z" />
<glyph unicode="&#xdb;" horiz-adv-x="1234" d="M147 502v932h211v-945q0 -152 55.5 -236.5t203 -84.5t204 85t56.5 236v945h210v-932q0 -117 -21.5 -206t-72.5 -164t-146 -115t-231 -40q-260 0 -364.5 140.5t-104.5 384.5zM340 1530l174 272h207l172 -272h-143l-134 168l-131 -168h-145z" />
<glyph unicode="&#xdc;" horiz-adv-x="1234" d="M147 502v932h211v-945q0 -152 55.5 -236.5t203 -84.5t204 85t56.5 236v945h210v-932q0 -117 -21.5 -206t-72.5 -164t-146 -115t-231 -40q-260 0 -364.5 140.5t-104.5 384.5zM381 1550v207h172v-207h-172zM678 1550v207h172v-207h-172z" />
<glyph unicode="&#xdd;" horiz-adv-x="1114" d="M27 1434h235l295 -670l295 670h235l-425 -869v-565h-211v569zM403 1530l207 272h244l-285 -272h-166z" />
<glyph unicode="&#xde;" horiz-adv-x="1155" d="M160 0v1434h211v-248h219q485 -1 485 -445q0 -449 -485 -448h-219v-293h-211zM371 477h207q284 0 284 264q0 260 -284 260h-207v-524z" />
<glyph unicode="&#xdf;" horiz-adv-x="1181" d="M133 0v993q0 238 114.5 350.5t354.5 112.5q242 0 356.5 -112.5t114.5 -348.5v-8l-112 -127q-127 70 -211 70q-51 0 -84 -31t-33 -88q0 -18 3 -34.5t12 -31t15.5 -25.5t24 -22.5t24.5 -17.5t28.5 -16.5t26.5 -13.5t29.5 -13t26.5 -10q285 -121 285 -355q0 -137 -84 -216 t-223 -79q-197 0 -385 134l88 149q162 -113 274 -113q51 0 89 32t38 91q0 39 -16.5 70t-52 56.5t-60 36.5t-74.5 34q-59 27 -100 50.5t-84 62t-65.5 94t-22.5 127.5q0 135 81 216t218 81q70 0 133 -19q-14 111 -75.5 160t-184.5 49q-143 0 -204.5 -70.5t-61.5 -236.5v-981 h-203z" />
<glyph unicode="&#xe0;" horiz-adv-x="1019" d="M76 324q0 170 89 260t230 90q76 0 297 -56v119q0 102 -37 148.5t-129 46.5q-96 0 -321 -86l-72 149q248 102 428 103q168 0 250 -83t82 -270v-745h-201v139q-143 -162 -317 -162q-129 0 -214 88.5t-85 258.5zM221 1493h242l209 -272h-168zM281 338q0 -96 42.5 -143.5 t114.5 -47.5q131 0 254 146v209q-172 43 -225 43q-96 0 -141 -57.5t-45 -149.5z" />
<glyph unicode="&#xe1;" horiz-adv-x="1019" d="M76 324q0 170 89 260t230 90q76 0 297 -56v119q0 102 -37 148.5t-129 46.5q-96 0 -321 -86l-72 149q248 102 428 103q168 0 250 -83t82 -270v-745h-201v139q-143 -162 -317 -162q-129 0 -214 88.5t-85 258.5zM281 338q0 -96 42.5 -143.5t114.5 -47.5q131 0 254 146v209 q-172 43 -225 43q-96 0 -141 -57.5t-45 -149.5zM360 1221l207 272h244l-285 -272h-166z" />
<glyph unicode="&#xe2;" horiz-adv-x="1019" d="M76 324q0 170 89 260t230 90q76 0 297 -56v119q0 102 -37 148.5t-129 46.5q-96 0 -321 -86l-72 149q248 102 428 103q168 0 250 -83t82 -270v-745h-201v139q-143 -162 -317 -162q-129 0 -214 88.5t-85 258.5zM238 1221l174 272h206l173 -272h-144l-133 168l-131 -168 h-145zM281 338q0 -96 42.5 -143.5t114.5 -47.5q131 0 254 146v209q-172 43 -225 43q-96 0 -141 -57.5t-45 -149.5z" />
<glyph unicode="&#xe3;" horiz-adv-x="1019" d="M76 324q0 170 89 260t230 90q76 0 297 -56v119q0 102 -37 148.5t-129 46.5q-96 0 -321 -86l-72 149q248 102 428 103q168 0 250 -83t82 -270v-745h-201v139q-143 -162 -317 -162q-129 0 -214 88.5t-85 258.5zM223 1288q39 92 76 138.5t98 46.5q49 0 126 -49.5t100 -49.5 q20 0 39.5 18.5t44.5 75.5l98 -47q-39 -92 -77 -139t-97 -47q-49 0 -126 49t-102 49q-41 0 -84 -94zM281 338q0 -96 42.5 -143.5t114.5 -47.5q131 0 254 146v209q-172 43 -225 43q-96 0 -141 -57.5t-45 -149.5z" />
<glyph unicode="&#xe4;" horiz-adv-x="1019" d="M76 324q0 170 89 260t230 90q76 0 297 -56v119q0 102 -37 148.5t-129 46.5q-96 0 -321 -86l-72 149q248 102 428 103q168 0 250 -83t82 -270v-745h-201v139q-143 -162 -317 -162q-129 0 -214 88.5t-85 258.5zM281 338q0 -96 42.5 -143.5t114.5 -47.5q131 0 254 146v209 q-172 43 -225 43q-96 0 -141 -57.5t-45 -149.5zM281 1241v207h172v-207h-172zM578 1241v207h172v-207h-172z" />
<glyph unicode="&#xe5;" horiz-adv-x="1019" d="M76 324q0 170 89 260t230 90q76 0 297 -56v119q0 102 -37 148.5t-129 46.5q-96 0 -321 -86l-72 149q248 102 428 103q168 0 250 -83t82 -270v-745h-201v139q-143 -162 -317 -162q-129 0 -214 88.5t-85 258.5zM281 338q0 -96 42.5 -143.5t114.5 -47.5q131 0 254 146v209 q-172 43 -225 43q-96 0 -141 -57.5t-45 -149.5zM311 1405q0 84 59.5 144.5t145.5 60.5q84 0 144.5 -60.5t60.5 -144.5q0 -86 -60.5 -145.5t-144.5 -59.5q-86 0 -145.5 59.5t-59.5 145.5zM418 1405q0 -41 28.5 -69.5t69.5 -28.5t69.5 28.5t28.5 69.5t-28.5 69.5t-69.5 28.5 t-69.5 -28.5t-28.5 -69.5z" />
<glyph unicode="&#xe6;" horiz-adv-x="1579" d="M76 324q0 170 88 260t227 90q86 0 277 -62q6 86 22 142q-4 94 -41 136t-125 42q-92 0 -321 -86l-70 149q248 102 428 103q182 0 262 -103q106 102 271 103q193 0 295 -129t102 -338q0 -37 -3 -73t-5 -54l-4 -17h-607q10 -162 66.5 -254t153.5 -92q102 0 317 135l86 -131 q-233 -168 -422 -168q-227 0 -336 213q-168 -213 -362 -213q-129 0 -214 88.5t-85 258.5zM281 338q0 -96 42.5 -143.5t114.5 -47.5q127 0 256 152q-23 74 -28 193q-10 4 -44 16t-54.5 18t-50.5 12.5t-52 6.5q-94 0 -139 -57.5t-45 -149.5zM874 612h422q3 328 -200 328 q-100 0 -155.5 -86t-66.5 -242z" />
<glyph unicode="&#xe7;" horiz-adv-x="901" d="M86 539q0 270 112.5 414.5t278.5 144.5q68 0 150 -30t115.5 -48.5t99.5 -58.5l-88 -154q-4 2 -47 28.5t-66 39t-62.5 26.5t-70.5 14q-96 0 -155.5 -103t-59.5 -273t59.5 -274.5t153.5 -104.5q33 0 74 14t63.5 26.5t65.5 41.5l45 26l88 -153q-180 -119 -318 -133 q51 -90 51 -166q0 -82 -51 -128t-131 -46q-77 0 -143 39l43 116q47 -27 82 -26q86 0 86 88q0 57 -35 123q-147 20 -243.5 164.5t-96.5 392.5z" />
<glyph unicode="&#xe8;" horiz-adv-x="999" d="M86 537q0 266 114.5 413.5t313.5 147.5q193 0 295 -129t102 -338q0 -37 -3 -73t-7 -54l-2 -17h-606q10 -162 66.5 -254t152.5 -92q102 0 317 135l86 -131q-233 -168 -421 -168q-178 0 -293 144.5t-115 415.5zM223 1493h242l209 -272h-168zM295 612h422q2 328 -201 328 q-100 0 -155.5 -86t-65.5 -242z" />
<glyph unicode="&#xe9;" horiz-adv-x="999" d="M86 537q0 266 114.5 413.5t313.5 147.5q193 0 295 -129t102 -338q0 -37 -3 -73t-7 -54l-2 -17h-606q10 -162 66.5 -254t152.5 -92q102 0 317 135l86 -131q-233 -168 -421 -168q-178 0 -293 144.5t-115 415.5zM295 612h422q2 328 -201 328q-100 0 -155.5 -86t-65.5 -242z M362 1221l207 272h244l-285 -272h-166z" />
<glyph unicode="&#xea;" horiz-adv-x="999" d="M86 537q0 266 114.5 413.5t313.5 147.5q193 0 295 -129t102 -338q0 -37 -3 -73t-7 -54l-2 -17h-606q10 -162 66.5 -254t152.5 -92q102 0 317 135l86 -131q-233 -168 -421 -168q-178 0 -293 144.5t-115 415.5zM240 1221l174 272h207l172 -272h-144l-133 168l-131 -168 h-145zM295 612h422q2 328 -201 328q-100 0 -155.5 -86t-65.5 -242z" />
<glyph unicode="&#xeb;" horiz-adv-x="999" d="M86 537q0 266 114.5 413.5t313.5 147.5q193 0 295 -129t102 -338q0 -37 -3 -73t-7 -54l-2 -17h-606q10 -162 66.5 -254t152.5 -92q102 0 317 135l86 -131q-233 -168 -421 -168q-178 0 -293 144.5t-115 415.5zM283 1241v207h172v-207h-172zM295 612h422q2 328 -201 328 q-100 0 -155.5 -86t-65.5 -242zM580 1241v207h172v-207h-172z" />
<glyph unicode="&#xec;" horiz-adv-x="466" d="M-59 1493h241l209 -272h-168zM133 0v1075h201v-1075h-201z" />
<glyph unicode="&#xed;" horiz-adv-x="466" d="M78 1221l207 272h243l-284 -272h-166zM133 0v1075h201v-1075h-201z" />
<glyph unicode="&#xee;" horiz-adv-x="466" d="M-45 1221l174 272h207l172 -272h-143l-134 168l-131 -168h-145zM133 0v1075h201v-1075h-201z" />
<glyph unicode="&#xef;" horiz-adv-x="466" d="M0 1241v207h172v-207h-172zM133 0v1075h201v-1075h-201zM297 1241v207h172v-207h-172z" />
<glyph unicode="&#xf0;" horiz-adv-x="1069" d="M84 475q0 223 109.5 361.5t283.5 138.5q92 0 163 -37t97 -74l25 -37q-25 121 -88.5 226.5t-159.5 160.5l-90 -98h-178l131 144q-29 4 -43 4q-35 0 -69 -5.5t-50 -9.5l-16 -4l-27 164q63 25 166 25q92 0 174 -25l76 84h180l-129 -141q162 -100 251 -303t89 -465 q0 -313 -122 -460t-331 -147q-205 0 -323.5 135.5t-118.5 362.5zM295 475.5q0 -149.5 60.5 -240t179 -90.5t180 89.5t61.5 243t-60.5 241.5t-181 88t-180 -91t-59.5 -240.5z" />
<glyph unicode="&#xf1;" horiz-adv-x="1067" d="M133 0v1075h201v-145q195 168 356 168q129 0 189.5 -85t60.5 -229v-784h-201v745q0 182 -127 183q-74 0 -150.5 -53.5t-127.5 -112.5v-762h-201zM244 1288q39 92 75.5 138.5t98.5 46.5q49 0 126 -49.5t99 -49.5q20 0 39.5 18.5t44.5 75.5l98 -47q-39 -92 -76.5 -139 t-97.5 -47q-49 0 -125.5 49t-101.5 49q-41 0 -84 -94z" />
<glyph unicode="&#xf2;" horiz-adv-x="1050" d="M86 537q0 266 112.5 413.5t325.5 147.5q215 0 328 -147.5t113 -414t-113 -413t-328 -146.5q-213 0 -325.5 147.5t-112.5 412.5zM231 1493h242l209 -272h-168zM291 537q0 -391 233.5 -391t233.5 391q0 393 -233.5 393t-233.5 -393z" />
<glyph unicode="&#xf3;" horiz-adv-x="1050" d="M86 537q0 266 112.5 413.5t325.5 147.5q215 0 328 -147.5t113 -414t-113 -413t-328 -146.5q-213 0 -325.5 147.5t-112.5 412.5zM291 537q0 -391 233.5 -391t233.5 391q0 393 -233.5 393t-233.5 -393zM371 1221l207 272h243l-284 -272h-166z" />
<glyph unicode="&#xf4;" horiz-adv-x="1050" d="M86 537q0 266 112.5 413.5t325.5 147.5q215 0 328 -147.5t113 -414t-113 -413t-328 -146.5q-213 0 -325.5 147.5t-112.5 412.5zM248 1221l174 272h207l172 -272h-144l-133 168l-131 -168h-145zM291 537q0 -391 233.5 -391t233.5 391q0 393 -233.5 393t-233.5 -393z" />
<glyph unicode="&#xf5;" horiz-adv-x="1050" d="M86 537q0 266 112.5 413.5t325.5 147.5q215 0 328 -147.5t113 -414t-113 -413t-328 -146.5q-213 0 -325.5 147.5t-112.5 412.5zM233 1288q39 92 76 138.5t99 46.5q49 0 125.5 -49.5t99.5 -49.5q20 0 39.5 18.5t44.5 75.5l98 -47q-39 -92 -77 -139t-97 -47q-49 0 -126 49 t-101 49q-41 0 -84 -94zM291 537q0 -391 233.5 -391t233.5 391q0 393 -233.5 393t-233.5 -393z" />
<glyph unicode="&#xf6;" horiz-adv-x="1050" d="M86 537q0 266 112.5 413.5t325.5 147.5q215 0 328 -147.5t113 -414t-113 -413t-328 -146.5q-213 0 -325.5 147.5t-112.5 412.5zM291 537q0 -391 233.5 -391t233.5 391q0 393 -233.5 393t-233.5 -393zM291 1241v207h172v-207h-172zM588 1241v207h172v-207h-172z" />
<glyph unicode="&#xf7;" d="M115 600v164h854v-164h-854zM430 338q0 47 33 80t80 33t80.5 -33t33.5 -80t-33.5 -80t-80.5 -33t-80 33t-33 80zM430 1030q0 47 33 80t80 33t80.5 -33t33.5 -80t-33.5 -81t-80.5 -34t-80 34t-33 81z" />
<glyph unicode="&#xf8;" horiz-adv-x="1046" d="M84 537q0 266 112.5 413.5t325.5 147.5q150 0 254 -76l35 53h129l-86 -131q109 -145 109 -407q0 -266 -113 -413t-328 -147q-150 0 -254 76l-35 -53h-131l88 133q-106 143 -106 404zM289 537q0 -127 24 -215l359 542q-59 66 -150 66q-233 0 -233 -393zM371 209 q57 -63 151 -64q234 1 234 392q0 131 -27 217z" />
<glyph unicode="&#xf9;" horiz-adv-x="1067" d="M127 291v784h201v-745q0 -182 127 -183q129 0 278 162v766h203v-1075h-203v143q-193 -166 -354 -166q-252 0 -252 314zM238 1493h241l209 -272h-168z" />
<glyph unicode="&#xfa;" horiz-adv-x="1067" d="M127 291v784h201v-745q0 -182 127 -183q129 0 278 162v766h203v-1075h-203v143q-193 -166 -354 -166q-252 0 -252 314zM377 1221l207 272h243l-284 -272h-166z" />
<glyph unicode="&#xfb;" horiz-adv-x="1067" d="M127 291v784h201v-745q0 -182 127 -183q129 0 278 162v766h203v-1075h-203v143q-193 -166 -354 -166q-252 0 -252 314zM254 1221l174 272h207l172 -272h-143l-134 168l-131 -168h-145z" />
<glyph unicode="&#xfc;" horiz-adv-x="1067" d="M127 291v784h201v-745q0 -182 127 -183q129 0 278 162v766h203v-1075h-203v143q-193 -166 -354 -166q-252 0 -252 314zM295 1241v207h172v-207h-172zM592 1241v207h172v-207h-172z" />
<glyph unicode="&#xfd;" horiz-adv-x="983" d="M41 1075h217l234 -827l233 827h217l-487 -1493h-219l157 404zM338 1221l207 272h243l-284 -272h-166z" />
<glyph unicode="&#xfe;" horiz-adv-x="1062" d="M133 -418v1911h201v-553q141 158 301 158q154 0 247 -140.5t93 -421t-93.5 -420t-246.5 -139.5q-160 0 -301 154v-549h-201zM334 313q109 -162 244 -161q94 0 142 100t48 285q0 387 -190 387q-133 0 -244 -162v-449z" />
<glyph unicode="&#xff;" horiz-adv-x="983" d="M41 1075h217l234 -827l233 827h217l-487 -1493h-219l157 404zM258 1241v207h172v-207h-172zM555 1241v207h172v-207h-172z" />
<glyph unicode="&#x152;" horiz-adv-x="1875" d="M100 717q0 160 30 290t92.5 232t170 159.5t252.5 57.5q205 0 334 -113v91h793v-189h-582v-436h479v-184h-479v-437h592v-188h-803v88q-131 -111 -334 -111q-145 0 -252.5 57.5t-170 160t-92.5 232.5t-30 290zM319 717q0 -549 326 -549q328 0 328 549t-328 549 q-326 0 -326 -549z" />
<glyph unicode="&#x153;" horiz-adv-x="1673" d="M86 537q0 266 112.5 413.5t325.5 147.5q223 0 338 -164q117 164 326 164q193 0 295 -129t102 -338q0 -37 -3 -73t-5 -54l-4 -17h-606q10 -162 66.5 -254t152.5 -92q102 0 317 135l86 -131q-233 -168 -422 -168q-195 0 -305 162q-115 -162 -338 -162q-213 0 -325.5 147.5 t-112.5 412.5zM291 537q0 -391 233.5 -391t233.5 391q0 393 -233.5 393t-233.5 -393zM969 612h422q2 328 -201 328q-100 0 -155.5 -86t-65.5 -242z" />
<glyph unicode="&#x178;" horiz-adv-x="1114" d="M27 1434h235l295 -670l295 670h235l-425 -869v-565h-211v569zM324 1550v207h172v-207h-172zM621 1550v207h172v-207h-172z" />
<glyph unicode="&#x2c6;" horiz-adv-x="473" d="M-41 1221l174 272h207l172 -272h-143l-133 168l-132 -168h-145z" />
<glyph unicode="&#x2dc;" horiz-adv-x="495" d="M-43 1288q39 92 76 138.5t98 46.5q49 0 126 -49.5t99 -49.5q20 0 40 18.5t44 75.5l99 -47q-39 -92 -77 -139t-97 -47q-49 0 -126 49t-102 49q-41 0 -84 -94z" />
<glyph unicode="&#x2000;" horiz-adv-x="959" />
<glyph unicode="&#x2001;" horiz-adv-x="1919" />
<glyph unicode="&#x2002;" horiz-adv-x="959" />
<glyph unicode="&#x2003;" horiz-adv-x="1919" />
<glyph unicode="&#x2004;" horiz-adv-x="639" />
<glyph unicode="&#x2005;" horiz-adv-x="479" />
<glyph unicode="&#x2006;" horiz-adv-x="319" />
<glyph unicode="&#x2007;" horiz-adv-x="319" />
<glyph unicode="&#x2008;" horiz-adv-x="239" />
<glyph unicode="&#x2009;" horiz-adv-x="383" />
<glyph unicode="&#x200a;" horiz-adv-x="106" />
<glyph unicode="&#x2010;" horiz-adv-x="763" d="M127 496v176h510v-176h-510z" />
<glyph unicode="&#x2011;" horiz-adv-x="763" d="M127 496v176h510v-176h-510z" />
<glyph unicode="&#x2012;" horiz-adv-x="763" d="M127 496v176h510v-176h-510z" />
<glyph unicode="&#x2013;" horiz-adv-x="978" d="M127 496v174h727v-174h-727z" />
<glyph unicode="&#x2014;" horiz-adv-x="1157" d="M127 496v174h905v-174h-905z" />
<glyph unicode="&#x2018;" horiz-adv-x="456" d="M102 1204l179 269l61 -74l-104 -217h96v-277h-213z" />
<glyph unicode="&#x2019;" horiz-adv-x="440" d="M113 940l104 217h-96v277h213l18 -299l-178 -269z" />
<glyph unicode="&#x201a;" horiz-adv-x="473" d="M119 -217l104 217h-96v276h213l18 -299l-178 -268z" />
<glyph unicode="&#x201c;" horiz-adv-x="806" d="M102 1204l179 269l61 -74l-104 -217h96v-277h-213zM453 1204l178 269l61 -74l-104 -217h96v-277h-213z" />
<glyph unicode="&#x201d;" horiz-adv-x="792" d="M113 940l104 217h-96v277h213l18 -299l-178 -269zM463 940l104 217h-96v277h213l18 -299l-178 -269z" />
<glyph unicode="&#x201e;" horiz-adv-x="823" d="M119 -217l104 217h-96v276h213l18 -299l-178 -268zM469 -217l104 217h-96v276h213l19 -299l-179 -268z" />
<glyph unicode="&#x2022;" horiz-adv-x="866" d="M156 583.5q0 114.5 80.5 196.5t195.5 82t197 -82t82 -196.5t-82 -195.5t-197 -81t-195.5 81t-80.5 195.5z" />
<glyph unicode="&#x2026;" horiz-adv-x="1234" d="M127 0v276h215v-276h-215zM510 0v276h215v-276h-215zM893 0v276h215v-276h-215z" />
<glyph unicode="&#x202f;" horiz-adv-x="383" />
<glyph unicode="&#x2039;" horiz-adv-x="684" d="M66 500v133l509 448v-221l-350 -293l350 -295v-219z" />
<glyph unicode="&#x203a;" horiz-adv-x="684" d="M109 51v221l350 293l-350 295v219l509 -446v-133z" />
<glyph unicode="&#x205f;" horiz-adv-x="479" />
<glyph unicode="&#x20ac;" horiz-adv-x="1236" d="M88 487v125h102q-2 33 -2 105q0 61 2 92h-102v127h115q37 260 160.5 390t302.5 130q121 0 230.5 -53.5t248.5 -149.5l-103 -157q-80 53 -118.5 77.5t-108.5 54t-125 29.5q-100 0 -168.5 -83.5t-97.5 -237.5h424v-127h-440q-2 -31 -2 -92q0 -39 4 -105h438v-125h-422 q29 -150 97.5 -230.5t166.5 -80.5q55 0 125 30t109 54.5t118 77.5l103 -158q-90 -63 -151.5 -100t-152.5 -70t-175 -33q-176 0 -299 128t-162 382h-117z" />
<glyph unicode="&#x2122;" horiz-adv-x="1134" d="M123 1348v86h360v-86h-133v-373h-94v373h-133zM541 975v459h98l127 -277l129 277h98v-459h-94v299l-104 -223h-58l-102 219v-295h-94z" />
<glyph unicode="&#xe000;" horiz-adv-x="1075" d="M0 0v1075h1075v-1075h-1075z" />
</font>
</defs>
</svg>
