<?xml version="1.0" standalone="no"?>
<!DOCTYPE svg PUBLIC "-//W3C//DTD SVG 1.1//EN" "http://www.w3.org/Graphics/SVG/1.1/DTD/svg11.dtd" >
<svg xmlns="http://www.w3.org/2000/svg">
<metadata></metadata>
<defs>
<font id="verbexcondbold" horiz-adv-x="1124" >
<font-face units-per-em="2048" ascent="1638" descent="-410" />
<missing-glyph horiz-adv-x="448" />
<glyph unicode="&#xfb01;" horiz-adv-x="1191" d="M45 858v217h119v55q0 186 66.5 274.5t203.5 88.5q119 0 254 -68l-63 -215q-80 29 -113 29q-68 0 -68 -94v-70h213v-217h-213v-858h-280v858h-119zM793 1231v256h292v-256h-292zM799 0v1075h280v-1075h-280z" />
<glyph unicode="&#xfb02;" horiz-adv-x="1198" d="M45 858v217h119v55q0 186 66.5 274.5t203.5 88.5q119 0 254 -68l-63 -215q-80 29 -113 29q-68 0 -68 -94v-70h213v-217h-213v-858h-280v858h-119zM803 0v1493h280v-1493h-280z" />
<glyph unicode="&#xfb03;" horiz-adv-x="1880" d="M45 858v217h119v55q0 186 66.5 274.5t203.5 88.5q135 0 320 -84l-97 -209q-104 39 -145 39q-68 0 -68 -94v-70h213v-217h-213v-858h-280v858h-119zM733 858v217h119v55q0 186 66.5 274.5t203.5 88.5q119 0 254 -68l-63 -215q-80 29 -113 29q-68 0 -67 -94v-70h213v-217 h-213v-858h-281v858h-119zM1481 1231v256h293v-256h-293zM1487 0v1075h280v-1075h-280z" />
<glyph unicode="&#xfb04;" horiz-adv-x="1886" d="M45 858v217h119v55q0 186 66.5 274.5t203.5 88.5q135 0 320 -84l-97 -209q-104 39 -145 39q-68 0 -68 -94v-70h213v-217h-213v-858h-280v858h-119zM733 858v217h119v55q0 186 66.5 274.5t203.5 88.5q119 0 254 -68l-63 -215q-80 29 -113 29q-68 0 -67 -94v-70h213v-217 h-213v-858h-281v858h-119zM1489 0v1493h280v-1493h-280z" />
<glyph horiz-adv-x="2048" />
<glyph horiz-adv-x="2048" />
<glyph unicode="&#xd;" horiz-adv-x="681" />
<glyph unicode=" "  horiz-adv-x="448" />
<glyph unicode="&#x09;" horiz-adv-x="448" />
<glyph unicode="&#xa0;" horiz-adv-x="448" />
<glyph unicode="!" horiz-adv-x="567" d="M113 1434h342l-86 -971h-170zM141 0v311h285v-311h-285z" />
<glyph unicode="&#x22;" horiz-adv-x="794" d="M84 1434h264l-45 -560h-174zM449 1434h264l-45 -560h-174z" />
<glyph unicode="#" horiz-adv-x="1259" d="M72 324v221h211l43 342h-185v223h213l41 324h215l-41 -324h219l41 324h213l-41 -324h187v-223h-213l-43 -342h186v-221h-215l-39 -324h-215l41 324h-219l-41 -324h-215l41 324h-184zM498 545h219l43 342h-219z" />
<glyph unicode="$" horiz-adv-x="1140" d="M70 166l133 217q88 -57 203.5 -103.5t195.5 -46.5q68 0 114 36t46 102q0 37 -16.5 66.5t-56.5 57t-72.5 45t-102.5 51.5t-111 54q-90 47 -149 92t-109.5 130t-50.5 192q0 162 101.5 269.5t281.5 123.5v188h203v-198q184 -31 354 -131l-133 -219q-205 109 -342 108 q-68 0 -112 -32.5t-44 -98.5q0 -35 16.5 -63.5t54.5 -53t72 -42t97.5 -47t104.5 -50.5q66 -35 111.5 -66.5t99 -83t82 -123t28.5 -157.5q0 -166 -103.5 -276.5t-285.5 -124.5v-187h-203v197q-236 45 -407 174z" />
<glyph unicode="%" horiz-adv-x="1728" d="M63 1073q0 180 85 281.5t247 101.5t248 -102.5t86 -280.5q0 -180 -85 -282.5t-249 -102.5q-162 0 -247 102.5t-85 282.5zM268 1073q0 -203 127 -203t127 203t-127 203t-127 -203zM453 0l604 1434h215l-602 -1434h-217zM999 362q0 178 85 280.5t247 102.5t248 -102 t86 -281q0 -180 -85 -282.5t-249 -102.5q-162 0 -247 102.5t-85 282.5zM1206 362.5q0 -202.5 125 -202.5q127 0 127 202.5t-127 202.5q-125 0 -125 -202.5z" />
<glyph unicode="&#x26;" horiz-adv-x="1271" d="M104 354q0 123 63.5 218.5t176.5 187.5q-154 190 -154 358q0 156 100.5 247t260.5 91t255 -91t95 -228q0 -111 -60.5 -204t-168.5 -192l194 -235q47 117 54 250h280q-27 -246 -162 -457l250 -299h-321l-90 109q-158 -131 -361 -132q-180 0 -296 105.5t-116 271.5z M377 369q0 -66 42 -118t118 -52q94 0 190 92l-233 287q-117 -117 -117 -209zM436 1110q0 -90 94 -203q123 109 123 209q0 53 -26.5 91t-77.5 38q-53 0 -83 -40t-30 -95z" />
<glyph unicode="'" horiz-adv-x="432" d="M84 1434h264l-45 -560h-174z" />
<glyph unicode="(" horiz-adv-x="620" d="M119 188v1047q0 63 1 94t5 79t14.5 71.5t28.5 58.5t47 54.5t70 44t96 44t129 37.5l70 -168q-117 -51 -143.5 -94t-26.5 -153v-1180q0 -111 26.5 -154t143.5 -94l-70 -168q-74 18 -129 37.5t-96 44.5t-70 44.5t-47 53t-28.5 58t-14.5 71.5t-5 78t-1 94z" />
<glyph unicode=")" horiz-adv-x="620" d="M41 -125q117 51 143.5 94t26.5 154v1180q0 111 -26.5 153.5t-143.5 93.5l70 168q74 -18 129 -37.5t96 -44t69.5 -44t47 -53.5t29 -58.5t14.5 -71.5t5 -78t1 -94v-1047q0 -63 -1 -93.5t-5 -79t-14.5 -72t-29 -58t-47 -54t-69.5 -44.5t-96.5 -44t-128.5 -38z" />
<glyph unicode="*" horiz-adv-x="921" d="M80 958l303 86l-303 86l119 205l223 -225l-78 307h236l-78 -305l221 221l117 -205l-291 -81l291 -89l-119 -202l-217 211l76 -297h-236l78 307l-223 -221z" />
<glyph unicode="+" d="M127 573v220h324v340h219v-340h325v-220h-325v-340h-219v340h-324z" />
<glyph unicode="," horiz-adv-x="503" d="M102 -227l131 227h-127v338h283l19 -375l-230 -289z" />
<glyph unicode="-" horiz-adv-x="768" d="M109 465v237h550v-237h-550z" />
<glyph unicode="." horiz-adv-x="499" d="M106 0v338h285v-338h-285z" />
<glyph unicode="/" horiz-adv-x="825" d="M37 -184l547 1802h209l-547 -1802h-209z" />
<glyph unicode="0" horiz-adv-x="1191" d="M88 716.5q0 356.5 127 548t381 191.5t381 -191.5t127 -548t-128 -548t-382 -191.5q-252 0 -379 191.5t-127 548zM383 717q0 -502 211 -502q215 0 215 502q0 258 -52 379t-161 121t-161 -121t-52 -379z" />
<glyph unicode="1" horiz-adv-x="770" d="M14 1217l330 217h277v-1434h-291v1149l-197 -125z" />
<glyph unicode="2" horiz-adv-x="1081" d="M68 0v141q0 104 29.5 193.5t91 165t109.5 123t130 112.5q76 61 105.5 87t76.5 73t64.5 86t17.5 80q0 61 -41 101t-114 40q-123 0 -306 -127l-133 197q225 184 480 184q197 0 303 -109.5t106 -275.5q0 -76 -25.5 -148.5t-57.5 -121.5t-91 -108.5t-92 -86t-98 -76.5 q-72 -59 -107 -91.5t-65.5 -83t-30.5 -101.5h569v-254h-921z" />
<glyph unicode="3" horiz-adv-x="1081" d="M41 152l133 206q211 -123 336 -122q86 0 140.5 50t54.5 136q0 61 -32 106t-84 66.5t-103.5 32t-102.5 10.5h-47v254h55q98 0 181 43t83 135q0 59 -36.5 95t-108.5 36q-125 0 -293 -113l-123 191q229 178 469 178q186 0 285.5 -98t99.5 -244q0 -217 -203 -323 q113 -41 183.5 -142.5t70.5 -234.5q0 -180 -110.5 -308.5t-337.5 -128.5q-266 1 -510 175z" />
<glyph unicode="4" horiz-adv-x="1187" d="M45 276v216l522 942h387v-904h179v-254h-179v-276h-290v276h-619zM319 530h345v623z" />
<glyph unicode="5" horiz-adv-x="1075" d="M59 156l134 217q170 -133 301 -133q90 0 149 61t59 164q0 94 -53 159.5t-151 65.5q-96 0 -219 -80l-162 99l63 725h772v-254h-526l-10 -265q74 23 155 23q205 0 315.5 -136t110.5 -335q0 -207 -118.5 -348.5t-343.5 -141.5q-250 0 -476 179z" />
<glyph unicode="6" horiz-adv-x="1118" d="M84 594q-2 391 198.5 626.5t514.5 235.5q49 0 94 -5t67 -11l21 -6l-68 -240q-51 12 -110 12q-135 0 -246 -97t-154 -304q109 119 269 119q170 0 276.5 -125t106.5 -322q0 -213 -127 -356.5t-342 -143.5q-246 0 -373 177.5t-127 439.5zM379 561q0 -158 57.5 -246 t143.5 -88q90 0 136 71t46 165q0 98 -47 164.5t-133 66.5q-70 0 -123 -40t-80 -93z" />
<glyph unicode="7" horiz-adv-x="929" d="M51 1180v254h848v-236q-16 -25 -45 -70t-101.5 -181t-128 -271t-101.5 -322.5t-46 -353.5h-301q0 188 55.5 398t137.5 380t132 260t85 142h-535z" />
<glyph unicode="8" horiz-adv-x="1155" d="M78 377q0 252 270 401q-197 131 -196 330q0 154 113.5 251t312 97t312.5 -97t114 -251q0 -199 -199 -332q272 -150 272 -399q0 -184 -132 -292t-367.5 -108t-367.5 108t-132 292zM373 397q0 -84 56 -135t148.5 -51t148.5 51t56 135q0 152 -204 260q-205 -109 -205 -260z M430 1083q0 -123 148 -198q147 76 147 198q0 57 -40 102.5t-107.5 45.5t-107.5 -45.5t-40 -102.5z" />
<glyph unicode="9" horiz-adv-x="1118" d="M63 956q0 213 127 356.5t345 143.5q246 0 372.5 -177t126.5 -439q2 -391 -198.5 -627t-513.5 -236q-49 0 -94.5 5.5t-67.5 11.5l-21 6l68 240q49 -13 110 -13q135 0 246 97.5t154 304.5q-109 -119 -268 -119q-170 0 -278 125t-108 321zM356 971q0 -98 47.5 -165 t133.5 -67q70 0 123 40t79 91q-2 158 -58 247t-142 89q-90 0 -136.5 -70.5t-46.5 -164.5z" />
<glyph unicode=":" horiz-adv-x="524" d="M119 0v338h284v-338h-284zM119 645v338h284v-338h-284z" />
<glyph unicode=";" horiz-adv-x="538" d="M119 -227l131 227h-127v338h283l18 -375l-229 -289zM123 645v338h285v-338h-285z" />
<glyph unicode="&#x3c;" d="M102 582v202l869 420v-268l-580 -254l580 -254v-266z" />
<glyph unicode="=" d="M127 379v223h868v-223h-868zM127 768v223h868v-223h-868z" />
<glyph unicode="&#x3e;" d="M154 162v268l579 254l-579 254v266l868 -420v-202z" />
<glyph unicode="?" horiz-adv-x="940" d="M53 1298q205 158 424 158q174 0 287 -98t113 -264q0 -297 -394 -439l-14 -192h-174l-16 350q162 47 232.5 99.5t70.5 140.5q0 66 -40 107.5t-114 41.5q-100 0 -248 -102zM242 0v311h282v-311h-282z" />
<glyph unicode="@" horiz-adv-x="1644" d="M78 518q0 391 203.5 639t554.5 248q342 0 530 -243.5t190 -641.5q0 -119 -17 -219t-56 -184t-107.5 -131t-163.5 -47q-117 0 -175 76.5t-68 168.5q-125 -137 -271 -137q-115 0 -189.5 79t-74.5 226q0 150 78 230t201 80q72 0 254 -50v95q0 88 -31 125.5t-105 37.5 q-117 0 -276 -77l-70 151q213 94 385 94q152 0 224.5 -79.5t72.5 -253.5v-353q0 -68 2 -107.5t11.5 -82.5t30 -63.5t53.5 -20.5q76 0 131 110.5t55 335.5q0 338 -157.5 556t-456.5 218q-309 0 -480.5 -220t-171.5 -560t165 -559t437 -219q88 0 167 21.5t114 41.5l35 23 l59 -86q-14 -12 -42.5 -29.5t-128 -47.5t-210.5 -30q-313 0 -507.5 251t-194.5 634zM639 369q0 -78 34 -116t89 -38q102 0 205 125v160q-123 35 -185 35q-143 0 -143 -166z" />
<glyph unicode="A" horiz-adv-x="1232" d="M18 0l437 1434h323l436 -1434h-315l-72 285h-424l-69 -285h-316zM463 526h305l-152 617z" />
<glyph unicode="B" horiz-adv-x="1212" d="M135 0v1434h473q236 0 355.5 -89.5t119.5 -259.5q0 -137 -66.5 -221t-142.5 -98q94 -16 182.5 -110.5t88.5 -270.5q0 -182 -113.5 -283.5t-349.5 -101.5h-547zM428 238h197h2q229 0 229 198q0 205 -256 205h-172v-403zM428 862h158q209 0 209 170q0 164 -205 164h-162 v-334z" />
<glyph unicode="C" horiz-adv-x="1132" d="M80 716.5q0 366.5 135 553t360 186.5q129 0 246 -50t271 -144l-136 -224q-88 53 -124.5 74t-102 45.5t-115.5 24.5q-113 0 -173 -124t-60 -341t60.5 -341t172.5 -124q49 0 115 24.5t103.5 46t125.5 74.5l134 -225q-154 -94 -270.5 -144.5t-246.5 -50.5q-225 0 -360 186.5 t-135 553z" />
<glyph unicode="D" horiz-adv-x="1261" d="M135 0v1434h414q313 0 472 -171t159 -546t-159 -546t-472 -171h-414zM428 260h111q176 0 263 103.5t87 353.5t-87 353.5t-263 103.5h-111v-914z" />
<glyph unicode="E" horiz-adv-x="1079" d="M135 0v1434h856v-260h-563v-330h461v-254h-461v-330h573v-260h-866z" />
<glyph unicode="F" horiz-adv-x="1032" d="M135 0v1434h856v-260h-563v-330h444v-256h-444v-588h-293z" />
<glyph unicode="G" horiz-adv-x="1232" d="M80 719q0 365 138 551t366 186q137 0 262 -53t274 -148l-133 -225q-197 115 -274 137q-49 14 -90 15q-117 0 -179.5 -125t-62.5 -350q0 -213 59.5 -341t178 -128t245.5 168v174h-264v241h535v-821h-271v139q-154 -162 -317 -162q-201 0 -334 189.5t-133 552.5z" />
<glyph unicode="H" horiz-adv-x="1275" d="M135 0v1434h293v-555h422v555h291v-1434h-291v625h-422v-625h-293z" />
<glyph unicode="I" horiz-adv-x="563" d="M135 0v1434h293v-1434h-293z" />
<glyph unicode="J" horiz-adv-x="561" d="M-59 -133q139 55 166.5 95t27.5 151v1321h293v-1305q0 -59 -1 -86t-4 -72t-10 -66.5t-19.5 -55t-33 -51t-49 -42t-67.5 -42t-90.5 -37t-116.5 -37.5z" />
<glyph unicode="K" horiz-adv-x="1224" d="M135 0v1434h293v-627l414 627h356l-481 -662l500 -772h-347l-329 530l-113 -155v-375h-293z" />
<glyph unicode="L" horiz-adv-x="1005" d="M135 0v1434h293v-1174h545v-260h-838z" />
<glyph unicode="M" horiz-adv-x="1490" d="M135 0v1434h299l311 -818l312 818h299v-1434h-293v891l-246 -651h-143l-246 651v-891h-293z" />
<glyph unicode="N" horiz-adv-x="1304" d="M135 0v1434h297l445 -926v926h292v-1434h-297l-444 922v-922h-293z" />
<glyph unicode="O" horiz-adv-x="1320" d="M78 717q0 336 140 537.5t441 201.5q156 0 270.5 -56.5t181.5 -158.5t98.5 -232t31.5 -292q0 -160 -31.5 -290t-98.5 -233.5t-181.5 -160t-270.5 -56.5q-301 0 -441 203t-140 537zM378 717q0 -477 281 -477q283 0 283 477t-283 477q-281 0 -281 -477z" />
<glyph unicode="P" horiz-adv-x="1179" d="M135 0v1434h473q516 0 516 -465q0 -461 -516 -461h-180v-508h-293zM428 760h172q229 0 229 209q0 211 -229 211h-172v-420z" />
<glyph unicode="Q" horiz-adv-x="1320" d="M78 717q0 336 140 537.5t441 201.5q156 0 270.5 -56.5t181.5 -158.5t98.5 -232t31.5 -292q0 -512 -295 -674l195 -182l-193 -207l-289 323q-301 0 -441 203t-140 537zM378 717q0 -477 281 -477q283 0 283 477t-283 477q-281 0 -281 -477z" />
<glyph unicode="R" horiz-adv-x="1234" d="M135 0v1434h508q264 0 391 -108t127 -331q0 -336 -293 -415l295 -580h-315l-266 555h-154v-555h-293zM428 797h207h2q229 0 229 198q0 197 -227 197h-211v-395z" />
<glyph unicode="S" horiz-adv-x="1116" d="M55 166l133 217q88 -57 204 -103.5t196 -46.5q68 0 114 36t46 102q0 37 -16.5 66.5t-56.5 57t-73 45t-102.5 51.5t-110.5 54q-90 47 -149.5 92t-109.5 130t-50 192q0 176 117.5 286.5t326.5 110.5q252 0 496 -145l-133 -219q-203 108 -340 108h-2q-68 0 -112 -32.5 t-44 -98.5q0 -35 16.5 -63.5t54.5 -53t71.5 -42t97 -47.5t104.5 -50q66 -35 112 -66.5t99 -83t82 -123t29 -157.5q0 -180 -120 -293t-327 -113q-150 0 -299 56.5t-254 132.5z" />
<glyph unicode="T" horiz-adv-x="1034" d="M35 1174v260h964v-260h-333v-1174h-293v1174h-338z" />
<glyph unicode="U" horiz-adv-x="1259" d="M123 537v897h293v-922q0 -129 45 -200.5t168 -71.5t169 71.5t46 200.5v922h293v-897q0 -127 -21.5 -220.5t-76 -174.5t-157 -123t-253.5 -42q-121 0 -211 29t-145.5 78t-90.5 122t-47 151.5t-12 179.5z" />
<glyph unicode="V" horiz-adv-x="1228" d="M16 1434h330l268 -1078l271 1078h327l-436 -1434h-323z" />
<glyph unicode="W" horiz-adv-x="1683" d="M35 1434h327l168 -979l197 979h229l197 -979l168 979h328l-328 -1434h-283l-196 954l-197 -954h-283z" />
<glyph unicode="X" horiz-adv-x="1159" d="M12 0l389 723l-368 711h334l213 -502l213 502h333l-370 -711l391 -723h-344l-223 489l-226 -489h-342z" />
<glyph unicode="Y" horiz-adv-x="1150" d="M10 1434h326l239 -576l240 576h328l-422 -867v-567h-291v567z" />
<glyph unicode="Z" horiz-adv-x="1110" d="M59 0v233l603 941h-566v260h932v-232l-602 -942h610v-260h-977z" />
<glyph unicode="[" horiz-adv-x="667" d="M133 -293v2011h490v-176h-197v-1661h197v-174h-490z" />
<glyph unicode="\" horiz-adv-x="825" d="M33 1618h209l549 -1802h-211z" />
<glyph unicode="]" horiz-adv-x="667" d="M45 -117h197v1661h-197v174h490v-2011h-490v176z" />
<glyph unicode="^" d="M104 670l314 764h287l313 -764h-295l-162 487l-160 -487h-297z" />
<glyph unicode="_" horiz-adv-x="1226" d="M104 -147h1018v-211h-1018v211z" />
<glyph unicode="`" horiz-adv-x="405" d="M-57 1493h309l211 -283h-230z" />
<glyph unicode="a" horiz-adv-x="1050" d="M55 328q0 166 91.5 257t240.5 91q68 0 279 -49v88q0 86 -32 122.5t-114 36.5q-98 0 -315 -79l-90 202q268 100 463 101q193 0 280.5 -89t87.5 -296v-713h-280v127q-137 -150 -301 -150q-139 0 -224.5 94.5t-85.5 256.5zM340 354q0 -147 123 -147q100 0 203 112v160 q-104 35 -181 35q-72 0 -108.5 -43t-36.5 -117z" />
<glyph unicode="b" horiz-adv-x="1093" d="M111 0v1493h280v-539q139 143 289 144q160 0 253 -142.5t93 -418.5q0 -274 -93 -417t-253 -143q-147 0 -289 142v-119h-280zM391 352q84 -137 197 -137q154 0 153 324q1 321 -153 321q-111 0 -197 -139v-369z" />
<glyph unicode="c" horiz-adv-x="907" d="M68 538.5q0 274.5 116.5 417t290.5 142.5q153 0 391 -131l-112 -215q-8 4 -41 22.5t-49.5 26.5t-44 21.5t-51 18.5t-44.5 5q-82 0 -127 -83t-45 -224.5t45 -225.5t125 -84q23 0 47.5 6.5t53 19.5t45 20.5t49.5 27t37 21.5l112 -215q-227 -131 -391 -132 q-174 0 -290.5 143.5t-116.5 418z" />
<glyph unicode="d" horiz-adv-x="1093" d="M70 536.5q0 276.5 92 419t254 142.5q141 0 286 -142v537h281v-1493h-281v117q-143 -139 -286 -140q-162 0 -254 141.5t-92 418zM354 539q0 -324 152 -324q104 0 196 135v375q-92 135 -196 135q-152 0 -152 -321z" />
<glyph unicode="e" horiz-adv-x="1013" d="M68 535q0 268 118.5 415.5t331.5 147.5q209 0 318.5 -130t109.5 -343q0 -39 -4 -77t-8 -56l-4 -19h-576q16 -276 176 -276q92 0 314 127l106 -181q-246 -166 -452 -166q-190 0 -310 141.5t-120 416.5zM354 633h324q0 254 -154 254q-152 0 -170 -254z" />
<glyph unicode="f" horiz-adv-x="688" d="M45 858v217h119v55q0 186 66.5 274.5t203.5 88.5q135 0 320 -84l-97 -209q-104 39 -145 39q-68 0 -68 -94v-70h213v-217h-213v-858h-280v858h-119z" />
<glyph unicode="g" horiz-adv-x="1093" d="M70 536.5q0 276.5 92 419t254 142.5q141 0 286 -142v119h281v-1091q0 -219 -95 -320.5t-300 -101.5q-227 0 -479 86l61 225q219 -82 358 -82q94 0 134 44t40 140v142q-143 -139 -286 -140q-162 0 -254 141.5t-92 418zM354 539q0 -324 152 -324q104 0 196 135v375 q-92 135 -196 135q-152 0 -152 -321z" />
<glyph unicode="h" horiz-adv-x="1097" d="M111 0v1493h280v-549q55 45 96 72.5t109 54.5t135 27q131 0 195.5 -85t64.5 -237v-776h-280v715q0 153 -98 153h-1q-106 0 -221 -141v-727h-280z" />
<glyph unicode="i" horiz-adv-x="503" d="M104 1231v256h293v-256h-293zM111 0v1075h280v-1075h-280z" />
<glyph unicode="j" horiz-adv-x="501" d="M-84 -248q139 57 167 96t28 158v1069h280v-1046v-79t-3 -68t-7 -61.5t-14.5 -51t-23.5 -48t-34.5 -41t-49.5 -40t-64.5 -34t-84 -34.5t-104.5 -33zM104 1231v256h293v-256h-293z" />
<glyph unicode="k" horiz-adv-x="1015" d="M111 0v1493h280v-840l252 422h322l-306 -428l357 -647h-297l-221 420l-107 -150v-270h-280z" />
<glyph unicode="l" horiz-adv-x="512" d="M115 0v1493h280v-1493h-280z" />
<glyph unicode="m" horiz-adv-x="1613" d="M111 0v1075h280v-139q139 162 299 162q186 0 242 -183q147 182 317 183q129 0 194.5 -86t65.5 -236v-776h-280v702q0 166 -94.5 166t-184.5 -137v-731h-280v702q0 166 -95 166q-92 0 -184 -139v-729h-280z" />
<glyph unicode="n" horiz-adv-x="1097" d="M111 0v1075h280v-131q180 154 340 154q131 0 195.5 -85t64.5 -237v-776h-280v715q0 153 -98 153h-1q-106 0 -221 -141v-727h-280z" />
<glyph unicode="o" horiz-adv-x="1073" d="M66 539q0 266 120.5 412.5t350 146.5t350.5 -147.5t121 -413.5q0 -268 -120 -414t-351 -146q-229 0 -350 146.5t-121 415.5zM350 539q0 -334 186.5 -334t186.5 332q0 334 -186 334l-1 -1q-186 0 -186 -331z" />
<glyph unicode="p" horiz-adv-x="1093" d="M111 -418v1493h280v-121q139 143 289 144q160 0 253 -142.5t93 -418.5q0 -274 -93 -417t-253 -143q-147 0 -289 142v-537h-280zM391 352q84 -137 197 -137q154 0 153 324q1 321 -153 321q-111 0 -197 -139v-369z" />
<glyph unicode="q" horiz-adv-x="1093" d="M70 536.5q0 276.5 92 419t254 142.5q141 0 286 -142v119h281v-1493h-281v535q-143 -139 -286 -140q-162 0 -254 141.5t-92 418zM354 539q0 -324 152 -324q104 0 196 135v375q-92 135 -196 135q-152 0 -152 -321z" />
<glyph unicode="r" horiz-adv-x="751" d="M111 0v1075h280v-225q12 33 30.5 64.5t56.5 79.5t100 74q49 20 109 20q16 0 32 -1v-276q-82 0 -146.5 -36t-97.5 -86t-53.5 -100t-24.5 -85l-6 -37v-467h-280z" />
<glyph unicode="s" horiz-adv-x="940" d="M51 117l113 202q76 -43 175 -78.5t163 -35.5q47 0 75.5 21.5t28.5 58.5t-32.5 65.5t-64.5 42t-97 33.5q-16 6 -25 8q-317 109 -317 348q0 139 95 227.5t265 88.5q211 0 422 -117l-113 -190q-176 81 -281 81h-3q-47 0 -76 -21.5t-29 -57.5q0 -16 5 -30.5t19.5 -27 t26 -21.5t37 -18.5t37.5 -14.5t44 -15.5t44 -14.5q145 -49 236.5 -132t91.5 -224q0 -145 -98.5 -231.5t-272.5 -86.5q-125 0 -255 42t-214 98z" />
<glyph unicode="t" horiz-adv-x="753" d="M47 858v217h121v258l281 53v-311h237v-217h-237v-522q0 -102 67 -103q41 0 131 46l96 -216q-172 -86 -301 -86q-141 0 -207.5 85t-66.5 266v530h-121z" />
<glyph unicode="u" horiz-adv-x="1097" d="M104 299v776h283v-715q0 -153 97 -153h1q100 0 222 137v731h280v-1075h-280v129q-184 -152 -340 -152q-133 0 -198 86.5t-65 235.5z" />
<glyph unicode="v" horiz-adv-x="1019" d="M25 1075h297l188 -743l188 743h297l-346 -1075h-278z" />
<glyph unicode="w" horiz-adv-x="1460" d="M37 1075h295l129 -719l164 719h211l161 -717l129 717h297l-270 -1075h-258l-166 684l-162 -684h-260z" />
<glyph unicode="x" horiz-adv-x="1056" d="M10 0l346 539l-327 536h317l182 -360l183 360h315l-328 -534l349 -541h-328l-191 373l-190 -373h-328z" />
<glyph unicode="y" horiz-adv-x="1021" d="M25 1075h299l186 -731l186 731h301l-481 -1493h-301l160 400z" />
<glyph unicode="z" horiz-adv-x="980" d="M63 0v205l492 629h-475v241h829v-205l-489 -626h489v-244h-846z" />
<glyph unicode="{" horiz-adv-x="708" d="M33 621v184q100 0 136 57.5t24 173.5l-21 191q-27 244 96 367.5t357 123.5h30v-170h-30q-186 0 -160 -295l16 -161q18 -172 -45 -261.5t-207 -117.5q143 -29 207 -118t45 -261l-16 -162q-27 -295 160 -295h30v-170h-30q-233 0 -356.5 124t-96.5 368l21 190 q12 117 -24 174.5t-136 57.5z" />
<glyph unicode="|" horiz-adv-x="471" d="M133 -252v1927h205v-1927h-205z" />
<glyph unicode="}" horiz-adv-x="708" d="M53 -123h31q186 0 160 295l-17 162q-18 172 45.5 261t206.5 118q-143 29 -206.5 118t-45.5 261l17 161q27 295 -160 295h-31v170h31q233 0 356 -124t97 -367l-21 -191q-12 -117 24 -174t136 -57v-184q-100 0 -136 -57.5t-24 -174.5l21 -190q27 -244 -96.5 -368 t-356.5 -124h-31v170z" />
<glyph unicode="~" d="M51 446q109 309 314 310q72 0 144.5 -38t137 -76t115.5 -38q43 0 76.5 27.5t72.5 107.5l160 -69q-109 -309 -313 -310q-82 0 -211 76t-189 76q-41 0 -72.5 -27.5t-72.5 -107.5z" />
<glyph unicode="&#xa1;" horiz-adv-x="569" d="M115 0l86 971h170l86 -971h-342zM143 1122v312h285v-312h-285z" />
<glyph unicode="&#xa2;" horiz-adv-x="985" d="M86 719q0 258 105.5 399.5t265.5 157.5v158h200v-183q96 -29 252 -114l-116 -215q-6 2 -42 23.5t-53.5 30.5t-48.5 23.5t-56.5 20.5t-47.5 6q-82 0 -127 -83t-45 -224t45 -225t127 -84q23 0 48 6t56 20.5t48.5 23.5t53 30.5t42.5 23.5l116 -215q-156 -86 -252 -115v-184 h-200v160q-160 16 -265.5 158.5t-105.5 400.5z" />
<glyph unicode="&#xa3;" horiz-adv-x="1017" d="M92 0v207q8 4 19.5 11t43 36t57.5 60.5t48.5 85t28.5 110.5h-178v178h153q-14 39 -52 118t-60.5 150.5t-22.5 151.5q0 164 96.5 256t266.5 92q209 0 452 -172l-131 -192q-162 111 -262 110q-63 0 -96 -38t-33 -101q0 -68 57.5 -186.5t73.5 -188.5h264v-178h-254 q-10 -82 -43 -150.5t-67 -105.5h473v-254h-834z" />
<glyph unicode="&#xa5;" horiz-adv-x="1234" d="M51 1434h326l239 -576l240 576h328l-324 -664h199v-174h-283l-14 -29v-96h297v-174h-297v-297h-291v297h-295v174h295v96l-14 29h-281v174h197z" />
<glyph unicode="&#xa6;" horiz-adv-x="477" d="M137 -252v846h203v-846h-203zM137 829v846h203v-846h-203z" />
<glyph unicode="&#xa7;" horiz-adv-x="1013" d="M80 649q0 172 151 244q-121 96 -120 248q0 139 96 227t266 88q209 0 420 -117l-111 -190q-172 84 -284 84q-49 0 -77 -21.5t-28 -58.5q0 -18 6.5 -32.5t19.5 -27t25.5 -21.5t36 -18.5t37.5 -14.5t45 -15t43 -14q328 -113 328 -348q0 -172 -154 -246q121 -96 121 -248 q0 -139 -95 -227t-265 -88q-211 0 -422 116l112 191q172 -84 283 -84q106 0 107 80q0 20 -10.5 38.5t-24 30t-39 23.5t-42 18t-50 17.5t-47.5 15.5q-328 113 -328 350zM348 680q0 -25 12.5 -45.5t27.5 -33.5t49 -29.5t56.5 -23.5t67.5 -24q105 21 105 105q0 31 -15.5 53.5 t-52.5 41.5t-63.5 29.5t-83.5 30.5q-102 -20 -103 -104z" />
<glyph unicode="&#xa8;" horiz-adv-x="423" d="M-53 1231v235h215v-235h-215zM262 1231v235h215v-235h-215z" />
<glyph unicode="&#xa9;" horiz-adv-x="1626" d="M82 716.5q0 321.5 194.5 530.5t536.5 209t535.5 -209t193.5 -530.5t-193.5 -530.5t-535.5 -209t-536.5 209t-194.5 530.5zM164 717q0 -291 172 -477.5t475 -186.5q307 0 480 186.5t173 477.5t-173 477t-480 186q-303 0 -475 -186t-172 -477zM442 715q0 213 102.5 329.5 t254.5 116.5q162 0 342 -127l-58 -69q-150 113 -280 112q-115 0 -187.5 -100t-72.5 -262t71.5 -260.5t188.5 -98.5q129 0 280 109l58 -68q-180 -127 -342 -127q-152 0 -254.5 117t-102.5 328z" />
<glyph unicode="&#xaa;" horiz-adv-x="745" d="M72 987q0 98 57 153.5t154 55.5q41 0 170 -29v43q0 47 -18.5 66.5t-67.5 19.5q-61 0 -197 -47l-61 137q176 61 297 62q125 0 182 -56.5t57 -185.5v-418h-192v70q-84 -84 -187 -84q-88 0 -141 58.5t-53 154.5zM266 1006q0 -76 70 -76q55 0 117 57v82q-59 18 -105 18 q-82 0 -82 -81z" />
<glyph unicode="&#xab;" horiz-adv-x="1169" d="M55 467v178l508 434v-297l-289 -227l289 -227v-297zM561 467v178l508 434v-297l-289 -227l289 -227v-297z" />
<glyph unicode="&#xac;" d="M55 571v224h994v-611h-232v387h-762z" />
<glyph unicode="&#xad;" horiz-adv-x="768" d="M109 465v237h550v-237h-550z" />
<glyph unicode="&#xae;" horiz-adv-x="890" d="M80 1106q0 160 98 264.5t266 104.5t266.5 -104.5t98.5 -264.5t-98.5 -264.5t-266.5 -104.5t-266 104.5t-98 264.5zM154 1106q0 -133 74.5 -217t216 -84t217 84t75.5 217t-75.5 218t-217 85t-216 -85t-74.5 -218zM309 926v370h172q57 0 91 -30.5t34 -77.5 q0 -39 -25.5 -65.5t-66.5 -37.5l86 -159h-70l-84 155h-73v-155h-64zM373 1141h106q60 0 60 47q0 49 -56 49h-110v-96z" />
<glyph unicode="&#xaf;" horiz-adv-x="524" d="M0 1262v174h524v-174h-524z" />
<glyph unicode="&#xb0;" horiz-adv-x="790" d="M66 1106q0 137 96 233.5t233 96.5t233.5 -96.5t96.5 -233.5t-96.5 -234.5t-233.5 -97.5t-233 97.5t-96 234.5zM233 1105.5q0 -65.5 48.5 -112.5t113.5 -47q63 0 110.5 47t47.5 112.5t-46 113t-111.5 47.5t-114 -47.5t-48.5 -113z" />
<glyph unicode="&#xb1;" d="M127 0v193h868v-193h-868zM127 604v223h322v277h223v-277h323v-223h-323v-278h-223v278h-322z" />
<glyph unicode="&#xb2;" horiz-adv-x="714" d="M51 788v91q0 80 38 152.5t80 112.5t107 91q121 90 146 125q20 29 20 57q0 33 -23.5 52.5t-66.5 19.5q-82 0 -190 -76l-90 131q150 119 309 119q127 0 194.5 -67.5t67.5 -170.5q0 -74 -43 -142.5t-81 -99t-103 -77.5q-63 -45 -93 -78t-30 -67h352v-173h-594z" />
<glyph unicode="&#xb3;" horiz-adv-x="712" d="M35 885l90 141q127 -78 213 -78q51 0 82 25.5t31 70.5q0 113 -197 113h-31v172h37q59 0 109.5 21.5t50.5 70.5q0 68 -84 68q-76 0 -184 -68l-84 127q147 115 305 115q119 0 182 -60.5t63 -148.5q0 -125 -122 -190q68 -25 111.5 -85.5t43.5 -138.5q0 -111 -70.5 -188.5 t-215.5 -77.5q-168 0 -330 111z" />
<glyph unicode="&#xb4;" horiz-adv-x="405" d="M-57 1210l211 283h309l-291 -283h-229z" />
<glyph unicode="&#xb5;" horiz-adv-x="1153" d="M133 -418v1493h281v-715q0 -154 98 -153q100 0 221 137v731h281v-1075h-281v129q-170 -141 -319 -152v-395h-281z" />
<glyph unicode="&#xb6;" horiz-adv-x="1273" d="M53 944q0 246 128 368t347 122h232v-1813h-236v834q-203 0 -337 122.5t-134 366.5zM885 -379v1813h237v-1813h-237z" />
<glyph unicode="&#xb7;" horiz-adv-x="501" d="M109 416v338h284v-338h-284z" />
<glyph unicode="&#xb8;" horiz-adv-x="313" d="M-18 -330l53 146q41 -25 78 -25q78 0 77 78q0 29 -11 62.5t-23 52.5l-13 20h123q66 -88 66 -190q0 -94 -55.5 -141.5t-141.5 -47.5q-87 0 -153 45z" />
<glyph unicode="&#xb9;" horiz-adv-x="583" d="M14 1513l213 136h189v-861h-197v670l-123 -76z" />
<glyph unicode="&#xba;" horiz-adv-x="741" d="M70 1112q0 160 76.5 248t224 88t224.5 -88t77 -250t-77 -249t-224 -87q-145 0 -223 88t-78 250zM262 1112q0 -182 108.5 -182t108.5 180q0 182 -108.5 182t-108.5 -180z" />
<glyph unicode="&#xbb;" horiz-adv-x="1169" d="M102 31v297l289 227l-289 227v297l508 -436v-178zM606 31v297l289 227l-289 227v297l508 -436v-178z" />
<glyph unicode="&#xbc;" horiz-adv-x="1558" d="M45 1298l213 136h188v-861h-196v670l-123 -76zM328 0l549 1434h213l-549 -1434h-213zM793 158v145l325 557h262v-530h113v-172h-113v-158h-196v158h-391zM983 330h201v350z" />
<glyph unicode="&#xbd;" horiz-adv-x="1574" d="M45 1298l213 136h188v-861h-196v670l-123 -76zM328 0l549 1434h213l-549 -1434h-213zM893 0v90q0 80 38 152.5t80 112.5t107 91q121 90 146 125q20 29 20 58q0 33 -23.5 52t-66.5 19q-82 0 -190 -75l-91 131q150 119 310 118q125 0 193.5 -68.5t68.5 -168.5 q0 -74 -43 -142.5t-81 -99t-104 -78.5q-63 -45 -92.5 -77.5t-29.5 -67.5h352v-172h-594z" />
<glyph unicode="&#xbe;" horiz-adv-x="1708" d="M63 670l91 141q127 -78 213 -78q51 0 81.5 25.5t30.5 70.5q0 113 -196 113h-31v172h37q59 0 109.5 21.5t50.5 70.5q0 68 -84 68q-76 0 -185 -68l-84 127q147 115 305 115q119 0 182.5 -60.5t63.5 -148.5q0 -125 -123 -190q68 -25 112 -85.5t44 -138.5 q0 -111 -70.5 -188.5t-216.5 -77.5q-168 0 -330 111zM483 0l549 1434h213l-549 -1434h-213zM950 158v145l326 557h262v-530h113v-172h-113v-158h-197v158h-391zM1141 330h200v350z" />
<glyph unicode="&#xbf;" horiz-adv-x="937" d="M63 340q0 297 394 438l14 193h174l17 -350q-162 -47 -233 -99.5t-71 -140.5q0 -66 40 -108t114 -42q100 0 248 103l127 -199q-205 -158 -424 -158q-174 0 -287 98.5t-113 264.5zM416 1122v312h282v-312h-282z" />
<glyph unicode="&#xc0;" horiz-adv-x="1232" d="M18 0l437 1434h323l436 -1434h-315l-72 285h-424l-69 -285h-316zM283 1802h309l211 -282h-230zM463 526h305l-152 617z" />
<glyph unicode="&#xc1;" horiz-adv-x="1232" d="M18 0l437 1434h323l436 -1434h-315l-72 285h-424l-69 -285h-316zM432 1520l211 282h309l-290 -282h-230zM463 526h305l-152 617z" />
<glyph unicode="&#xc2;" horiz-adv-x="1232" d="M18 0l437 1434h323l436 -1434h-315l-72 285h-424l-69 -285h-316zM303 1520l180 282h265l180 -282h-191l-121 153l-122 -153h-191zM463 526h305l-152 617z" />
<glyph unicode="&#xc3;" horiz-adv-x="1232" d="M18 0l437 1434h323l436 -1434h-315l-72 285h-424l-69 -285h-316zM289 1595q31 70 50 107t59 71.5t89 34.5q51 0 135.5 -48t106.5 -48q14 0 24.5 5t27 26.5t34.5 62.5l123 -65q-33 -74 -50.5 -108t-57 -69.5t-89.5 -35.5q-51 0 -135 49t-108 49q-43 0 -86 -94zM463 526 h305l-152 617z" />
<glyph unicode="&#xc4;" horiz-adv-x="1232" d="M18 0l437 1434h323l436 -1434h-315l-72 285h-424l-69 -285h-316zM350 1546v236h215v-236h-215zM463 526h305l-152 617zM666 1546v236h215v-236h-215z" />
<glyph unicode="&#xc5;" horiz-adv-x="1232" d="M18 0l437 1434h323l436 -1434h-315l-72 285h-424l-69 -285h-316zM406 1714q0 90 62 152.5t150 62.5q90 0 153 -63.5t63 -151.5t-62.5 -151.5t-153.5 -63.5q-88 0 -150 62.5t-62 152.5zM463 526h305l-152 617zM539 1714q0 -35 23.5 -57.5t55.5 -22.5q35 0 58.5 23.5 t23.5 56.5q0 35 -24.5 58.5t-57 23.5t-56 -23.5t-23.5 -58.5z" />
<glyph unicode="&#xc6;" horiz-adv-x="1839" d="M-41 0l793 1434h999v-260h-563v-330h461v-254h-461v-330h573v-260h-866v285h-440l-148 -285h-348zM586 532h309v592z" />
<glyph unicode="&#xc7;" horiz-adv-x="1132" d="M80 717q0 367 135 553t360 186q129 0 246 -50t271 -144l-136 -224q-88 53 -124.5 74t-102 45.5t-115.5 24.5q-113 0 -173 -124t-60 -341t60.5 -341t172.5 -124q49 0 115 24.5t103.5 46t125.5 74.5l134 -225q-266 -164 -435 -188q53 -88 54 -170q0 -94 -55.5 -141.5 t-141.5 -47.5q-88 0 -154 45l54 146q41 -25 78 -25q78 0 77 78q0 49 -32 111q-209 16 -333 201.5t-124 535.5z" />
<glyph unicode="&#xc8;" horiz-adv-x="1079" d="M135 0v1434h856v-260h-563v-330h461v-254h-461v-330h573v-260h-866zM233 1802h310l211 -282h-230z" />
<glyph unicode="&#xc9;" horiz-adv-x="1079" d="M135 0v1434h856v-260h-563v-330h461v-254h-461v-330h573v-260h-866zM383 1520l211 282h309l-291 -282h-229z" />
<glyph unicode="&#xca;" horiz-adv-x="1079" d="M135 0v1434h856v-260h-563v-330h461v-254h-461v-330h573v-260h-866zM256 1520l180 282h264l181 -282h-191l-121 153l-123 -153h-190z" />
<glyph unicode="&#xcb;" horiz-adv-x="1079" d="M135 0v1434h856v-260h-563v-330h461v-254h-461v-330h573v-260h-866zM303 1540v236h215v-236h-215zM618 1540v236h216v-236h-216z" />
<glyph unicode="&#xcc;" horiz-adv-x="561" d="M-53 1802h309l211 -282h-229zM135 0v1434h293v-1434h-293z" />
<glyph unicode="&#xcd;" horiz-adv-x="563" d="M96 1520l211 282h309l-290 -282h-230zM135 0v1434h293v-1434h-293z" />
<glyph unicode="&#xce;" horiz-adv-x="563" d="M-33 1520l180 282h265l180 -282h-191l-120 153l-123 -153h-191zM135 0v1434h293v-1434h-293z" />
<glyph unicode="&#xcf;" horiz-adv-x="561" d="M14 1538v236h215v-236h-215zM135 0v1434h293v-1434h-293zM330 1538v236h215v-236h-215z" />
<glyph unicode="&#xd0;" horiz-adv-x="1282" d="M33 598v238h123v598h413q313 0 472 -171t159 -546t-158.5 -546t-472.5 -171h-413v598h-123zM449 260h110q176 0 263 103.5t87 353.5t-87 353.5t-263 103.5h-110v-338h229v-238h-229v-338z" />
<glyph unicode="&#xd1;" horiz-adv-x="1304" d="M135 0v1434h297l445 -926v926h292v-1434h-297l-444 922v-922h-293zM334 1608q31 70 50 106.5t59 71.5t89 35q51 0 135.5 -48.5t106.5 -48.5q14 0 24.5 5.5t27 27t34.5 62.5l123 -66q-33 -74 -50.5 -107.5t-57 -69.5t-89.5 -36q-51 0 -135 49t-108 49q-43 0 -86 -94z" />
<glyph unicode="&#xd2;" horiz-adv-x="1320" d="M78 717q0 336 140 537.5t441 201.5q156 0 270.5 -56.5t181.5 -158.5t98.5 -232t31.5 -292q0 -160 -31.5 -290t-98.5 -233.5t-181.5 -160t-270.5 -56.5q-301 0 -441 203t-140 537zM326 1802h309l211 -282h-230zM378 717q0 -477 281 -477q283 0 283 477t-283 477 q-281 0 -281 -477z" />
<glyph unicode="&#xd3;" horiz-adv-x="1320" d="M78 717q0 336 140 537.5t441 201.5q156 0 270.5 -56.5t181.5 -158.5t98.5 -232t31.5 -292q0 -160 -31.5 -290t-98.5 -233.5t-181.5 -160t-270.5 -56.5q-301 0 -441 203t-140 537zM378 717q0 -477 281 -477q283 0 283 477t-283 477q-281 0 -281 -477zM475 1520l211 282 h309l-290 -282h-230z" />
<glyph unicode="&#xd4;" horiz-adv-x="1320" d="M78 717q0 336 140 537.5t441 201.5q156 0 270.5 -56.5t181.5 -158.5t98.5 -232t31.5 -292q0 -160 -31.5 -290t-98.5 -233.5t-181.5 -160t-270.5 -56.5q-301 0 -441 203t-140 537zM346 1520l180 282h265l180 -282h-191l-121 153l-122 -153h-191zM378 717q0 -477 281 -477 q283 0 283 477t-283 477q-281 0 -281 -477z" />
<glyph unicode="&#xd5;" horiz-adv-x="1320" d="M78 717q0 336 140 537.5t441 201.5q156 0 270.5 -56.5t181.5 -158.5t98.5 -232t31.5 -292q0 -160 -31.5 -290t-98.5 -233.5t-181.5 -160t-270.5 -56.5q-301 0 -441 203t-140 537zM332 1595q31 70 50 107t59 71.5t89 34.5q51 0 135.5 -48t106.5 -48q14 0 24.5 5t27 26.5 t34.5 62.5l123 -65q-33 -74 -50.5 -108t-57 -69.5t-89.5 -35.5q-51 0 -135 49t-108 49q-43 0 -86 -94zM378 717q0 -477 281 -477q283 0 283 477t-283 477q-281 0 -281 -477z" />
<glyph unicode="&#xd6;" horiz-adv-x="1320" d="M78 717q0 336 140 537.5t441 201.5q156 0 270.5 -56.5t181.5 -158.5t98.5 -232t31.5 -292q0 -160 -31.5 -290t-98.5 -233.5t-181.5 -160t-270.5 -56.5q-301 0 -441 203t-140 537zM378 717q0 -477 281 -477q283 0 283 477t-283 477q-281 0 -281 -477zM395 1540v236h215 v-236h-215zM711 1540v236h215v-236h-215z" />
<glyph unicode="&#xd7;" d="M176 948l168 150l217 -244l217 242l168 -150l-233 -260l233 -258l-168 -149l-217 241l-215 -239l-168 149l232 258z" />
<glyph unicode="&#xd8;" horiz-adv-x="1316" d="M76 717q0 336 140 537.5t441 201.5q188 0 322 -88l43 66h201l-119 -185q135 -190 135 -532q0 -160 -31.5 -290t-98.5 -233.5t-181.5 -160t-270.5 -56.5q-186 0 -319 84l-39 -61h-201l117 180q-139 193 -139 537zM377 717q0 -139 24 -246l424 659q-68 63 -168 64 q-280 0 -280 -477zM492 299q63 -59 165 -59q283 0 283 477q0 135 -25 239z" />
<glyph unicode="&#xd9;" horiz-adv-x="1257" d="M123 537v897h293v-922q0 -129 45 -200.5t168 -71.5t169 71.5t46 200.5v922h293v-897q0 -127 -21.5 -220.5t-76 -174.5t-157 -123t-253.5 -42q-121 0 -211 29t-145.5 78t-90.5 122t-47 151.5t-12 179.5zM295 1802h309l211 -282h-229z" />
<glyph unicode="&#xda;" horiz-adv-x="1257" d="M123 537v897h293v-922q0 -129 45 -200.5t168 -71.5t169 71.5t46 200.5v922h293v-897q0 -127 -21.5 -220.5t-76 -174.5t-157 -123t-253.5 -42q-121 0 -211 29t-145.5 78t-90.5 122t-47 151.5t-12 179.5zM442 1520l211 282h310l-291 -282h-230z" />
<glyph unicode="&#xdb;" horiz-adv-x="1257" d="M123 537v897h293v-922q0 -129 45 -200.5t168 -71.5t169 71.5t46 200.5v922h293v-897q0 -127 -21.5 -220.5t-76 -174.5t-157 -123t-253.5 -42q-121 0 -211 29t-145.5 78t-90.5 122t-47 151.5t-12 179.5zM315 1520l181 282h264l180 -282h-190l-121 153l-123 -153h-191z" />
<glyph unicode="&#xdc;" horiz-adv-x="1257" d="M123 537v897h293v-922q0 -129 45 -200.5t168 -71.5t169 71.5t46 200.5v922h293v-897q0 -127 -21.5 -220.5t-76 -174.5t-157 -123t-253.5 -42q-121 0 -211 29t-145.5 78t-90.5 122t-47 151.5t-12 179.5zM362 1540v236h216v-236h-216zM678 1540v236h215v-236h-215z" />
<glyph unicode="&#xdd;" horiz-adv-x="1150" d="M10 1434h326l239 -576l240 576h328l-422 -867v-567h-291v567zM391 1520l211 282h309l-290 -282h-230z" />
<glyph unicode="&#xde;" horiz-adv-x="1183" d="M135 0v1434h293v-230h180q516 0 516 -462.5t-516 -462.5h-180v-279h-293zM428 530h152q125 0 187 47.5t62 164t-62 161.5t-187 45h-152v-418z" />
<glyph unicode="&#xdf;" horiz-adv-x="1275" d="M111 0v985q0 471 536.5 471t536.5 -465v-10l-127 -178q-129 70 -219 69q-84 0 -84 -77q0 -14 3 -26.5t10 -23t13 -18.5t20.5 -17.5t21.5 -14.5t25.5 -13t26 -11t29 -11.5t27.5 -10.5q291 -119 291 -360q0 -141 -88.5 -226.5t-247.5 -85.5q-115 0 -234 42t-194 98l114 200 q66 -43 148 -77.5t131 -34.5q37 0 62.5 21.5t25.5 60.5q0 20 -9 38.5t-19.5 30t-36 25.5t-37 19.5t-43 18.5t-37.5 15q-127 51 -206 131t-79 219.5t86 226.5t242 87q31 0 88 -8q-39 139 -240 139q-152 0 -203 -65.5t-51 -205.5v-958h-282z" />
<glyph unicode="&#xe0;" horiz-adv-x="1050" d="M55 328q0 166 91.5 257t240.5 91q68 0 279 -49v88q0 86 -32 122.5t-114 36.5q-98 0 -315 -79l-90 202q268 100 463 101q193 0 280.5 -89t87.5 -296v-713h-280v127q-137 -150 -301 -150q-139 0 -224.5 94.5t-85.5 256.5zM197 1493h309l211 -283h-230zM340 354 q0 -147 123 -147q100 0 203 112v160q-104 35 -181 35q-72 0 -108.5 -43t-36.5 -117z" />
<glyph unicode="&#xe1;" horiz-adv-x="1050" d="M55 328q0 166 91.5 257t240.5 91q68 0 279 -49v88q0 86 -32 122.5t-114 36.5q-98 0 -315 -79l-90 202q268 100 463 101q193 0 280.5 -89t87.5 -296v-713h-280v127q-137 -150 -301 -150q-139 0 -224.5 94.5t-85.5 256.5zM340 354q0 -147 123 -147q100 0 203 112v160 q-104 35 -181 35q-72 0 -108.5 -43t-36.5 -117zM346 1210l211 283h309l-291 -283h-229z" />
<glyph unicode="&#xe2;" horiz-adv-x="1050" d="M55 328q0 166 91.5 257t240.5 91q68 0 279 -49v88q0 86 -32 122.5t-114 36.5q-98 0 -315 -79l-90 202q268 100 463 101q193 0 280.5 -89t87.5 -296v-713h-280v127q-137 -150 -301 -150q-139 0 -224.5 94.5t-85.5 256.5zM217 1210l180 283h265l180 -283h-191l-121 154 l-122 -154h-191zM340 354q0 -147 123 -147q100 0 203 112v160q-104 35 -181 35q-72 0 -108.5 -43t-36.5 -117z" />
<glyph unicode="&#xe3;" horiz-adv-x="1050" d="M55 328q0 166 91.5 257t240.5 91q68 0 279 -49v88q0 86 -32 122.5t-114 36.5q-98 0 -315 -79l-90 202q268 100 463 101q193 0 280.5 -89t87.5 -296v-713h-280v127q-137 -150 -301 -150q-139 0 -224.5 94.5t-85.5 256.5zM207 1286q31 70 50 107t59 71.5t90 34.5 q51 0 135 -48t106 -48q14 0 24.5 5t27 26.5t34.5 62.5l123 -65q-33 -74 -50.5 -108t-57 -69.5t-89.5 -35.5q-51 0 -135 49t-108 49q-43 0 -86 -94zM340 354q0 -147 123 -147q100 0 203 112v160q-104 35 -181 35q-72 0 -108.5 -43t-36.5 -117z" />
<glyph unicode="&#xe4;" horiz-adv-x="1050" d="M55 328q0 166 91.5 257t240.5 91q68 0 279 -49v88q0 86 -32 122.5t-114 36.5q-98 0 -315 -79l-90 202q268 100 463 101q193 0 280.5 -89t87.5 -296v-713h-280v127q-137 -150 -301 -150q-139 0 -224.5 94.5t-85.5 256.5zM266 1231v235h215v-235h-215zM340 354 q0 -147 123 -147q100 0 203 112v160q-104 35 -181 35q-72 0 -108.5 -43t-36.5 -117zM582 1231v235h215v-235h-215z" />
<glyph unicode="&#xe5;" horiz-adv-x="1050" d="M55 328q0 166 91.5 257t240.5 91q68 0 279 -49v88q0 86 -32 122.5t-114 36.5q-98 0 -315 -79l-90 202q268 100 463 101q193 0 280.5 -89t87.5 -296v-713h-280v127q-137 -150 -301 -150q-139 0 -224.5 94.5t-85.5 256.5zM317 1405q0 90 62.5 152.5t150.5 62.5t151.5 -62.5 t63.5 -152.5t-63.5 -152.5t-151.5 -62.5t-150.5 62.5t-62.5 152.5zM340 354q0 -147 123 -147q100 0 203 112v160q-104 35 -181 35q-72 0 -108.5 -43t-36.5 -117zM451 1405q0 -33 22.5 -56.5t57 -23.5t58 23.5t23.5 56.5t-23.5 57.5t-58.5 24.5q-33 0 -56 -23.5t-23 -58.5z " />
<glyph unicode="&#xe6;" horiz-adv-x="1591" d="M55 328q0 166 90.5 257t239.5 91q78 0 264 -51q2 39 15 108q-4 76 -36 108.5t-108 32.5q-90 0 -315 -79l-90 202q268 100 463 101q174 0 262 -76q104 76 256 76q209 0 318.5 -130t109.5 -343q0 -39 -4 -77t-9 -56l-4 -19h-575q16 -276 176 -276q92 0 313 127l107 -181 q-246 -166 -453 -166q-244 0 -356 209q-164 -209 -354 -209q-139 0 -224.5 94.5t-85.5 256.5zM340 354q0 -147 123 -147q102 0 205 121q-16 74 -23 147q-123 39 -162 39q-70 0 -106.5 -43t-36.5 -117zM932 633h323q1 254 -153 254q-152 0 -170 -254z" />
<glyph unicode="&#xe7;" horiz-adv-x="907" d="M68 539q0 274 116.5 416.5t290.5 142.5q154 0 391 -131l-112 -215q-8 4 -41 22.5t-49.5 26.5t-44 21.5t-51 18.5t-44.5 5q-82 0 -127 -83t-45 -224.5t45 -225.5t125 -84q23 0 47.5 6.5t53 19.5t45 20.5t49.5 27t37 21.5l112 -215q-186 -106 -334 -127q51 -76 52 -168 q0 -94 -55.5 -141.5t-141.5 -47.5q-88 0 -154 45l54 146q41 -25 78 -25q78 0 77 78q0 55 -34 115q-150 27 -245 168t-95 387z" />
<glyph unicode="&#xe8;" horiz-adv-x="1013" d="M68 535q0 268 118.5 415.5t331.5 147.5q209 0 318.5 -130t109.5 -343q0 -39 -4 -77t-8 -56l-4 -19h-576q16 -276 176 -276q92 0 314 127l106 -181q-246 -166 -452 -166q-190 0 -310 141.5t-120 416.5zM190 1493h310l211 -283h-230zM354 633h324q0 254 -154 254 q-152 0 -170 -254z" />
<glyph unicode="&#xe9;" horiz-adv-x="1013" d="M68 535q0 268 118.5 415.5t331.5 147.5q209 0 318.5 -130t109.5 -343q0 -39 -4 -77t-8 -56l-4 -19h-576q16 -276 176 -276q92 0 314 127l106 -181q-246 -166 -452 -166q-190 0 -310 141.5t-120 416.5zM340 1210l211 283h309l-291 -283h-229zM354 633h324q0 254 -154 254 q-152 0 -170 -254z" />
<glyph unicode="&#xea;" horiz-adv-x="1013" d="M68 535q0 268 118.5 415.5t331.5 147.5q209 0 318.5 -130t109.5 -343q0 -39 -4 -77t-8 -56l-4 -19h-576q16 -276 176 -276q92 0 314 127l106 -181q-246 -166 -452 -166q-190 0 -310 141.5t-120 416.5zM213 1210l180 283h264l181 -283h-191l-121 154l-123 -154h-190z M354 633h324q0 254 -154 254q-152 0 -170 -254z" />
<glyph unicode="&#xeb;" horiz-adv-x="1013" d="M68 535q0 268 118.5 415.5t331.5 147.5q209 0 318.5 -130t109.5 -343q0 -39 -4 -77t-8 -56l-4 -19h-576q16 -276 176 -276q92 0 314 127l106 -181q-246 -166 -452 -166q-190 0 -310 141.5t-120 416.5zM260 1231v235h215v-235h-215zM354 633h324q0 254 -154 254 q-152 0 -170 -254zM575 1231v235h216v-235h-216z" />
<glyph unicode="&#xec;" horiz-adv-x="503" d="M-82 1493h309l211 -283h-229zM111 0v1075h280v-1075h-280z" />
<glyph unicode="&#xed;" horiz-adv-x="501" d="M66 1210l210 283h310l-291 -283h-229zM111 0v1075h280v-1075h-280z" />
<glyph unicode="&#xee;" horiz-adv-x="501" d="M-61 1210l180 283h264l180 -283h-190l-121 154l-123 -154h-190zM111 0v1075h280v-1075h-280z" />
<glyph unicode="&#xef;" horiz-adv-x="503" d="M-14 1231v235h215v-235h-215zM111 0v1075h280v-1075h-280zM301 1231v235h215v-235h-215z" />
<glyph unicode="&#xf0;" horiz-adv-x="1097" d="M63 477q0 223 114 360.5t288 137.5q55 0 103 -13.5t77 -33t50.5 -39t29.5 -33.5l10 -12q-53 219 -223 309l-68 -86h-225l103 133q-37 0 -72 -4t-51 -8l-17 -4l-30 227q66 23 178 23q84 0 159 -19l60 78h223l-108 -141q176 -100 270 -301t94 -457q0 -305 -130 -461 t-363 -156q-219 0 -345.5 135.5t-126.5 364.5zM356 475q0 -121 46.5 -195.5t148.5 -74.5q197 0 197 270q0 272 -197 273q-102 0 -148.5 -76t-46.5 -197z" />
<glyph unicode="&#xf1;" horiz-adv-x="1097" d="M111 0v1075h280v-131q180 154 340 154q131 0 195.5 -85t64.5 -237v-776h-280v715q0 154 -99 153q-106 0 -221 -141v-727h-280zM223 1286q31 70 50.5 107t59.5 71.5t89 34.5q51 0 135 -48t107 -48q14 0 24 5t26.5 26.5t35.5 62.5l122 -65q-33 -74 -50 -108t-57 -69.5 t-89 -35.5q-51 0 -135 49t-109 49q-43 0 -86 -94z" />
<glyph unicode="&#xf2;" horiz-adv-x="1073" d="M66 539q0 266 120.5 412.5t350 146.5t350.5 -147.5t121 -413.5q0 -268 -120 -414t-351 -146q-229 0 -350 146.5t-121 415.5zM203 1493h309l211 -283h-229zM350 539q0 -334 186.5 -334t186.5 332q0 334 -186.5 333.5t-186.5 -331.5z" />
<glyph unicode="&#xf3;" horiz-adv-x="1073" d="M66 539q0 266 120.5 412.5t350 146.5t350.5 -147.5t121 -413.5q0 -268 -120 -414t-351 -146q-229 0 -350 146.5t-121 415.5zM350 539q0 -334 186.5 -334t186.5 332q0 334 -186.5 333.5t-186.5 -331.5zM352 1210l211 283h309l-290 -283h-230z" />
<glyph unicode="&#xf4;" horiz-adv-x="1073" d="M66 539q0 266 120.5 412.5t350 146.5t350.5 -147.5t121 -413.5q0 -268 -120 -414t-351 -146q-229 0 -350 146.5t-121 415.5zM223 1210l180 283h265l180 -283h-191l-120 154l-123 -154h-191zM350 539q0 -334 186.5 -334t186.5 332q0 334 -186.5 333.5t-186.5 -331.5z" />
<glyph unicode="&#xf5;" horiz-adv-x="1073" d="M66 539q0 266 120.5 412.5t350 146.5t350.5 -147.5t121 -413.5q0 -268 -120 -414t-351 -146q-229 0 -350 146.5t-121 415.5zM211 1286q31 70 50.5 107t59 71.5t89.5 34.5q51 0 135 -48t106 -48q14 0 24.5 5t27 26.5t34.5 62.5l123 -65q-33 -74 -50 -108t-57 -69.5 t-89 -35.5q-51 0 -135.5 49t-108.5 49q-43 0 -86 -94zM350 539q0 -334 186.5 -334t186.5 332q0 334 -186.5 333.5t-186.5 -331.5z" />
<glyph unicode="&#xf6;" horiz-adv-x="1073" d="M66 539q0 266 120.5 412.5t350 146.5t350.5 -147.5t121 -413.5q0 -268 -120 -414t-351 -146q-229 0 -350 146.5t-121 415.5zM272 1231v235h215v-235h-215zM350 539q0 -334 186.5 -334t186.5 332q0 334 -186.5 333.5t-186.5 -331.5zM588 1231v235h215v-235h-215z" />
<glyph unicode="&#xf7;" d="M127 571v224h868v-224h-868zM428 323.5q0 55.5 39 94.5t94 39q57 0 96 -39t39 -94.5t-39 -94.5t-96 -39q-55 0 -94 39t-39 94.5zM428 1044q0 55 39 93.5t94 38.5q57 0 96 -38t39 -94q0 -57 -39 -96t-96 -39q-55 0 -94 39t-39 96z" />
<glyph unicode="&#xf8;" horiz-adv-x="1071" d="M66 539q0 266 120.5 412.5t350.5 146.5q145 0 254 -64l28 41h160l-88 -131q117 -147 117 -407q0 -268 -120 -414t-351 -146q-152 0 -258 66l-31 -43h-164l92 135q-111 143 -110 404zM350 539q0 -84 8 -136l289 422q-45 45 -110 45q-187 1 -187 -331zM420 254 q43 -49 117 -49q186 0 186 332q0 82 -12 145z" />
<glyph unicode="&#xf9;" horiz-adv-x="1097" d="M104 299v776h283v-715q0 -154 98 -153q100 0 222 137v731h280v-1075h-280v129q-184 -152 -340 -152q-133 0 -198 86.5t-65 235.5zM211 1493h309l211 -283h-229z" />
<glyph unicode="&#xfa;" horiz-adv-x="1097" d="M104 299v776h283v-715q0 -154 98 -153q100 0 222 137v731h280v-1075h-280v129q-184 -152 -340 -152q-133 0 -198 86.5t-65 235.5zM360 1210l211 283h310l-291 -283h-230z" />
<glyph unicode="&#xfb;" horiz-adv-x="1097" d="M104 299v776h283v-715q0 -154 98 -153q100 0 222 137v731h280v-1075h-280v129q-184 -152 -340 -152q-133 0 -198 86.5t-65 235.5zM233 1210l181 283h264l180 -283h-190l-121 154l-123 -154h-191z" />
<glyph unicode="&#xfc;" horiz-adv-x="1097" d="M104 299v776h283v-715q0 -154 98 -153q100 0 222 137v731h280v-1075h-280v129q-184 -152 -340 -152q-133 0 -198 86.5t-65 235.5zM281 1231v235h215v-235h-215zM596 1231v235h215v-235h-215z" />
<glyph unicode="&#xfd;" horiz-adv-x="1021" d="M25 1075h299l186 -731l186 731h301l-481 -1493h-301l160 400zM326 1210l211 283h309l-291 -283h-229z" />
<glyph unicode="&#xfe;" horiz-adv-x="1093" d="M111 -418v1911h280v-539q139 143 289 144q160 0 253 -142.5t93 -418.5q0 -274 -93 -417t-253 -143q-147 0 -289 142v-537h-280zM391 352q84 -137 197 -137q154 0 153 324q1 321 -153 321q-111 0 -197 -139v-369z" />
<glyph unicode="&#xff;" horiz-adv-x="1021" d="M25 1075h299l186 -731l186 731h301l-481 -1493h-301l160 400zM246 1231v235h215v-235h-215zM561 1231v235h215v-235h-215z" />
<glyph unicode="&#x152;" horiz-adv-x="1890" d="M78 717q0 336 140 537.5t441 201.5q160 0 285 -65v43h856v-260h-563v-330h461v-254h-461v-330h573v-260h-866v41q-121 -63 -285 -64q-301 0 -441 203t-140 537zM378 717q0 -477 281 -477q283 0 283 477t-283 477q-281 0 -281 -477z" />
<glyph unicode="&#x153;" horiz-adv-x="1671" d="M66 539q0 266 120.5 412.5t350.5 146.5q209 0 327 -123q117 123 312 123q209 0 318.5 -130t109.5 -343q0 -39 -4.5 -77t-8.5 -56l-4 -19h-575q16 -276 176 -276q90 0 313 127l107 -181q-246 -166 -453 -166q-178 0 -291 119q-119 -119 -327 -119q-229 0 -350 146.5 t-121 415.5zM350 539q0 -334 186.5 -334t186.5 332q0 334 -186.5 333.5t-186.5 -331.5zM1012 633h323q1 254 -153 254q-152 0 -170 -254z" />
<glyph unicode="&#x178;" horiz-adv-x="1150" d="M10 1434h326l239 -576l240 576h328l-422 -867v-567h-291v567zM311 1540v236h215v-236h-215zM627 1540v236h215v-236h-215z" />
<glyph unicode="&#x2c6;" horiz-adv-x="497" d="M-63 1210l180 283h264l180 -283h-190l-121 154l-123 -154h-190z" />
<glyph unicode="&#x2dc;" horiz-adv-x="512" d="M-70 1286q31 70 50.5 107t59.5 71.5t89 34.5q51 0 135 -48t107 -48q14 0 24.5 5t26.5 26.5t35 62.5l123 -65q-33 -74 -50.5 -108t-57.5 -69.5t-89 -35.5q-51 0 -135 49t-109 49q-43 0 -86 -94z" />
<glyph unicode="&#x2000;" horiz-adv-x="964" />
<glyph unicode="&#x2001;" horiz-adv-x="1929" />
<glyph unicode="&#x2002;" horiz-adv-x="964" />
<glyph unicode="&#x2003;" horiz-adv-x="1929" />
<glyph unicode="&#x2004;" horiz-adv-x="643" />
<glyph unicode="&#x2005;" horiz-adv-x="482" />
<glyph unicode="&#x2006;" horiz-adv-x="321" />
<glyph unicode="&#x2007;" horiz-adv-x="321" />
<glyph unicode="&#x2008;" horiz-adv-x="241" />
<glyph unicode="&#x2009;" horiz-adv-x="385" />
<glyph unicode="&#x200a;" horiz-adv-x="107" />
<glyph unicode="&#x2010;" horiz-adv-x="768" d="M109 465v237h550v-237h-550z" />
<glyph unicode="&#x2011;" horiz-adv-x="768" d="M109 465v237h550v-237h-550z" />
<glyph unicode="&#x2012;" horiz-adv-x="768" d="M109 465v237h550v-237h-550z" />
<glyph unicode="&#x2013;" horiz-adv-x="980" d="M106 465v235h768v-235h-768z" />
<glyph unicode="&#x2014;" horiz-adv-x="1161" d="M106 465v235h949v-235h-949z" />
<glyph unicode="&#x2018;" horiz-adv-x="487" d="M86 1184l229 289l76 -99l-131 -227h127v-338h-283z" />
<glyph unicode="&#x2019;" horiz-adv-x="471" d="M94 868l131 228h-127v338h283l18 -375l-229 -289z" />
<glyph unicode="&#x201a;" horiz-adv-x="503" d="M102 -227l131 227h-127v338h283l19 -375l-230 -289z" />
<glyph unicode="&#x201c;" horiz-adv-x="890" d="M86 1184l229 289l76 -99l-131 -227h127v-338h-283zM487 1184l230 289l76 -99l-131 -227h126v-338h-282z" />
<glyph unicode="&#x201d;" horiz-adv-x="874" d="M94 868l131 228h-127v338h283l18 -375l-229 -289zM498 868l131 228h-127v338h282l19 -375l-230 -289z" />
<glyph unicode="&#x201e;" horiz-adv-x="907" d="M102 -227l131 227h-127v338h283l19 -375l-230 -289zM506 -227l131 227h-127v338h283l18 -375l-229 -289z" />
<glyph unicode="&#x2022;" horiz-adv-x="899" d="M137 584q0 131 90 222t221.5 91t222.5 -91t91 -222q0 -129 -91 -220.5t-222.5 -91.5t-221.5 91.5t-90 220.5z" />
<glyph unicode="&#x2026;" horiz-adv-x="1366" d="M106 0v338h285v-338h-285zM541 0v338h284v-338h-284zM975 0v338h285v-338h-285z" />
<glyph unicode="&#x202f;" horiz-adv-x="385" />
<glyph unicode="&#x2039;" horiz-adv-x="665" d="M55 467v178l508 434v-297l-289 -227l289 -227v-297z" />
<glyph unicode="&#x203a;" horiz-adv-x="665" d="M102 31v297l289 227l-289 227v297l508 -436v-178z" />
<glyph unicode="&#x205f;" horiz-adv-x="482" />
<glyph unicode="&#x20ac;" horiz-adv-x="1255" d="M74 481v160h100q-2 25 -2 76v65h-98v158h112q39 256 167 386t315 130q129 0 245.5 -50t270.5 -144l-135 -224q-88 53 -125 74t-102.5 45.5t-114.5 24.5q-162 0 -213 -242h358v-158h-379v-65q0 -51 2 -76h377v-160h-356q55 -229 211 -229q49 0 114.5 24.5t103.5 46 t126 74.5l133 -225q-154 -94 -270.5 -144.5t-245.5 -50.5q-184 0 -311.5 127t-168.5 377h-114z" />
<glyph unicode="&#x2122;" horiz-adv-x="1122" d="M109 1331v103h372v-103h-129v-356h-114v356h-129zM528 975v459h119l119 -254l117 254h118v-459h-114v266l-88 -190h-66l-90 188v-264h-115z" />
<glyph unicode="&#xe000;" horiz-adv-x="1075" d="M0 0v1075h1075v-1075h-1075z" />
</font>
</defs>
</svg>
