<?xml version="1.0" standalone="no"?>
<!DOCTYPE svg PUBLIC "-//W3C//DTD SVG 1.1//EN" "http://www.w3.org/Graphics/SVG/1.1/DTD/svg11.dtd" >
<svg xmlns="http://www.w3.org/2000/svg">
<metadata></metadata>
<defs>
<font id="verbexcondblack_italic" horiz-adv-x="1132" >
<font-face units-per-em="2048" ascent="1638" descent="-410" />
<missing-glyph horiz-adv-x="415" />
<glyph unicode="&#xfb01;" horiz-adv-x="1267" d="M-186 -201q147 57 184 101.5t61 181.5l127 719h-116l49 274h114q37 213 118 315.5t233 102.5q127 0 301 -96l-125 -238q-61 27 -92 27q-53 0 -70 -86l-4 -25h201l-52 -274h-198l-121 -688q-14 -84 -21.5 -122t-24 -98.5t-31.5 -88t-44 -69.5t-62.5 -64.5t-86 -51.5 t-117 -51.5t-150.5 -44.5zM713 0l188 1075h361l-191 -1075h-358zM915 1192l54 295h370l-51 -295h-373z" />
<glyph unicode="&#xfb02;" horiz-adv-x="1269" d="M-186 -201q147 57 184 101.5t61 181.5l127 719h-116l49 274h114q37 213 118 315.5t233 102.5q127 0 301 -96l-125 -238q-61 27 -92 27q-53 0 -70 -86l-4 -25h201l-52 -274h-198l-121 -688q-14 -84 -21.5 -122t-24 -98.5t-31.5 -88t-44 -69.5t-62.5 -64.5t-86 -51.5 t-117 -51.5t-150.5 -44.5zM713 0l262 1493h360l-262 -1493h-360z" />
<glyph unicode="&#xfb03;" horiz-adv-x="1998" d="M-186 -201q147 57 184 101.5t61 181.5l127 719h-116l49 274h114q37 213 119 315.5t236 102.5q166 0 364 -119l-151 -223q-94 35 -133 35q-55 0 -72 -86l-4 -25h203l-52 -274h-200l-119 -688q-14 -84 -21.5 -122t-24 -98.5t-31.5 -88t-44 -69.5t-62.5 -64.5t-86 -51.5 t-117 -51.5t-150.5 -44.5zM545 -201q147 57 184 101.5t62 181.5l127 719h-117l49 274h115q37 213 117.5 315.5t232.5 102.5q127 0 301 -96l-125 -238q-61 27 -92 27q-53 0 -70 -86l-4 -25h201l-51 -274h-199l-121 -688q-14 -84 -21.5 -122t-23.5 -98.5t-31.5 -88t-44 -69.5 t-62.5 -64.5t-86 -51.5t-116.5 -51.5t-151.5 -44.5zM1442 0l188 1075h361l-191 -1075h-358zM1645 1192l53 295h370l-51 -295h-372z" />
<glyph unicode="&#xfb04;" horiz-adv-x="1998" d="M-186 -201q147 57 184 101.5t61 181.5l127 719h-116l49 274h114q37 213 119 315.5t236 102.5q166 0 364 -119l-151 -223q-94 35 -133 35q-55 0 -72 -86l-4 -25h203l-52 -274h-200l-119 -688q-14 -84 -21.5 -122t-24 -98.5t-31.5 -88t-44 -69.5t-62.5 -64.5t-86 -51.5 t-117 -51.5t-150.5 -44.5zM545 -201q147 57 184 101.5t62 181.5l127 719h-117l49 274h115q37 213 117.5 315.5t232.5 102.5q127 0 301 -96l-125 -238q-61 27 -92 27q-53 0 -70 -86l-4 -25h201l-51 -274h-199l-121 -688q-14 -84 -21.5 -122t-23.5 -98.5t-31.5 -88t-44 -69.5 t-62.5 -64.5t-86 -51.5t-116.5 -51.5t-151.5 -44.5zM1444 0l262 1493h360l-262 -1493h-360z" />
<glyph horiz-adv-x="2048" />
<glyph horiz-adv-x="2048" />
<glyph unicode="&#xd;" horiz-adv-x="681" />
<glyph unicode=" "  horiz-adv-x="415" />
<glyph unicode="&#x09;" horiz-adv-x="415" />
<glyph unicode="&#xa0;" horiz-adv-x="415" />
<glyph unicode="!" horiz-adv-x="577" d="M6 0l64 362h350l-64 -362h-350zM160 485l53 949h438l-278 -949h-213z" />
<glyph unicode="&#x22;" horiz-adv-x="835" d="M152 856l47 578h329l-157 -578h-219zM543 856l47 578h330l-158 -578h-219z" />
<glyph unicode="#" horiz-adv-x="1241" d="M2 295l49 280h195l84 283h-160l49 283h195l88 293h272l-88 -293h156l88 293h272l-88 -293h160l-49 -283h-195l-84 -283h160l-49 -280h-195l-88 -295h-272l88 295h-156l-88 -295h-272l88 295h-160zM518 575h156l84 283h-156z" />
<glyph unicode="$" horiz-adv-x="1191" d="M-14 197l204 266q242 -160 385 -160q51 0 85 25.5t34 68.5q0 33 -24.5 60.5t-54 44t-92 46.5t-99.5 50q-133 86 -205 183.5t-72 230.5q0 182 125 309t355 135l32 184h254l-39 -215q178 -47 343 -149l-209 -268q-76 49 -172.5 85.5t-163.5 36.5q-51 0 -85 -23.5t-34 -70.5 q0 -25 11 -45t39 -37.5t54.5 -31t75.5 -37t86 -43.5q127 -78 204 -176.5t77 -239.5q0 -178 -126 -308t-356 -138l-32 -185h-252l37 209q-205 53 -385 193z" />
<glyph unicode="%" horiz-adv-x="1757" d="M123 991q0 176 99.5 320.5t283.5 144.5q139 0 234.5 -76.5t95.5 -226.5q0 -176 -99.5 -320.5t-283.5 -144.5q-139 0 -234.5 77t-95.5 226zM338 0l846 1434h268l-846 -1434h-268zM379 993q0 -96 80 -96q57 0 89 90t32 164q0 96 -78 96q-59 0 -91 -89t-32 -165zM958 281 q0 176 99.5 320t283.5 144q139 0 234.5 -76.5t95.5 -226.5q0 -80 -22.5 -159.5t-66.5 -149.5t-121 -113t-173 -43q-139 0 -234.5 77t-95.5 227zM1214 283q0 -97 80 -97q59 0 91 90.5t32 163.5q0 96 -80 97q-59 0 -91 -89.5t-32 -164.5z" />
<glyph unicode="&#x26;" horiz-adv-x="1296" d="M37 334q0 139 82 241.5t223 196.5q-92 156 -92 287q0 174 119.5 285.5t312.5 111.5q176 0 271.5 -91t95.5 -220q0 -121 -81 -222.5t-225 -207.5l103 -150q49 94 76 191h356q-68 -246 -246 -461l203 -295h-385l-55 82q-172 -104 -355 -105q-186 0 -294.5 100.5 t-108.5 256.5zM385 354q0 -43 26.5 -71.5t71.5 -28.5q72 0 156 65l-139 213q-115 -100 -115 -178zM561 1061q0 -57 37 -125q131 92 131 178q0 80 -65 80q-47 0 -75 -40t-28 -93z" />
<glyph unicode="'" horiz-adv-x="446" d="M152 856l47 578h329l-157 -578h-219z" />
<glyph unicode="(" horiz-adv-x="649" d="M6 6q-2 104 27 258l160 912q12 74 20 112.5t23.5 93t32 82t45 65.5t64.5 59.5t87 47t116.5 45t151.5 37.5l51 -217q-117 -49 -150.5 -92t-51.5 -143l-199 -1119q-20 -98 -3 -149t101 -98l-102 -193q-201 51 -286 123t-87 176z" />
<glyph unicode=")" horiz-adv-x="641" d="M-106 -76q117 49 150.5 92t51.5 144l199 1118q20 98 3 149.5t-101 98.5l102 192q201 -51 286 -122.5t87 -176t-27 -258.5l-160 -911q-12 -74 -20 -113t-23.5 -93t-32 -82t-45 -65.5t-64.5 -59t-87 -47.5t-116.5 -45t-151.5 -38z" />
<glyph unicode="*" horiz-adv-x="935" d="M129 1044l324 7l-301 118l188 226l170 -277l-49 322l289 -54l-154 -282l250 203l100 -279l-305 -8l283 -117l-189 -225l-164 260l45 -307l-288 53l153 285l-252 -203z" />
<glyph unicode="+" horiz-adv-x="1163" d="M129 545l51 276h297l58 322h280l-57 -322h301l-49 -276h-301l-58 -322h-278l55 322h-299z" />
<glyph unicode="," horiz-adv-x="528" d="M-63 -238l196 238h-153l69 397h350l-59 -448l-338 -309z" />
<glyph unicode="-" horiz-adv-x="770" d="M57 434l52 299h591l-51 -299h-592z" />
<glyph unicode="." horiz-adv-x="526" d="M-20 0l71 397h350l-69 -397h-352z" />
<glyph unicode="/" horiz-adv-x="874" d="M-104 -184l847 1802h275l-850 -1802h-272z" />
<glyph unicode="0" horiz-adv-x="1243" d="M80 494q0 51 5 115.5t22.5 159.5t45 186.5t77 183.5t113 160.5t157.5 112.5t207 44q141 0 241.5 -44t152.5 -122t74.5 -164t22.5 -188q0 -61 -9 -141t-30.5 -195t-68 -220.5t-112 -199.5t-171 -150.5t-236.5 -56.5q-113 0 -200.5 30t-141 79t-88.5 118.5t-48 140.5 t-13 151zM444 453q0 -86 24.5 -131.5t100.5 -45.5q86 0 151.5 158t90.5 311.5t25 235.5q0 86 -25 130t-100 44q-86 0 -151.5 -157.5t-90.5 -311.5t-25 -233z" />
<glyph unicode="1" horiz-adv-x="819" d="M88 1198l397 236h359l-252 -1434h-373l184 1053l-192 -109z" />
<glyph unicode="2" horiz-adv-x="1122" d="M-57 0l28 160q18 106 64.5 199.5t117 168t131 123.5t146.5 109q98 66 131 88t90.5 67.5t75.5 75t18 62.5q0 35 -25.5 57.5t-74.5 22.5q-106 0 -319 -129l-136 264q264 188 529 188q201 0 304 -103.5t103 -258.5q0 -102 -42 -193.5t-120.5 -166.5t-137 -118t-140.5 -94 q-205 -127 -217 -198h524l-57 -324h-993z" />
<glyph unicode="3" horiz-adv-x="1118" d="M-53 205l196 237q205 -135 334 -135q76 0 121 40t45 104q0 139 -264 139h-47l55 321h59q92 0 173 33t81 109q0 78 -88 77q-121 0 -311 -114l-121 260q270 180 529 180q190 0 286.5 -89t96.5 -228q0 -223 -244 -359q174 -98 174 -321q0 -66 -16.5 -129.5t-55.5 -128 t-95 -113.5t-145 -80t-200 -31q-313 1 -563 228z" />
<glyph unicode="4" horiz-adv-x="1239" d="M-35 250l49 268l658 916h497l-151 -861h174l-57 -323h-174l-43 -250h-373l43 250h-623zM383 573h262l84 486z" />
<glyph unicode="5" horiz-adv-x="1110" d="M-39 207l213 244q156 -139 281 -140q80 0 136 52.5t56 136.5q0 61 -33.5 101t-105.5 40q-80 0 -201 -78l-196 133l192 738h842l-58 -324h-516l-32 -164q55 10 100 10q195 0 293 -118.5t98 -300.5q0 -227 -145.5 -393.5t-401.5 -166.5q-287 0 -522 230z" />
<glyph unicode="6" horiz-adv-x="1175" d="M59 518q0 182 62.5 352t174.5 300t277.5 208t358.5 78q78 0 143.5 -12t91.5 -25l29 -12l-147 -283q-50 15 -111 15q-135 0 -246.5 -72t-177.5 -203q84 66 211 66q166 0 265.5 -112.5t99.5 -291.5q0 -225 -141.5 -387t-381.5 -162q-242 0 -375 155t-133 386zM434 496 q0 -90 35 -145.5t98 -55.5q72 0 110 61.5t38 145.5q0 61 -32 101t-93 40q-94 0 -154 -90q-2 -18 -2 -57z" />
<glyph unicode="7" horiz-adv-x="956" d="M29 0q25 145 92 311t134 286t156 249t123.5 174t71.5 90h-477l55 324h895l-53 -304q-20 -25 -55 -66.5t-128 -172.5t-170 -259t-152 -304t-101 -328h-391z" />
<glyph unicode="8" horiz-adv-x="1191" d="M12 352q0 276 336 441q-131 113 -131 272q0 170 131 280.5t365 110.5q211 0 322.5 -91t111.5 -241q0 -211 -244 -356q197 -131 197 -342q0 -199 -154.5 -324t-433.5 -125q-246 0 -373 100.5t-127 274.5zM395 397q0 -57 36 -92t104 -35q84 0 135 49t51 123q0 104 -119 185 q-207 -100 -207 -230zM567 1040q0 -76 76 -127q143 68 143 168q0 41 -23.5 67t-70.5 26q-57 0 -91 -41.5t-34 -92.5z" />
<glyph unicode="9" horiz-adv-x="1175" d="M14 27l148 282q47 -14 110 -14q135 0 246 71.5t178 202.5q-88 -66 -213 -65q-164 0 -264 112.5t-100 290.5q0 225 142 387t382 162t374 -155.5t134 -385.5q0 -182 -62.5 -352t-174 -300t-277.5 -208t-358 -78q-78 0 -144.5 12.5t-93.5 24.5zM494 932q0 -61 32 -101 t95 -40q47 0 89 27.5t64 64.5q2 18 2 55q0 90 -35.5 145.5t-99.5 55.5q-72 0 -109.5 -62.5t-37.5 -144.5z" />
<glyph unicode=":" horiz-adv-x="559" d="M-6 0l72 397h350l-70 -397h-352zM100 610l72 398h350l-69 -398h-353z" />
<glyph unicode=";" horiz-adv-x="563" d="M-49 -238l196 238h-153l69 397h351l-60 -448l-338 -309zM98 610l72 398h350l-69 -398h-353z" />
<glyph unicode="&#x3c;" horiz-adv-x="1163" d="M106 557l46 252l950 414l-60 -346l-536 -207l463 -211l-56 -316z" />
<glyph unicode="=" horiz-adv-x="1163" d="M92 344l49 281h881l-51 -281h-879zM162 745l51 281h879l-50 -281h-880z" />
<glyph unicode="&#x3e;" horiz-adv-x="1163" d="M86 143l59 346l537 207l-463 211l55 316l807 -414l-45 -252z" />
<glyph unicode="?" horiz-adv-x="983" d="M109 0l63 362h350l-63 -362h-350zM156 1307q225 150 454 149q184 0 289 -96t105 -254q0 -109 -51.5 -200t-132.5 -147.5t-155.5 -90t-148.5 -50.5l-41 -133h-213l41 338q166 41 242 92.5t76 124.5q0 92 -101 93q-86 0 -235 -93z" />
<glyph unicode="@" horiz-adv-x="1634" d="M37 334q0 203 63.5 394.5t177 343t289.5 242.5t385 91q170 0 296 -59.5t193.5 -161t97.5 -217t26 -246.5q-4 -74 -14.5 -157t-43 -202.5t-81 -211t-136.5 -157t-198 -65.5q-68 0 -116 26t-70.5 66.5t-31 80.5t-6.5 79q-135 -135 -278 -135q-111 0 -171.5 77t-60.5 195 q0 152 93.5 249.5t240.5 97.5q78 0 250 -43l14 71q14 78 -7 112t-87 34q-113 0 -287 -74l-61 188q225 90 412 90q180 0 244.5 -91t31.5 -277l-51 -295q-29 -131 -25 -209t62 -78q63 0 122.5 96.5t96.5 241.5t41 291q2 76 -7 146.5t-41 149.5t-85 137t-147.5 96t-217.5 38 q-150 0 -279.5 -55t-223 -148.5t-161 -216.5t-100 -260t-32.5 -278q0 -246 120.5 -413t358.5 -167q84 0 165 20.5t120 41.5l38 22l52 -96q-16 -12 -48 -29.5t-131.5 -46.5t-199.5 -29q-193 0 -330 98.5t-199.5 254t-62.5 348.5zM621 348q0 -98 86 -98q79 0 188 102l25 137 q-137 29 -156 29q-70 0 -106.5 -49t-36.5 -121z" />
<glyph unicode="A" horiz-adv-x="1255" d="M-106 0l677 1434h410l170 -1434h-395l-11 240h-342l-92 -240h-417zM522 545h213l-20 495z" />
<glyph unicode="B" horiz-adv-x="1232" d="M2 0l252 1434h512q223 0 334.5 -83t111.5 -228.5t-91 -243t-181 -111.5q213 -71 213 -319q0 -215 -136 -332t-384 -117h-631zM428 299h131q234 0 234 188q0 63 -41 94t-138 31h-131zM530 889h117q82 0 132 36.5t50 112.5q0 96 -141 97h-115z" />
<glyph unicode="C" horiz-adv-x="1150" d="M66 522q0 236 65.5 442.5t211.5 349t347 142.5q100 0 207 -36t169.5 -69.5t166.5 -101.5l-199 -278q-209 131 -309 131q-90 0 -156.5 -96.5t-94.5 -220t-28 -242.5q0 -213 136 -213q98 0 331 123l142 -308q-340 -168 -570 -168q-205 0 -312 144.5t-107 400.5z" />
<glyph unicode="D" horiz-adv-x="1294" d="M2 0l252 1434h377q332 0 480.5 -151.5t148.5 -405.5q0 -59 -7.5 -125t-28 -154t-54 -168t-92 -160t-135.5 -138t-190.5 -95t-250.5 -37h-500zM432 332h60q133 0 226 88t129 201.5t36 236.5q0 129 -65.5 186.5t-203.5 57.5h-45z" />
<glyph unicode="E" horiz-adv-x="1095" d="M2 0l252 1434h913l-59 -332h-539l-39 -223h437l-58 -324h-436l-41 -223h549l-57 -332h-922z" />
<glyph unicode="F" horiz-adv-x="1050" d="M2 0l252 1434h913l-59 -332h-539l-39 -223h422l-57 -326h-422l-98 -553h-373z" />
<glyph unicode="G" horiz-adv-x="1247" d="M66 512q0 244 67.5 454t216 350t352.5 140q106 0 219 -36t177.5 -70.5t175.5 -102.5l-197 -278q-84 47 -123 66.5t-104.5 43t-112.5 23.5q-94 0 -162.5 -94.5t-98.5 -219t-30 -253.5q0 -225 136 -226q102 0 213 119l20 113h-225l53 307h569l-149 -848h-344l20 123 q-145 -145 -301 -146q-170 0 -271 138.5t-101 396.5z" />
<glyph unicode="H" horiz-adv-x="1292" d="M2 0l252 1434h373l-92 -519h327l92 519h373l-252 -1434h-373l103 590h-328l-102 -590h-373z" />
<glyph unicode="I" horiz-adv-x="593" d="M2 0l252 1434h373l-252 -1434h-373z" />
<glyph unicode="J" horiz-adv-x="593" d="M-213 -102q100 37 146.5 67.5t62.5 63t31 102.5l227 1303h375l-226 -1280q-39 -213 -77 -285q-63 -123 -256 -199q-82 -33 -201 -65z" />
<glyph unicode="K" horiz-adv-x="1265" d="M2 0l252 1434h373l-84 -478l397 478h479l-596 -654l344 -780h-413l-195 492l-121 -134l-63 -358h-373z" />
<glyph unicode="L" horiz-adv-x="1026" d="M2 0l252 1434h373l-195 -1106h522l-55 -328h-897z" />
<glyph unicode="M" horiz-adv-x="1501" d="M2 0l252 1434h379l131 -711l395 711h377l-252 -1434h-373l127 729l-268 -489h-166l-96 524l-133 -764h-373z" />
<glyph unicode="N" horiz-adv-x="1318" d="M2 0l252 1434h375l215 -789l137 789h373l-252 -1434h-373l-217 793l-137 -793h-373z" />
<glyph unicode="O" horiz-adv-x="1361" d="M68 553q0 94 16 192.5t48 202t88 193.5t130 161.5t179.5 112.5t230.5 41q268 0 418.5 -144.5t150.5 -424.5q0 -115 -21.5 -233.5t-73.5 -242.5t-129 -218.5t-199 -155t-269 -60.5q-268 0 -418.5 145.5t-150.5 430.5zM449 553q0 -244 200 -244q80 0 142.5 68.5t94.5 168 t47 186.5t15 147q0 245 -198 245h-2q-80 0 -142.5 -68.5t-94.5 -168t-47 -186.5t-15 -148z" />
<glyph unicode="P" horiz-adv-x="1214" d="M2 0l252 1434h463q520 0 520 -410q0 -229 -149.5 -389t-450.5 -160h-178l-84 -475h-373zM516 795h111q113 0 170 54t57 140q0 68 -42 94.5t-122 26.5h-121z" />
<glyph unicode="Q" horiz-adv-x="1361" d="M68 553q0 94 16 192.5t48 202t88 193.5t130 161.5t179.5 112.5t230.5 41q268 0 418.5 -144.5t150.5 -424.5q0 -238 -92 -471.5t-279 -349.5l168 -193l-278 -229l-232 333q-258 6 -403 151.5t-145 424.5zM449 553q0 -244 200 -244q80 0 142.5 68.5t94.5 168t47 186.5 t15 147q0 245 -198 245h-2q-80 0 -142.5 -68.5t-94.5 -168t-47 -186.5t-15 -148z" />
<glyph unicode="R" horiz-adv-x="1259" d="M2 0l252 1434h512q512 0 512 -383q0 -70 -17.5 -140.5t-56.5 -145.5t-115.5 -134.5t-183.5 -87.5l193 -543h-389l-158 520h-84l-92 -520h-373zM520 825h154q115 0 168 53.5t53 137.5q0 66 -43 89t-127 23h-152z" />
<glyph unicode="S" horiz-adv-x="1157" d="M-33 197l205 266q242 -160 385 -160q51 0 85 25.5t34 68.5q0 33 -24.5 60.5t-54.5 44t-92.5 46.5t-98.5 50q-133 86 -205 183.5t-72 230.5q0 186 131 315t371 129q279 0 567 -180l-209 -268q-76 49 -172 85.5t-164 36.5q-51 0 -84.5 -23.5t-33.5 -70.5q0 -25 11 -45 t38.5 -37.5t54.5 -31t76 -37t86 -43.5q127 -78 203.5 -176.5t76.5 -239.5q0 -184 -135 -316.5t-379 -132.5q-315 0 -600 220z" />
<glyph unicode="T" horiz-adv-x="1054" d="M109 1102l59 332h1010l-60 -332h-315l-195 -1102h-372l194 1102h-321z" />
<glyph unicode="U" horiz-adv-x="1273" d="M72 362q-2 28 -2 58q0 89 22 188l146 826h374l-159 -902q-8 -44 -8 -79q0 -49 15 -83q25 -58 122 -59q98 0 141 57.5t63 163.5l160 902h373l-158 -893q-23 -129 -57.5 -221.5t-99 -175.5t-174 -125t-263.5 -42q-176 0 -287.5 49.5t-154.5 135.5t-53 200z" />
<glyph unicode="V" horiz-adv-x="1253" d="M139 1434h410l43 -936l364 936h439l-674 -1434h-412z" />
<glyph unicode="W" horiz-adv-x="1708" d="M154 1434h413l-18 -787l289 787h290l17 -783l256 783h434l-578 -1434h-352l-22 823l-303 -823h-351z" />
<glyph unicode="X" horiz-adv-x="1193" d="M-119 0l510 731l-237 703h411l88 -426l234 426h446l-485 -705l254 -729h-414l-100 420l-244 -420h-463z" />
<glyph unicode="Y" horiz-adv-x="1181" d="M131 1434h399l101 -488l268 488h430l-563 -863l-100 -571h-373l100 571z" />
<glyph unicode="Z" horiz-adv-x="1124" d="M-59 0l51 297l659 805h-481l57 332h973l-51 -295l-662 -807h529l-58 -332h-1017z" />
<glyph unicode="[" horiz-adv-x="690" d="M-55 -293l354 2011h555l-37 -213h-182l-279 -1585h181l-37 -213h-555z" />
<glyph unicode="\" horiz-adv-x="849" d="M203 1618h246l231 -1802h-246z" />
<glyph unicode="]" horiz-adv-x="690" d="M-129 -293l37 213h182l279 1585h-181l37 213h555l-354 -2011h-555z" />
<glyph unicode="^" horiz-adv-x="1165" d="M96 641l449 793h368l168 -793h-360l-45 393l-182 -393h-398z" />
<glyph unicode="_" horiz-adv-x="1234" d="M-92 -397l47 264h1061l-47 -264h-1061z" />
<glyph unicode="`" horiz-adv-x="444" d="M209 1493h358l160 -293h-274z" />
<glyph unicode="a" d="M29 346q0 186 51 354t158.5 283t250.5 115q59 0 111.5 -21.5t79.5 -44t68 -63.5l18 106h360l-190 -1075h-358l18 111q-158 -133 -299 -134q-125 0 -196.5 98.5t-71.5 270.5zM397 406q0 -127 78 -127t172 116l51 293q-51 109 -127 109q-78 0 -126 -131t-48 -260z" />
<glyph unicode="b" horiz-adv-x="1124" d="M-20 0l262 1493h360l-92 -522q152 127 291 127q127 0 199.5 -97.5t72.5 -271.5q0 -178 -49 -345t-157.5 -287t-252.5 -120q-86 0 -142 33t-114 92l-18 -102h-360zM406 379q49 -100 124 -100q78 0 126.5 128t48.5 259t-80 131q-74 0 -164 -111z" />
<glyph unicode="c" horiz-adv-x="915" d="M27 397q0 336 142 518.5t337 182.5q35 0 71.5 -4t64.5 -10.5t62.5 -17.5t55 -19.5t54.5 -24.5t46 -23.5t46 -26t42 -22.5l-166 -260q-4 2 -28.5 16.5t-35.5 20.5t-33.5 17.5t-37 16.5t-34 10t-33.5 5q-86 0 -137.5 -105.5t-51.5 -232.5q0 -139 101 -139q45 0 223 84 l102 -289q-266 -117 -420 -117q-166 0 -268 105.5t-102 314.5z" />
<glyph unicode="d" d="M29 346q0 186 51 354t158.5 283t250.5 115q59 0 111.5 -21.5t79.5 -44t68 -63.5l92 524h360l-264 -1493h-358l18 111q-158 -133 -299 -134q-125 0 -196.5 98.5t-71.5 270.5zM397 406q0 -127 78 -127q80 0 172 118l51 291q-51 109 -127 109q-78 0 -126 -131t-48 -260z" />
<glyph unicode="e" horiz-adv-x="1007" d="M176.5 907.5q153.5 190.5 423.5 190.5q172 0 276.5 -85.5t104.5 -228.5q0 -92 -30.5 -159.5t-79 -105.5t-120 -60.5t-138 -29.5t-150.5 -7h-78v-16q0 -152 102 -152q86 0 314 111l98 -254q-78 -41 -220 -87.5t-278 -46.5q-378 0 -378 433q0 307 153.5 497.5zM408 616h61 q84 0 134 37t50 105q0 33 -20 54.5t-55 21.5q-119 0 -170 -218z" />
<glyph unicode="f" horiz-adv-x="731" d="M-186 -201q147 57 184 101.5t61 181.5l127 719h-116l49 274h114q37 213 119 315.5t236 102.5q166 0 364 -119l-161 -223q-90 35 -123 35q-55 0 -72 -86l-4 -25h203l-52 -274h-200l-119 -688q-14 -84 -21.5 -122t-24 -98.5t-31.5 -88t-44 -69.5t-62.5 -64.5t-86 -51.5 t-117 -51.5t-150.5 -44.5z" />
<glyph unicode="g" d="M-70 -346l119 285q203 -82 354 -82q88 0 124 40t51 119l16 90q-158 -129 -297 -129q-125 0 -196.5 98.5t-71.5 270.5q0 184 51 353t159.5 284t249.5 115q84 0 141.5 -34t114.5 -93l19 104h360l-184 -1038q-47 -276 -158.5 -375.5t-341.5 -99.5q-254 0 -510 92zM397 406 q0 -127 78 -127q80 0 168 114l53 299q-53 104 -125 105q-78 0 -126 -131t-48 -260z" />
<glyph unicode="h" horiz-adv-x="1116" d="M-20 0l262 1493h360l-92 -526q178 131 315 131q143 0 203 -94q39 -61 38 -160q0 -53 -11 -117l-127 -727h-361l117 666q7 38 7 66q0 75 -52 75q-82 0 -176 -107l-123 -700h-360z" />
<glyph unicode="i" horiz-adv-x="536" d="M-20 0l188 1075h360l-190 -1075h-358zM182 1192l54 295h370l-51 -295h-373z" />
<glyph unicode="j" horiz-adv-x="536" d="M-252 -195q150 57 185.5 94.5t54.5 139.5l182 1036h358l-176 -1003q-10 -61 -15 -88t-17.5 -76t-21.5 -70.5t-26.5 -59.5t-36 -56.5l-47 -47t-63.5 -45t-80 -37t-101.5 -37t-123.5 -32.5zM184 1192l52 295h372l-53 -295h-371z" />
<glyph unicode="k" horiz-adv-x="1062" d="M-20 0l262 1493h360l-125 -711l215 293h430l-393 -438l250 -637h-369l-125 367l-100 -113l-45 -254h-360z" />
<glyph unicode="l" horiz-adv-x="538" d="M-18 0l262 1493h360l-262 -1493h-360z" />
<glyph unicode="m" horiz-adv-x="1622" d="M-20 0l188 1075h360l-20 -121q139 143 287 144q190 0 223 -178q160 178 323 178q141 0 195 -96q36 -64 36 -159q0 -49 -9 -106l-131 -737h-359l119 682q9 35 9 63q0 14 -2 26q-7 36 -46 36q-63 0 -145 -102l-123 -705h-359l121 682q8 33 8 60q0 16 -3 29q-7 36 -46 36 q-66 0 -141 -96l-125 -711h-360z" />
<glyph unicode="n" horiz-adv-x="1116" d="M-20 0l188 1075h360l-20 -108q172 131 317 131q143 0 203 -94q39 -61 39 -160q0 -53 -12 -117l-127 -727h-361l119 668q6 34 6 60q0 79 -53 79q-82 0 -176 -109l-123 -698h-360z" />
<glyph unicode="o" horiz-adv-x="1107" d="M29 422q0 115 29.5 227.5t90 217t172.5 168t259 63.5q201 0 337 -108.5t136 -336.5q0 -115 -30 -227.5t-90.5 -217t-172 -168t-258.5 -63.5q-201 0 -337 109t-136 336zM387 414q0 -150 117 -150q90 0 140 138.5t50 259.5q0 149 -114 149h-2q-90 0 -140.5 -138t-50.5 -259 z" />
<glyph unicode="p" horiz-adv-x="1126" d="M-94 -418l262 1493h360l-18 -104q156 127 293 127q127 0 199.5 -97.5t72.5 -271.5q0 -178 -49 -345t-157.5 -287t-252.5 -120q-86 0 -143 34t-115 93l-92 -522h-360zM408 383q51 -104 124 -104q78 0 126.5 126.5t48.5 260.5q0 131 -82 131q-70 0 -164 -111z" />
<glyph unicode="q" d="M29 346q0 186 51 354t158.5 283t250.5 115q59 0 111.5 -21.5t79.5 -44t68 -63.5l18 106h360l-264 -1493h-358l92 529q-158 -133 -299 -134q-125 0 -196.5 98.5t-71.5 270.5zM397 406q0 -127 78 -127t172 116l51 293q-51 109 -127 109q-78 0 -126 -131t-48 -260z" />
<glyph unicode="r" horiz-adv-x="790" d="M-20 0l188 1075h360l-39 -221q131 234 331 234q15 0 30 -1l-64 -354q-82 0 -151.5 -40t-110.5 -96t-70.5 -111.5t-39.5 -96.5l-13 -39l-61 -350h-360z" />
<glyph unicode="s" horiz-adv-x="970" d="M-45 141l168 248q76 -47 174 -86t160 -39q65 0 65 40q0 17 -8 29.5t-27.5 23t-37 17.5t-51 19.5t-56.5 20.5q-270 111 -270 327q0 154 110.5 255.5t309.5 101.5q236 0 462 -133l-166 -246q-178 94 -282 94q-66 0 -66 -41q0 -16 7.5 -27.5t26 -21.5t35.5 -16.5t49.5 -18.5 t57.5 -22q119 -51 197 -126t78 -204q0 -156 -112.5 -257.5t-319.5 -101.5q-266 0 -504 164z" />
<glyph unicode="t" horiz-adv-x="792" d="M66 801l49 274h118l46 254l368 57l-55 -311h233l-49 -274h-233l-70 -400q-4 -21 -3 -37q0 -59 44 -59q29 0 117 39l76 -291q-203 -76 -345 -76q-259 0 -259 289q0 72 16 162l65 373h-118z" />
<glyph unicode="u" horiz-adv-x="1116" d="M35 348l127 727h360l-119 -665q-7 -33 -7 -62q0 -20 4 -38q8 -42 51 -42q84 0 178 109l123 698h358l-188 -1075h-359l19 111q-174 -133 -318 -133q-1 0 -1 -1q-141 1 -201 95q-38 61 -39 157q0 54 12 119z" />
<glyph unicode="v" horiz-adv-x="1050" d="M84 1075h371l26 -626l244 626h397l-534 -1075h-352z" />
<glyph unicode="w" horiz-adv-x="1486" d="M96 1075h375l-12 -575l227 575h264l23 -573l188 573h385l-454 -1075h-326l-35 563l-231 -563h-326z" />
<glyph unicode="x" horiz-adv-x="1081" d="M-119 0l428 539l-217 536h375l82 -291l186 291h420l-407 -536l237 -539h-385l-86 303l-188 -303h-445z" />
<glyph unicode="y" horiz-adv-x="1048" d="M-18 -190q184 78 251 143l-149 1122h371l28 -612l246 612h389l-514 -1075q-45 -94 -77.5 -148.5t-95 -128t-155 -123t-217.5 -77.5z" />
<glyph unicode="z" horiz-adv-x="1026" d="M-59 0l45 256l510 510h-402l56 309h901l-45 -256l-510 -510h419l-55 -309h-919z" />
<glyph unicode="{" horiz-adv-x="712" d="M14 606l39 213q104 0 145.5 59.5t49.5 157.5l16 209q33 473 502 473h100l-37 -205h-34q-135 0 -152 -227l-12 -178q-16 -203 -97 -291t-237 -110q135 -35 182 -132.5t2 -287.5l-24 -94q-70 -281 61 -281h29l-35 -205h-31q-94 0 -178 28.5t-147.5 90t-83 157t11.5 226.5 l49 180q35 94 10 155.5t-129 61.5z" />
<glyph unicode="|" horiz-adv-x="464" d="M-47 -252l338 1927h256l-338 -1927h-256z" />
<glyph unicode="}" horiz-adv-x="712" d="M-119 -293l37 205h35q135 0 151 227l13 178q16 203 97 291t237 111q-135 35 -182.5 132t-2.5 288l25 94q70 281 -62 280h-28l35 205h30q94 0 178 -28.5t147.5 -90t83 -156.5t-10.5 -226l-50 -181q-35 -94 -10 -155.5t129 -61.5l-39 -213q-104 0 -145 -59.5t-49 -157.5 l-17 -209q-33 -473 -501 -473h-101z" />
<glyph unicode="~" horiz-adv-x="1163" d="M14 432q84 172 170 263t205 91q74 0 145.5 -38.5t134 -76.5t111.5 -38q37 0 70 27.5t84 115.5l194 -92q-84 -174 -171 -264t-203 -90q-92 0 -214 76.5t-180 76.5q-35 0 -66.5 -27.5t-84.5 -115.5z" />
<glyph unicode="&#xa1;" horiz-adv-x="577" d="M-37 0l279 948h213l-54 -948h-438zM195 1071l63 363h350l-63 -363h-350z" />
<glyph unicode="&#xa2;" horiz-adv-x="1003" d="M80 578q0 336 143.5 518t337.5 182h12l29 156h254l-37 -211q35 -14 70 -31.5t78 -42.5t55 -31l-164 -256q-168 94 -223 94q-86 0 -137.5 -105.5t-51.5 -232.5q0 -139 103 -139q55 0 242 84l102 -284q-137 -61 -256 -95l-33 -184h-254l29 164q-135 20 -217 124.5 t-82 289.5z" />
<glyph unicode="&#xa3;" horiz-adv-x="1048" d="M-29 0l45 262q8 2 20.5 7t47.5 24.5t63.5 43t59.5 66.5t45 95h-174l37 217h135q-4 20 -22.5 86.5t-26.5 119t-8 111.5q0 199 104 311.5t299 112.5q254 0 506 -215l-189 -227q-147 119 -245 119q-53 0 -81 -36t-28 -93q0 -47 27.5 -141.5t34.5 -147.5h262l-37 -217h-244 q-41 -127 -113 -174h433l-58 -324h-893z" />
<glyph unicode="&#xa5;" horiz-adv-x="1282" d="M109 266l38 213h281l16 90h-280l39 213h176l-197 652h400l100 -488l268 488h430l-426 -652h176l-38 -213h-275l-16 -90h276l-41 -213h-272l-47 -266h-373l47 266h-282z" />
<glyph unicode="&#xa6;" horiz-adv-x="466" d="M-47 -252l147 846h256l-147 -846h-256zM143 829l148 846h256l-148 -846h-256z" />
<glyph unicode="&#xa7;" horiz-adv-x="1060" d="M4 -14l164 245q178 -94 283 -94q68 0 67 45q0 14 -7 24.5t-25.5 20t-37 16.5t-53 19.5t-61.5 22.5q-53 20 -91 41.5t-83 58.5t-69.5 92t-24.5 123q0 96 50 172t146 117q-74 80 -74 205q0 156 111 259t309 103q242 0 463 -133l-164 -246q-174 94 -280 94q-68 0 -68 -45 q0 -14 7 -24t25.5 -19.5t36 -16.5t53.5 -19.5t62 -22.5q51 -20 89 -41.5t83.5 -58.5t70 -92.5t24.5 -122.5q0 -205 -199 -291q76 -82 76 -203q0 -156 -110.5 -259t-309.5 -103q-238 0 -463 133zM414 670q0 -8 2 -15.5t4 -12.5t8 -11t11 -10.5t15.5 -10.5l17.5 -10t22.5 -10 t25.5 -10.5t29.5 -11.5t32.5 -13q80 21 80 84q0 12 -3.5 21.5t-12.5 18.5t-17 15t-26.5 14.5t-31 13.5t-37 15.5t-40.5 16.5q-80 -20 -80 -84z" />
<glyph unicode="&#xa8;" horiz-adv-x="456" d="M135 1221l49 274h265l-48 -274h-266zM479 1221l47 274h265l-48 -274h-264z" />
<glyph unicode="&#xa9;" horiz-adv-x="1585" d="M80 641q0 342 210 578.5t572 236.5q311 0 493.5 -183t182.5 -480q0 -221 -88 -403.5t-270.5 -297.5t-425.5 -115q-309 0 -491.5 184.5t-182.5 479.5zM160 643q0 -260 160.5 -424t441.5 -164q319 0 508.5 212t189.5 524q0 260 -161.5 423.5t-442.5 163.5 q-319 0 -507.5 -212t-188.5 -523zM430 618q-10 250 112 396.5t302 146.5q159 0 327 -137l-63 -66q-137 115 -266 115q-135 0 -226.5 -128t-83.5 -318q4 -125 56.5 -196t138.5 -71q147 0 307 111l51 -74q-190 -127 -354 -127q-127 0 -211 91.5t-90 256.5z" />
<glyph unicode="&#xaa;" horiz-adv-x="774" d="M133 1001q0 172 78 309.5t209 137.5q84 0 162 -74l10 60h237l-114 -646h-238l10 60q-98 -74 -182 -74q-80 0 -126 61.5t-46 165.5zM375 1038q0 -65 45 -65t100 61l29 160q-29 55 -72 55q-45 0 -73.5 -71.5t-28.5 -139.5z" />
<glyph unicode="&#xab;" horiz-adv-x="1179" d="M14 432l39 223l582 422l-70 -393l-250 -162l195 -160l-64 -352zM553 432l39 223l582 422l-70 -393l-250 -162l195 -160l-64 -352z" />
<glyph unicode="&#xac;" horiz-adv-x="1163" d="M51 543l49 280h1006l-113 -639h-291l64 359h-715z" />
<glyph unicode="&#xad;" horiz-adv-x="770" d="M57 434l52 299h591l-51 -299h-592z" />
<glyph unicode="&#xae;" horiz-adv-x="847" d="M131 1069q0 170 104.5 288t286.5 118q154 0 245 -92.5t91 -239.5q0 -170 -104.5 -288t-286.5 -118q-154 0 -245 92.5t-91 239.5zM199 1071q0 -117 73.5 -191.5t198.5 -74.5q147 0 234.5 96t87.5 240q0 117 -75 191.5t-202 74.5q-145 0 -231 -96.5t-86 -239.5zM328 926 l65 370h164q51 0 82 -27.5t31 -68.5q0 -96 -115 -115l61 -159h-69l-58 157h-67l-27 -157h-67zM434 1143h90q78 0 78 57q0 35 -49 35h-102z" />
<glyph unicode="&#xaf;" horiz-adv-x="548" d="M227 1251l37 215h543l-37 -215h-543z" />
<glyph unicode="&#xb0;" horiz-adv-x="776" d="M121 1093.5q0 141.5 100.5 243t241.5 101.5t241.5 -101.5t100.5 -243t-100.5 -241.5t-241.5 -100t-241.5 100t-100.5 241.5zM330 1094q0 -53 39 -93t94 -40q53 0 93 39.5t40 93.5q0 55 -40 94t-93 39q-55 0 -94 -39t-39 -94z" />
<glyph unicode="&#xb1;" horiz-adv-x="1163" d="M33 0l41 238h882l-41 -238h-882zM137 594l49 280h299l45 252h285l-45 -252h299l-49 -280h-299l-43 -250h-285l43 250h-299z" />
<glyph unicode="&#xb2;" horiz-adv-x="731" d="M70 788l16 101q14 84 65.5 158.5t98.5 113.5t121 88q156 96 178 123q18 20 18 37q0 39 -55 39q-70 0 -203 -78l-92 176q186 117 338 117q131 0 197.5 -66.5t66.5 -160.5q0 -61 -26.5 -115.5t-75.5 -97.5t-84 -68t-86 -55q-125 -70 -133 -99h325l-37 -213h-632z" />
<glyph unicode="&#xb3;" horiz-adv-x="727" d="M70 920l129 155q133 -84 213 -84q94 0 94 68q0 72 -164 71h-31l37 211h35q160 0 160 66q0 41 -51 41q-80 0 -199 -70l-80 172q172 113 338 113q121 0 183.5 -55.5t62.5 -141.5q0 -127 -150 -211q106 -59 107 -190q0 -111 -78 -201t-242 -90q-204 1 -364 146z" />
<glyph unicode="&#xb4;" horiz-adv-x="448" d="M137 1200l262 293h394l-349 -293h-307z" />
<glyph unicode="&#xb5;" horiz-adv-x="1163" d="M-78 -418l264 1493h361l-119 -665q-12 -57 -4 -99.5t51 -42.5q84 0 178 109l123 698h359l-189 -1075h-358l18 111q-139 -106 -256 -127l-69 -402h-359z" />
<glyph unicode="&#xb6;" horiz-adv-x="1368" d="M90 813q0 264 164 442.5t426 178.5h309l-319 -1813h-293l135 770q-188 0 -305 107.5t-117 314.5zM766 -379l319 1813h295l-319 -1813h-295z" />
<glyph unicode="&#xb7;" horiz-adv-x="530" d="M47 385l72 397h350l-70 -397h-352z" />
<glyph unicode="&#xb8;" horiz-adv-x="323" d="M-88 -342l98 176q37 -23 72 -22q78 0 78 86q0 23 -6.5 49t-12.5 41l-6 16h152q35 -68 35 -156q0 -119 -70 -178t-170 -59q-104 0 -170 47z" />
<glyph unicode="&#xb9;" horiz-adv-x="612" d="M152 1503l254 146h235l-152 -861h-245l108 611l-119 -64z" />
<glyph unicode="&#xba;" horiz-adv-x="735" d="M127 1047q0 68 18.5 134t56.5 128.5t108.5 100.5t164.5 38q129 0 215 -66.5t86 -205.5q0 -94 -29.5 -180.5t-111.5 -154t-207 -67.5q-127 0 -214 66.5t-87 206.5zM365 1040q-1 -77 65 -77q55 0 83 75.5t28 143.5q0 78 -68 78q-53 0 -80.5 -77t-27.5 -143z" />
<glyph unicode="&#xbb;" horiz-adv-x="1183" d="M-16 10l69 393l250 162l-194 160l63 352l432 -422l-39 -223zM524 10l70 393l250 162l-195 160l64 352l432 -422l-39 -223z" />
<glyph unicode="&#xbc;" horiz-adv-x="1652" d="M154 1288l254 146h235l-151 -861h-246l108 611l-118 -64zM248 0l790 1434h265l-791 -1434h-264zM762 141l31 178l405 541h328l-90 -506h108l-37 -213h-108l-25 -141h-246l25 141h-391zM1038 354h152l47 269z" />
<glyph unicode="&#xbd;" horiz-adv-x="1675" d="M154 1288l254 146h235l-151 -861h-246l108 611l-118 -64zM248 0l790 1434h265l-791 -1434h-264zM856 0l16 100q14 84 65.5 159t98.5 114t121 88q156 96 178 123q18 20 19 37q0 39 -56 38q-70 0 -202 -77l-92 176q186 117 337 116q131 0 198 -66.5t67 -160.5 q0 -61 -27 -115.5t-76 -97.5t-84 -67.5t-86 -55.5q-125 -70 -133 -98h326l-37 -213h-633z" />
<glyph unicode="&#xbe;" horiz-adv-x="1794" d="M61 705l129 155q133 -84 213 -84q94 0 95 68q0 72 -164 71h-31l37 211h35q160 0 160 66q0 41 -52 41q-80 0 -198 -70l-80 172q172 113 338 113q121 0 183 -55.5t62 -141.5q0 -127 -149 -211q106 -59 106 -190q0 -111 -77.5 -201t-241.5 -90q-205 1 -365 146zM393 0 l791 1434h264l-791 -1434h-264zM909 141l31 178l406 541h327l-90 -506h109l-37 -213h-109l-24 -141h-246l24 141h-391zM1186 354h151l47 269z" />
<glyph unicode="&#xbf;" horiz-adv-x="976" d="M12 328q0 109 51.5 199.5t132 147t155.5 90.5t149 50l41 133h213l-41 -338q-166 -41 -242 -92t-76 -125q0 -92 101 -92q86 0 235 92l129 -266q-225 -150 -454 -150q-184 0 -289 96.5t-105 254.5zM494 1071l63 363h350l-63 -363h-350z" />
<glyph unicode="&#xc0;" horiz-adv-x="1255" d="M-106 0l677 1434h410l170 -1434h-395l-11 240h-342l-92 -240h-417zM479 1802h359l159 -293h-274zM522 545h213l-20 495z" />
<glyph unicode="&#xc1;" horiz-adv-x="1255" d="M-106 0l677 1434h410l170 -1434h-395l-11 240h-342l-92 -240h-417zM522 545h213l-20 495zM586 1509l262 293h393l-348 -293h-307z" />
<glyph unicode="&#xc2;" horiz-adv-x="1255" d="M-106 0l677 1434h410l170 -1434h-395l-11 240h-342l-92 -240h-417zM444 1509l240 293h320l133 -293h-222l-86 138l-133 -138h-252zM522 545h213l-20 495z" />
<glyph unicode="&#xc3;" horiz-adv-x="1255" d="M-106 0l677 1434h410l170 -1434h-395l-11 240h-342l-92 -240h-417zM457 1612q37 59 55 84.5t51 63.5t68 53.5t78 15.5q51 0 127.5 -48t101.5 -48q43 0 106 96l136 -98q-41 -66 -56.5 -86.5t-50.5 -61.5t-69.5 -55.5t-77.5 -14.5q-51 0 -127 48.5t-99 48.5 q-44 -1 -110 -99zM522 545h213l-20 495z" />
<glyph unicode="&#xc4;" horiz-adv-x="1255" d="M-106 0l677 1434h410l170 -1434h-395l-11 240h-342l-92 -240h-417zM489 1530l50 274h264l-47 -274h-267zM522 545h213l-20 495zM834 1530l47 274h264l-47 -274h-264z" />
<glyph unicode="&#xc5;" horiz-adv-x="1255" d="M-109 0l678 1434h410l170 -1434h-395l-11 240h-342l-92 -240h-418zM520 545h213l-20 495zM602 1714q0 94 65.5 161t160 67t160 -67t65.5 -161t-65.5 -159.5t-160 -65.5t-160 65.5t-65.5 159.5zM764 1714.5q0 -26.5 18.5 -45t45 -18.5t45 18.5t18.5 45t-18.5 46t-45 19.5 t-45 -19.5t-18.5 -46z" />
<glyph unicode="&#xc6;" horiz-adv-x="1894" d="M-172 0l1028 1434h1112l-59 -332h-539l-39 -223h436l-57 -324h-436l-41 -223h549l-58 -332h-921l41 240h-383l-162 -240h-471zM674 555h225l80 451z" />
<glyph unicode="&#xc7;" horiz-adv-x="1150" d="M66 522q0 236 65.5 442.5t211.5 349t347 142.5q100 0 207 -36t169 -69.5t167 -101.5l-199 -278q-209 131 -309 131q-90 0 -156.5 -96.5t-94.5 -220t-28 -242.5q0 -213 136 -213q98 0 331 123l142 -308q-287 -141 -484 -161q25 -63 25 -136q0 -119 -69.5 -178t-170.5 -59 q-104 0 -170 47l99 176q37 -23 71 -22q78 0 78 86q0 43 -16 84q-172 23 -262 165t-90 375z" />
<glyph unicode="&#xc8;" horiz-adv-x="1095" d="M2 0l252 1434h913l-59 -332h-539l-39 -223h437l-58 -324h-436l-41 -223h549l-57 -332h-922zM420 1802h358l160 -293h-274z" />
<glyph unicode="&#xc9;" horiz-adv-x="1095" d="M2 0l252 1434h913l-59 -332h-539l-39 -223h437l-58 -324h-436l-41 -223h549l-57 -332h-922zM506 1509l262 293h393l-348 -293h-307z" />
<glyph unicode="&#xca;" horiz-adv-x="1095" d="M2 0l252 1434h913l-59 -332h-539l-39 -223h437l-58 -324h-436l-41 -223h549l-57 -332h-922zM383 1509l240 293h319l133 -293h-221l-86 138l-133 -138h-252z" />
<glyph unicode="&#xcb;" horiz-adv-x="1095" d="M2 0l252 1434h913l-59 -332h-539l-39 -223h437l-58 -324h-436l-41 -223h549l-57 -332h-922zM430 1530l49 274h264l-47 -274h-266zM774 1530l47 274h264l-47 -274h-264z" />
<glyph unicode="&#xcc;" horiz-adv-x="595" d="M2 0l252 1434h373l-252 -1434h-373zM145 1802h359l160 -293h-275z" />
<glyph unicode="&#xcd;" horiz-adv-x="593" d="M2 0l252 1434h373l-252 -1434h-373zM231 1509l263 293h393l-348 -293h-308z" />
<glyph unicode="&#xce;" horiz-adv-x="591" d="M2 0l252 1434h373l-252 -1434h-373zM106 1509l240 293h320l133 -293h-221l-86 138l-134 -138h-252z" />
<glyph unicode="&#xcf;" horiz-adv-x="591" d="M2 0l252 1434h373l-252 -1434h-373zM156 1530l49 274h264l-47 -274h-266zM500 1530l47 274h264l-47 -274h-264z" />
<glyph unicode="&#xd0;" horiz-adv-x="1316" d="M6 567l51 299h121l101 568h376q332 0 480.5 -151.5t148.5 -405.5q0 -59 -7 -125t-27.5 -154t-54.5 -168t-92.5 -160t-135 -138t-190 -95t-251.5 -37h-499l98 567h-119zM457 332h59q133 0 226.5 88t129 201.5t35.5 236.5q0 129 -65.5 186.5t-202.5 57.5h-45l-43 -236h203 l-52 -299h-204z" />
<glyph unicode="&#xd1;" horiz-adv-x="1318" d="M2 0l252 1434h375l215 -789l137 789h373l-252 -1434h-373l-217 793l-137 -793h-373zM494 1612q37 59 55 84.5t51 63.5t67.5 53.5t77.5 15.5q51 0 128 -48t102 -48q43 0 106 96l136 -98q-41 -66 -56.5 -86.5t-50.5 -61.5t-69.5 -55.5t-77.5 -14.5q-51 0 -127 48.5 t-99 48.5q-44 -1 -110 -99z" />
<glyph unicode="&#xd2;" horiz-adv-x="1361" d="M68 553q0 94 16 192.5t48 202t88 193.5t130 161.5t179.5 112.5t230.5 41q268 0 418.5 -144.5t150.5 -424.5q0 -115 -21.5 -233.5t-73.5 -242.5t-129 -218.5t-199 -155t-269 -60.5q-268 0 -418.5 145.5t-150.5 430.5zM449 555q-1 -246 200 -246q80 0 142.5 68.5t94.5 168 t47 186.5t15 147q0 246 -200 245q-80 0 -142.5 -68.5t-94.5 -168t-47 -186.5t-15 -146zM528 1802h359l160 -293h-275z" />
<glyph unicode="&#xd3;" horiz-adv-x="1361" d="M68 553q0 94 16 192.5t48 202t88 193.5t130 161.5t179.5 112.5t230.5 41q268 0 418.5 -144.5t150.5 -424.5q0 -115 -21.5 -233.5t-73.5 -242.5t-129 -218.5t-199 -155t-269 -60.5q-268 0 -418.5 145.5t-150.5 430.5zM449 555q-1 -246 200 -246q80 0 142.5 68.5t94.5 168 t47 186.5t15 147q0 246 -200 245q-80 0 -142.5 -68.5t-94.5 -168t-47 -186.5t-15 -146zM616 1509l263 293h393l-348 -293h-308z" />
<glyph unicode="&#xd4;" horiz-adv-x="1361" d="M68 553q0 94 16 192.5t48 202t88 193.5t130 161.5t179.5 112.5t230.5 41q268 0 418.5 -144.5t150.5 -424.5q0 -115 -21.5 -233.5t-73.5 -242.5t-129 -218.5t-199 -155t-269 -60.5q-268 0 -418.5 145.5t-150.5 430.5zM449 555q-1 -246 200 -246q80 0 142.5 68.5t94.5 168 t47 186.5t15 147q0 246 -200 245q-80 0 -142.5 -68.5t-94.5 -168t-47 -186.5t-15 -146zM494 1509l239 293h320l133 -293h-221l-86 138l-134 -138h-251z" />
<glyph unicode="&#xd5;" horiz-adv-x="1361" d="M68 553q0 94 16 192.5t48 202t88 193.5t130 161.5t179.5 112.5t230.5 41q268 0 418.5 -144.5t150.5 -424.5q0 -115 -21.5 -233.5t-73.5 -242.5t-129 -218.5t-199 -155t-269 -60.5q-268 0 -418.5 145.5t-150.5 430.5zM449 555q-1 -246 200 -246q80 0 142.5 68.5t94.5 168 t47 186.5t15 147q0 246 -200 245q-80 0 -142.5 -68.5t-94.5 -168t-47 -186.5t-15 -146zM504 1612q37 59 55.5 84.5t51 63.5t67.5 53.5t78 15.5q51 0 128 -48t101 -48q43 0 107 96l135 -98q-41 -66 -56.5 -86.5t-50.5 -61.5t-69.5 -55.5t-77.5 -14.5q-51 0 -127 48.5 t-98 48.5q-45 -1 -111 -99z" />
<glyph unicode="&#xd6;" horiz-adv-x="1361" d="M68 553q0 94 16 192.5t48 202t88 193.5t130 161.5t179.5 112.5t230.5 41q268 0 418.5 -144.5t150.5 -424.5q0 -115 -21.5 -233.5t-73.5 -242.5t-129 -218.5t-199 -155t-269 -60.5q-268 0 -418.5 145.5t-150.5 430.5zM449 555q-1 -246 200 -246q80 0 142.5 68.5t94.5 168 t47 186.5t15 147q0 246 -200 245q-80 0 -142.5 -68.5t-94.5 -168t-47 -186.5t-15 -146zM541 1530l49 274h264l-47 -274h-266zM885 1530l47 274h264l-47 -274h-264z" />
<glyph unicode="&#xd7;" horiz-adv-x="1181" d="M139 444l279 263l-182 258l229 165l162 -229l250 236l190 -203l-279 -260l187 -260l-232 -166l-163 229l-252 -235z" />
<glyph unicode="&#xd8;" horiz-adv-x="1363" d="M-23 0l175 207q-84 137 -84 346q0 94 16 192.5t48 202t88 193.5t130 161.5t179.5 112.5t230.5 41q217 0 354 -94l60 72h245l-172 -209q82 -135 82 -338q0 -115 -21.5 -233.5t-73.5 -242.5t-129 -218.5t-199 -155t-269 -60.5q-213 0 -354 93l-58 -70h-248zM449 563 l432 518q-49 43 -133 43q-78 0 -139.5 -65.5t-94.5 -162.5t-49 -183t-16 -150zM516 348q49 -39 133 -39q78 0 138.5 64.5t93 161t49 181.5t18.5 150z" />
<glyph unicode="&#xd9;" horiz-adv-x="1271" d="M70.5 362.5q-9.5 114.5 19.5 245.5l146 826h374l-159 -902q-18 -104 7 -162.5t122 -58.5q98 0 141 57.5t63 163.5l160 902h373l-158 -893q-23 -129 -57.5 -221.5t-99 -175.5t-174 -125t-263.5 -42q-176 0 -287.5 49.5t-154.5 135.5t-52.5 200.5zM477 1802h359l159 -293 h-274z" />
<glyph unicode="&#xda;" horiz-adv-x="1271" d="M70.5 362.5q-9.5 114.5 19.5 245.5l146 826h374l-159 -902q-18 -104 7 -162.5t122 -58.5q98 0 141 57.5t63 163.5l160 902h373l-158 -893q-23 -129 -57.5 -221.5t-99 -175.5t-174 -125t-263.5 -42q-176 0 -287.5 49.5t-154.5 135.5t-52.5 200.5zM563 1509l262 293h394 l-349 -293h-307z" />
<glyph unicode="&#xdb;" horiz-adv-x="1269" d="M70.5 362.5q-9.5 114.5 19.5 245.5l146 826h374l-159 -902q-18 -104 7 -162.5t122 -58.5q98 0 141 57.5t63 163.5l160 902h373l-158 -893q-23 -129 -57.5 -221.5t-99 -175.5t-174 -125t-263.5 -42q-176 0 -287.5 49.5t-154.5 135.5t-52.5 200.5zM440 1509l240 293h319 l134 -293h-222l-86 138l-133 -138h-252z" />
<glyph unicode="&#xdc;" horiz-adv-x="1271" d="M70.5 362.5q-9.5 114.5 19.5 245.5l146 826h374l-159 -902q-18 -104 7 -162.5t122 -58.5q98 0 141 57.5t63 163.5l160 902h373l-158 -893q-23 -129 -57.5 -221.5t-99 -175.5t-174 -125t-263.5 -42q-176 0 -287.5 49.5t-154.5 135.5t-52.5 200.5zM489 1530l50 274h264 l-47 -274h-267zM834 1530l47 274h264l-47 -274h-264z" />
<glyph unicode="&#xdd;" horiz-adv-x="1181" d="M131 1434h399l101 -488l268 488h430l-563 -863l-100 -571h-373l100 571zM520 1509l262 293h394l-349 -293h-307z" />
<glyph unicode="&#xde;" horiz-adv-x="1210" d="M2 0l252 1434h373l-37 -213h96q514 0 514 -408q0 -106 -32.5 -201.5t-98 -175.5t-181.5 -127t-267 -47h-199l-47 -262h-373zM477 582h131q109 0 159 54t50 142q0 66 -40 92.5t-118 26.5h-127z" />
<glyph unicode="&#xdf;" horiz-adv-x="1378" d="M-20 0l174 981q20 106 56 184t104.5 147.5t189.5 106.5t291 37q180 0 302 -41t177 -112.5t71.5 -150.5t2.5 -173l-5 -29l-178 -219q-127 80 -215 80q-53 0 -53 -39q0 -12 5 -22.5t11.5 -17.5t21.5 -16t27.5 -14.5t37 -17.5t40.5 -20q119 -63 185.5 -138t66.5 -198 q0 -152 -100 -251.5t-293 -99.5q-256 0 -477 166l164 246q66 -47 153.5 -86t135 -39t47.5 41q0 10 -3.5 18.5t-11.5 15.5t-15 13t-21.5 14.5t-25.5 14.5t-30.5 16.5t-34.5 16.5q-125 70 -187.5 141.5t-62.5 192.5q0 152 99.5 251t283.5 99q25 0 70 -4q-35 76 -195 75 q-123 0 -192.5 -52t-91.5 -179l-166 -938h-358z" />
<glyph unicode="&#xe0;" d="M29 346q0 186 51 354t158.5 283t250.5 115q59 0 111.5 -21.5t79.5 -44t68 -63.5l18 106h360l-190 -1075h-358l18 111q-158 -133 -299 -134q-125 0 -196.5 98.5t-71.5 270.5zM385 1493h358l160 -293h-274zM397 406q0 -127 78 -127t172 116l51 293q-51 109 -127 109 q-78 0 -126 -131t-48 -260z" />
<glyph unicode="&#xe1;" horiz-adv-x="1112" d="M29 346q0 186 51 354t158.5 283t250.5 115q59 0 111.5 -21.5t79.5 -44t68 -63.5l18 106h360l-190 -1075h-358l18 111q-158 -133 -299 -134q-125 0 -196.5 98.5t-71.5 270.5zM397 406q0 -127 78 -127t172 116l51 293q-51 109 -127 109q-78 0 -126 -131t-48 -260zM457 1200 l262 293h393l-348 -293h-307z" />
<glyph unicode="&#xe2;" d="M29 346q0 186 51 354t158.5 283t250.5 115q59 0 111.5 -21.5t79.5 -44t68 -63.5l18 106h360l-190 -1075h-358l18 111q-158 -133 -299 -134q-125 0 -196.5 98.5t-71.5 270.5zM346 1200l240 293h319l133 -293h-221l-86 137l-133 -137h-252zM397 406q0 -127 78 -127t172 116 l51 293q-51 109 -127 109q-78 0 -126 -131t-48 -260z" />
<glyph unicode="&#xe3;" d="M29 346q0 186 51 354t158.5 283t250.5 115q59 0 111.5 -21.5t79.5 -44t68 -63.5l18 106h360l-190 -1075h-358l18 111q-158 -133 -299 -134q-125 0 -196.5 98.5t-71.5 270.5zM365 1303q37 59 55 84.5t51 63.5t67.5 53.5t77.5 15.5q51 0 128 -48.5t102 -48.5q43 0 106 97 l135 -99q-41 -66 -56 -86t-50 -61t-69.5 -55.5t-77.5 -14.5q-51 0 -127 48t-99 48q-44 0 -110 -98zM397 406q0 -127 78 -127t172 116l51 293q-51 109 -127 109q-78 0 -126 -131t-48 -260z" />
<glyph unicode="&#xe4;" d="M29 346q0 186 51 354t158.5 283t250.5 115q59 0 111.5 -21.5t79.5 -44t68 -63.5l18 106h360l-190 -1075h-358l18 111q-158 -133 -299 -134q-125 0 -196.5 98.5t-71.5 270.5zM397 406q0 -127 78 -127t172 116l51 293q-51 109 -127 109q-78 0 -126 -131t-48 -260zM410 1221 l49 274h264l-47 -274h-266zM754 1221l47 274h264l-47 -274h-264z" />
<glyph unicode="&#xe5;" d="M29 346q0 186 51 354t158.5 283t250.5 115q59 0 111.5 -21.5t79.5 -44t68 -63.5l18 106h360l-190 -1075h-358l18 111q-158 -133 -299 -134q-125 0 -196.5 98.5t-71.5 270.5zM397 406q0 -127 78 -127t172 116l51 293q-51 109 -127 109q-78 0 -126 -131t-48 -260zM512 1405 q0 94 65.5 160.5t159.5 66.5t160 -66.5t66 -160.5t-66 -159.5t-160 -65.5t-159.5 65.5t-65.5 159.5zM674 1405q0 -27 18.5 -45.5t45 -18.5t45 18.5t18.5 45.5t-18.5 46t-45 19t-45 -19t-18.5 -46z" />
<glyph unicode="&#xe6;" horiz-adv-x="1648" d="M29 346q0 186 51 354t158.5 283t250.5 115q57 0 109.5 -21.5t80.5 -44t69 -63.5l18 106h307q80 23 168 23q172 0 276.5 -85.5t104.5 -228.5q0 -92 -30.5 -159.5t-79 -105.5t-120 -60.5t-138 -29.5t-150.5 -7h-78v-16q0 -152 102 -152q86 0 314 111l98 -254 q-78 -41 -220 -87.5t-278 -46.5q-80 0 -151 23h-316l19 109q-156 -131 -297 -132q-125 0 -196.5 98.5t-71.5 270.5zM397 406q0 -127 78 -127q76 0 170 116l51 295q-51 106 -125 107q-78 0 -126 -131t-48 -260zM1049 616h61q84 0 134 37t50 105q0 33 -20 54.5t-55 21.5 q-119 0 -170 -218z" />
<glyph unicode="&#xe7;" horiz-adv-x="915" d="M27 397q0 336 142 518.5t337 182.5q35 0 71.5 -4t64.5 -10.5t62.5 -17.5t55 -19.5t54.5 -24.5t46 -23.5t46 -26t42 -22.5l-166 -260q-4 2 -28.5 16.5t-35.5 20.5t-33.5 17.5t-37 16.5t-34 10t-33.5 5q-86 0 -137.5 -105.5t-51.5 -232.5q0 -139 101 -139q45 0 223 84 l102 -289q-229 -102 -375 -114q25 -63 25 -132q0 -119 -69.5 -178t-170.5 -59q-104 0 -170 47l99 176q37 -23 71 -22q78 0 78 86q0 43 -20 94q-119 31 -188.5 132t-69.5 273z" />
<glyph unicode="&#xe8;" horiz-adv-x="1007" d="M23 412q0 305 153.5 495.5t423.5 190.5q172 0 276.5 -85.5t104.5 -228.5q0 -92 -30.5 -159.5t-79 -105.5t-120 -60.5t-138 -29.5t-150.5 -7h-78v-16q0 -152 102 -152q86 0 314 111l98 -254q-78 -41 -220 -87.5t-278 -46.5q-379 0 -378 435zM328 1493h358l160 -293h-275z M408 616h61q84 0 134 37t50 105q0 33 -20 54.5t-55 21.5q-119 0 -170 -218z" />
<glyph unicode="&#xe9;" horiz-adv-x="1009" d="M23 412q0 305 153.5 495.5t423.5 190.5q172 0 276.5 -85.5t104.5 -228.5q0 -92 -30.5 -159.5t-79 -105.5t-120 -60.5t-138 -29.5t-150.5 -7h-78v-16q0 -152 102 -152q86 0 314 111l98 -254q-78 -41 -220 -87.5t-278 -46.5q-379 0 -378 435zM408 616h61q84 0 134 37 t50 105q0 33 -20 54.5t-55 21.5q-119 0 -170 -218zM416 1200l262 293h393l-348 -293h-307z" />
<glyph unicode="&#xea;" horiz-adv-x="1007" d="M23 412q0 305 153.5 495.5t423.5 190.5q172 0 276.5 -85.5t104.5 -228.5q0 -92 -30.5 -159.5t-79 -105.5t-120 -60.5t-138 -29.5t-150.5 -7h-78v-16q0 -152 102 -152q86 0 314 111l98 -254q-78 -41 -220 -87.5t-278 -46.5q-379 0 -378 435zM291 1200l239 293h320 l133 -293h-221l-86 137l-133 -137h-252zM408 616h61q84 0 134 37t50 105q0 33 -20 54.5t-55 21.5q-119 0 -170 -218z" />
<glyph unicode="&#xeb;" horiz-adv-x="1005" d="M23 412q0 305 153.5 495.5t423.5 190.5q172 0 276.5 -85.5t104.5 -228.5q0 -92 -30.5 -159.5t-79 -105.5t-120 -60.5t-138 -29.5t-150.5 -7h-78v-16q0 -152 102 -152q86 0 314 111l98 -254q-78 -41 -220 -87.5t-278 -46.5q-379 0 -378 435zM342 1221l49 274h264l-47 -274 h-266zM408 616h61q84 0 134 37t50 105q0 33 -20 54.5t-55 21.5q-119 0 -170 -218zM686 1221l47 274h264l-47 -274h-264z" />
<glyph unicode="&#xec;" horiz-adv-x="536" d="M-20 0l188 1075h360l-190 -1075h-358zM59 1493h359l160 -293h-275z" />
<glyph unicode="&#xed;" horiz-adv-x="534" d="M-20 0l188 1075h360l-190 -1075h-358zM145 1200l263 293h393l-348 -293h-308z" />
<glyph unicode="&#xee;" horiz-adv-x="534" d="M-20 0l188 1075h360l-190 -1075h-358zM23 1200l239 293h320l133 -293h-221l-86 137l-134 -137h-251z" />
<glyph unicode="&#xef;" horiz-adv-x="534" d="M-20 0l188 1075h360l-190 -1075h-358zM72 1221l49 274h264l-47 -274h-266zM416 1221l47 274h264l-47 -274h-264z" />
<glyph unicode="&#xf0;" horiz-adv-x="1134" d="M14 416q0 229 140.5 394t341.5 165q86 0 152.5 -37t86 -63.5t27.5 -45.5q-20 186 -144 261l-49 -64h-272l86 111l-125 -15l16 289q74 23 187 23q63 0 143 -15l58 74h268l-119 -154q143 -92 213 -255.5t70 -356.5q0 -315 -162 -532.5t-449 -217.5q-229 0 -349 121 t-120 318zM389 408q0 -143 125 -144q96 0 143.5 88.5t47.5 190.5q0 145 -127 145q-92 0 -140.5 -93t-48.5 -187z" />
<glyph unicode="&#xf1;" horiz-adv-x="1116" d="M-20 0l188 1075h360l-20 -108q172 131 317 131q143 0 202.5 -94.5t27.5 -276.5l-127 -727h-361l119 668q23 139 -47 139q-82 0 -176 -109l-123 -698h-360zM330 1303q37 59 55 84.5t51 63.5t68 53.5t78 15.5q51 0 127.5 -48.5t101.5 -48.5q43 0 107 97l135 -99 q-41 -66 -56.5 -86t-50.5 -61t-69.5 -55.5t-77.5 -14.5q-51 0 -127 48t-99 48q-44 0 -110 -98z" />
<glyph unicode="&#xf2;" horiz-adv-x="1107" d="M29 422q0 115 29.5 227.5t90 217t172.5 168t259 63.5q201 0 337 -108.5t136 -336.5q0 -115 -30 -227.5t-90.5 -217t-172 -168t-258.5 -63.5q-201 0 -337 109t-136 336zM344 1493h358l160 -293h-274zM387 414q0 -150 117 -150q90 0 140 138.5t50 259.5q0 150 -116 149 q-90 0 -140.5 -138t-50.5 -259z" />
<glyph unicode="&#xf3;" horiz-adv-x="1107" d="M29 422q0 115 29.5 227.5t90 217t172.5 168t259 63.5q201 0 337 -108.5t136 -336.5q0 -115 -30 -227.5t-90.5 -217t-172 -168t-258.5 -63.5q-201 0 -337 109t-136 336zM387 414q0 -150 117 -150q90 0 140 138.5t50 259.5q0 150 -116 149q-90 0 -140.5 -138t-50.5 -259z M432 1200l262 293h393l-348 -293h-307z" />
<glyph unicode="&#xf4;" horiz-adv-x="1107" d="M29 422q0 115 29.5 227.5t90 217t172.5 168t259 63.5q201 0 337 -108.5t136 -336.5q0 -115 -30 -227.5t-90.5 -217t-172 -168t-258.5 -63.5q-201 0 -337 109t-136 336zM307 1200l240 293h319l133 -293h-221l-86 137l-133 -137h-252zM387 414q0 -150 117 -150 q90 0 140 138.5t50 259.5q0 150 -116 149q-90 0 -140.5 -138t-50.5 -259z" />
<glyph unicode="&#xf5;" horiz-adv-x="1107" d="M29 422q0 115 29.5 227.5t90 217t172.5 168t259 63.5q201 0 337 -108.5t136 -336.5q0 -115 -30 -227.5t-90.5 -217t-172 -168t-258.5 -63.5q-201 0 -337 109t-136 336zM328 1303q37 59 55 84.5t51 63.5t68 53.5t78 15.5q51 0 127.5 -48.5t101.5 -48.5q43 0 106 97 l136 -99q-41 -66 -56.5 -86t-50.5 -61t-69.5 -55.5t-77.5 -14.5q-51 0 -127 48t-99 48q-44 0 -110 -98zM387 414q0 -150 117 -150q90 0 140 138.5t50 259.5q0 150 -116 149q-90 0 -140.5 -138t-50.5 -259z" />
<glyph unicode="&#xf6;" horiz-adv-x="1105" d="M29 422q0 115 29.5 227.5t90 217t172.5 168t259 63.5q201 0 337 -108.5t136 -336.5q0 -115 -30 -227.5t-90.5 -217t-172 -168t-258.5 -63.5q-201 0 -337 109t-136 336zM360 1221l50 274h264l-47 -274h-267zM387 414q0 -150 117 -150q90 0 140 138.5t50 259.5 q0 150 -116 149q-90 0 -140.5 -138t-50.5 -259zM705 1221l47 274h264l-47 -274h-264z" />
<glyph unicode="&#xf7;" horiz-adv-x="1163" d="M127 543l51 280h881l-49 -280h-883zM373 309.5q0 63.5 45 108.5t108.5 45t108.5 -45t45 -108.5t-45 -108.5t-108.5 -45t-108.5 45t-45 108.5zM504 1057q0 66 45 110.5t108.5 44.5t108.5 -46t45 -109.5t-45 -107.5t-108.5 -44t-108.5 44.5t-45 107.5z" />
<glyph unicode="&#xf8;" horiz-adv-x="1107" d="M-41 0l141 160q-72 104 -71 262q0 115 29.5 227.5t90 217t172.5 168t259 63.5q166 0 284 -72l45 49h191l-129 -147q82 -109 82 -275q0 -115 -30 -227.5t-90.5 -217t-172 -168t-258.5 -63.5q-178 0 -297 78l-49 -55h-197zM391 489l264 297q-28 25 -77 25q-76 0 -124 -99.5 t-63 -222.5zM416 297q29 -33 88 -33q43 0 77.5 35t57.5 89t36 110.5t17 111.5z" />
<glyph unicode="&#xf9;" horiz-adv-x="1116" d="M35 348l127 727h360l-119 -665q-12 -57 -3.5 -99.5t51.5 -42.5q84 0 178 109l123 698h358l-188 -1075h-359l19 111q-174 -133 -317.5 -133.5t-203 94t-26.5 276.5zM344 1493h358l160 -293h-274z" />
<glyph unicode="&#xfa;" horiz-adv-x="1116" d="M35 348l127 727h360l-119 -665q-12 -57 -3.5 -99.5t51.5 -42.5q84 0 178 109l123 698h358l-188 -1075h-359l19 111q-174 -133 -317.5 -133.5t-203 94t-26.5 276.5zM432 1200l262 293h393l-348 -293h-307z" />
<glyph unicode="&#xfb;" horiz-adv-x="1116" d="M35 348l127 727h360l-119 -665q-12 -57 -3.5 -99.5t51.5 -42.5q84 0 178 109l123 698h358l-188 -1075h-359l19 111q-174 -133 -317.5 -133.5t-203 94t-26.5 276.5zM307 1200l240 293h319l133 -293h-221l-86 137l-133 -137h-252z" />
<glyph unicode="&#xfc;" horiz-adv-x="1116" d="M35 348l127 727h360l-119 -665q-12 -57 -3.5 -99.5t51.5 -42.5q84 0 178 109l123 698h358l-188 -1075h-359l19 111q-174 -133 -317.5 -133.5t-203 94t-26.5 276.5zM358 1221l50 274h264l-47 -274h-267zM702 1221l48 274h264l-47 -274h-265z" />
<glyph unicode="&#xfd;" horiz-adv-x="1048" d="M-18 -190q184 78 251 143l-149 1122h371l28 -612l246 612h389l-514 -1075q-45 -94 -77.5 -148.5t-95 -128t-155 -123t-217.5 -77.5zM399 1200l263 293h393l-348 -293h-308z" />
<glyph unicode="&#xfe;" horiz-adv-x="1126" d="M-94 -418l336 1911h360l-92 -522q156 127 293 127q127 0 199.5 -97.5t72.5 -271.5q0 -178 -49 -345t-157.5 -287t-252.5 -120q-86 0 -143 34t-115 93l-92 -522h-360zM408 383q51 -104 124 -104q78 0 126.5 126.5t48.5 260.5q0 131 -82 131q-70 0 -164 -111z" />
<glyph unicode="&#xff;" horiz-adv-x="1048" d="M-18 -190q184 78 251 143l-149 1122h371l28 -612l246 612h389l-514 -1075q-45 -94 -77.5 -148.5t-95 -128t-155 -123t-217.5 -77.5zM324 1221l49 274h264l-47 -274h-266zM668 1221l47 274h264l-47 -274h-264z" />
<glyph unicode="&#x152;" horiz-adv-x="1916" d="M68 553q0 94 16 192.5t48 202t88 193.5t130 161.5t179.5 112.5t230.5 41q176 0 307 -65l8 43h914l-60 -332h-538l-39 -223h436l-57 -324h-437l-41 -223h549l-57 -332h-922v4q-90 -27 -186 -27q-268 0 -418.5 145.5t-150.5 430.5zM449 555q-1 -246 200 -246 q80 0 142.5 68.5t94.5 168t47 186.5t15 147q0 246 -200 245q-80 0 -142.5 -68.5t-94.5 -168t-47 -186.5t-15 -146z" />
<glyph unicode="&#x153;" horiz-adv-x="1667" d="M29 422q0 115 29.5 227.5t90 217t172 168t259.5 63.5q209 0 338 -111q143 111 342 111q172 0 276 -85.5t104 -228.5q0 -92 -30.5 -159.5t-78.5 -105.5t-120 -60.5t-138.5 -29.5t-150.5 -7h-78v-16q0 -152 103 -152q86 0 313 111l99 -254q-78 -41 -220.5 -87.5 t-277.5 -46.5q-170 0 -264 89q-121 -88 -295 -89q-201 0 -337 109t-136 336zM387 414q0 -150 117 -150q90 0 140 138.5t50 259.5q0 150 -116 149q-90 0 -140.5 -138t-50.5 -259zM1067 616h61q84 0 134.5 37t50.5 105q0 33 -20.5 54.5t-55.5 21.5q-119 0 -170 -218z" />
<glyph unicode="&#x178;" horiz-adv-x="1181" d="M131 1434h399l101 -488l268 488h430l-563 -863l-100 -571h-373l100 571zM446 1530l50 274h264l-47 -274h-267zM791 1530l47 274h264l-47 -274h-264z" />
<glyph unicode="&#x2c6;" horiz-adv-x="534" d="M129 1200l240 293h319l133 -293h-221l-86 137l-133 -137h-252z" />
<glyph unicode="&#x2dc;" horiz-adv-x="534" d="M143 1303q37 59 55.5 84.5t51.5 63.5t67.5 53.5t77.5 15.5q51 0 128 -48.5t102 -48.5q43 0 106 97l135 -99q-41 -66 -56 -86t-50 -61t-70 -55.5t-78 -14.5q-51 0 -126.5 48t-98.5 48q-45 0 -111 -98z" />
<glyph unicode="&#x2000;" horiz-adv-x="971" />
<glyph unicode="&#x2001;" horiz-adv-x="1942" />
<glyph unicode="&#x2002;" horiz-adv-x="971" />
<glyph unicode="&#x2003;" horiz-adv-x="1942" />
<glyph unicode="&#x2004;" horiz-adv-x="647" />
<glyph unicode="&#x2005;" horiz-adv-x="485" />
<glyph unicode="&#x2006;" horiz-adv-x="323" />
<glyph unicode="&#x2007;" horiz-adv-x="323" />
<glyph unicode="&#x2008;" horiz-adv-x="242" />
<glyph unicode="&#x2009;" horiz-adv-x="388" />
<glyph unicode="&#x200a;" horiz-adv-x="107" />
<glyph unicode="&#x2010;" horiz-adv-x="770" d="M57 434l52 299h591l-51 -299h-592z" />
<glyph unicode="&#x2011;" horiz-adv-x="770" d="M57 434l52 299h591l-51 -299h-592z" />
<glyph unicode="&#x2012;" horiz-adv-x="770" d="M57 434l52 299h591l-51 -299h-592z" />
<glyph unicode="&#x2013;" horiz-adv-x="983" d="M55 434l54 297h804l-53 -297h-805z" />
<glyph unicode="&#x2014;" horiz-adv-x="1161" d="M55 434l51 297h988l-54 -297h-985z" />
<glyph unicode="&#x2018;" horiz-adv-x="518" d="M102 715l60 448l338 310l65 -123l-196 -238h153l-69 -397h-351z" />
<glyph unicode="&#x2019;" horiz-adv-x="499" d="M106 799l197 237h-153l69 398h350l-59 -449l-338 -309z" />
<glyph unicode="&#x201a;" horiz-adv-x="532" d="M-63 -238l196 238h-153l69 397h350l-59 -448l-338 -309z" />
<glyph unicode="&#x201c;" horiz-adv-x="972" d="M102 715l60 448l338 310l65 -123l-196 -238h153l-69 -397h-351zM557 715l59 448l338 310l66 -123l-197 -238h154l-70 -397h-350z" />
<glyph unicode="&#x201d;" horiz-adv-x="954" d="M106 799l197 237h-153l69 398h350l-59 -449l-338 -309zM561 799l197 237h-154l70 398h350l-59 -449l-338 -309z" />
<glyph unicode="&#x201e;" horiz-adv-x="987" d="M-63 -238l196 238h-153l69 397h350l-59 -448l-338 -309zM389 -238l197 238h-154l70 397h350l-59 -448l-338 -309z" />
<glyph unicode="&#x2022;" horiz-adv-x="933" d="M113 583.5q0 145.5 101 248t246.5 102.5t247 -102.5t101.5 -248t-101.5 -246.5t-247 -101t-246.5 101t-101 246.5z" />
<glyph unicode="&#x2026;" horiz-adv-x="1490" d="M-20 0l71 397h350l-69 -397h-352zM463 0l72 397h350l-70 -397h-352zM944 0l72 397h350l-70 -397h-352z" />
<glyph unicode="&#x202f;" horiz-adv-x="388" />
<glyph unicode="&#x2039;" horiz-adv-x="643" d="M14 432l39 223l582 422l-70 -393l-250 -162l195 -160l-64 -352z" />
<glyph unicode="&#x203a;" horiz-adv-x="643" d="M-16 10l69 393l250 162l-194 160l63 352l432 -422l-39 -223z" />
<glyph unicode="&#x205f;" horiz-adv-x="485" />
<glyph unicode="&#x20ac;" horiz-adv-x="1282" d="M41 477l35 191h88q0 4 4 36.5t8 51.5h-86l33 190h96q72 229 215.5 369.5t347.5 140.5q100 0 207 -36t169.5 -69.5t166.5 -101.5l-199 -278q-209 131 -309 131q-115 0 -192 -156h290l-34 -190h-320q-6 -31 -14 -88h319l-35 -191h-290q18 -147 133 -147q98 0 332 123 l141 -308q-340 -168 -569 -168q-197 0 -303.5 132.5t-116.5 367.5h-117z" />
<glyph unicode="&#x2122;" horiz-adv-x="1110" d="M217 1315l21 119h380l-20 -119h-125l-59 -340h-133l61 340h-125zM578 975l81 459h138l63 -234l152 234h135l-80 -459h-133l41 235l-101 -159h-75l-45 161l-41 -237h-135z" />
<glyph unicode="&#xe000;" horiz-adv-x="1075" d="M0 0v1075h1075v-1075h-1075z" />
</font>
</defs>
</svg>
